<?xml version="1.0" encoding="UTF-8"?>
<svg width="750px" height="500px" viewBox="0 0 750 500" version="1.1" xmlns="http://www.w3.org/2000/svg" xmlns:xlink="http://www.w3.org/1999/xlink">
    <title>icon</title>
    <defs>
        <rect id="path-1" x="31" y="28" width="688" height="437" rx="20"></rect>
        <filter x="-4.4%" y="-6.9%" width="108.7%" height="113.7%" filterUnits="objectBoundingBox" id="filter-2">
            <feOffset dx="0" dy="0" in="SourceAlpha" result="shadowOffsetOuter1"></feOffset>
            <feGaussianBlur stdDeviation="10" in="shadowOffsetOuter1" result="shadowBlurOuter1"></feGaussianBlur>
            <feColorMatrix values="0 0 0 0 0.8   0 0 0 0 0.8   0 0 0 0 0.8  0 0 0 1 0" type="matrix" in="shadowBlurOuter1"></feColorMatrix>
        </filter>
    </defs>
    <g id="Page-1" stroke="none" stroke-width="1" fill="none" fill-rule="evenodd">
        <g id="Accorion" transform="translate(-146, -110)">
            <g id="icon" transform="translate(146, 110)">
                <rect id="Rectangle" x="0" y="0" width="750" height="500"></rect>
                <g id="Rectangle">
                    <use fill="black" fill-opacity="1" filter="url(#filter-2)" xlink:href="#path-1"></use>
                    <use fill="#FFFFFF" fill-rule="evenodd" xlink:href="#path-1"></use>
                </g>
                <g id="Group-4" transform="translate(366, 99)" fill="#3B8B96">
                    <path d="M10,0 L86,0 C91.5228475,-1.01453063e-15 96,4.4771525 96,10 L96,285 C96,290.522847 91.5228475,295 86,295 L10,295 C4.4771525,295 6.76353751e-16,290.522847 0,285 L0,10 C-6.76353751e-16,4.4771525 4.4771525,1.01453063e-15 10,0 Z" id="Rectangle" transform="translate(48, 147.5) scale(-1, 1) translate(-48, -147.5)"></path>
                    <path d="M124,0 L200,0 C205.522847,-1.01453063e-15 210,4.4771525 210,10 L210,285 C210,290.522847 205.522847,295 200,295 L124,295 C118.477153,295 114,290.522847 114,285 L114,10 C114,4.4771525 118.477153,1.01453063e-15 124,0 Z" id="Rectangle" transform="translate(162, 147.5) scale(-1, 1) translate(-162, -147.5)"></path>
                    <path d="M237,0 L313,0 C318.522847,-1.01453063e-15 323,4.4771525 323,10 L323,285 C323,290.522847 318.522847,295 313,295 L237,295 C231.477153,295 227,290.522847 227,285 L227,10 C227,4.4771525 231.477153,1.01453063e-15 237,0 Z" id="Rectangle" transform="translate(275, 147.5) scale(-1, 1) translate(-275, -147.5)"></path>
                </g>
                <g id="Group-4" transform="translate(51, 100)" fill="#E9AF58">
                    <path d="M10,0 L285,0 C290.522847,-1.01453063e-15 295,4.4771525 295,10 L295,285 C295,290.522847 290.522847,295 285,295 L10,295 C4.4771525,295 6.76353751e-16,290.522847 0,285 L0,10 C-6.76353751e-16,4.4771525 4.4771525,1.01453063e-15 10,0 Z" id="Rectangle" fill-opacity="0.25" transform="translate(147.5, 147.5) scale(-1, 1) translate(-147.5, -147.5)"></path>
                    <rect id="Rectangle" x="33" y="177" width="245" height="40" rx="8"></rect>
                    <rect id="Rectangle" x="109" y="227" width="93" height="40" rx="8"></rect>
                    <path d="M34.0152152,145.702444 L89.1335283,72.9800946 C90.8015279,70.7793587 93.9377577,70.3474906 96.1384935,72.0154903 C96.5025867,72.2914467 96.8271414,72.6160014 97.1030979,72.9800946 L140.504116,130.242804 C141.449369,131.489959 142.924005,132.222624 144.488901,132.222624 L213.403205,132.222624 C216.164629,132.222624 218.403205,129.984048 218.403205,127.222624 C218.403205,126.130062 218.045342,125.067571 217.384346,124.197643 L173.129907,65.9549114 C171.459256,63.7561877 168.322507,63.3281003 166.123784,64.9987515 C165.768089,65.2690182 165.450218,65.5857343 165.178659,65.9404431 L145.974783,91.0244009 C144.296141,93.2170301 141.157856,93.6336993 138.965227,91.9550575 C138.615356,91.6872016 138.302426,91.3742723 138.03457,91.0244009 L130.740429,81.4968485 C129.372707,79.7103406 129.3667,77.2303313 130.725751,75.4372182 L165.178983,29.9800946 C166.846982,27.7793587 169.983212,27.3474906 172.183948,29.0154903 C172.548041,29.2914467 172.872596,29.6160014 173.148552,29.9800946 L260.857775,145.702444 C262.525774,147.903179 262.093906,151.039409 259.89317,152.707409 C259.024089,153.36611 257.963489,153.722624 256.87299,153.722624 L38,153.722624 C35.2385763,153.722624 33,151.484048 33,148.722624 C33,147.632125 33.3565143,146.571524 34.0152152,145.702444 Z M82.0055552,132.722624 L105.867435,132.722624 C108.628858,132.722624 110.867435,130.484048 110.867435,127.722624 C110.867435,126.631372 110.510429,125.570082 109.850891,124.700692 L97.9199513,108.973544 C96.2509841,106.773542 93.1145647,106.343053 90.9145625,108.01202 C90.5517639,108.287246 90.228265,108.610745 89.9530385,108.973544 L78.0220988,124.700692 C76.3531316,126.900694 76.7836206,130.037113 78.9836227,131.70608 C79.8530135,132.365618 80.9143034,132.722624 82.0055552,132.722624 Z M71.9364949,132.222624 L115.936495,132.222624 L71.9364949,132.222624 Z" id="Shape" fill-rule="nonzero"></path>
                </g>
            </g>
        </g>
    </g>
</svg>