<?xml version="1.0" encoding="UTF-8"?>
<svg width="750px" height="500px" viewBox="0 0 750 500" version="1.1" xmlns="http://www.w3.org/2000/svg" xmlns:xlink="http://www.w3.org/1999/xlink">
    <title>icon</title>
    <defs>
        <rect id="path-1" x="31" y="28" width="688" height="437" rx="20"></rect>
        <filter x="-4.4%" y="-6.9%" width="108.7%" height="113.7%" filterUnits="objectBoundingBox" id="filter-2">
            <feOffset dx="0" dy="0" in="SourceAlpha" result="shadowOffsetOuter1"></feOffset>
            <feGaussianBlur stdDeviation="10" in="shadowOffsetOuter1" result="shadowBlurOuter1"></feGaussianBlur>
            <feColorMatrix values="0 0 0 0 0.8   0 0 0 0 0.8   0 0 0 0 0.8  0 0 0 1 0" type="matrix" in="shadowBlurOuter1"></feColorMatrix>
        </filter>
    </defs>
    <g id="Page-1" stroke="none" stroke-width="1" fill="none" fill-rule="evenodd">
        <g id="Animate" transform="translate(-146, -110)">
            <g id="icon" transform="translate(146, 110)">
                <rect id="Rectangle" x="0" y="0" width="750" height="500"></rect>
                <g id="Rectangle">
                    <use fill="black" fill-opacity="1" filter="url(#filter-2)" xlink:href="#path-1"></use>
                    <use fill="#FFFFFF" fill-rule="evenodd" xlink:href="#path-1"></use>
                </g>
                <path d="M65,48 L686,48 C691.522847,48 696,52.4771525 696,58 L696,435 C696,440.522847 691.522847,445 686,445 L65,445 C59.4771525,445 55,440.522847 55,435 L55,58 C55,52.4771525 59.4771525,48 65,48 Z" id="Rectangle" fill="#FAEBD5"></path>
                <g id="Group-24" transform="translate(200, 97)">
                    <g id="Group-23" transform="translate(139.0875, 159.9125) rotate(-5) translate(-139.0875, -159.9125)translate(10.7011, 31.5261)">
                        <path d="M231.484642,12.5609546 C234.999181,12.5609546 238.181,13.9855031 240.484183,16.2886864 C242.787366,18.5918697 244.211915,21.7736878 244.211915,25.2882271 L244.211915,231.484642 C244.211915,234.999181 242.787366,238.181 240.484183,240.484183 C238.181,242.787366 234.999181,244.211915 231.484642,244.211915 L25.2882271,244.211915 C21.7736878,244.211915 18.5918697,242.787366 16.2886864,240.484183 C13.9855031,238.181 12.5609546,234.999181 12.5609546,231.484642 L12.5609546,25.2882271 C12.5609546,21.7736878 13.9855031,18.5918697 16.2886864,16.2886864 C18.5918697,13.9855031 21.7736878,12.5609546 25.2882271,12.5609546 Z" id="Rectangle" stroke="#FAEBD5" stroke-width="10" fill="#E9AF58" transform="translate(128.3864, 128.3864) rotate(-10) translate(-128.3864, -128.3864)"></path>
                        <path d="M52.523888,163.746241 L87.202477,117.924682 C88.8689239,115.72277 92.0048483,115.28869 94.2067602,116.955137 C94.5729315,117.232262 94.89918,117.558511 95.1763052,117.924682 L123.238795,155.004249 C124.183917,156.253058 125.659574,156.98688 127.225709,156.98688 L170.585962,156.98688 C173.347386,156.98688 175.585962,154.748303 175.585962,151.98688 C175.585962,150.895526 175.228889,149.834142 174.569238,148.964709 L147.346382,113.084495 C145.677283,110.884593 142.540838,110.454291 140.340936,112.12339 C139.983166,112.394836 139.663597,112.713244 139.390852,113.070025 L128.711541,127.039717 C127.034451,129.233533 123.896461,129.652421 121.702645,127.975331 C121.350703,127.706284 121.036078,127.391659 120.767031,127.039717 L117.729642,123.066483 C116.364776,121.281092 116.35878,118.804453 117.714983,117.012473 L139.391203,88.3712209 C141.05765,86.1693091 144.193574,85.735229 146.395486,87.4016759 C146.761658,87.6788011 147.087906,88.0050496 147.365031,88.3712209 L204.410217,163.746241 C206.076664,165.948153 205.642584,169.084078 203.440672,170.750524 C202.572089,171.407884 201.512595,171.76361 200.423303,171.76361 L56.5108021,171.76361 C53.7493783,171.76361 51.5108021,169.525034 51.5108021,166.76361 C51.5108021,165.674318 51.8665287,164.614824 52.523888,163.746241 Z M85.9356948,157.725716 L95.6370839,157.725716 C98.3985076,157.725716 100.637084,155.48714 100.637084,152.725716 C100.637084,151.654044 100.292758,150.610728 99.6548698,149.749578 L94.8041753,143.201141 C93.1604998,140.982179 90.0292135,140.515817 87.8102516,142.159493 C87.4135105,142.453375 87.0624856,142.8044 86.7686034,143.201141 L81.9179089,149.749578 C80.2742334,151.96854 80.7405952,155.099827 82.9595571,156.743502 C83.8207066,157.381391 84.8640231,157.725716 85.9356948,157.725716 Z M76.0096587,156.617461 L105.56312,156.617461 L76.0096587,156.617461 Z" id="Shape" fill="#FAEBD5" fill-rule="nonzero" transform="translate(128.4672, 129.076) rotate(-10) translate(-128.4672, -129.076)"></path>
                    </g>
                    <g id="Group-23" transform="translate(53.4345, 3)">
                        <path d="M231.696239,12.5764883 C235.210778,12.5764883 238.392597,14.0010368 240.69578,16.3042201 C242.998963,18.6074034 244.423512,21.7892215 244.423512,25.3037608 L244.423512,231.696239 C244.423512,235.210778 242.998963,238.392597 240.69578,240.69578 C238.392597,242.998963 235.210778,244.423512 231.696239,244.423512 L25.3037608,244.423512 C21.7892215,244.423512 18.6074034,242.998963 16.3042201,240.69578 C14.0010368,238.392597 12.5764883,235.210778 12.5764883,231.696239 L12.5764883,25.3037608 C12.5764883,21.7892215 14.0010368,18.6074034 16.3042201,16.3042201 C18.6074034,14.0010368 21.7892215,12.5764883 25.3037608,12.5764883 Z" id="Rectangle" stroke="#FAEBD5" stroke-width="10" fill="#E9AF58" transform="translate(128.5, 128.5) rotate(-10) translate(-128.5, -128.5)"></path>
                        <path d="M52.564729,163.898198 L87.2828871,118.024356 C88.949334,115.822444 92.0852584,115.388364 94.2871703,117.054811 C94.6533416,117.331936 94.9795901,117.658185 95.2567153,118.024356 L123.348882,155.143135 C124.294004,156.391945 125.769661,157.125766 127.335796,157.125766 L170.74551,157.125766 C173.506934,157.125766 175.74551,154.88719 175.74551,152.125766 C175.74551,151.034412 175.388438,149.973028 174.728786,149.103595 L147.472956,113.179921 C145.803857,110.980018 142.667412,110.549717 140.46751,112.218816 C140.10974,112.490261 139.790171,112.80867 139.517426,113.16545 L128.821628,127.156709 C127.144538,129.350525 124.006548,129.769414 121.812732,128.092323 C121.46079,127.823277 121.146165,127.508651 120.877118,127.156709 L117.831485,123.172692 C116.46662,121.387301 116.460623,118.910662 117.816826,117.118682 L139.517777,88.4447527 C141.184224,86.2428409 144.320148,85.8087608 146.52206,87.4752077 C146.888232,87.7523329 147.21448,88.0785814 147.491605,88.4447527 L204.596145,163.898198 C206.262592,166.10011 205.828512,169.236035 203.6266,170.902482 C202.758017,171.559841 201.698523,171.915568 200.609231,171.915568 L56.551643,171.915568 C53.7902193,171.915568 51.551643,169.676991 51.551643,166.915568 C51.551643,165.826275 51.9073696,164.766781 52.564729,163.898198 Z M86.0026776,157.865256 L95.7302084,157.865256 C98.4916321,157.865256 100.730208,155.62668 100.730208,152.865256 C100.730208,151.793584 100.385883,150.750268 99.7479943,149.889118 L94.8842289,143.323035 C93.2405534,141.104073 90.1092671,140.637711 87.8903052,142.281387 C87.4935642,142.575269 87.1425393,142.926294 86.848657,143.323035 L81.9848916,149.889118 C80.3412161,152.10808 80.8075779,155.239367 83.0265398,156.883042 C83.8876894,157.520931 84.9310058,157.865256 86.0026776,157.865256 Z M76.0766414,156.756021 L105.656245,156.756021 L76.0766414,156.756021 Z" id="Shape" fill="#FAEBD5" fill-rule="nonzero" transform="translate(128.5806, 129.1887) rotate(-10) translate(-128.5806, -129.1887)"></path>
                    </g>
                    <g id="Group-23" transform="translate(129.4345, 0)">
                        <rect id="Rectangle" stroke="#FAEBD5" stroke-width="10" fill="#3B8B96" x="-5" y="-5" width="232" height="232" rx="7.72727251"></rect>
                        <path d="M35.0484186,146.001094 L69.7266219,100.294386 C71.3957159,98.0944802 74.5321601,97.664172 76.7320661,99.3332659 C77.0946951,99.6083967 77.4180556,99.9317572 77.6931864,100.294386 L105.77029,137.300685 C106.715634,138.546672 108.189551,139.278523 109.753572,139.278523 L153.12084,139.278523 C155.882264,139.278523 158.12084,137.039947 158.12084,134.278523 C158.12084,133.185109 157.76242,132.121838 157.100476,131.25156 L129.880533,95.4647117 C128.208788,93.2668198 125.071827,92.8402935 122.873935,94.5120387 C122.519703,94.7814726 122.203029,95.0969956 121.932308,95.450245 L111.239488,109.402705 C109.559753,111.594497 106.421261,112.009601 104.229469,110.329866 C103.881056,110.062851 103.569323,109.751117 103.302308,109.402705 L100.2676,105.442885 C98.8978624,103.655591 98.8918476,101.173204 100.252908,99.3792935 L121.932612,70.8049204 C123.601706,68.6050144 126.738151,68.1747062 128.938057,69.8438001 C129.300686,70.1189309 129.624046,70.4422914 129.899177,70.8049204 L186.951376,146.001094 C188.62047,148.201 188.190162,151.337444 185.990256,153.006538 C185.120825,153.666186 184.059444,154.023256 182.968094,154.023256 L39.0317008,154.023256 C36.2702771,154.023256 34.0317008,151.78468 34.0317008,149.023256 C34.0317008,147.931905 34.3887711,146.870525 35.0484186,146.001094 Z M68.4659711,140.01576 L78.1475671,140.01576 C80.9089909,140.01576 83.1475671,137.777183 83.1475671,135.01576 C83.1475671,133.942044 82.8019285,132.896848 82.1617923,132.034821 L77.3209943,125.516051 C75.6746673,123.299056 72.5428257,122.836438 70.3258303,124.482765 C69.9326576,124.774732 69.5845116,125.122878 69.2925439,125.516051 L64.4517459,132.034821 C62.8054189,134.251816 63.268037,137.383658 65.4850323,139.029985 C66.3470597,139.670121 67.3922553,140.01576 68.4659711,140.01576 Z M58.5251502,138.909905 L88.088388,138.909905 L58.5251502,138.909905 Z" id="Shape" fill="#FAEBD5" fill-rule="nonzero"></path>
                    </g>
                </g>
            </g>
        </g>
    </g>
</svg>