<?xml version="1.0" encoding="UTF-8"?>
<svg width="750px" height="552px" viewBox="0 0 750 552" version="1.1" xmlns="http://www.w3.org/2000/svg" xmlns:xlink="http://www.w3.org/1999/xlink">
    <title>icon</title>
    <defs>
        <rect id="path-1" x="31" y="54" width="688" height="437" rx="20"></rect>
        <filter x="-4.4%" y="-6.9%" width="108.7%" height="113.7%" filterUnits="objectBoundingBox" id="filter-2">
            <feOffset dx="0" dy="0" in="SourceAlpha" result="shadowOffsetOuter1"></feOffset>
            <feGaussianBlur stdDeviation="10" in="shadowOffsetOuter1" result="shadowBlurOuter1"></feGaussianBlur>
            <feColorMatrix values="0 0 0 0 0.8   0 0 0 0 0.8   0 0 0 0 0.8  0 0 0 1 0" type="matrix" in="shadowBlurOuter1"></feColorMatrix>
        </filter>
    </defs>
    <g id="Page-1" stroke="none" stroke-width="1" fill="none" fill-rule="evenodd">
        <g id="Compare-Premium" transform="translate(-146, -84)">
            <g id="icon" transform="translate(146, 84)">
                <rect id="Rectangle" x="0" y="26" width="750" height="500"></rect>
                <g id="Rectangle">
                    <use fill="black" fill-opacity="1" filter="url(#filter-2)" xlink:href="#path-1"></use>
                    <use fill="#FFFFFF" fill-rule="evenodd" xlink:href="#path-1"></use>
                </g>
                <path d="M60.8884892,74 L359.888489,74 C365.411337,74 369.888489,78.4771525 369.888489,84 L369.888489,461 C369.888489,466.522847 365.411337,471 359.888489,471 L60.8884892,471 C55.3656417,471 50.8884892,466.522847 50.8884892,461 L50.8884892,84 C50.8884892,78.4771525 55.3656417,74 60.8884892,74 Z" id="Rectangle" fill="#E9AF58"></path>
                <path d="M380,74 L699,74 L699,74 L699,471 L380,471 C374.477153,471 370,466.522847 370,461 L370,84 C370,78.4771525 374.477153,74 380,74 Z" id="Rectangle" fill="#FFFFFF" transform="translate(534.5, 272.5) scale(-1, 1) translate(-534.5, -272.5)"></path>
                <path d="M376,360 L181.002446,360 C178.241022,360 176.002446,357.761424 176.002446,355 C176.002446,353.917814 176.353552,352.864839 177.003033,351.999217 L278.546042,216.663711 C280.203328,214.454896 283.337422,214.007794 285.546237,215.665081 C285.924686,215.949033 286.260915,216.285263 286.544868,216.663711 L373.176136,332.125 L373.176136,332.125 L375.5,332.125 L376.268065,360 M236.775173,332.125 L328.315736,332.125 C331.077159,332.125 333.315736,329.886424 333.315736,327.125 C333.315736,326.042814 332.96463,324.989839 332.315149,324.124217 L286.544868,263.122044 C284.887581,260.91323 281.753487,260.466127 279.544672,262.123414 C279.166224,262.407366 278.829994,262.743596 278.546042,263.122044 L232.77576,324.124217 C231.118474,326.333032 231.565576,329.467127 233.774391,331.124413 C234.640012,331.773894 235.692988,332.125 236.775173,332.125 Z M226.772727,332.357292 L338.318182,332.357292 L226.772727,332.357292 Z" id="Shape" fill="#975D48" fill-rule="nonzero"></path>
                <polygon id="Path" fill="#975D48" fill-rule="nonzero" points="376.268065 232.260675 354.585227 261.04375 336.923864 237.814583 376 186.214844"></polygon>
                <path d="M373.403409,332.125 L514.433274,332.125 C517.194698,332.125 519.433274,329.886424 519.433274,327.125 C519.433274,326.040243 519.080499,324.984908 518.428172,324.118209 L416.902235,189.228308 C415.24163,187.021987 412.106867,186.579596 409.900546,188.240201 C409.527113,188.521268 409.194933,188.853308 408.913709,189.226622 L376.182892,232.675434 L376.182892,232.675434 L376.201052,185.849071 L408.908822,142.323341 C410.567736,140.115748 413.702159,139.670956 415.909752,141.32987 C416.287004,141.613359 416.622224,141.948827 416.905435,142.326288 L574.22424,351.999217 C575.881526,354.208032 575.434424,357.342127 573.225609,358.999413 C572.359988,359.648894 571.307012,360 570.224827,360 L375.574929,360 L375.574929,360 L373.403409,332.125 Z M226.772727,332.821875 L338.545455,332.125 L226.772727,332.821875 Z" id="Shape" fill="#3B8B96" fill-rule="nonzero"></path>
            </g>
        </g>
    </g>
</svg>