<?xml version="1.0" encoding="UTF-8"?>
<svg width="750px" height="500px" viewBox="0 0 750 500" version="1.1" xmlns="http://www.w3.org/2000/svg" xmlns:xlink="http://www.w3.org/1999/xlink">
    <title>icon</title>
    <defs>
        <rect id="path-1" x="31" y="28" width="688" height="437" rx="20"></rect>
        <filter x="-4.4%" y="-6.9%" width="108.7%" height="113.7%" filterUnits="objectBoundingBox" id="filter-2">
            <feOffset dx="0" dy="0" in="SourceAlpha" result="shadowOffsetOuter1"></feOffset>
            <feGaussianBlur stdDeviation="10" in="shadowOffsetOuter1" result="shadowBlurOuter1"></feGaussianBlur>
            <feColorMatrix values="0 0 0 0 0.8   0 0 0 0 0.8   0 0 0 0 0.8  0 0 0 1 0" type="matrix" in="shadowBlurOuter1"></feColorMatrix>
        </filter>
    </defs>
    <g id="Page-1" stroke="none" stroke-width="1" fill="none" fill-rule="evenodd">
        <g id="card-grid" transform="translate(-146, -110)">
            <g id="icon" transform="translate(146, 110)">
                <rect id="Rectangle" x="0" y="0" width="750" height="500"></rect>
                <g id="Rectangle">
                    <use fill="black" fill-opacity="1" filter="url(#filter-2)" xlink:href="#path-1"></use>
                    <use fill="#FFFFFF" fill-rule="evenodd" xlink:href="#path-1"></use>
                </g>
                <g id="Group-12" transform="translate(51, 113)">
                    <path d="M10,0 L191.666667,1.77635684e-15 C197.189514,7.61826213e-16 201.666667,4.4771525 201.666667,10 L201.666667,257 C201.666667,262.522847 197.189514,267 191.666667,267 L10,267 C4.4771525,267 -1.10000309e-15,262.522847 -1.77635684e-15,257 L-1.77635684e-15,10 C-2.45271059e-15,4.4771525 4.4771525,2.79088747e-15 10,1.77635684e-15 Z" id="Rectangle" fill="#3B8B96"></path>
                    <path d="M232,0 L413.666667,1.77635684e-15 C419.189514,7.61826213e-16 423.666667,4.4771525 423.666667,10 L423.666667,257 C423.666667,262.522847 419.189514,267 413.666667,267 L232,267 C226.477153,267 222,262.522847 222,257 L222,10 C222,4.4771525 226.477153,2.79088747e-15 232,1.77635684e-15 Z" id="Rectangle" fill="#DE6B5A"></path>
                    <path d="M248,181 L398,181 C403.522847,181 408,185.477153 408,191 L408,244 C408,249.522847 403.522847,254 398,254 L248,254 C242.477153,254 238,249.522847 238,244 L238,191 C238,185.477153 242.477153,181 248,181 Z" id="Rectangle" fill="#F9EBD5"></path>
                    <path d="M454,0 L635.666667,1.77635684e-15 C641.189514,7.61826213e-16 645.666667,4.4771525 645.666667,10 L645.666667,257 C645.666667,262.522847 641.189514,267 635.666667,267 L454,267 C448.477153,267 444,262.522847 444,257 L444,10 C444,4.4771525 448.477153,2.79088747e-15 454,1.77635684e-15 Z" id="Rectangle" fill="#3B8B96"></path>
                    <g id="Group-18" transform="translate(257.8425, 51.2158)" fill="#F9EBD5" fill-rule="nonzero">
                        <path d="M1.00936848,64.7717626 L29.2592629,27.3487721 C30.9229936,25.1448072 34.0583804,24.7068608 36.2623453,26.3705914 C36.6321541,26.649753 36.9613644,26.9789633 37.240526,27.3487721 L60.46626,58.116194 C61.4111478,59.3678988 62.8885873,60.1037432 64.4568915,60.1037432 L99.7735961,60.1037432 C102.53502,60.1037432 104.773596,57.8651669 104.773596,55.1037432 C104.773596,54.0145005 104.417902,52.955052 103.760598,52.0864895 L81.8923371,23.1897528 C80.225954,20.9877927 77.0900421,20.5536219 74.8880821,22.2200051 C74.5266794,22.4935047 74.2041411,22.8148727 73.9293294,23.1752787 L65.9426288,33.6495605 C64.2682518,35.8454482 61.1307823,36.2682161 58.9348947,34.593839 C58.5793287,34.3227179 58.2617373,34.0051265 57.9906162,33.6495605 L56.2898839,31.4191089 C54.9300053,29.6356751 54.9240268,27.1649241 56.2752587,25.3749302 L73.9297288,1.98783153 C75.5934595,-0.216133403 78.7288462,-0.654079811 80.9328112,1.00965085 C81.30262,1.2888124 81.6318303,1.61802271 81.9109918,1.98783153 L129.305372,64.7717626 C130.969102,66.9757276 130.531156,70.1111143 128.327191,71.774845 C127.459482,72.4298617 126.401923,72.7842135 125.31474,72.7842135 L5,72.7842135 C2.23857625,72.7842135 -3.01980663e-14,70.5456372 -3.01980663e-14,67.7842135 C-3.01980663e-14,66.697031 0.354351743,65.6394716 1.00936848,64.7717626 Z M30.1678562,60.7377667 L35.6420414,60.7377667 C38.4034652,60.7377667 40.6420414,58.4991905 40.6420414,55.7377667 C40.6420414,54.6681902 40.2990594,53.6268007 39.6634718,52.7665552 L36.9263792,49.0619965 C35.2854244,46.8410219 32.1547119,46.3708229 29.9337373,48.0117777 C29.5333325,48.3076145 29.1793552,48.6615918 28.8835184,49.0619965 L26.1464258,52.7665552 C24.505471,54.9875299 24.97567,58.1182423 27.1966447,59.7591971 C28.0568901,60.3947847 29.0982797,60.7377667 30.1678562,60.7377667 Z M20.2569404,59.7867314 L45.5529571,59.7867314 L20.2569404,59.7867314 Z" id="Shape"></path>
                    </g>
                </g>
            </g>
        </g>
    </g>
</svg>