<?xml version="1.0" encoding="UTF-8"?>
<svg width="750px" height="500px" viewBox="0 0 750 500" version="1.1" xmlns="http://www.w3.org/2000/svg" xmlns:xlink="http://www.w3.org/1999/xlink">
    <title>icon</title>
    <defs>
        <rect id="path-1" x="31" y="28" width="688" height="437" rx="20"></rect>
        <filter x="-4.4%" y="-6.9%" width="108.7%" height="113.7%" filterUnits="objectBoundingBox" id="filter-2">
            <feOffset dx="0" dy="0" in="SourceAlpha" result="shadowOffsetOuter1"></feOffset>
            <feGaussianBlur stdDeviation="10" in="shadowOffsetOuter1" result="shadowBlurOuter1"></feGaussianBlur>
            <feColorMatrix values="0 0 0 0 0.8   0 0 0 0 0.8   0 0 0 0 0.8  0 0 0 1 0" type="matrix" in="shadowBlurOuter1"></feColorMatrix>
        </filter>
    </defs>
    <g id="Page-1" stroke="none" stroke-width="1" fill="none" fill-rule="evenodd">
        <g id="Icon-Banner" transform="translate(-146, -110)">
            <g id="icon" transform="translate(146, 110)">
                <rect id="Rectangle-Copy-4" x="0" y="0" width="750" height="500"></rect>
                <g id="Rectangle">
                    <use fill="black" fill-opacity="1" filter="url(#filter-2)" xlink:href="#path-1"></use>
                    <use fill="#FFFFFF" fill-rule="evenodd" xlink:href="#path-1"></use>
                </g>
                <path d="M65,48 L686,48 C691.522847,48 696,52.4771525 696,58 L696,435 C696,440.522847 691.522847,445 686,445 L65,445 C59.4771525,445 55,440.522847 55,435 L55,58 C55,52.4771525 59.4771525,48 65,48 Z" id="Rectangle" fill="#FFFFFF"></path>
                <g id="grid" transform="translate(51, 47.9323)">
                    <rect id="Rectangle" fill="#FAEBD5" x="0" y="0" width="648" height="398" rx="7.72727251"></rect>
                    <g id="Group-15" transform="translate(25.6383, 94.4887)">
                        <ellipse id="Oval" fill="#DE6B5A" cx="95" cy="95.0579452" rx="95" ry="95.0579452"></ellipse>
                        <ellipse id="Oval" fill="#E9AF58" cx="298.361702" cy="95.0579452" rx="95" ry="95.0579452"></ellipse>
                        <path d="M241.015394,119.702854 L265.314777,87.646525 C266.982907,85.4458879 270.119163,85.0142056 272.3198,86.6823356 C272.683718,86.9581938 273.008131,87.2826063 273.283989,87.646525 L293.571544,114.410354 C294.516808,115.657369 295.991359,116.389937 297.55615,116.389937 L327.947161,116.389937 C330.708585,116.389937 332.947161,114.151361 332.947161,111.389937 C332.947161,110.297274 332.589232,109.23469 331.928123,108.36472 L313.356253,83.9255141 C311.685471,81.7268894 308.548698,81.298988 306.350073,82.9697695 C305.994553,83.239937 305.676824,83.556511 305.405365,83.911046 L298.651656,92.731604 C297.137965,94.7085324 294.308259,95.0840605 292.331331,93.5703696 C292.01602,93.3289434 291.733991,93.0469143 291.492565,92.731604 L290.228782,91.0810631 C288.86082,89.2944616 288.854812,86.8141691 290.214102,85.020961 L305.405686,64.9798583 C307.073816,62.7792213 310.210072,62.347539 312.410709,64.0156689 C312.774628,64.2915271 313.09904,64.6159396 313.374898,64.9798583 L354.8561,119.702854 C356.52423,121.903491 356.092547,125.039747 353.89191,126.707877 C353.022787,127.36669 351.962094,127.723271 350.871494,127.723271 L245,127.723271 C242.238576,127.723271 240,125.484694 240,122.723271 C240,121.63267 240.35658,120.571977 241.015394,119.702854 Z M267.386276,116.723271 L271.485218,116.723271 C274.060482,116.723271 276.148145,114.635607 276.148145,112.060343 C276.148145,111.034537 275.80988,110.037357 275.185747,109.223271 L273.403779,106.898964 C271.723641,104.707481 268.585073,104.292953 266.393589,105.97309 C266.045713,106.239795 265.73442,106.551088 265.467715,106.898964 L263.685747,109.223271 C262.118875,111.267016 262.505458,114.194 264.549204,115.760872 C265.36329,116.385005 266.36047,116.723271 267.386276,116.723271 Z M257.935747,116.223271 L280.935747,116.223271 L257.935747,116.223271 Z" id="Shape" fill="#FFFFFF" fill-rule="nonzero"></path>
                        <ellipse id="Oval" fill="#3B8B96" cx="501.361702" cy="95.0579452" rx="95" ry="95.0579452"></ellipse>
                    </g>
                </g>
            </g>
        </g>
    </g>
</svg>