<?xml version="1.0" encoding="UTF-8"?>
<svg width="750px" height="500px" viewBox="0 0 750 500" version="1.1" xmlns="http://www.w3.org/2000/svg" xmlns:xlink="http://www.w3.org/1999/xlink">
    <title>icon</title>
    <defs>
        <rect id="path-1" x="31" y="28" width="688" height="437" rx="20"></rect>
        <filter x="-4.4%" y="-6.9%" width="108.7%" height="113.7%" filterUnits="objectBoundingBox" id="filter-2">
            <feOffset dx="0" dy="0" in="SourceAlpha" result="shadowOffsetOuter1"></feOffset>
            <feGaussianBlur stdDeviation="10" in="shadowOffsetOuter1" result="shadowBlurOuter1"></feGaussianBlur>
            <feColorMatrix values="0 0 0 0 0.8   0 0 0 0 0.8   0 0 0 0 0.8  0 0 0 1 0" type="matrix" in="shadowBlurOuter1"></feColorMatrix>
        </filter>
        <rect id="path-3" x="0" y="0" width="195" height="198"></rect>
    </defs>
    <g id="Page-1" stroke="none" stroke-width="1" fill="none" fill-rule="evenodd">
        <g id="Count-Down" transform="translate(-146, -110)">
            <g id="icon" transform="translate(146, 110)">
                <rect id="Rectangle" x="0" y="0" width="750" height="500"></rect>
                <g id="Rectangle">
                    <use fill="black" fill-opacity="1" filter="url(#filter-2)" xlink:href="#path-1"></use>
                    <use fill="#FFFFFF" fill-rule="evenodd" xlink:href="#path-1"></use>
                </g>
                <path d="M61,48 L689,48 C694.522847,48 699,52.4771525 699,58 L699,435 C699,440.522847 694.522847,445 689,445 L61,445 C55.4771525,445 51,440.522847 51,435 L51,58 C51,52.4771525 55.4771525,48 61,48 Z" id="Rectangle" fill="#FAEBD5" transform="translate(375, 246.5) scale(-1, 1) translate(-375, -246.5)"></path>
                <g id="1,000" transform="translate(111, 148)">
                    <g id="Group-7" transform="translate(352, 0)">
                        <mask id="mask-4" fill="white">
                            <use xlink:href="#path-3"></use>
                        </mask>
                        <g id="Rectangle"></g>
                        <path d="M126.349315,198.251953 L126.349315,75.2134078 L96.1643836,75.2134078 C95.0958904,82.3344507 92.869863,88.298324 89.4863014,93.1050279 C86.1027397,97.9117318 81.9623288,101.783799 77.0650685,104.721229 C72.1678082,107.658659 66.6472603,109.705959 60.5034247,110.863128 C54.359589,112.020298 47.9931507,112.50987 41.4041096,112.331844 L41.4041096,140.905028 L88.4178082,140.905028 L88.4178082,197.712891 L126.349315,198.251953 Z" id="Path" fill="#59B2AC" fill-rule="nonzero" mask="url(#mask-4)"></path>
                        <path d="M126.331813,8 C124.555112,12.3470819 122.122114,16.7956393 119.270548,20.1921788 C115.085616,25.1769088 109.075342,27.6692737 101.239726,27.6692737 C93.5821918,27.6692737 87.7054795,25.1769088 83.609589,20.1921788 C80.7927207,16.7640284 78.1431934,12.3964682 76.3791762,8 M38.3321918,7.77486034 C41.9828767,20.3256983 46.9246575,30.3396648 53.1575342,37.8167598 C59.390411,45.2938547 66.6472603,50.6346369 74.9280822,53.8391061 C83.2089041,57.0435754 91.9794521,58.6458101 101.239726,58.6458101 C110.678082,58.6458101 119.537671,57.0435754 127.818493,53.8391061 C136.099315,50.6346369 143.400685,45.2938547 149.722603,37.8167598 C156.044521,30.3396648 161.030822,20.3256983 164.681507,7.77486034" id="Shape" fill="#59B2AC" fill-rule="nonzero" mask="url(#mask-4)"></path>
                    </g>
                    <path d="M283.124514,99.829436 C283.124514,96.610729 283.169261,92.721458 283.258755,88.1616231 C283.348249,83.6017882 283.661479,78.9078404 284.198444,74.0797799 C284.735409,69.2517194 285.63035,64.4683631 286.883268,59.7297111 C288.136187,54.9910591 289.881323,50.7441541 292.118677,46.9889959 C294.356031,43.2338377 297.219844,40.1939477 300.710117,37.869326 C304.200389,35.5447043 308.540856,34.3823934 313.731518,34.3823934 C318.922179,34.3823934 323.307393,35.5447043 326.88716,37.869326 C330.466926,40.1939477 333.420233,43.2338377 335.747082,46.9889959 C338.07393,50.7441541 339.819066,54.9910591 340.98249,59.7297111 C342.145914,64.4683631 343.040856,69.2517194 343.667315,74.0797799 C344.293774,78.9078404 344.651751,83.6017882 344.741245,88.1616231 C344.830739,92.721458 344.875486,96.610729 344.875486,99.829436 C344.875486,105.193948 344.696498,111.676066 344.338521,119.275791 C343.980545,126.875516 342.861868,134.207015 340.98249,141.270289 C339.103113,148.333563 336.060311,154.368638 331.854086,159.375516 C327.64786,164.382393 321.607004,166.885832 313.731518,166.885832 C306.035019,166.885832 300.128405,164.382393 296.011673,159.375516 C291.894942,154.368638 288.896887,148.333563 287.01751,141.270289 C285.138132,134.207015 284.019455,126.875516 283.661479,119.275791 C283.303502,111.676066 283.124514,105.193948 283.124514,99.829436 Z M245,99.829436 C245,118.605227 246.83463,134.296424 250.503891,146.903026 C254.173152,159.509629 259.140078,169.568088 265.404669,177.078404 C271.669261,184.588721 278.963035,189.953232 287.285992,193.171939 C295.608949,196.390646 304.424125,198 313.731518,198 C323.217899,198 332.122568,196.390646 340.445525,193.171939 C348.768482,189.953232 356.107004,184.588721 362.461089,177.078404 C368.815175,169.568088 373.826848,159.509629 377.496109,146.903026 C381.16537,134.296424 383,118.605227 383,99.829436 C383,81.5900963 381.16537,66.2565337 377.496109,53.8287483 C373.826848,41.4009629 368.815175,31.431912 362.461089,23.9215956 C356.107004,16.4112792 348.768482,11.0467675 340.445525,7.82806052 C332.122568,4.60935351 323.217899,3 313.731518,3 C304.424125,3 295.608949,4.60935351 287.285992,7.82806052 C278.963035,11.0467675 271.669261,16.4112792 265.404669,23.9215956 C259.140078,31.431912 254.173152,41.4009629 250.503891,53.8287483 C246.83463,66.2565337 245,81.5900963 245,99.829436 Z" id="Shape" fill="#975D48" fill-rule="nonzero"></path>
                    <path d="M132,148 L146,134.28866 L109,98.0515464 L109,53 L89,53 L89,105.886598 L132,148 Z M99,201 C85.305,201 72.435,198.40125 60.39,193.20375 C48.345,188.00625 37.8675,180.9525 28.9575,172.0425 C20.0475,163.1325 12.99375,152.655 7.79625,140.61 C2.59875,128.565 0,115.695 0,102 C0,88.305 2.59875,75.435 7.79625,63.39 C12.99375,51.345 20.0475,40.8675 28.9575,31.9575 C37.8675,23.0475 48.345,15.99375 60.39,10.79625 C72.435,5.59875 85.305,3 99,3 C112.695,3 125.565,5.59875 137.61,10.79625 C149.655,15.99375 160.1325,23.0475 169.0425,31.9575 C177.9525,40.8675 185.00625,51.345 190.20375,63.39 C195.40125,75.435 198,88.305 198,102 C198,115.695 195.40125,128.565 190.20375,140.61 C185.00625,152.655 177.9525,163.1325 169.0425,172.0425 C160.1325,180.9525 149.655,188.00625 137.61,193.20375 C125.565,198.40125 112.695,201 99,201 Z M99,181 C120.889583,181 139.528646,173.305729 154.917187,157.917187 C170.305729,142.528646 178,123.889583 178,102 C178,80.1104167 170.305729,61.4713542 154.917187,46.0828125 C139.528646,30.6942708 120.889583,23 99,23 C77.1104167,23 58.4713542,30.6942708 43.0828125,46.0828125 C27.6942708,61.4713542 20,80.1104167 20,102 C20,123.889583 27.6942708,142.528646 43.0828125,157.917187 C58.4713542,173.305729 77.1104167,181 99,181 Z" id="Shape" fill="#59B2AC" fill-rule="nonzero"></path>
                </g>
            </g>
        </g>
    </g>
</svg>