<?xml version="1.0" encoding="UTF-8"?>
<svg width="750px" height="500px" viewBox="0 0 750 500" version="1.1" xmlns="http://www.w3.org/2000/svg" xmlns:xlink="http://www.w3.org/1999/xlink">
    <title>icon</title>
    <defs>
        <rect id="path-1" x="31" y="28" width="688" height="437" rx="20"></rect>
        <filter x="-4.4%" y="-6.9%" width="108.7%" height="113.7%" filterUnits="objectBoundingBox" id="filter-2">
            <feOffset dx="0" dy="0" in="SourceAlpha" result="shadowOffsetOuter1"></feOffset>
            <feGaussianBlur stdDeviation="10" in="shadowOffsetOuter1" result="shadowBlurOuter1"></feGaussianBlur>
            <feColorMatrix values="0 0 0 0 0.8   0 0 0 0 0.8   0 0 0 0 0.8  0 0 0 1 0" type="matrix" in="shadowBlurOuter1"></feColorMatrix>
        </filter>
    </defs>
    <g id="Page-1" stroke="none" stroke-width="1" fill="none" fill-rule="evenodd">
        <g id="Action-Button" transform="translate(-146, -110)">
            <g id="icon" transform="translate(146, 110)">
                <rect id="Rectangle-Copy-4" x="0" y="0" width="750" height="500"></rect>
                <g id="Rectangle">
                    <use fill="black" fill-opacity="1" filter="url(#filter-2)" xlink:href="#path-1"></use>
                    <use fill="#FFFFFF" fill-rule="evenodd" xlink:href="#path-1"></use>
                </g>
                <path d="M65,48 L686,48 C691.522847,48 696,52.4771525 696,58 L696,435 C696,440.522847 691.522847,445 686,445 L65,445 C59.4771525,445 55,440.522847 55,435 L55,58 C55,52.4771525 59.4771525,48 65,48 Z" id="Rectangle" fill="#FFFFFF"></path>
                <g id="grid" transform="translate(51, 47.9323)">
                    <rect id="Rectangle" fill="#FAEBD5" x="0" y="0" width="648" height="398" rx="7.72727251"></rect>
                    <g id="Group-15" transform="translate(229, 74.4887)">
                        <ellipse id="Oval" fill="#E9AF58" cx="95" cy="95.0579452" rx="95" ry="95.0579452"></ellipse>
                        <rect id="Rectangle" fill="#E9AF58" x="25" y="209" width="140" height="40" rx="8"></rect>
                        <path d="M38.0153941,119.702854 L62.3147773,87.646525 C63.9829073,85.4458879 67.1191626,85.0142056 69.3197997,86.6823356 C69.6837184,86.9581938 70.0081309,87.2826063 70.2839891,87.646525 L90.5715438,114.410354 C91.5168079,115.657369 92.9913587,116.389937 94.5561497,116.389937 L124.947161,116.389937 C127.708585,116.389937 129.947161,114.151361 129.947161,111.389937 C129.947161,110.297274 129.589232,109.23469 128.928123,108.36472 L110.356253,83.9255141 C108.685471,81.7268894 105.548698,81.298988 103.350073,82.9697695 C102.994553,83.239937 102.676824,83.556511 102.405365,83.911046 L95.6516559,92.731604 C94.137965,94.7085324 91.308259,95.0840605 89.3313307,93.5703696 C89.0160204,93.3289434 88.7339912,93.0469143 88.492565,92.731604 L87.2287819,91.0810631 C85.8608201,89.2944616 85.8548118,86.8141691 87.2141019,85.020961 L102.405686,64.9798583 C104.073816,62.7792213 107.210072,62.347539 109.410709,64.0156689 C109.774628,64.2915271 110.09904,64.6159396 110.374898,64.9798583 L151.8561,119.702854 C153.52423,121.903491 153.092547,125.039747 150.89191,126.707877 C150.022787,127.36669 148.962094,127.723271 147.871494,127.723271 L42,127.723271 C39.2385763,127.723271 37,125.484694 37,122.723271 C37,121.63267 37.3565805,120.571977 38.0153941,119.702854 Z M64.3862759,116.723271 L68.4852177,116.723271 C71.0604816,116.723271 73.1481454,114.635607 73.1481454,112.060343 C73.1481454,111.034537 72.8098797,110.037357 72.1857468,109.223271 L70.4037786,106.898964 C68.7236413,104.707481 65.5850726,104.292953 63.3935891,105.97309 C63.0457132,106.239795 62.7344199,106.551088 62.467715,106.898964 L60.6857468,109.223271 C59.1188751,111.267016 59.5054578,114.194 61.5492036,115.760872 C62.3632899,116.385005 63.3604697,116.723271 64.3862759,116.723271 Z M54.9357468,116.223271 L77.9357468,116.223271 L54.9357468,116.223271 Z" id="Shape" fill="#FFFFFF" fill-rule="nonzero"></path>
                    </g>
                </g>
            </g>
        </g>
    </g>
</svg>