<?xml version="1.0" encoding="UTF-8"?>
<svg width="726px" height="477px" viewBox="0 0 726 477" version="1.1" xmlns="http://www.w3.org/2000/svg" xmlns:xlink="http://www.w3.org/1999/xlink">
    <title>icon</title>
    <defs>
        <path d="M10,1 L636,1 C641.522847,1 646,5.4771525 646,11 L646,388 C646,393.522847 641.522847,398 636,398 L10,398 C4.4771525,398 6.76353751e-16,393.522847 0,388 L0,11 C-6.76353751e-16,5.4771525 4.4771525,1 10,1 Z" id="path-1"></path>
        <filter x="-7.7%" y="-12.6%" width="115.5%" height="125.2%" filterUnits="objectBoundingBox" id="filter-2">
            <feMorphology radius="20" operator="dilate" in="SourceAlpha" result="shadowSpreadOuter1"></feMorphology>
            <feOffset dx="0" dy="0" in="shadowSpreadOuter1" result="shadowOffsetOuter1"></feOffset>
            <feGaussianBlur stdDeviation="10" in="shadowOffsetOuter1" result="shadowBlurOuter1"></feGaussianBlur>
            <feComposite in="shadowBlurOuter1" in2="SourceAlpha" operator="out" result="shadowBlurOuter1"></feComposite>
            <feColorMatrix values="0 0 0 0 0.8   0 0 0 0 0.8   0 0 0 0 0.8  0 0 0 1 0" type="matrix" in="shadowBlurOuter1"></feColorMatrix>
        </filter>
    </defs>
    <g id="Page-1" stroke="none" stroke-width="1" fill="none" fill-rule="evenodd">
        <g id="Feature-Hero" transform="translate(-157, -118)">
            <g id="icon" transform="translate(197, 157)">
                <g id="text">
                    <use fill="black" fill-opacity="1" filter="url(#filter-2)" xlink:href="#path-1"></use>
                    <path stroke="#FFFFFF" stroke-width="20" d="M636,-9 C641.522847,-9 646.522847,-6.76142375 650.142136,-3.14213562 C653.761424,0.477152502 656,5.4771525 656,11 L656,388 C656,393.522847 653.761424,398.522847 650.142136,402.142136 C646.522847,405.761424 641.522847,408 636,408 L10,408 C4.4771525,408 -0.522847498,405.761424 -4.14213562,402.142136 C-7.76142375,398.522847 -10,393.522847 -10,388 L-10,11 C-10,5.4771525 -7.76142375,0.477152502 -4.14213562,-3.14213562 C-0.522847498,-6.76142375 4.4771525,-9 10,-9 Z" fill="#FFFFFF" fill-rule="evenodd"></path>
                </g>
                <path d="M0,296.921662 L0,10 C-6.76353751e-16,4.4771525 4.4771525,1.01453063e-15 10,0 L635.532763,0 C641.055611,-1.01453063e-15 645.532763,4.4771525 645.532763,10 L645.532763,297 L645.532763,297 C632.149331,292.689041 618.722674,290.532744 605.252791,290.531109 C585.047967,290.528657 585.014873,296.993877 564.841168,296.990208 C544.667462,296.986539 544.667955,290.518869 524.49537,290.516421 C504.322784,290.513973 504.322784,296.982864 484.149572,296.980416 C463.97636,296.977967 463.97636,290.509077 443.803775,290.506629 C423.631189,290.504181 423.631189,296.973071 403.457977,296.970623 C383.284765,296.968175 383.284765,290.499285 363.112179,290.496837 C342.939594,290.494389 342.939594,296.963279 322.766382,296.960831 C302.593169,296.958383 302.593169,290.489492 282.420584,290.487044 C262.247998,290.484596 262.247998,296.953487 242.074786,296.951039 C221.901574,296.948591 221.901574,290.4797 201.728988,290.477252 C181.556403,290.474804 181.556403,296.943695 161.383191,296.941247 C141.209979,296.938799 141.209979,290.469908 121.037393,290.46746 C100.864808,290.465012 100.864808,296.933902 80.6915954,296.931454 C60.5183831,296.929006 60.5183831,290.460116 40.3457977,290.457668 C26.8974074,290.456036 13.4488082,292.6107 0,296.921662 Z" id="Path" fill="#FAEBD5" fill-rule="nonzero"></path>
                <rect id="Rectangle" fill="#3B8B96" x="56" y="229" width="165" height="150" rx="8"></rect>
                <rect id="Rectangle" fill="#3B8B96" x="241" y="229" width="165" height="150" rx="8"></rect>
                <g id="Group-27" transform="translate(269, 261)" fill="#FFFFFF">
                    <path d="M4.1443876,49.7311287 L25.1187839,22.2967818 C26.7959683,20.1030377 29.933976,19.6842833 32.1277202,21.3614677 C32.4795368,21.6304423 32.7940597,21.9449652 33.0630343,22.2967818 L50.908173,45.6380841 C51.8541677,46.8754378 53.322752,47.6012731 54.8802982,47.6012731 L81.1408104,47.6012731 C83.9022342,47.6012731 86.1408104,45.3626968 86.1408104,42.6012731 C86.1408104,41.501551 85.7782484,40.4325044 85.1092637,39.5596652 L69.3171353,18.9553243 C67.6373017,16.7636081 64.4987904,16.3486452 62.3070742,18.0284788 C61.9636387,18.2917039 61.6558252,18.5983966 61.3913492,18.9408698 L55.6477273,26.3783564 C54.2664372,28.1670059 51.6966935,28.4972359 49.908044,27.1159458 C49.6317218,26.9025552 49.3838452,26.6546785 49.1704545,26.3783564 L48.2800495,25.22536 C46.8953464,23.4322909 46.8892768,20.932258 48.2652571,19.1324865 L61.3915112,1.96344851 C63.0686956,-0.230295661 66.2067033,-0.64905006 68.4004474,1.02813438 C68.7522641,1.29710895 69.066787,1.61163187 69.3357616,1.96344851 L105.855612,49.7311287 C107.532797,51.9248728 107.114042,55.0628805 104.920298,56.7400649 C104.048295,57.4067384 102.981141,57.7679397 101.883487,57.7679397 L8.11651279,57.7679397 C5.35508904,57.7679397 3.11651279,55.5293635 3.11651279,52.7679397 C3.11651279,51.6702859 3.47771415,50.6031323 4.1443876,49.7311287 Z M26.75,48.7679397 L30.25,48.7679397 C32.6662458,48.7679397 34.625,46.8091855 34.625,44.3929397 C34.625,43.44632 34.3179718,42.5252355 33.75,41.7679397 L32.5,40.1012731 C30.8431458,37.8921341 27.709139,37.4444188 25.5,39.1012731 C25.1209717,39.3855443 24.7842712,39.7222447 24.5,40.1012731 L23.25,41.7679397 C21.8002525,43.7009364 22.1920034,46.4431923 24.125,47.8929397 C24.8822957,48.4609115 25.8033803,48.7679397 26.75,48.7679397 Z M18,48.2679397 L39,48.2679397 L18,48.2679397 Z" id="Shape" fill-rule="nonzero"></path>
                    <g id="stars" transform="translate(0, 65.7679)">
                        <path d="M8.60397662,15.7339329 L7.06107374,16.545085 C6.26001408,16.966227 5.26922388,16.6582428 4.8480819,15.8571832 C4.68038095,15.538197 4.62251151,15.1728238 4.68343245,14.8176275 L4.97810068,13.0995799 C5.14501449,12.1263976 4.82236904,11.133397 4.11531078,10.4441856 L2.86707613,9.22745751 C2.21900525,8.59574454 2.20574455,7.55827473 2.83745753,6.91020386 C3.08900895,6.65213863 3.41861692,6.48419499 3.77525429,6.43237254 L5.50027215,6.18171277 C6.47740263,6.0397274 7.32209939,5.42601928 7.75908543,4.54058886 L8.53053687,2.97745751 C8.9310667,2.16589544 9.91366133,1.83268796 10.7252234,2.23321779 C11.0483917,2.39271087 11.3099701,2.65428924 11.4694631,2.97745751 L12.2409146,4.54058886 C12.6779006,5.42601928 13.5225974,6.0397274 14.4997279,6.18171277 L16.2247457,6.43237254 C17.1203576,6.56251257 17.7408952,7.39404883 17.6107552,8.28966076 C17.5589327,8.64629812 17.3909891,8.97590609 17.1329239,9.22745751 L15.8846892,10.4441856 C15.177631,11.133397 14.8549855,12.1263976 15.0218993,13.0995799 L15.3165676,14.8176275 C15.4695563,15.7096205 14.870475,16.5567456 13.978482,16.7097344 C13.6232857,16.7706554 13.2579124,16.7127859 12.9389263,16.545085 L11.3960234,15.7339329 C10.5220513,15.2744586 9.47794869,15.2744586 8.60397662,15.7339329 Z" id="Star"></path>
                        <path d="M30.6039766,15.7339329 L29.0610737,16.545085 C28.2600141,16.966227 27.2692239,16.6582428 26.8480819,15.8571832 C26.6803809,15.538197 26.6225115,15.1728238 26.6834324,14.8176275 L26.9781007,13.0995799 C27.1450145,12.1263976 26.822369,11.133397 26.1153108,10.4441856 L24.8670761,9.22745751 C24.2190052,8.59574454 24.2057446,7.55827473 24.8374575,6.91020386 C25.089009,6.65213863 25.4186169,6.48419499 25.7752543,6.43237254 L27.5002721,6.18171277 C28.4774026,6.0397274 29.3220994,5.42601928 29.7590854,4.54058886 L30.5305369,2.97745751 C30.9310667,2.16589544 31.9136613,1.83268796 32.7252234,2.23321779 C33.0483917,2.39271087 33.3099701,2.65428924 33.4694631,2.97745751 L34.2409146,4.54058886 C34.6779006,5.42601928 35.5225974,6.0397274 36.4997279,6.18171277 L38.2247457,6.43237254 C39.1203576,6.56251257 39.7408952,7.39404883 39.6107552,8.28966076 C39.5589327,8.64629812 39.3909891,8.97590609 39.1329239,9.22745751 L37.8846892,10.4441856 C37.177631,11.133397 36.8549855,12.1263976 37.0218993,13.0995799 L37.3165676,14.8176275 C37.4695563,15.7096205 36.870475,16.5567456 35.978482,16.7097344 C35.6232857,16.7706554 35.2579124,16.7127859 34.9389263,16.545085 L33.3960234,15.7339329 C32.5220513,15.2744586 31.4779487,15.2744586 30.6039766,15.7339329 Z" id="Star"></path>
                        <path d="M52.6039766,15.7339329 L51.0610737,16.545085 C50.2600141,16.966227 49.2692239,16.6582428 48.8480819,15.8571832 C48.6803809,15.538197 48.6225115,15.1728238 48.6834324,14.8176275 L48.9781007,13.0995799 C49.1450145,12.1263976 48.822369,11.133397 48.1153108,10.4441856 L46.8670761,9.22745751 C46.2190052,8.59574454 46.2057446,7.55827473 46.8374575,6.91020386 C47.089009,6.65213863 47.4186169,6.48419499 47.7752543,6.43237254 L49.5002721,6.18171277 C50.4774026,6.0397274 51.3220994,5.42601928 51.7590854,4.54058886 L52.5305369,2.97745751 C52.9310667,2.16589544 53.9136613,1.83268796 54.7252234,2.23321779 C55.0483917,2.39271087 55.3099701,2.65428924 55.4694631,2.97745751 L56.2409146,4.54058886 C56.6779006,5.42601928 57.5225974,6.0397274 58.4997279,6.18171277 L60.2247457,6.43237254 C61.1203576,6.56251257 61.7408952,7.39404883 61.6107552,8.28966076 C61.5589327,8.64629812 61.3909891,8.97590609 61.1329239,9.22745751 L59.8846892,10.4441856 C59.177631,11.133397 58.8549855,12.1263976 59.0218993,13.0995799 L59.3165676,14.8176275 C59.4695563,15.7096205 58.870475,16.5567456 57.978482,16.7097344 C57.6232857,16.7706554 57.2579124,16.7127859 56.9389263,16.545085 L55.3960234,15.7339329 C54.5220513,15.2744586 53.4779487,15.2744586 52.6039766,15.7339329 Z" id="Star"></path>
                        <path d="M74.6039766,15.7339329 L73.0610737,16.545085 C72.2600141,16.966227 71.2692239,16.6582428 70.8480819,15.8571832 C70.6803809,15.538197 70.6225115,15.1728238 70.6834324,14.8176275 L70.9781007,13.0995799 C71.1450145,12.1263976 70.822369,11.133397 70.1153108,10.4441856 L68.8670761,9.22745751 C68.2190052,8.59574454 68.2057446,7.55827473 68.8374575,6.91020386 C69.089009,6.65213863 69.4186169,6.48419499 69.7752543,6.43237254 L71.5002721,6.18171277 C72.4774026,6.0397274 73.3220994,5.42601928 73.7590854,4.54058886 L74.5305369,2.97745751 C74.9310667,2.16589544 75.9136613,1.83268796 76.7252234,2.23321779 C77.0483917,2.39271087 77.3099701,2.65428924 77.4694631,2.97745751 L78.2409146,4.54058886 C78.6779006,5.42601928 79.5225974,6.0397274 80.4997279,6.18171277 L82.2247457,6.43237254 C83.1203576,6.56251257 83.7408952,7.39404883 83.6107552,8.28966076 C83.5589327,8.64629812 83.3909891,8.97590609 83.1329239,9.22745751 L81.8846892,10.4441856 C81.177631,11.133397 80.8549855,12.1263976 81.0218993,13.0995799 L81.3165676,14.8176275 C81.4695563,15.7096205 80.870475,16.5567456 79.978482,16.7097344 C79.6232857,16.7706554 79.2579124,16.7127859 78.9389263,16.545085 L77.3960234,15.7339329 C76.5220513,15.2744586 75.4779487,15.2744586 74.6039766,15.7339329 Z" id="Star"></path>
                        <path d="M97.6039766,15.7339329 L96.0610737,16.545085 C95.2600141,16.966227 94.2692239,16.6582428 93.8480819,15.8571832 C93.6803809,15.538197 93.6225115,15.1728238 93.6834324,14.8176275 L93.9781007,13.0995799 C94.1450145,12.1263976 93.822369,11.133397 93.1153108,10.4441856 L91.8670761,9.22745751 C91.2190052,8.59574454 91.2057446,7.55827473 91.8374575,6.91020386 C92.089009,6.65213863 92.4186169,6.48419499 92.7752543,6.43237254 L94.5002721,6.18171277 C95.4774026,6.0397274 96.3220994,5.42601928 96.7590854,4.54058886 L97.5305369,2.97745751 C97.9310667,2.16589544 98.9136613,1.83268796 99.7252234,2.23321779 C100.048392,2.39271087 100.30997,2.65428924 100.469463,2.97745751 L101.240915,4.54058886 C101.677901,5.42601928 102.522597,6.0397274 103.499728,6.18171277 L105.224746,6.43237254 C106.120358,6.56251257 106.740895,7.39404883 106.610755,8.28966076 C106.558933,8.64629812 106.390989,8.97590609 106.132924,9.22745751 L104.884689,10.4441856 C104.177631,11.133397 103.854986,12.1263976 104.021899,13.0995799 L104.316568,14.8176275 C104.469556,15.7096205 103.870475,16.5567456 102.978482,16.7097344 C102.623286,16.7706554 102.257912,16.7127859 101.938926,16.545085 L100.396023,15.7339329 C99.5220513,15.2744586 98.4779487,15.2744586 97.6039766,15.7339329 Z" id="Star"></path>
                    </g>
                </g>
                <rect id="Rectangle" fill="#3B8B96" x="426" y="229" width="165" height="150" rx="8"></rect>
                <g id="text" transform="translate(184, 73)">
                    <rect id="Rectangle" fill="#975D48" x="0" y="0" width="279" height="60" rx="8"></rect>
                    <rect id="Rectangle" fill="#E9AF58" x="69" y="86" width="140" height="40" rx="8"></rect>
                </g>
            </g>
        </g>
    </g>
</svg>