<?xml version="1.0" encoding="UTF-8"?>
<svg width="750px" height="500px" viewBox="0 0 750 500" version="1.1" xmlns="http://www.w3.org/2000/svg" xmlns:xlink="http://www.w3.org/1999/xlink">
    <title>icon</title>
    <defs>
        <rect id="path-1" x="31" y="28" width="688" height="437" rx="20"></rect>
        <filter x="-4.4%" y="-6.9%" width="108.7%" height="113.7%" filterUnits="objectBoundingBox" id="filter-2">
            <feOffset dx="0" dy="0" in="SourceAlpha" result="shadowOffsetOuter1"></feOffset>
            <feGaussianBlur stdDeviation="10" in="shadowOffsetOuter1" result="shadowBlurOuter1"></feGaussianBlur>
            <feColorMatrix values="0 0 0 0 0.8   0 0 0 0 0.8   0 0 0 0 0.8  0 0 0 1 0" type="matrix" in="shadowBlurOuter1"></feColorMatrix>
        </filter>
    </defs>
    <g id="Page-1" stroke="none" stroke-width="1" fill="none" fill-rule="evenodd">
        <g id="Fixed-Sales-Banner" transform="translate(-146, -110)">
            <g id="icon" transform="translate(146, 110)">
                <rect id="Rectangle-Copy-4" x="0" y="0" width="750" height="500"></rect>
                <g id="Rectangle">
                    <use fill="black" fill-opacity="1" filter="url(#filter-2)" xlink:href="#path-1"></use>
                    <use fill="#FFFFFF" fill-rule="evenodd" xlink:href="#path-1"></use>
                </g>
                <path d="M65,48 L686,48 C691.522847,48 696,52.4771525 696,58 L696,435 C696,440.522847 691.522847,445 686,445 L65,445 C59.4771525,445 55,440.522847 55,435 L55,58 C55,52.4771525 59.4771525,48 65,48 Z" id="Rectangle" fill="#FFFFFF"></path>
                <g id="grid" transform="translate(55, 171)">
                    <rect id="Rectangle" fill="#FAEBD5" x="0" y="0" width="641" height="151.932331" rx="7.72727251"></rect>
                    <g id="Group-31" transform="translate(21, 36)">
                        <g id="Group-15">
                            <rect id="Rectangle" fill="#E9AF58" x="259" y="0" width="160" height="80" rx="6.29940701"></rect>
                            <rect id="Rectangle" fill="#3B8B96" x="61" y="0" width="80" height="80" rx="6.29940701"></rect>
                            <path d="M16.4444444,80 L16.4444444,70.4444444 C12.5185185,69.5555556 9.12962963,67.8518519 6.27777778,65.3333333 C3.42592593,62.8148148 1.33333333,59.2592593 0,54.6666667 L8.22222222,51.3333333 C9.33333333,54.8888889 10.9814815,57.5925926 13.1666667,59.4444444 C15.3518519,61.2962963 18.2222222,62.2222222 21.7777778,62.2222222 C24.8148148,62.2222222 27.3888889,61.537037 29.5,60.1666667 C31.6111111,58.7962963 32.6666667,56.6666667 32.6666667,53.7777778 C32.6666667,51.1851852 31.8518519,49.1296296 30.2222222,47.6111111 C28.5925926,46.0925926 24.8148148,44.3703704 18.8888889,42.4444444 C12.5185185,40.4444444 8.14814815,38.0555556 5.77777778,35.2777778 C3.40740741,32.5 2.22222222,29.1111111 2.22222222,25.1111111 C2.22222222,20.2962963 3.77777778,16.5555556 6.88888889,13.8888889 C10,11.2222222 13.1851852,9.7037037 16.4444444,9.33333333 L16.4444444,0 L25.3333333,0 L25.3333333,9.33333333 C29.037037,9.92592593 32.0925926,11.2777778 34.5,13.3888889 C36.9074074,15.5 38.6666667,18.0740741 39.7777778,21.1111111 L31.5555556,24.6666667 C30.6666667,22.2962963 29.4074074,20.5185185 27.7777778,19.3333333 C26.1481481,18.1481481 23.9259259,17.5555556 21.1111111,17.5555556 C17.8518519,17.5555556 15.3703704,18.2777778 13.6666667,19.7222222 C11.962963,21.1666667 11.1111111,22.962963 11.1111111,25.1111111 C11.1111111,27.5555556 12.2222222,29.4814815 14.4444444,30.8888889 C16.6666667,32.2962963 20.5185185,33.7777778 26,35.3333333 C31.1111111,36.8148148 34.9814815,39.1666667 37.6111111,42.3888889 C40.2407407,45.6111111 41.5555556,49.3333333 41.5555556,53.5555556 C41.5555556,58.8148148 40,62.8148148 36.8888889,65.5555556 C33.7777778,68.2962963 29.9259259,70 25.3333333,70.6666667 L25.3333333,80 L16.4444444,80 Z" id="Path" fill="#3B8B96" fill-rule="nonzero"></path>
                        </g>
                        <g id="Group-15" transform="translate(439, 0)" fill="#DE6B5A">
                            <rect id="Rectangle" x="-5.68434189e-14" y="0" width="160" height="80" rx="6.29940701"></rect>
                        </g>
                    </g>
                </g>
            </g>
        </g>
    </g>
</svg>