<?xml version="1.0" encoding="UTF-8"?>
<svg width="726px" height="477px" viewBox="0 0 726 477" version="1.1" xmlns="http://www.w3.org/2000/svg" xmlns:xlink="http://www.w3.org/1999/xlink">
    <title>icon</title>
    <defs>
        <path d="M10.4447236,0.0676691729 L636.444724,0.0676691729 C641.967571,0.0676691729 646.444724,4.54482167 646.444724,10.0676692 L646.444724,387.067669 C646.444724,392.590517 641.967571,397.067669 636.444724,397.067669 L10.4447236,397.067669 C4.92187612,397.067669 0.444723618,392.590517 0.444723618,387.067669 L0.444723618,10.0676692 C0.444723618,4.54482167 4.92187612,0.0676691729 10.4447236,0.0676691729 Z" id="path-1"></path>
        <filter x="-7.7%" y="-12.6%" width="115.5%" height="125.2%" filterUnits="objectBoundingBox" id="filter-2">
            <feMorphology radius="20" operator="dilate" in="SourceAlpha" result="shadowSpreadOuter1"></feMorphology>
            <feOffset dx="0" dy="0" in="shadowSpreadOuter1" result="shadowOffsetOuter1"></feOffset>
            <feGaussianBlur stdDeviation="10" in="shadowOffsetOuter1" result="shadowBlurOuter1"></feGaussianBlur>
            <feComposite in="shadowBlurOuter1" in2="SourceAlpha" operator="out" result="shadowBlurOuter1"></feComposite>
            <feColorMatrix values="0 0 0 0 0.8   0 0 0 0 0.8   0 0 0 0 0.8  0 0 0 1 0" type="matrix" in="shadowBlurOuter1"></feColorMatrix>
        </filter>
    </defs>
    <g id="Page-1" stroke="none" stroke-width="1" fill="none" fill-rule="evenodd">
        <g id="footer" transform="translate(-157, -118)">
            <g id="icon" transform="translate(196.5553, 157.9323)">
                <g id="vh-box">
                    <use fill="black" fill-opacity="1" filter="url(#filter-2)" xlink:href="#path-1"></use>
                    <path stroke="#FFFFFF" stroke-width="20" d="M636.444724,-9.93233083 C641.967571,-9.93233083 646.967571,-7.69375458 650.586859,-4.07446645 C654.206147,-0.455178325 656.444724,4.54482167 656.444724,10.0676692 L656.444724,387.067669 C656.444724,392.590517 654.206147,397.590517 650.586859,401.209805 C646.967571,404.829093 641.967571,407.067669 636.444724,407.067669 L10.4447236,407.067669 C4.92187612,407.067669 -0.0781238802,404.829093 -3.69741201,401.209805 C-7.31670013,397.590517 -9.55527638,392.590517 -9.55527638,387.067669 L-9.55527638,10.0676692 C-9.55527638,4.54482167 -7.31670013,-0.455178325 -3.69741201,-4.07446645 C-0.0781238802,-7.69375458 4.92187612,-9.93233083 10.4447236,-9.93233083 Z" fill="#FFFFFF" fill-rule="evenodd"></path>
                </g>
                <rect id="Rectangle" fill="#3B8B96" x="0" y="0" width="646" height="397" rx="7.72727251"></rect>
                <g id="Group-35" transform="translate(28, 93)">
                    <g id="vh-text">
                        <rect id="Rectangle" fill="#FAEBD5" x="0" y="70" width="157" height="40" rx="8"></rect>
                        <rect id="Rectangle" fill="#FAEBD5" x="0" y="120" width="157" height="40" rx="8"></rect>
                        <rect id="Rectangle" fill="#FAEBD5" x="0" y="170" width="157" height="40" rx="8"></rect>
                        <rect id="Rectangle" fill="#CCE5E8" x="0" y="0" width="157" height="60" rx="8"></rect>
                    </g>
                    <g id="vh-text" transform="translate(432.4447, 0)">
                        <rect id="Rectangle" fill="#FAEBD5" x="0" y="70" width="157" height="40" rx="8"></rect>
                        <rect id="Rectangle" fill="#CCE5E8" x="0" y="0" width="157" height="60" rx="8"></rect>
                    </g>
                    <g id="vh-text" transform="translate(216.4447, 0)">
                        <g id="Group-20" transform="translate(0, 78.0677)" fill="#E9AF58" fill-rule="nonzero">
                            <path d="M96.0115004,0 C88.2734619,0 82,6.26315789 82,13.9884868 C82,19.9177632 85.6902717,24.9835526 90.9027805,27.0213816 C90.7759274,25.9161184 90.6721385,24.2121711 90.9489089,23.0032895 C91.2026151,21.9095395 92.586467,16.0493421 92.586467,16.0493421 C92.586467,16.0493421 92.1713114,15.2088816 92.1713114,13.9769737 C92.1713114,12.03125 93.3014571,10.5805921 94.7083732,10.5805921 C95.9077115,10.5805921 96.4843165,11.4786184 96.4843165,12.5493421 C96.4843165,13.7467105 95.7231979,15.5427632 95.3195745,17.2121711 C94.9851436,18.6052632 96.0230325,19.7450658 97.3953523,19.7450658 C99.8862857,19.7450658 101.800614,17.1200658 101.800614,13.34375 C101.800614,9.99342105 99.3904054,7.65625 95.9423078,7.65625 C91.9522015,7.65625 89.6111854,10.6381579 89.6111854,13.7236842 C89.6111854,14.9210526 90.0724694,16.2105263 90.6490743,16.9128289 C90.7643953,17.0509868 90.7759274,17.1776316 90.7413311,17.3157895 C90.6375422,17.7532895 90.3953681,18.7088816 90.3492397,18.9046053 C90.2915793,19.1578947 90.141662,19.2154605 89.8764237,19.0888158 C88.1235446,18.2713816 87.0279952,15.7269737 87.0279952,13.6661184 C87.0279952,9.25657895 90.2339188,5.20394737 96.2882708,5.20394737 C101.143285,5.20394737 104.925813,8.65789474 104.925813,13.2861842 C104.925813,18.1101974 101.881339,21.9901316 97.6605906,21.9901316 C96.2421424,21.9901316 94.9044189,21.2532895 94.454667,20.3782895 C94.454667,20.3782895 93.751209,23.0493421 93.5782275,23.7055921 C93.2668608,24.9259868 92.4134855,26.4457237 91.8368805,27.3782895 C93.1515398,27.78125 94.5353917,28 95.9884362,28 C103.726475,28 110,21.7368421 110,14.0115132 C110.023001,6.26315789 103.749539,0 96.0115004,0 Z" id="Path"></path>
                            <g id="YouTube-Icon-Almost-Black-Logo.wine" transform="translate(0, 0.0004)">
                                <path d="M54.3093616,1.40096051e-12 C54.338563,8.35780057e-05 54.3704665,0.000183871611 54.404985,0.000304223937 L54.7839001,0.00201924458 C57.4527562,0.0166420522 66.9839198,0.119001706 69.6462559,0.835519279 C71.3600197,1.29548795 72.7095429,2.65083746 73.1676441,4.3718248 C73.9479778,7.29637706 73.9967486,13.1993643 73.9997968,13.9258137 L73.9997968,14.0735181 C73.9967486,14.7999501 73.9479778,20.7028083 73.1676441,23.6276781 C72.7095429,25.3483268 71.3600197,26.7036763 69.6462559,27.1638143 C68.3150879,27.5220005 65.2667129,27.7266783 62.217523,27.8436371 L61.2034506,27.8794647 C58.2874245,27.9741027 55.5474877,27.9941774 54.516298,27.9984357 L54.3093616,27.9991643 C54.2801602,27.9992479 54.2536609,27.9993147 54.229951,27.9993682 L53.9398529,27.9993682 C53.9161433,27.9993147 53.8896444,27.9992479 53.8604434,27.9991643 L53.6535097,27.9984357 C51.4325157,27.989264 41.284657,27.906719 38.5237157,27.1638143 C36.809952,26.7036763 35.4602591,25.3484961 35.0023276,23.6275088 C34.2913569,20.9629167 34.1876737,15.8258559 34.1725532,14.3842153 L34.1709125,14.2003396 C34.1707243,14.174329 34.1705738,14.1506957 34.1704534,14.1295293 L34.1704534,13.8698043 C34.1705738,13.8486378 34.1707243,13.8250046 34.1709125,13.7989939 L34.1725532,13.6151182 C34.1876737,12.1734777 34.2913569,7.03641686 35.0023276,4.3718248 C35.4602591,2.65083746 36.809952,1.29548795 38.5237157,0.835519279 C41.1860519,0.119001706 50.7170907,0.0166420522 53.3859113,0.00201924458 L53.7648213,0.000304223937 C53.7993393,0.000183871611 53.8312424,8.35780057e-05 53.8604434,1.40062419e-12 Z M49.8923513,7.93988062 L49.8923513,19.8503284 L60.3739377,13.8953605 L49.8923513,7.93988062 Z" id="Combined-Shape"></path>
                                <g id="logo" transform="translate(0, 0.6264)">
                                    <path d="M15.8444379,11.502176 L25.755534,0 L23.4069215,0 L14.8011179,9.98717779 L7.92768778,0 L0,0 L10.393975,15.1023816 L0,27.1641791 L2.34874568,27.1641791 L11.436696,16.6173798 L18.6955417,27.1641791 L26.6232295,27.1641791 L15.843861,11.502176 L15.8444379,11.502176 Z M12.5357226,15.2928323 L11.4871997,13.7954471 L3.14447592,1.88059701 L6.73624331,1.88059701 L13.4689185,11.4962613 L14.5174414,12.9936466 L23.2691218,25.4925373 L19.6773544,25.4925373 L12.5357226,15.2934058 L12.5357226,15.2928323 Z" id="Shape"></path>
                                </g>
                            </g>
                        </g>
                        <rect id="Rectangle" fill="#CCE5E8" x="0" y="0" width="157" height="60" rx="8"></rect>
                    </g>
                </g>
            </g>
        </g>
    </g>
</svg>