<?xml version="1.0" encoding="UTF-8"?>
<svg width="726px" height="477px" viewBox="0 0 726 477" version="1.1" xmlns="http://www.w3.org/2000/svg" xmlns:xlink="http://www.w3.org/1999/xlink">
    <title>icon</title>
    <defs>
        <path d="M11,4.06766917 L637,4.06766917 C642.522847,4.06766917 647,8.54482167 647,14.0676692 L647,391.067669 C647,396.590517 642.522847,401.067669 637,401.067669 L11,401.067669 C5.4771525,401.067669 1,396.590517 1,391.067669 L1,14.0676692 C1,8.54482167 5.4771525,4.06766917 11,4.06766917 Z" id="path-1"></path>
        <filter x="-7.7%" y="-12.6%" width="115.5%" height="125.2%" filterUnits="objectBoundingBox" id="filter-2">
            <feMorphology radius="20" operator="dilate" in="SourceAlpha" result="shadowSpreadOuter1"></feMorphology>
            <feOffset dx="0" dy="0" in="shadowSpreadOuter1" result="shadowOffsetOuter1"></feOffset>
            <feGaussianBlur stdDeviation="10" in="shadowOffsetOuter1" result="shadowBlurOuter1"></feGaussianBlur>
            <feComposite in="shadowBlurOuter1" in2="SourceAlpha" operator="out" result="shadowBlurOuter1"></feComposite>
            <feColorMatrix values="0 0 0 0 0.8   0 0 0 0 0.8   0 0 0 0 0.8  0 0 0 1 0" type="matrix" in="shadowBlurOuter1"></feColorMatrix>
        </filter>
    </defs>
    <g id="Page-1" stroke="none" stroke-width="1" fill="none" fill-rule="evenodd">
        <g id="Gift-Card" transform="translate(-157, -118)">
            <g id="icon" transform="translate(196, 153.9323)">
                <g id="vh-box">
                    <use fill="black" fill-opacity="1" filter="url(#filter-2)" xlink:href="#path-1"></use>
                    <path stroke="#FFFFFF" stroke-width="20" d="M637,-5.93233083 C642.522847,-5.93233083 647.522847,-3.69375458 651.142136,-0.0744664508 C654.761424,3.54482167 657,8.54482167 657,14.0676692 L657,391.067669 C657,396.590517 654.761424,401.590517 651.142136,405.209805 C647.522847,408.829093 642.522847,411.067669 637,411.067669 L11,411.067669 C5.4771525,411.067669 0.477152502,408.829093 -3.14213562,405.209805 C-6.76142375,401.590517 -9,396.590517 -9,391.067669 L-9,14.0676692 C-9,8.54482167 -6.76142375,3.54482167 -3.14213562,-0.0744664508 C0.477152502,-3.69375458 5.4771525,-5.93233083 11,-5.93233083 Z" fill="#FFFFFF" fill-rule="evenodd"></path>
                </g>
                <rect id="Rectangle" fill="#3B8B96" x="0" y="0" width="331" height="398" rx="7.72727251"></rect>
                <path d="M99,236.067669 L99,253.067669 L233,253.067669 L233,236.067669 L99,236.067669 Z M98.7,144.541353 L117.07,144.541353 C116.374167,143.28609 115.921875,141.96109 115.713125,140.566353 C115.504375,139.171617 115.4,137.707143 115.4,136.172932 C115.4,129.199248 117.835417,123.271617 122.70625,118.390038 C127.577083,113.508459 133.491667,111.067669 140.45,111.067669 C144.625,111.067669 148.486875,112.14859 152.035625,114.310432 C155.584375,116.472274 158.680833,119.157143 161.325,122.365038 L165.5,127.804511 L169.675,122.365038 C172.18,119.017669 175.241667,116.297932 178.86,114.205827 C182.478333,112.113722 186.375,111.067669 190.55,111.067669 C197.508333,111.067669 203.422917,113.508459 208.29375,118.390038 C213.164583,123.271617 215.6,129.199248 215.6,136.172932 C215.6,137.707143 215.495625,139.171617 215.286875,140.566353 C215.078125,141.96109 214.625833,143.28609 213.93,144.541353 L232.3,144.541353 C236.8925,144.541353 240.823958,146.180169 244.094375,149.457801 C247.364792,152.735432 249,156.675564 249,161.278195 L249,253.330827 C249,257.933459 247.364792,261.87359 244.094375,265.151222 C240.823958,268.428853 236.8925,270.067669 232.3,270.067669 L98.7,270.067669 C94.1075,270.067669 90.1760417,268.428853 86.905625,265.151222 C83.6352083,261.87359 82,257.933459 82,253.330827 L82,161.278195 C82,156.675564 83.6352083,152.735432 86.905625,149.457801 C90.1760417,146.180169 94.1075,144.541353 98.7,144.541353 Z M99,211.067669 L233,211.067669 L233,161.067669 L190.2875,161.067669 L207.875,184.817669 L194.475,194.401003 L166,156.067669 L137.525,194.401003 L124.125,184.817669 L141.29375,161.067669 L99,161.067669 L99,211.067669 Z M140.5,145.067669 C142.908333,145.067669 144.927083,144.253086 146.55625,142.623919 C148.185417,140.994753 149,138.976003 149,136.567669 C149,134.159336 148.185417,132.140586 146.55625,130.511419 C144.927083,128.882253 142.908333,128.067669 140.5,128.067669 C138.091667,128.067669 136.072917,128.882253 134.44375,130.511419 C132.814583,132.140586 132,134.159336 132,136.567669 C132,138.976003 132.814583,140.994753 134.44375,142.623919 C136.072917,144.253086 138.091667,145.067669 140.5,145.067669 Z M190.5,145.067669 C192.908333,145.067669 194.927083,144.253086 196.55625,142.623919 C198.185417,140.994753 199,138.976003 199,136.567669 C199,134.159336 198.185417,132.140586 196.55625,130.511419 C194.927083,128.882253 192.908333,128.067669 190.5,128.067669 C188.091667,128.067669 186.072917,128.882253 184.44375,130.511419 C182.814583,132.140586 182,134.159336 182,136.567669 C182,138.976003 182.814583,140.994753 184.44375,142.623919 C186.072917,144.253086 188.091667,145.067669 190.5,145.067669 Z" id="Shape" fill="#FFFFFF" fill-rule="nonzero"></path>
                <g id="vh-text" transform="translate(362, 104.0677)">
                    <rect id="Rectangle" fill="#E9AF58" x="0" y="82" width="279" height="40" rx="8"></rect>
                    <rect id="Rectangle" fill="#DE6B5A" x="0" y="144" width="140" height="40" rx="8"></rect>
                    <rect id="Rectangle" fill="#975D48" x="1" y="0" width="279" height="60" rx="8"></rect>
                </g>
            </g>
        </g>
    </g>
</svg>