<?xml version="1.0" encoding="UTF-8"?>
<svg width="750px" height="500px" viewBox="0 0 750 500" version="1.1" xmlns="http://www.w3.org/2000/svg" xmlns:xlink="http://www.w3.org/1999/xlink">
    <title>icon</title>
    <defs>
        <rect id="path-1" x="31" y="28" width="688" height="437" rx="20"></rect>
        <filter x="-4.4%" y="-6.9%" width="108.7%" height="113.7%" filterUnits="objectBoundingBox" id="filter-2">
            <feOffset dx="0" dy="0" in="SourceAlpha" result="shadowOffsetOuter1"></feOffset>
            <feGaussianBlur stdDeviation="10" in="shadowOffsetOuter1" result="shadowBlurOuter1"></feGaussianBlur>
            <feColorMatrix values="0 0 0 0 0.8   0 0 0 0 0.8   0 0 0 0 0.8  0 0 0 1 0" type="matrix" in="shadowBlurOuter1"></feColorMatrix>
        </filter>
    </defs>
    <g id="Page-1" stroke="none" stroke-width="1" fill="none" fill-rule="evenodd">
        <g id="Grid-Premium" transform="translate(-146, -110)">
            <g id="icon" transform="translate(146, 110)">
                <rect id="Rectangle" x="0" y="0" width="750" height="500"></rect>
                <g id="Rectangle">
                    <use fill="black" fill-opacity="1" filter="url(#filter-2)" xlink:href="#path-1"></use>
                    <use fill="#FFFFFF" fill-rule="evenodd" xlink:href="#path-1"></use>
                </g>
                <path d="M61,48 L349,48 C354.522847,48 359,52.4771525 359,58 L359,435 C359,440.522847 354.522847,445 349,445 L61,445 C55.4771525,445 51,440.522847 51,435 L51,58 C51,52.4771525 55.4771525,48 61,48 Z" id="Rectangle" fill="#CCE5E8"></path>
                <path d="M385,48 L684,48 C689.522847,48 694,52.4771525 694,58 L694,157 C694,162.522847 689.522847,167 684,167 L385,167 C379.477153,167 375,162.522847 375,157 L375,58 C375,52.4771525 379.477153,48 385,48 Z" id="Rectangle" fill="#CCE5E8"></path>
                <path d="M385,326 L684,326 C689.522847,326 694,330.477153 694,336 L694,435 C694,440.522847 689.522847,445 684,445 L385,445 C379.477153,445 375,440.522847 375,435 L375,336 C375,330.477153 379.477153,326 385,326 Z" id="Rectangle" fill="#DE6B5A"></path>
                <path d="M385,187 L684,187 C689.522847,187 694,191.477153 694,197 L694,296 C694,301.522847 689.522847,306 684,306 L385,306 C379.477153,306 375,301.522847 375,296 L375,197 C375,191.477153 379.477153,187 385,187 Z" id="Rectangle" fill="#E9AF58"></path>
                <path d="M385,48 L684,48 C689.522847,48 694,52.4771525 694,58 L694,157 C694,162.522847 689.522847,167 684,167 L385,167 C379.477153,167 375,162.522847 375,157 L375,58 C375,52.4771525 379.477153,48 385,48 Z" id="Rectangle" fill="#0F8060"></path>
                <path d="M100.013086,296.697545 L150.503936,229.982909 C152.170383,227.780997 155.306307,227.346917 157.508219,229.013364 C157.87439,229.290489 158.200639,229.616737 158.477764,229.982909 L198.39945,282.732283 C199.344571,283.981093 200.820228,284.714914 202.386364,284.714914 L265.511942,284.714914 C268.273366,284.714914 270.511942,282.476338 270.511942,279.714914 C270.511942,278.62356 270.15487,277.562176 269.495218,276.692743 L229.095478,223.445159 C227.42638,221.245257 224.289934,220.814955 222.090032,222.484054 C221.732262,222.7555 221.412693,223.073908 221.139948,223.430688 L203.872196,246.018775 C202.195105,248.212591 199.057115,248.631479 196.863299,246.954389 C196.511358,246.685342 196.196732,246.370717 195.927686,246.018775 L189.596075,237.736344 C188.23121,235.950953 188.225213,233.474314 189.581416,231.682334 L221.140299,189.982909 C222.806746,187.780997 225.942671,187.346917 228.144582,189.013364 C228.510754,189.290489 228.837002,189.616737 229.114128,189.982909 L309.877705,296.697545 C311.544151,298.899457 311.110071,302.035381 308.90816,303.701828 C308.039577,304.359187 306.980083,304.714914 305.89079,304.714914 L104,304.714914 C101.238576,304.714914 99,302.476338 99,299.714914 C99,298.625622 99.3557266,297.566128 100.013086,296.697545 Z M143.871431,285.714914 L164.019359,285.714914 C166.780783,285.714914 169.019359,283.476338 169.019359,280.714914 C169.019359,279.643242 168.675034,278.599926 168.037145,277.738776 L157.963181,264.138925 C156.319506,261.919963 153.188219,261.453601 150.969257,263.097277 C150.572516,263.391159 150.221492,263.742184 149.927609,264.138925 L139.853645,277.738776 C138.20997,279.957738 138.676332,283.089025 140.895294,284.7327 C141.756443,285.370589 142.79976,285.714914 143.871431,285.714914 Z M133.945395,284.214914 L173.945395,284.214914 L133.945395,284.214914 Z" id="Shape" fill="#3B8B96" fill-rule="nonzero"></path>
            </g>
        </g>
    </g>
</svg>