<?xml version="1.0" encoding="UTF-8"?>
<svg width="750px" height="500px" viewBox="0 0 750 500" version="1.1" xmlns="http://www.w3.org/2000/svg" xmlns:xlink="http://www.w3.org/1999/xlink">
    <title>icon</title>
    <defs>
        <rect id="path-1" x="31" y="28" width="688" height="437" rx="20"></rect>
        <filter x="-4.4%" y="-6.9%" width="108.7%" height="113.7%" filterUnits="objectBoundingBox" id="filter-2">
            <feOffset dx="0" dy="0" in="SourceAlpha" result="shadowOffsetOuter1"></feOffset>
            <feGaussianBlur stdDeviation="10" in="shadowOffsetOuter1" result="shadowBlurOuter1"></feGaussianBlur>
            <feColorMatrix values="0 0 0 0 0.8   0 0 0 0 0.8   0 0 0 0 0.8  0 0 0 1 0" type="matrix" in="shadowBlurOuter1"></feColorMatrix>
        </filter>
        <path d="M10,0 L304,0 C309.522847,-1.01453063e-15 314,4.4771525 314,10 L314,388 C314,393.522847 309.522847,398 304,398 L10,398 C4.4771525,398 6.76353751e-16,393.522847 0,388 L0,10 C-6.76353751e-16,4.4771525 4.4771525,1.01453063e-15 10,0 Z" id="path-3"></path>
    </defs>
    <g id="Page-1" stroke="none" stroke-width="1" fill="none" fill-rule="evenodd">
        <g id="Media-Review" transform="translate(-146, -110)">
            <g id="icon" transform="translate(146, 110)">
                <rect id="Rectangle" x="0" y="0" width="750" height="500"></rect>
                <g id="Rectangle">
                    <use fill="black" fill-opacity="1" filter="url(#filter-2)" xlink:href="#path-1"></use>
                    <use fill="#FFFFFF" fill-rule="evenodd" xlink:href="#path-1"></use>
                </g>
                <g id="Group-12" transform="translate(51, 48)">
                    <path d="M10,0 L304,0 C309.522847,-1.01453063e-15 314,4.4771525 314,10 L314,388 C314,393.522847 309.522847,398 304,398 L10,398 C4.4771525,398 6.76353751e-16,393.522847 0,388 L0,10 C-6.76353751e-16,4.4771525 4.4771525,1.01453063e-15 10,0 Z" id="Rectangle" fill="#DE6B5A"></path>
                    <g id="Group-18" transform="translate(54, 141)" fill="#F9EBD5" fill-rule="nonzero">
                        <path d="M1.01308592,108.697545 L51.5039357,41.9829086 C53.1703826,39.7809968 56.306307,39.3469167 58.5082188,41.0133636 C58.8743902,41.2904888 59.2006387,41.6167373 59.4777639,41.9829086 L99.3994496,94.7322831 C100.344571,95.9810927 101.820228,96.7149141 103.386364,96.7149141 L166.511942,96.7149141 C169.273366,96.7149141 171.511942,94.4763378 171.511942,91.7149141 C171.511942,90.6235599 171.15487,89.5621761 170.495218,88.6927433 L130.095478,35.4451589 C128.42638,33.2452566 125.289934,32.8149553 123.090032,34.4840541 C122.732262,34.7554996 122.412693,35.0739082 122.139948,35.4306884 L104.872196,58.0187751 C103.195105,60.2125909 100.057115,60.6314795 97.8632995,58.9543888 C97.5113576,58.6853424 97.1967321,58.3707169 96.9276857,58.0187751 L90.5960752,49.7363441 C89.2312098,47.9509525 89.2252129,45.4743142 90.5814162,43.6823338 L122.140299,1.98290865 C123.806746,-0.219003199 126.942671,-0.653083289 129.144582,1.01336363 C129.510754,1.29048877 129.837002,1.6167373 130.114128,1.98290865 L210.877705,108.697545 C212.544151,110.899457 212.110071,114.035381 209.90816,115.701828 C209.039577,116.359187 207.980083,116.714914 206.89079,116.714914 L5,116.714914 C2.23857625,116.714914 -1.0125234e-13,114.476338 -1.0125234e-13,111.714914 C-1.0125234e-13,110.625622 0.355726577,109.566128 1.01308592,108.697545 Z M44.8714314,97.7149141 L65.0193591,97.7149141 C67.7807828,97.7149141 70.0193591,95.4763378 70.0193591,92.7149141 C70.0193591,91.6432423 69.6750336,90.5999259 69.037145,89.7387763 L58.9631812,76.1389251 C57.3195057,73.9199632 54.1882194,73.4536014 51.9692575,75.0972769 C51.5725164,75.3911592 51.2214915,75.7421841 50.9276093,76.1389251 L40.8536454,89.7387763 C39.2099699,91.9577382 39.6763317,95.0890245 41.8952936,96.7327 C42.7564432,97.3705886 43.7997596,97.7149141 44.8714314,97.7149141 Z M34.9453952,96.2149141 L74.9453952,96.2149141 L34.9453952,96.2149141 Z" id="Shape"></path>
                    </g>
                </g>
                <g id="Group-12" transform="translate(385, 48)">
                    <mask id="mask-4" fill="white">
                        <use xlink:href="#path-3"></use>
                    </mask>
                    <use id="Rectangle" fill="#975D48" xlink:href="#path-3"></use>
                    <path d="M29.5678392,20 L289.447597,20 C290.552167,20 291.447597,20.8954305 291.447597,22 C291.447597,22.4488233 291.29663,22.8846014 291.01898,23.2372378 L23.1392216,363.464084 C22.455914,364.331934 21.1984519,364.481536 20.3306014,363.798228 C19.848965,363.419009 19.5678392,362.839856 19.5678392,362.226846 L19.5678392,30 C19.5678392,24.4771525 24.0449917,20 29.5678392,20 Z" id="Rectangle" fill="#F9EBD5" mask="url(#mask-4)"></path>
                </g>
            </g>
        </g>
    </g>
</svg>