<?xml version="1.0" encoding="UTF-8"?>
<svg width="750px" height="500px" viewBox="0 0 750 500" version="1.1" xmlns="http://www.w3.org/2000/svg" xmlns:xlink="http://www.w3.org/1999/xlink">
    <title>icon</title>
    <defs>
        <rect id="path-1" x="31" y="28" width="688" height="437" rx="20"></rect>
        <filter x="-4.4%" y="-6.9%" width="108.7%" height="113.7%" filterUnits="objectBoundingBox" id="filter-2">
            <feOffset dx="0" dy="0" in="SourceAlpha" result="shadowOffsetOuter1"></feOffset>
            <feGaussianBlur stdDeviation="10" in="shadowOffsetOuter1" result="shadowBlurOuter1"></feGaussianBlur>
            <feColorMatrix values="0 0 0 0 0.8   0 0 0 0 0.8   0 0 0 0 0.8  0 0 0 1 0" type="matrix" in="shadowBlurOuter1"></feColorMatrix>
        </filter>
    </defs>
    <g id="Page-1" stroke="none" stroke-width="1" fill="none" fill-rule="evenodd">
        <g id="Video-with-Text" transform="translate(-146, -110)">
            <g id="icon" transform="translate(146, 110)">
                <rect id="Rectangle" x="0" y="0" width="750" height="500"></rect>
                <g id="Rectangle">
                    <use fill="black" fill-opacity="1" filter="url(#filter-2)" xlink:href="#path-1"></use>
                    <use fill="#FFFFFF" fill-rule="evenodd" xlink:href="#path-1"></use>
                </g>
                <path d="M61,48 L360,48 C365.522847,48 370,52.4771525 370,58 L370,435 C370,440.522847 365.522847,445 360,445 L61,445 C55.4771525,445 51,440.522847 51,435 L51,58 C51,52.4771525 55.4771525,48 61,48 Z" id="Rectangle" fill="#CCE5E8"></path>
                <path d="M106.013086,296.697545 L156.503936,229.982909 C158.170383,227.780997 161.306307,227.346917 163.508219,229.013364 C163.87439,229.290489 164.200639,229.616737 164.477764,229.982909 L204.39945,282.732283 C205.344571,283.981093 206.820228,284.714914 208.386364,284.714914 L271.511942,284.714914 C274.273366,284.714914 276.511942,282.476338 276.511942,279.714914 C276.511942,278.62356 276.15487,277.562176 275.495218,276.692743 L235.095478,223.445159 C233.42638,221.245257 230.289934,220.814955 228.090032,222.484054 C227.732262,222.7555 227.412693,223.073908 227.139948,223.430688 L209.872196,246.018775 C208.195105,248.212591 205.057115,248.631479 202.863299,246.954389 C202.511358,246.685342 202.196732,246.370717 201.927686,246.018775 L195.596075,237.736344 C194.23121,235.950953 194.225213,233.474314 195.581416,231.682334 L227.140299,189.982909 C228.806746,187.780997 231.942671,187.346917 234.144582,189.013364 C234.510754,189.290489 234.837002,189.616737 235.114128,189.982909 L315.877705,296.697545 C317.544151,298.899457 317.110071,302.035381 314.90816,303.701828 C314.039577,304.359187 312.980083,304.714914 311.89079,304.714914 L110,304.714914 C107.238576,304.714914 105,302.476338 105,299.714914 C105,298.625622 105.355727,297.566128 106.013086,296.697545 Z M149.871431,285.714914 L170.019359,285.714914 C172.780783,285.714914 175.019359,283.476338 175.019359,280.714914 C175.019359,279.643242 174.675034,278.599926 174.037145,277.738776 L163.963181,264.138925 C162.319506,261.919963 159.188219,261.453601 156.969257,263.097277 C156.572516,263.391159 156.221492,263.742184 155.927609,264.138925 L145.853645,277.738776 C144.20997,279.957738 144.676332,283.089025 146.895294,284.7327 C147.756443,285.370589 148.79976,285.714914 149.871431,285.714914 Z M139.945395,284.214914 L179.945395,284.214914 L139.945395,284.214914 Z" id="Shape" fill="#3B8B96" fill-rule="nonzero"></path>
                <g id="Group" transform="translate(402, 149)">
                    <rect id="Rectangle" fill="#975D48" x="0" y="0" width="279" height="60" rx="8"></rect>
                    <rect id="Rectangle" fill="#E9AF58" x="0" y="87" width="279" height="40" rx="8"></rect>
                    <rect id="Rectangle" fill="#E9AF58" x="0" y="155" width="140" height="40" rx="8"></rect>
                </g>
            </g>
        </g>
    </g>
</svg>