<?xml version="1.0" encoding="UTF-8"?>
<svg width="750px" height="500px" viewBox="0 0 750 500" version="1.1" xmlns="http://www.w3.org/2000/svg" xmlns:xlink="http://www.w3.org/1999/xlink">
    <title>icon</title>
    <defs>
        <rect id="path-1" x="31" y="28" width="688" height="437" rx="20"></rect>
        <filter x="-4.4%" y="-6.9%" width="108.7%" height="113.7%" filterUnits="objectBoundingBox" id="filter-2">
            <feOffset dx="0" dy="0" in="SourceAlpha" result="shadowOffsetOuter1"></feOffset>
            <feGaussianBlur stdDeviation="10" in="shadowOffsetOuter1" result="shadowBlurOuter1"></feGaussianBlur>
            <feColorMatrix values="0 0 0 0 0.8   0 0 0 0 0.8   0 0 0 0 0.8  0 0 0 1 0" type="matrix" in="shadowBlurOuter1"></feColorMatrix>
        </filter>
    </defs>
    <g id="Page-1" stroke="none" stroke-width="1" fill="none" fill-rule="evenodd">
        <g id="Image-Standalone" transform="translate(-146, -110)">
            <g id="icon" transform="translate(146, 110)">
                <rect id="Rectangle" x="0" y="0" width="750" height="500"></rect>
                <g id="Rectangle">
                    <use fill="black" fill-opacity="1" filter="url(#filter-2)" xlink:href="#path-1"></use>
                    <use fill="#FFFFFF" fill-rule="evenodd" xlink:href="#path-1"></use>
                </g>
                <path d="M61,48 L689,48 C694.522847,48 699,52.4771525 699,58 L699,435 C699,440.522847 694.522847,445 689,445 L61,445 C55.4771525,445 51,440.522847 51,435 L51,58 C51,52.4771525 55.4771525,48 61,48 Z" id="Rectangle" fill="#C3DFD7" transform="translate(375, 246.5) scale(-1, 1) translate(-375, -246.5)"></path>
                <path d="M171.959585,349.410398 L275.906432,212.030355 C277.572625,209.828252 280.708499,209.393811 282.910603,211.060004 C283.277114,211.33732 283.603639,211.663845 283.880954,212.030355 L363.893213,317.777552 C364.838314,319.026632 366.314137,319.760642 367.880475,319.760642 L497.825332,319.760642 C500.586756,319.760642 502.825332,317.522065 502.825332,314.760642 C502.825332,313.669485 502.468388,312.608281 501.808956,311.73893 L416.862305,199.750928 C415.193459,197.550834 412.057064,197.120171 409.856969,198.789017 C409.49886,199.060654 409.179014,199.379339 408.906076,199.736457 L369.366298,251.471134 C367.689461,253.665144 364.55152,254.084394 362.35751,252.407557 C362.00523,252.138317 361.690328,251.823414 361.421087,251.471134 L343.952563,228.614949 C342.588163,226.82974 342.582168,224.353651 343.937907,222.561856 L408.906432,136.697022 C410.572625,134.494919 413.708499,134.060477 415.910603,135.726671 C416.277114,136.003987 416.603639,136.330512 416.880954,136.697022 L577.827801,349.410398 C579.493994,351.612502 579.059553,354.748376 576.857449,356.41457 C575.988948,357.07171 574.929635,357.427308 573.840539,357.427308 L175.946846,357.427308 C173.185423,357.427308 170.946846,355.188732 170.946846,352.427308 C170.946846,351.338213 171.302445,350.2789 171.959585,349.410398 Z M251.854508,320.427308 L307.932878,320.427308 C310.694302,320.427308 312.932878,318.188732 312.932878,315.427308 C312.932878,314.350836 312.585464,313.303107 311.942292,312.439902 L283.903107,274.808364 C282.253208,272.594026 279.120625,272.136457 276.906286,273.786357 C276.517917,274.07573 276.173652,274.419995 275.884279,274.808364 L247.845094,312.439902 C246.195195,314.65424 246.652763,317.786823 248.867101,319.436722 C249.730306,320.079895 250.778035,320.427308 251.854508,320.427308 Z M241.893693,319.427308 L317.893693,319.427308 L241.893693,319.427308 Z" id="Shape" fill="#0F8060" fill-rule="nonzero"></path>
            </g>
        </g>
    </g>
</svg>