<?xml version="1.0" encoding="UTF-8"?>
<svg width="750px" height="500px" viewBox="0 0 750 500" version="1.1" xmlns="http://www.w3.org/2000/svg" xmlns:xlink="http://www.w3.org/1999/xlink">
    <title>icon</title>
    <defs>
        <rect id="path-1" x="31" y="28" width="688" height="437" rx="20"></rect>
        <filter x="-4.4%" y="-6.9%" width="108.7%" height="113.7%" filterUnits="objectBoundingBox" id="filter-2">
            <feOffset dx="0" dy="0" in="SourceAlpha" result="shadowOffsetOuter1"></feOffset>
            <feGaussianBlur stdDeviation="10" in="shadowOffsetOuter1" result="shadowBlurOuter1"></feGaussianBlur>
            <feColorMatrix values="0 0 0 0 0.8   0 0 0 0 0.8   0 0 0 0 0.8  0 0 0 1 0" type="matrix" in="shadowBlurOuter1"></feColorMatrix>
        </filter>
    </defs>
    <g id="Page-1" stroke="none" stroke-width="1" fill="none" fill-rule="evenodd">
        <g id="Link-Grid" transform="translate(-146, -110)">
            <g id="icon" transform="translate(146, 110)">
                <rect id="Rectangle" x="0" y="0" width="750" height="500"></rect>
                <g id="Rectangle">
                    <use fill="black" fill-opacity="1" filter="url(#filter-2)" xlink:href="#path-1"></use>
                    <use fill="#FFFFFF" fill-rule="evenodd" xlink:href="#path-1"></use>
                </g>
                <path d="M65,48 L686,48 C691.522847,48 696,52.4771525 696,58 L696,435 C696,440.522847 691.522847,445 686,445 L65,445 C59.4771525,445 55,440.522847 55,435 L55,58 C55,52.4771525 59.4771525,48 65,48 Z" id="Rectangle" fill="#FAEBD5"></path>
                <g id="Group-22" transform="translate(76, 118)">
                    <g id="Group-21">
                        <path d="M10,0 L279,0 C284.522847,-1.01453063e-15 289,4.4771525 289,10 L289,109 C289,114.522847 284.522847,119 279,119 L10,119 C4.4771525,119 6.76353751e-16,114.522847 0,109 L0,10 C-6.76353751e-16,4.4771525 4.4771525,1.01453063e-15 10,0 Z" id="Rectangle" fill="#CCE5E8"></path>
                        <rect id="Rectangle" fill="#3B8B96" x="111.563107" y="39" width="130.938511" height="40" rx="8"></rect>
                        <path d="M65.1843972,77.0300752 L65.1843972,61.3370169 L51.5460993,53.3759398 L51.5460993,69.0689982 L65.1843972,77.0300752 Z M69.7304965,77.0300752 L83.3687943,69.0689982 L83.3687943,53.3759398 L69.7304965,61.3370169 L69.7304965,77.0300752 Z M65.1843972,81.8632519 L49.2730496,72.7086466 C48.5532506,72.2916667 47.9944592,71.7420113 47.5966755,71.0596805 C47.1988918,70.3773496 47,69.6192043 47,68.7852444 L47,50.7034774 C47,49.8695175 47.1988918,49.1113722 47.5966755,48.4290414 C47.9944592,47.7467105 48.5532506,47.1970551 49.2730496,46.7800752 L65.1843972,37.6254699 C65.9041962,37.20849 66.6618794,37 67.4574468,37 C68.2530142,37 69.0106974,37.20849 69.7304965,37.6254699 L85.641844,46.7800752 C86.361643,47.1970551 86.9204344,47.7467105 87.3182181,48.4290414 C87.7160018,49.1113722 87.9148936,49.8695175 87.9148936,50.7034774 L87.9148936,68.7852444 C87.9148936,69.6192043 87.7160018,70.3773496 87.3182181,71.0596805 C86.9204344,71.7420113 86.361643,72.2916667 85.641844,72.7086466 L69.7304965,81.8632519 C69.0106974,82.2802318 68.2530142,82.4887218 67.4574468,82.4887218 C66.6618794,82.4887218 65.9041962,82.2802318 65.1843972,81.8632519 Z M76.1960599,51.556391 L80.6411348,49.123624 L66.9595407,41.5488722 L62.4567376,44.0369293 L76.1960599,51.556391 Z M67.9553529,57.0150376 L72.458156,54.5406511 L58.776562,47.0075188 L54.2737589,49.4819053 L67.9553529,57.0150376 Z" id="Shape" fill="#3B8B96" fill-rule="nonzero"></path>
                    </g>
                    <g id="Group-21" transform="translate(310, 0)">
                        <path d="M10,0 L279,0 C284.522847,-1.01453063e-15 289,4.4771525 289,10 L289,109 C289,114.522847 284.522847,119 279,119 L10,119 C4.4771525,119 6.76353751e-16,114.522847 0,109 L0,10 C-6.76353751e-16,4.4771525 4.4771525,1.01453063e-15 10,0 Z" id="Rectangle" fill="#CCE5E8"></path>
                        <rect id="Rectangle" fill="#3B8B96" x="111.563107" y="39" width="130.938511" height="40" rx="8"></rect>
                        <path d="M65.1843972,77.0300752 L65.1843972,61.3370169 L51.5460993,53.3759398 L51.5460993,69.0689982 L65.1843972,77.0300752 Z M69.7304965,77.0300752 L83.3687943,69.0689982 L83.3687943,53.3759398 L69.7304965,61.3370169 L69.7304965,77.0300752 Z M65.1843972,81.8632519 L49.2730496,72.7086466 C48.5532506,72.2916667 47.9944592,71.7420113 47.5966755,71.0596805 C47.1988918,70.3773496 47,69.6192043 47,68.7852444 L47,50.7034774 C47,49.8695175 47.1988918,49.1113722 47.5966755,48.4290414 C47.9944592,47.7467105 48.5532506,47.1970551 49.2730496,46.7800752 L65.1843972,37.6254699 C65.9041962,37.20849 66.6618794,37 67.4574468,37 C68.2530142,37 69.0106974,37.20849 69.7304965,37.6254699 L85.641844,46.7800752 C86.361643,47.1970551 86.9204344,47.7467105 87.3182181,48.4290414 C87.7160018,49.1113722 87.9148936,49.8695175 87.9148936,50.7034774 L87.9148936,68.7852444 C87.9148936,69.6192043 87.7160018,70.3773496 87.3182181,71.0596805 C86.9204344,71.7420113 86.361643,72.2916667 85.641844,72.7086466 L69.7304965,81.8632519 C69.0106974,82.2802318 68.2530142,82.4887218 67.4574468,82.4887218 C66.6618794,82.4887218 65.9041962,82.2802318 65.1843972,81.8632519 Z M76.1960599,51.556391 L80.6411348,49.123624 L66.9595407,41.5488722 L62.4567376,44.0369293 L76.1960599,51.556391 Z M67.9553529,57.0150376 L72.458156,54.5406511 L58.776562,47.0075188 L54.2737589,49.4819053 L67.9553529,57.0150376 Z" id="Shape" fill="#3B8B96" fill-rule="nonzero"></path>
                    </g>
                    <g id="Group-21" transform="translate(0, 139)">
                        <path d="M10,0 L279,0 C284.522847,-1.01453063e-15 289,4.4771525 289,10 L289,109 C289,114.522847 284.522847,119 279,119 L10,119 C4.4771525,119 6.76353751e-16,114.522847 0,109 L0,10 C-6.76353751e-16,4.4771525 4.4771525,1.01453063e-15 10,0 Z" id="Rectangle" fill="#CCE5E8"></path>
                        <rect id="Rectangle" fill="#3B8B96" x="111.563107" y="39" width="130.938511" height="40" rx="8"></rect>
                        <path d="M65.1843972,77.0300752 L65.1843972,61.3370169 L51.5460993,53.3759398 L51.5460993,69.0689982 L65.1843972,77.0300752 Z M69.7304965,77.0300752 L83.3687943,69.0689982 L83.3687943,53.3759398 L69.7304965,61.3370169 L69.7304965,77.0300752 Z M65.1843972,81.8632519 L49.2730496,72.7086466 C48.5532506,72.2916667 47.9944592,71.7420113 47.5966755,71.0596805 C47.1988918,70.3773496 47,69.6192043 47,68.7852444 L47,50.7034774 C47,49.8695175 47.1988918,49.1113722 47.5966755,48.4290414 C47.9944592,47.7467105 48.5532506,47.1970551 49.2730496,46.7800752 L65.1843972,37.6254699 C65.9041962,37.20849 66.6618794,37 67.4574468,37 C68.2530142,37 69.0106974,37.20849 69.7304965,37.6254699 L85.641844,46.7800752 C86.361643,47.1970551 86.9204344,47.7467105 87.3182181,48.4290414 C87.7160018,49.1113722 87.9148936,49.8695175 87.9148936,50.7034774 L87.9148936,68.7852444 C87.9148936,69.6192043 87.7160018,70.3773496 87.3182181,71.0596805 C86.9204344,71.7420113 86.361643,72.2916667 85.641844,72.7086466 L69.7304965,81.8632519 C69.0106974,82.2802318 68.2530142,82.4887218 67.4574468,82.4887218 C66.6618794,82.4887218 65.9041962,82.2802318 65.1843972,81.8632519 Z M76.1960599,51.556391 L80.6411348,49.123624 L66.9595407,41.5488722 L62.4567376,44.0369293 L76.1960599,51.556391 Z M67.9553529,57.0150376 L72.458156,54.5406511 L58.776562,47.0075188 L54.2737589,49.4819053 L67.9553529,57.0150376 Z" id="Shape" fill="#3B8B96" fill-rule="nonzero"></path>
                    </g>
                    <g id="Group-21" transform="translate(310, 139)">
                        <path d="M10,0 L279,0 C284.522847,-1.01453063e-15 289,4.4771525 289,10 L289,109 C289,114.522847 284.522847,119 279,119 L10,119 C4.4771525,119 6.76353751e-16,114.522847 0,109 L0,10 C-6.76353751e-16,4.4771525 4.4771525,1.01453063e-15 10,0 Z" id="Rectangle" fill="#CCE5E8"></path>
                        <rect id="Rectangle" fill="#3B8B96" x="111.563107" y="39" width="130.938511" height="40" rx="8"></rect>
                        <path d="M65.1843972,77.0300752 L65.1843972,61.3370169 L51.5460993,53.3759398 L51.5460993,69.0689982 L65.1843972,77.0300752 Z M69.7304965,77.0300752 L83.3687943,69.0689982 L83.3687943,53.3759398 L69.7304965,61.3370169 L69.7304965,77.0300752 Z M65.1843972,81.8632519 L49.2730496,72.7086466 C48.5532506,72.2916667 47.9944592,71.7420113 47.5966755,71.0596805 C47.1988918,70.3773496 47,69.6192043 47,68.7852444 L47,50.7034774 C47,49.8695175 47.1988918,49.1113722 47.5966755,48.4290414 C47.9944592,47.7467105 48.5532506,47.1970551 49.2730496,46.7800752 L65.1843972,37.6254699 C65.9041962,37.20849 66.6618794,37 67.4574468,37 C68.2530142,37 69.0106974,37.20849 69.7304965,37.6254699 L85.641844,46.7800752 C86.361643,47.1970551 86.9204344,47.7467105 87.3182181,48.4290414 C87.7160018,49.1113722 87.9148936,49.8695175 87.9148936,50.7034774 L87.9148936,68.7852444 C87.9148936,69.6192043 87.7160018,70.3773496 87.3182181,71.0596805 C86.9204344,71.7420113 86.361643,72.2916667 85.641844,72.7086466 L69.7304965,81.8632519 C69.0106974,82.2802318 68.2530142,82.4887218 67.4574468,82.4887218 C66.6618794,82.4887218 65.9041962,82.2802318 65.1843972,81.8632519 Z M76.1960599,51.556391 L80.6411348,49.123624 L66.9595407,41.5488722 L62.4567376,44.0369293 L76.1960599,51.556391 Z M67.9553529,57.0150376 L72.458156,54.5406511 L58.776562,47.0075188 L54.2737589,49.4819053 L67.9553529,57.0150376 Z" id="Shape" fill="#3B8B96" fill-rule="nonzero"></path>
                    </g>
                </g>
            </g>
        </g>
    </g>
</svg>