<?xml version="1.0" encoding="UTF-8"?>
<svg width="750px" height="500px" viewBox="0 0 750 500" version="1.1" xmlns="http://www.w3.org/2000/svg" xmlns:xlink="http://www.w3.org/1999/xlink">
    <title>icon</title>
    <defs>
        <rect id="path-1" x="31" y="28" width="688" height="437" rx="20"></rect>
        <filter x="-4.4%" y="-6.9%" width="108.7%" height="113.7%" filterUnits="objectBoundingBox" id="filter-2">
            <feOffset dx="0" dy="0" in="SourceAlpha" result="shadowOffsetOuter1"></feOffset>
            <feGaussianBlur stdDeviation="10" in="shadowOffsetOuter1" result="shadowBlurOuter1"></feGaussianBlur>
            <feColorMatrix values="0 0 0 0 0.8   0 0 0 0 0.8   0 0 0 0 0.8  0 0 0 1 0" type="matrix" in="shadowBlurOuter1"></feColorMatrix>
        </filter>
    </defs>
    <g id="Page-1" stroke="none" stroke-width="1" fill="none" fill-rule="evenodd">
        <g id="Masonry" transform="translate(-146, -110)">
            <g id="icon" transform="translate(146, 110)">
                <rect id="Rectangle" x="0" y="0" width="750" height="500"></rect>
                <g id="Rectangle">
                    <use fill="black" fill-opacity="1" filter="url(#filter-2)" xlink:href="#path-1"></use>
                    <use fill="#FFFFFF" fill-rule="evenodd" xlink:href="#path-1"></use>
                </g>
                <g id="Group-12" transform="translate(51, 48)">
                    <path d="M10,0 L304,0 C309.522847,-1.01453063e-15 314,4.4771525 314,10 L314,267 C314,272.522847 309.522847,277 304,277 L10,277 C4.4771525,277 6.76353751e-16,272.522847 0,267 L0,10 C-6.76353751e-16,4.4771525 4.4771525,1.01453063e-15 10,0 Z" id="Rectangle" fill="#CCE5E8"></path>
                    <path d="M10,302 L304,302 C309.522847,302 314,306.477153 314,312 L314,387 C314,392.522847 309.522847,397 304,397 L10,397 C4.4771525,397 6.76353751e-16,392.522847 0,387 L0,312 C-6.76353751e-16,306.477153 4.4771525,302 10,302 Z" id="Rectangle" fill="#CCE5E8"></path>
                    <path d="M55.0130859,190.697545 L105.503936,123.982909 C107.170383,121.780997 110.306307,121.346917 112.508219,123.013364 C112.87439,123.290489 113.200639,123.616737 113.477764,123.982909 L153.39945,176.732283 C154.344571,177.981093 155.820228,178.714914 157.386364,178.714914 L220.511942,178.714914 C223.273366,178.714914 225.511942,176.476338 225.511942,173.714914 C225.511942,172.62356 225.15487,171.562176 224.495218,170.692743 L184.095478,117.445159 C182.42638,115.245257 179.289934,114.814955 177.090032,116.484054 C176.732262,116.7555 176.412693,117.073908 176.139948,117.430688 L158.872196,140.018775 C157.195105,142.212591 154.057115,142.631479 151.863299,140.954389 C151.511358,140.685342 151.196732,140.370717 150.927686,140.018775 L144.596075,131.736344 C143.23121,129.950953 143.225213,127.474314 144.581416,125.682334 L176.140299,83.9829086 C177.806746,81.7809968 180.942671,81.3469167 183.144582,83.0133636 C183.510754,83.2904888 183.837002,83.6167373 184.114128,83.9829086 L264.877705,190.697545 C266.544151,192.899457 266.110071,196.035381 263.90816,197.701828 C263.039577,198.359187 261.980083,198.714914 260.89079,198.714914 L59,198.714914 C56.2385763,198.714914 54,196.476338 54,193.714914 C54,192.625622 54.3557266,191.566128 55.0130859,190.697545 Z M98.8714314,179.714914 L119.019359,179.714914 C121.780783,179.714914 124.019359,177.476338 124.019359,174.714914 C124.019359,173.643242 123.675034,172.599926 123.037145,171.738776 L112.963181,158.138925 C111.319506,155.919963 108.188219,155.453601 105.969257,157.097277 C105.572516,157.391159 105.221492,157.742184 104.927609,158.138925 L94.8536454,171.738776 C93.2099699,173.957738 93.6763317,177.089025 95.8952936,178.7327 C96.7564432,179.370589 97.7997596,179.714914 98.8714314,179.714914 Z M88.9453952,178.214914 L128.945395,178.214914 L88.9453952,178.214914 Z" id="Shape" fill="#3B8B96" fill-rule="nonzero"></path>
                </g>
                <g id="Group-12" transform="translate(385, 48)">
                    <path d="M10,120 L304,120 C309.522847,120 314,124.477153 314,130 L314,387 C314,392.522847 309.522847,397 304,397 L10,397 C4.4771525,397 6.76353751e-16,392.522847 0,387 L0,130 C-6.76353751e-16,124.477153 4.4771525,120 10,120 Z" id="Rectangle" fill="#E9AF58"></path>
                    <path d="M10,0 L304,0 C309.522847,-1.01453063e-15 314,4.4771525 314,10 L314,85 C314,90.5228475 309.522847,95 304,95 L10,95 C4.4771525,95 6.76353751e-16,90.5228475 0,85 L0,10 C-6.76353751e-16,4.4771525 4.4771525,1.01453063e-15 10,0 Z" id="Rectangle" fill="#CCE5E8"></path>
                    <path d="M55.0130859,310.697545 L105.503936,243.982909 C107.170383,241.780997 110.306307,241.346917 112.508219,243.013364 C112.87439,243.290489 113.200639,243.616737 113.477764,243.982909 L153.39945,296.732283 C154.344571,297.981093 155.820228,298.714914 157.386364,298.714914 L220.511942,298.714914 C223.273366,298.714914 225.511942,296.476338 225.511942,293.714914 C225.511942,292.62356 225.15487,291.562176 224.495218,290.692743 L184.095478,237.445159 C182.42638,235.245257 179.289934,234.814955 177.090032,236.484054 C176.732262,236.7555 176.412693,237.073908 176.139948,237.430688 L158.872196,260.018775 C157.195105,262.212591 154.057115,262.631479 151.863299,260.954389 C151.511358,260.685342 151.196732,260.370717 150.927686,260.018775 L144.596075,251.736344 C143.23121,249.950953 143.225213,247.474314 144.581416,245.682334 L176.140299,203.982909 C177.806746,201.780997 180.942671,201.346917 183.144582,203.013364 C183.510754,203.290489 183.837002,203.616737 184.114128,203.982909 L264.877705,310.697545 C266.544151,312.899457 266.110071,316.035381 263.90816,317.701828 C263.039577,318.359187 261.980083,318.714914 260.89079,318.714914 L59,318.714914 C56.2385763,318.714914 54,316.476338 54,313.714914 C54,312.625622 54.3557266,311.566128 55.0130859,310.697545 Z M98.8714314,299.714914 L119.019359,299.714914 C121.780783,299.714914 124.019359,297.476338 124.019359,294.714914 C124.019359,293.643242 123.675034,292.599926 123.037145,291.738776 L112.963181,278.138925 C111.319506,275.919963 108.188219,275.453601 105.969257,277.097277 C105.572516,277.391159 105.221492,277.742184 104.927609,278.138925 L94.8536454,291.738776 C93.2099699,293.957738 93.6763317,297.089025 95.8952936,298.7327 C96.7564432,299.370589 97.7997596,299.714914 98.8714314,299.714914 Z M88.9453952,298.214914 L128.945395,298.214914 L88.9453952,298.214914 Z" id="Shape" fill="#FFFFFF" fill-rule="nonzero"></path>
                </g>
            </g>
        </g>
    </g>
</svg>