<?xml version="1.0" encoding="UTF-8"?>
<svg width="750px" height="500px" viewBox="0 0 750 500" version="1.1" xmlns="http://www.w3.org/2000/svg" xmlns:xlink="http://www.w3.org/1999/xlink">
    <title>icon</title>
    <defs>
        <rect id="path-1" x="31" y="28" width="688" height="437" rx="20"></rect>
        <filter x="-4.4%" y="-6.9%" width="108.7%" height="113.7%" filterUnits="objectBoundingBox" id="filter-2">
            <feOffset dx="0" dy="0" in="SourceAlpha" result="shadowOffsetOuter1"></feOffset>
            <feGaussianBlur stdDeviation="10" in="shadowOffsetOuter1" result="shadowBlurOuter1"></feGaussianBlur>
            <feColorMatrix values="0 0 0 0 0.8   0 0 0 0 0.8   0 0 0 0 0.8  0 0 0 1 0" type="matrix" in="shadowBlurOuter1"></feColorMatrix>
        </filter>
    </defs>
    <g id="Page-1" stroke="none" stroke-width="1" fill="none" fill-rule="evenodd">
        <g id="Masonry" transform="translate(-146, -110)">
            <g id="icon" transform="translate(146, 110)">
                <rect id="Rectangle" x="0" y="0" width="750" height="500"></rect>
                <g id="Rectangle">
                    <use fill="black" fill-opacity="1" filter="url(#filter-2)" xlink:href="#path-1"></use>
                    <use fill="#FFFFFF" fill-rule="evenodd" xlink:href="#path-1"></use>
                </g>
                <g id="Group-12" transform="translate(51, 48)">
                    <path d="M10,0 L304,0 C309.522847,-1.01453063e-15 314,4.4771525 314,10 L314,267 C314,272.522847 309.522847,277 304,277 L10,277 C4.4771525,277 6.76353751e-16,272.522847 0,267 L0,10 C-6.76353751e-16,4.4771525 4.4771525,1.01453063e-15 10,0 Z" id="Rectangle" fill="#CCE5E8"></path>
                    <path d="M10,302 L304,302 C309.522847,302 314,306.477153 314,312 L314,387 C314,392.522847 309.522847,397 304,397 L10,397 C4.4771525,397 6.76353751e-16,392.522847 0,387 L0,312 C-6.76353751e-16,306.477153 4.4771525,302 10,302 Z" id="Rectangle" fill="#CCE5E8"></path>
                    <g id="Group-16" transform="translate(70.9608, 61)" fill="#3B8B96">
                        <path d="M1.04215145,86.673934 L40.1303185,34.6630246 C41.7893446,32.4555162 44.9237902,32.0108834 47.1312986,33.6699096 C47.5074133,33.952574 47.8417492,34.2869099 48.1244137,34.6630246 L79.4526005,76.3484658 C80.3970706,77.6051824 81.877592,78.3445332 83.4496481,78.3445332 L132.300926,78.3445332 C135.062349,78.3445332 137.300926,76.105957 137.300926,73.3445332 C137.300926,72.2589424 136.947609,71.2028427 136.294358,70.335796 L105.389634,29.3166222 C103.727955,27.1111106 100.592977,26.6702476 98.387465,28.3319273 C98.0197647,28.6089606 97.6920876,28.93545 97.4137211,29.302142 L84.9352019,45.7400818 C83.265525,47.9395454 80.1289669,48.3690224 77.9295033,46.6993455 C77.5676541,46.4246552 77.2449299,46.1019309 76.9702396,45.7400818 L73.0069721,40.5192737 C71.6557008,38.7392456 71.6497541,36.2786625 72.9924056,34.4921237 L97.4142036,1.99635795 C99.0732297,-0.211150472 102.207675,-0.655783217 104.415184,1.00324291 C104.791298,1.28590735 105.125634,1.62024325 105.408299,1.99635795 L169.046702,86.673934 C170.705728,88.8814425 170.261096,92.015888 168.053587,93.6749141 C167.1874,94.3258864 166.133188,94.6778666 165.049655,94.6778666 L5.03919902,94.6778666 C2.27777527,94.6778666 0.0391990175,92.4392903 0.0391990175,89.6778666 C0.0391990175,88.5943331 0.391179159,87.540121 1.04215145,86.673934 Z M36.8243311,79.6778666 L49.7123366,79.6778666 C52.4737604,79.6778666 54.7123366,77.4392903 54.7123366,74.6778666 C54.7123366,73.6004007 54.3642825,72.5517592 53.720015,71.6881318 L47.2760123,63.0500777 C45.6248274,60.836698 42.4919788,60.3809491 40.2785991,62.032134 C39.8919579,62.320569 39.5490905,62.6634365 39.2606555,63.0500777 L32.8166527,71.6881318 C31.1654678,73.9015115 31.6212167,77.0343601 33.8345964,78.685545 C34.6982238,79.3298124 35.7468652,79.6778666 36.8243311,79.6778666 Z M26.8562974,78.1778666 L59.6803704,78.1778666 L26.8562974,78.1778666 Z" id="Shape" fill-rule="nonzero"></path>
                        <rect id="Rectangle" x="0" y="114.677867" width="170" height="40" rx="8"></rect>
                    </g>
                </g>
                <g id="Group-12" transform="translate(385, 48)">
                    <path d="M10,120 L304,120 C309.522847,120 314,124.477153 314,130 L314,387 C314,392.522847 309.522847,397 304,397 L10,397 C4.4771525,397 6.76353751e-16,392.522847 0,387 L0,130 C-6.76353751e-16,124.477153 4.4771525,120 10,120 Z" id="Rectangle" fill="#975D48"></path>
                    <path d="M10,0 L304,0 C309.522847,-1.01453063e-15 314,4.4771525 314,10 L314,85 C314,90.5228475 309.522847,95 304,95 L10,95 C4.4771525,95 6.76353751e-16,90.5228475 0,85 L0,10 C-6.76353751e-16,4.4771525 4.4771525,1.01453063e-15 10,0 Z" id="Rectangle" fill="#CCE5E8"></path>
                    <g id="Group-13" transform="translate(71.9731, 182)" fill="#FFFFFF">
                        <path d="M1.03757635,86.1695416 L40.0934828,34.4786058 C41.7581749,32.275367 44.8937524,31.8387886 47.0969913,33.5034806 C47.4655123,33.7819226 47.7936745,34.1100848 48.0721165,34.4786058 L79.4077453,75.9516664 C80.3527165,77.2023466 81.8295254,77.9374748 83.3970621,77.9374748 L132.223998,77.9374748 C134.985422,77.9374748 137.223998,75.6988986 137.223998,72.9374748 C137.223998,71.847485 136.867817,70.7873517 136.209682,69.9184808 L105.337349,29.1607468 C103.670004,26.9595144 100.533903,26.5267127 98.332671,28.1940571 C97.9725544,28.4668308 97.6510669,28.7871515 97.3769854,29.1462739 L84.882834,45.5170637 C83.2074964,47.7122187 80.0698423,48.133614 77.8746874,46.4582764 C77.5204044,46.1878885 77.2038626,45.8713467 76.9334747,45.5170637 L72.9824276,40.3401006 C71.6207854,38.5559731 71.6148003,36.0831398 72.9677904,34.2924421 L97.3773678,1.9860891 C99.0420599,-0.217149757 102.177637,-0.653728189 104.380876,1.01096388 C104.749397,1.28940582 105.07756,1.61756802 105.356002,1.9860891 L168.962144,86.1695416 C170.626836,88.3727804 170.190258,91.508358 167.987019,93.17305 C167.119001,93.8288953 166.060757,94.1837332 164.972828,94.1837332 L5.02689319,94.1837332 C2.26546944,94.1837332 0.0268931886,91.945157 0.0268931886,89.1837332 C0.0268931886,88.0958043 0.381731082,87.0375602 1.03757635,86.1695416 Z M36.8117309,79.2637 L49.6358039,79.2637 C52.3972277,79.2637 54.6358039,77.0251237 54.6358039,74.2637 C54.6358039,73.1818489 54.2849146,72.1291809 53.6358039,71.2637 L47.2237674,62.714318 C45.5669132,60.505179 42.4329064,60.0574637 40.2237674,61.714318 C39.8447391,61.9985892 39.5080387,62.3352896 39.2237674,62.714318 L32.8117309,71.2637 C31.1548767,73.472839 31.6025919,76.6068457 33.8117309,78.2637 C34.6772118,78.9128106 35.7298798,79.2637 36.8117309,79.2637 Z M26.8117309,77.7716967 L59.6358039,77.7716967 L26.8117309,77.7716967 Z" id="Shape" fill-rule="nonzero"></path>
                        <rect id="Rectangle" x="0" y="113.98244" width="170" height="40" rx="8"></rect>
                    </g>
                </g>
            </g>
        </g>
    </g>
</svg>