<?xml version="1.0" encoding="UTF-8"?>
<svg width="750px" height="500px" viewBox="0 0 750 500" version="1.1" xmlns="http://www.w3.org/2000/svg" xmlns:xlink="http://www.w3.org/1999/xlink">
    <title>icon</title>
    <defs>
        <rect id="path-1" x="31" y="28" width="688" height="437" rx="20"></rect>
        <filter x="-4.4%" y="-6.9%" width="108.7%" height="113.7%" filterUnits="objectBoundingBox" id="filter-2">
            <feOffset dx="0" dy="0" in="SourceAlpha" result="shadowOffsetOuter1"></feOffset>
            <feGaussianBlur stdDeviation="10" in="shadowOffsetOuter1" result="shadowBlurOuter1"></feGaussianBlur>
            <feComposite in="shadowBlurOuter1" in2="SourceAlpha" operator="out" result="shadowBlurOuter1"></feComposite>
            <feColorMatrix values="0 0 0 0 0.8   0 0 0 0 0.8   0 0 0 0 0.8  0 0 0 1 0" type="matrix" in="shadowBlurOuter1"></feColorMatrix>
        </filter>
    </defs>
    <g id="Page-1" stroke="none" stroke-width="1" fill="none" fill-rule="evenodd">
        <g id="Multi-Step-Form-Modal" transform="translate(-146, -110)">
            <g id="icon" transform="translate(146, 110)">
                <rect id="Rectangle" x="0" y="0" width="750" height="500"></rect>
                <g id="Rectangle">
                    <use fill="black" fill-opacity="1" filter="url(#filter-2)" xlink:href="#path-1"></use>
                    <rect stroke="#FFFFFF" stroke-width="20" stroke-linejoin="square" fill="#FFFFFF" fill-rule="evenodd" x="41" y="38" width="668" height="417" rx="20"></rect>
                </g>
                <path d="M65,48 L686,48 C691.522847,48 696,52.4771525 696,58 L696,435 C696,440.522847 691.522847,445 686,445 L65,445 C59.4771525,445 55,440.522847 55,435 L55,58 C55,52.4771525 59.4771525,48 65,48 Z" id="Rectangle" fill="#C3DFD7"></path>
                <g id="close_24dp_FILL0_wght400_GRAD0_opsz24" transform="translate(644, 74)" fill="#3B8B96" fill-rule="nonzero">
                    <polygon id="Path" points="3.2 32 0 28.8 12.8 16 0 3.2 3.2 0 16 12.8 28.8 0 32 3.2 19.2 16 32 28.8 28.8 32 16 19.2"></polygon>
                </g>
                <g id="Group-19" transform="translate(218, 104)">
                    <path d="M10,0 L132,0 C137.522847,-1.01453063e-15 142,4.4771525 142,10 L142,49 C142,54.5228475 137.522847,59 132,59 L10,59 C4.4771525,59 6.76353751e-16,54.5228475 0,49 L0,10 C-6.76353751e-16,4.4771525 4.4771525,1.01453063e-15 10,0 Z" id="Rectangle" fill="#3B8B96"></path>
                    <path d="M10,78 L304,78 C309.522847,78 314,82.4771525 314,88 L314,127 C314,132.522847 309.522847,137 304,137 L10,137 C4.4771525,137 6.76353751e-16,132.522847 0,127 L0,88 C-6.76353751e-16,82.4771525 4.4771525,78 10,78 Z" id="Rectangle" fill="#3B8B96"></path>
                    <path d="M10,156 L304,156 C309.522847,156 314,160.477153 314,166 L314,205 C314,210.522847 309.522847,215 304,215 L10,215 C4.4771525,215 6.76353751e-16,210.522847 0,205 L0,166 C-6.76353751e-16,160.477153 4.4771525,156 10,156 Z" id="Rectangle" fill="#3B8B96"></path>
                    <path d="M34.3919471,198.171573 L24.7775468,188.557173 C23.7958348,187.575461 23.7958348,185.983791 24.7775468,185.002079 C25.7592588,184.020367 27.3509284,184.020367 28.3326403,185.002079 L34.3919471,191.061386 C35.9540443,192.623483 38.4867042,192.623483 40.0488013,191.061386 L58.3326403,172.777547 C59.3143523,171.795835 60.9060219,171.795835 61.8877339,172.777547 C62.8694459,173.759259 62.8694459,175.350928 61.8877339,176.33264 L40.0488013,198.171573 C38.4867042,199.73367 35.9540443,199.73367 34.3919471,198.171573 Z" id="Path" fill="#FAEBD5" fill-rule="nonzero"></path>
                    <path d="M34.3919471,120.171573 L24.7775468,110.557173 C23.7958348,109.575461 23.7958348,107.983791 24.7775468,107.002079 C25.7592588,106.020367 27.3509284,106.020367 28.3326403,107.002079 L34.3919471,113.061386 C35.9540443,114.623483 38.4867042,114.623483 40.0488013,113.061386 L58.3326403,94.7775468 C59.3143523,93.7958348 60.9060219,93.7958348 61.8877339,94.7775468 C62.8694459,95.7592588 62.8694459,97.3509284 61.8877339,98.3326403 L40.0488013,120.171573 C38.4867042,121.73367 35.9540443,121.73367 34.3919471,120.171573 Z" id="Path" fill="#FAEBD5" fill-rule="nonzero"></path>
                    <path d="M10,230 L304,230 C309.522847,230 314,234.477153 314,240 L314,279 C314,284.522847 309.522847,289 304,289 L10,289 C4.4771525,289 6.76353751e-16,284.522847 0,279 L0,240 C-6.76353751e-16,234.477153 4.4771525,230 10,230 Z" id="Rectangle" fill="#DE6B5A"></path>
                    <path d="M290.28734,255.54507 L282.460499,247.701923 C281.334577,246.573655 281.334577,244.746858 282.460499,243.61859 C283.583397,242.493353 285.40587,242.491456 286.531107,243.614354 C286.532521,243.615764 286.533933,243.617176 286.535343,243.61859 L298.437028,255.54507 C300.384747,257.496847 300.384747,260.657 298.437028,262.608776 L286.535343,274.535256 C285.412445,275.660494 283.589972,275.66239 282.464735,274.539492 C282.463321,274.538082 282.461909,274.53667 282.460499,274.535256 C281.334577,273.406988 281.334577,271.580191 282.460499,270.451923 L290.28734,262.608776 C292.235059,260.657 292.235059,257.496847 290.28734,255.54507 Z" id="Path" fill="#FAEBD5" fill-rule="nonzero"></path>
                </g>
            </g>
        </g>
    </g>
</svg>