<?xml version="1.0" encoding="UTF-8"?>
<svg width="750px" height="500px" viewBox="0 0 750 500" version="1.1" xmlns="http://www.w3.org/2000/svg" xmlns:xlink="http://www.w3.org/1999/xlink">
    <title>icon</title>
    <defs>
        <rect id="path-1" x="31" y="28" width="688" height="437" rx="20"></rect>
        <filter x="-4.4%" y="-6.9%" width="108.7%" height="113.7%" filterUnits="objectBoundingBox" id="filter-2">
            <feOffset dx="0" dy="0" in="SourceAlpha" result="shadowOffsetOuter1"></feOffset>
            <feGaussianBlur stdDeviation="10" in="shadowOffsetOuter1" result="shadowBlurOuter1"></feGaussianBlur>
            <feColorMatrix values="0 0 0 0 0.8   0 0 0 0 0.8   0 0 0 0 0.8  0 0 0 1 0" type="matrix" in="shadowBlurOuter1"></feColorMatrix>
        </filter>
    </defs>
    <g id="Page-1" stroke="none" stroke-width="1" fill="none" fill-rule="evenodd">
        <g id="Image-Price" transform="translate(-146, -110)">
            <g id="icon" transform="translate(146, 110)">
                <rect id="Rectangle" x="0" y="0" width="750" height="500"></rect>
                <g id="Rectangle">
                    <use fill="black" fill-opacity="1" filter="url(#filter-2)" xlink:href="#path-1"></use>
                    <use fill="#F9EBD5" fill-rule="evenodd" xlink:href="#path-1"></use>
                </g>
                <g id="Group-12" transform="translate(51, 48)">
                    <path d="M10,31 L191.666667,31 C197.189514,31 201.666667,35.4771525 201.666667,41 L201.666667,344 C201.666667,349.522847 197.189514,354 191.666667,354 L10,354 C4.4771525,354 6.76353751e-16,349.522847 0,344 L0,41 C-6.76353751e-16,35.4771525 4.4771525,31 10,31 Z" id="Rectangle" fill="#DE6B5A"></path>
                    <path d="M232,0 L413.666667,0 C419.189514,-1.01453063e-15 423.666667,4.4771525 423.666667,10 L423.666667,388 C423.666667,393.522847 419.189514,398 413.666667,398 L232,398 C226.477153,398 222,393.522847 222,388 L222,10 C222,4.4771525 226.477153,1.01453063e-15 232,0 Z" id="Rectangle" fill="#E9AF58"></path>
                    <path d="M248,341 L398,341 C403.522847,341 408,345.477153 408,351 L408,371 C408,376.522847 403.522847,381 398,381 L248,381 C242.477153,381 238,376.522847 238,371 L238,351 C238,345.477153 242.477153,341 248,341 Z" id="Rectangle" fill="#F9EBD5"></path>
                    <path d="M454,31 L635.666667,31 C641.189514,31 645.666667,35.4771525 645.666667,41 L645.666667,344 C645.666667,349.522847 641.189514,354 635.666667,354 L454,354 C448.477153,354 444,349.522847 444,344 L444,41 C444,35.4771525 448.477153,31 454,31 Z" id="Rectangle" fill="#DE6B5A"></path>
                </g>
            </g>
        </g>
    </g>
</svg>