<?xml version="1.0" encoding="UTF-8"?>
<svg width="750px" height="500px" viewBox="0 0 750 500" version="1.1" xmlns="http://www.w3.org/2000/svg" xmlns:xlink="http://www.w3.org/1999/xlink">
    <title>icon</title>
    <defs>
        <rect id="path-1" x="31" y="28" width="688" height="437" rx="20"></rect>
        <filter x="-4.4%" y="-6.9%" width="108.7%" height="113.7%" filterUnits="objectBoundingBox" id="filter-2">
            <feOffset dx="0" dy="0" in="SourceAlpha" result="shadowOffsetOuter1"></feOffset>
            <feGaussianBlur stdDeviation="10" in="shadowOffsetOuter1" result="shadowBlurOuter1"></feGaussianBlur>
            <feColorMatrix values="0 0 0 0 0.8   0 0 0 0 0.8   0 0 0 0 0.8  0 0 0 1 0" type="matrix" in="shadowBlurOuter1"></feColorMatrix>
        </filter>
    </defs>
    <g id="Page-1" stroke="none" stroke-width="1" fill="none" fill-rule="evenodd">
        <g id="Review-Standalone" transform="translate(-146, -110)">
            <g id="icon" transform="translate(146, 110)">
                <rect id="Rectangle" x="0" y="0" width="750" height="500"></rect>
                <g id="Rectangle">
                    <use fill="black" fill-opacity="1" filter="url(#filter-2)" xlink:href="#path-1"></use>
                    <use fill="#FFFFFF" fill-rule="evenodd" xlink:href="#path-1"></use>
                </g>
                <path d="M61,48 L689,48 C694.522847,48 699,52.4771525 699,58 L699,435 C699,440.522847 694.522847,445 689,445 L61,445 C55.4771525,445 51,440.522847 51,435 L51,58 C51,52.4771525 55.4771525,48 61,48 Z" id="Rectangle" fill="#CEE2E5"></path>
                <g id="Group-3" transform="translate(170.8571, 154)">
                    <g id="Group-5" transform="translate(-0, 0)">
                        <rect id="Rectangle" fill="#3B8B96" x="81.1428571" y="109" width="245" height="40" rx="8"></rect>
                        <path d="M36.1039766,56.9839329 L20.8384695,65.009485 C19.3719357,65.7804874 17.5580543,65.2166478 16.7870518,63.7501141 C16.4800346,63.1661326 16.3740906,62.4972284 16.4856211,61.8469555 L19.4010736,44.8485635 C19.5679874,43.8753813 19.2453419,42.8823807 18.5382837,42.1931693 L6.18822899,30.1548412 C5.00177826,28.9983376 4.97750134,27.0989978 6.13400497,25.912547 C6.59453079,25.4400961 7.19795802,25.1326346 7.85086911,25.0377611 L24.9182249,22.5577291 C25.8953554,22.4157437 26.7400522,21.8020356 27.1770382,20.9166052 L34.8097918,5.45095725 C35.5430586,3.96519627 37.3419362,3.35517928 38.8276971,4.08844616 C39.4193349,4.38043687 39.8982175,4.85931944 40.1902082,5.45095725 L47.8229618,20.9166052 C48.2599478,21.8020356 49.1046446,22.4157437 50.0817751,22.5577291 L67.1491309,25.0377611 C68.7887655,25.2760139 69.9248098,26.7983425 69.686557,28.4379771 C69.5916834,29.0908882 69.2842219,29.6943154 68.811771,30.1548412 L56.4617163,42.1931693 C55.7546581,42.8823807 55.4320126,43.8753813 55.5989264,44.8485635 L58.5143789,61.8469555 C58.7944619,63.4799649 57.6976984,65.0308326 56.0646891,65.3109157 C55.4144162,65.4224462 54.7455119,65.3165022 54.1615305,65.009485 L38.8960234,56.9839329 C38.0220513,56.5244586 36.9779487,56.5244586 36.1039766,56.9839329 Z" id="Star" fill="#DE6B5A"></path>
                        <path d="M118.757038,56.9839329 L103.491531,65.009485 C102.024997,65.7804874 100.211115,65.2166478 99.4401131,63.7501141 C99.1330959,63.1661326 99.0271518,62.4972284 99.1386824,61.8469555 L102.054135,44.8485635 C102.221049,43.8753813 101.898403,42.8823807 101.191345,42.1931693 L88.8412902,30.1548412 C87.6548395,28.9983376 87.6305626,27.0989978 88.7870662,25.912547 C89.247592,25.4400961 89.8510192,25.1326346 90.5039303,25.0377611 L107.571286,22.5577291 C108.548417,22.4157437 109.393113,21.8020356 109.830099,20.9166052 L117.462853,5.45095725 C118.19612,3.96519627 119.994997,3.35517928 121.480758,4.08844616 C122.072396,4.38043687 122.551279,4.85931944 122.843269,5.45095725 L130.476023,20.9166052 C130.913009,21.8020356 131.757706,22.4157437 132.734836,22.5577291 L149.802192,25.0377611 C151.441827,25.2760139 152.577871,26.7983425 152.339618,28.4379771 C152.244745,29.0908882 151.937283,29.6943154 151.464832,30.1548412 L139.114778,42.1931693 C138.407719,42.8823807 138.085074,43.8753813 138.251988,44.8485635 L141.16744,61.8469555 C141.447523,63.4799649 140.35076,65.0308326 138.71775,65.3109157 C138.067477,65.4224462 137.398573,65.3165022 136.814592,65.009485 L121.549085,56.9839329 C120.675113,56.5244586 119.63101,56.5244586 118.757038,56.9839329 Z" id="Star" fill="#DE6B5A"></path>
                        <path d="M202.940711,56.9839329 L187.675204,65.009485 C186.20867,65.7804874 184.394789,65.2166478 183.623787,63.7501141 C183.316769,63.1661326 183.210825,62.4972284 183.322356,61.8469555 L186.237808,44.8485635 C186.404722,43.8753813 186.082077,42.8823807 185.375018,42.1931693 L173.024964,30.1548412 C171.838513,28.9983376 171.814236,27.0989978 172.97074,25.912547 C173.431265,25.4400961 174.034693,25.1326346 174.687604,25.0377611 L191.75496,22.5577291 C192.73209,22.4157437 193.576787,21.8020356 194.013773,20.9166052 L201.646526,5.45095725 C202.379793,3.96519627 204.178671,3.35517928 205.664432,4.08844616 C206.25607,4.38043687 206.734952,4.85931944 207.026943,5.45095725 L214.659696,20.9166052 C215.096683,21.8020356 215.941379,22.4157437 216.91851,22.5577291 L233.985866,25.0377611 C235.6255,25.2760139 236.761545,26.7983425 236.523292,28.4379771 C236.428418,29.0908882 236.120957,29.6943154 235.648506,30.1548412 L223.298451,42.1931693 C222.591393,42.8823807 222.268747,43.8753813 222.435661,44.8485635 L225.351114,61.8469555 C225.631197,63.4799649 224.534433,65.0308326 222.901424,65.3109157 C222.251151,65.4224462 221.582247,65.3165022 220.998265,65.009485 L205.732758,56.9839329 C204.858786,56.5244586 203.814683,56.5244586 202.940711,56.9839329 Z" id="Star" fill="#DE6B5A"></path>
                        <path d="M285.593773,56.9839329 L270.328265,65.009485 C268.861732,65.7804874 267.04785,65.2166478 266.276848,63.7501141 C265.969831,63.1661326 265.863887,62.4972284 265.975417,61.8469555 L268.890869,44.8485635 C269.057783,43.8753813 268.735138,42.8823807 268.02808,42.1931693 L255.678025,30.1548412 C254.491574,28.9983376 254.467297,27.0989978 255.623801,25.912547 C256.084327,25.4400961 256.687754,25.1326346 257.340665,25.0377611 L274.408021,22.5577291 C275.385151,22.4157437 276.229848,21.8020356 276.666834,20.9166052 L284.299588,5.45095725 C285.032855,3.96519627 286.831732,3.35517928 288.317493,4.08844616 C288.909131,4.38043687 289.388013,4.85931944 289.680004,5.45095725 L297.312758,20.9166052 C297.749744,21.8020356 298.594441,22.4157437 299.571571,22.5577291 L316.638927,25.0377611 C318.278561,25.2760139 319.414606,26.7983425 319.176353,28.4379771 C319.081479,29.0908882 318.774018,29.6943154 318.301567,30.1548412 L305.951512,42.1931693 C305.244454,42.8823807 304.921809,43.8753813 305.088722,44.8485635 L308.004175,61.8469555 C308.284258,63.4799649 307.187494,65.0308326 305.554485,65.3109157 C304.904212,65.4224462 304.235308,65.3165022 303.651326,65.009485 L288.385819,56.9839329 C287.511847,56.5244586 286.467745,56.5244586 285.593773,56.9839329 Z" id="Star" fill="#DE6B5A"></path>
                        <path d="M368.246834,56.9839329 L352.981327,65.009485 C351.514793,65.7804874 349.700911,65.2166478 348.929909,63.7501141 C348.622892,63.1661326 348.516948,62.4972284 348.628478,61.8469555 L351.543931,44.8485635 C351.710845,43.8753813 351.388199,42.8823807 350.681141,42.1931693 L338.331086,30.1548412 C337.144635,28.9983376 337.120358,27.0989978 338.276862,25.912547 C338.737388,25.4400961 339.340815,25.1326346 339.993726,25.0377611 L357.061082,22.5577291 C358.038213,22.4157437 358.882909,21.8020356 359.319895,20.9166052 L366.952649,5.45095725 C367.685916,3.96519627 369.484793,3.35517928 370.970554,4.08844616 C371.562192,4.38043687 372.041075,4.85931944 372.333065,5.45095725 L379.965819,20.9166052 C380.402805,21.8020356 381.247502,22.4157437 382.224632,22.5577291 L399.291988,25.0377611 C400.931623,25.2760139 402.067667,26.7983425 401.829414,28.4379771 C401.734541,29.0908882 401.427079,29.6943154 400.954628,30.1548412 L388.604573,42.1931693 C387.897515,42.8823807 387.57487,43.8753813 387.741784,44.8485635 L390.657236,61.8469555 C390.937319,63.4799649 389.840556,65.0308326 388.207546,65.3109157 C387.557273,65.4224462 386.888369,65.3165022 386.304388,65.009485 L371.038881,56.9839329 C370.164908,56.5244586 369.120806,56.5244586 368.246834,56.9839329 Z" id="Star" fill="#DE6B5A"></path>
                        <rect id="Rectangle" fill="#3B8B96" x="157.142857" y="159" width="93" height="40" rx="8"></rect>
                    </g>
                </g>
            </g>
        </g>
    </g>
</svg>