<?xml version="1.0" encoding="UTF-8"?>
<svg width="750px" height="500px" viewBox="0 0 750 500" version="1.1" xmlns="http://www.w3.org/2000/svg" xmlns:xlink="http://www.w3.org/1999/xlink">
    <title>icon</title>
    <defs>
        <rect id="path-1" x="31" y="28" width="688" height="437" rx="20"></rect>
        <filter x="-4.4%" y="-6.9%" width="108.7%" height="113.7%" filterUnits="objectBoundingBox" id="filter-2">
            <feOffset dx="0" dy="0" in="SourceAlpha" result="shadowOffsetOuter1"></feOffset>
            <feGaussianBlur stdDeviation="10" in="shadowOffsetOuter1" result="shadowBlurOuter1"></feGaussianBlur>
            <feColorMatrix values="0 0 0 0 0.8   0 0 0 0 0.8   0 0 0 0 0.8  0 0 0 1 0" type="matrix" in="shadowBlurOuter1"></feColorMatrix>
        </filter>
    </defs>
    <g id="Page-1" stroke="none" stroke-width="1" fill="none" fill-rule="evenodd">
        <g id="Masonry" transform="translate(-146, -110)">
            <g id="icon" transform="translate(146, 110)">
                <rect id="Rectangle" x="0" y="0" width="750" height="500"></rect>
                <g id="Rectangle">
                    <use fill="black" fill-opacity="1" filter="url(#filter-2)" xlink:href="#path-1"></use>
                    <use fill="#FFFFFF" fill-rule="evenodd" xlink:href="#path-1"></use>
                </g>
                <g id="Group-12" transform="translate(51, 48)">
                    <path d="M10,0 L304,0 C309.522847,-1.01453063e-15 314,4.4771525 314,10 L314,267 C314,272.522847 309.522847,277 304,277 L10,277 C4.4771525,277 6.76353751e-16,272.522847 0,267 L0,10 C-6.76353751e-16,4.4771525 4.4771525,1.01453063e-15 10,0 Z" id="Rectangle" fill="#CCE5E8"></path>
                    <path d="M10,302 L304,302 C309.522847,302 314,306.477153 314,312 L314,387 C314,392.522847 309.522847,397 304,397 L10,397 C4.4771525,397 6.76353751e-16,392.522847 0,387 L0,312 C-6.76353751e-16,306.477153 4.4771525,302 10,302 Z" id="Rectangle" fill="#CCE5E8"></path>
                    <path d="M55.0130859,150.697545 L105.503936,83.9829086 C107.170383,81.7809968 110.306307,81.3469167 112.508219,83.0133636 C112.87439,83.2904888 113.200639,83.6167373 113.477764,83.9829086 L153.39945,136.732283 C154.344571,137.981093 155.820228,138.714914 157.386364,138.714914 L220.511942,138.714914 C223.273366,138.714914 225.511942,136.476338 225.511942,133.714914 C225.511942,132.62356 225.15487,131.562176 224.495218,130.692743 L184.095478,77.4451589 C182.42638,75.2452566 179.289934,74.8149553 177.090032,76.4840541 C176.732262,76.7554996 176.412693,77.0739082 176.139948,77.4306884 L158.872196,100.018775 C157.195105,102.212591 154.057115,102.631479 151.863299,100.954389 C151.511358,100.685342 151.196732,100.370717 150.927686,100.018775 L144.596075,91.7363441 C143.23121,89.9509525 143.225213,87.4743142 144.581416,85.6823338 L176.140299,43.9829086 C177.806746,41.7809968 180.942671,41.3469167 183.144582,43.0133636 C183.510754,43.2904888 183.837002,43.6167373 184.114128,43.9829086 L264.877705,150.697545 C266.544151,152.899457 266.110071,156.035381 263.90816,157.701828 C263.039577,158.359187 261.980083,158.714914 260.89079,158.714914 L59,158.714914 C56.2385763,158.714914 54,156.476338 54,153.714914 C54,152.625622 54.3557266,151.566128 55.0130859,150.697545 Z M98.8714314,139.714914 L119.019359,139.714914 C121.780783,139.714914 124.019359,137.476338 124.019359,134.714914 C124.019359,133.643242 123.675034,132.599926 123.037145,131.738776 L112.963181,118.138925 C111.319506,115.919963 108.188219,115.453601 105.969257,117.097277 C105.572516,117.391159 105.221492,117.742184 104.927609,118.138925 L94.8536454,131.738776 C93.2099699,133.957738 93.6763317,137.089025 95.8952936,138.7327 C96.7564432,139.370589 97.7997596,139.714914 98.8714314,139.714914 Z M88.9453952,138.214914 L128.945395,138.214914 L88.9453952,138.214914 Z" id="Shape" fill="#3B8B96" fill-rule="nonzero"></path>
                    <g id="stars" transform="translate(54, 175)" fill="#3B8B96">
                        <path d="M18.1039766,29.9839329 L13.418604,32.4471791 C11.9520703,33.2181815 10.1381888,32.6543419 9.36718639,31.1878082 C9.06016918,30.6038267 8.95422516,29.9349225 9.06575569,29.2846496 L9.96058222,24.0674106 C10.127496,23.0942284 9.80485058,22.1012278 9.09779233,21.4120163 L5.30724629,17.7171471 C4.12079555,16.5606435 4.09651863,14.6613037 5.25302227,13.4748529 C5.71354808,13.002402 6.31697531,12.6949405 6.96988641,12.600067 L12.2082922,11.8388821 C13.1854227,11.6968967 14.0301194,11.0831886 14.4671055,10.1977581 L16.8097918,5.45095725 C17.5430586,3.96519627 19.3419362,3.35517928 20.8276971,4.08844616 C21.4193349,4.38043687 21.8982175,4.85931944 22.1902082,5.45095725 L24.5328945,10.1977581 C24.9698806,11.0831886 25.8145773,11.6968967 26.7917078,11.8388821 L32.0301136,12.600067 C33.6697482,12.8383198 34.8057925,14.3606484 34.5675397,16.000283 C34.4726662,16.6531941 34.1652046,17.2566213 33.6927537,17.7171471 L29.9022077,21.4120163 C29.1951494,22.1012278 28.872504,23.0942284 29.0394178,24.0674106 L29.9342443,29.2846496 C30.2143273,30.917659 29.1175639,32.4685267 27.4845545,32.7486098 C26.8342816,32.8601403 26.1653774,32.7541963 25.581396,32.4471791 L20.8960234,29.9839329 C20.0220513,29.5244586 18.9779487,29.5244586 18.1039766,29.9839329 Z" id="Star"></path>
                        <path d="M61.1039766,29.9839329 L56.418604,32.4471791 C54.9520703,33.2181815 53.1381888,32.6543419 52.3671864,31.1878082 C52.0601692,30.6038267 51.9542252,29.9349225 52.0657557,29.2846496 L52.9605822,24.0674106 C53.127496,23.0942284 52.8048506,22.1012278 52.0977923,21.4120163 L48.3072463,17.7171471 C47.1207956,16.5606435 47.0965186,14.6613037 48.2530223,13.4748529 C48.7135481,13.002402 49.3169753,12.6949405 49.9698864,12.600067 L55.2082922,11.8388821 C56.1854227,11.6968967 57.0301194,11.0831886 57.4671055,10.1977581 L59.8097918,5.45095725 C60.5430586,3.96519627 62.3419362,3.35517928 63.8276971,4.08844616 C64.4193349,4.38043687 64.8982175,4.85931944 65.1902082,5.45095725 L67.5328945,10.1977581 C67.9698806,11.0831886 68.8145773,11.6968967 69.7917078,11.8388821 L75.0301136,12.600067 C76.6697482,12.8383198 77.8057925,14.3606484 77.5675397,16.000283 C77.4726662,16.6531941 77.1652046,17.2566213 76.6927537,17.7171471 L72.9022077,21.4120163 C72.1951494,22.1012278 71.872504,23.0942284 72.0394178,24.0674106 L72.9342443,29.2846496 C73.2143273,30.917659 72.1175639,32.4685267 70.4845545,32.7486098 C69.8342816,32.8601403 69.1653774,32.7541963 68.581396,32.4471791 L63.8960234,29.9839329 C63.0220513,29.5244586 61.9779487,29.5244586 61.1039766,29.9839329 Z" id="Star"></path>
                        <path d="M105.103977,29.9839329 L100.418604,32.4471791 C98.9520703,33.2181815 97.1381888,32.6543419 96.3671864,31.1878082 C96.0601692,30.6038267 95.9542252,29.9349225 96.0657557,29.2846496 L96.9605822,24.0674106 C97.127496,23.0942284 96.8048506,22.1012278 96.0977923,21.4120163 L92.3072463,17.7171471 C91.1207956,16.5606435 91.0965186,14.6613037 92.2530223,13.4748529 C92.7135481,13.002402 93.3169753,12.6949405 93.9698864,12.600067 L99.2082922,11.8388821 C100.185423,11.6968967 101.030119,11.0831886 101.467105,10.1977581 L103.809792,5.45095725 C104.543059,3.96519627 106.341936,3.35517928 107.827697,4.08844616 C108.419335,4.38043687 108.898218,4.85931944 109.190208,5.45095725 L111.532895,10.1977581 C111.969881,11.0831886 112.814577,11.6968967 113.791708,11.8388821 L119.030114,12.600067 C120.669748,12.8383198 121.805793,14.3606484 121.56754,16.000283 C121.472666,16.6531941 121.165205,17.2566213 120.692754,17.7171471 L116.902208,21.4120163 C116.195149,22.1012278 115.872504,23.0942284 116.039418,24.0674106 L116.934244,29.2846496 C117.214327,30.917659 116.117564,32.4685267 114.484555,32.7486098 C113.834282,32.8601403 113.165377,32.7541963 112.581396,32.4471791 L107.896023,29.9839329 C107.022051,29.5244586 105.977949,29.5244586 105.103977,29.9839329 Z" id="Star"></path>
                        <path d="M148.103977,29.9839329 L143.418604,32.4471791 C141.95207,33.2181815 140.138189,32.6543419 139.367186,31.1878082 C139.060169,30.6038267 138.954225,29.9349225 139.065756,29.2846496 L139.960582,24.0674106 C140.127496,23.0942284 139.804851,22.1012278 139.097792,21.4120163 L135.307246,17.7171471 C134.120796,16.5606435 134.096519,14.6613037 135.253022,13.4748529 C135.713548,13.002402 136.316975,12.6949405 136.969886,12.600067 L142.208292,11.8388821 C143.185423,11.6968967 144.030119,11.0831886 144.467105,10.1977581 L146.809792,5.45095725 C147.543059,3.96519627 149.341936,3.35517928 150.827697,4.08844616 C151.419335,4.38043687 151.898218,4.85931944 152.190208,5.45095725 L154.532895,10.1977581 C154.969881,11.0831886 155.814577,11.6968967 156.791708,11.8388821 L162.030114,12.600067 C163.669748,12.8383198 164.805793,14.3606484 164.56754,16.000283 C164.472666,16.6531941 164.165205,17.2566213 163.692754,17.7171471 L159.902208,21.4120163 C159.195149,22.1012278 158.872504,23.0942284 159.039418,24.0674106 L159.934244,29.2846496 C160.214327,30.917659 159.117564,32.4685267 157.484555,32.7486098 C156.834282,32.8601403 156.165377,32.7541963 155.581396,32.4471791 L150.896023,29.9839329 C150.022051,29.5244586 148.977949,29.5244586 148.103977,29.9839329 Z" id="Star"></path>
                        <path d="M191.103977,29.9839329 L186.418604,32.4471791 C184.95207,33.2181815 183.138189,32.6543419 182.367186,31.1878082 C182.060169,30.6038267 181.954225,29.9349225 182.065756,29.2846496 L182.960582,24.0674106 C183.127496,23.0942284 182.804851,22.1012278 182.097792,21.4120163 L178.307246,17.7171471 C177.120796,16.5606435 177.096519,14.6613037 178.253022,13.4748529 C178.713548,13.002402 179.316975,12.6949405 179.969886,12.600067 L185.208292,11.8388821 C186.185423,11.6968967 187.030119,11.0831886 187.467105,10.1977581 L189.809792,5.45095725 C190.543059,3.96519627 192.341936,3.35517928 193.827697,4.08844616 C194.419335,4.38043687 194.898218,4.85931944 195.190208,5.45095725 L197.532895,10.1977581 C197.969881,11.0831886 198.814577,11.6968967 199.791708,11.8388821 L205.030114,12.600067 C206.669748,12.8383198 207.805793,14.3606484 207.56754,16.000283 C207.472666,16.6531941 207.165205,17.2566213 206.692754,17.7171471 L202.902208,21.4120163 C202.195149,22.1012278 201.872504,23.0942284 202.039418,24.0674106 L202.934244,29.2846496 C203.214327,30.917659 202.117564,32.4685267 200.484555,32.7486098 C199.834282,32.8601403 199.165377,32.7541963 198.581396,32.4471791 L193.896023,29.9839329 C193.022051,29.5244586 191.977949,29.5244586 191.103977,29.9839329 Z" id="Star"></path>
                    </g>
                </g>
                <g id="Group-12" transform="translate(385, 48)">
                    <path d="M10,120 L304,120 C309.522847,120 314,124.477153 314,130 L314,387 C314,392.522847 309.522847,397 304,397 L10,397 C4.4771525,397 6.76353751e-16,392.522847 0,387 L0,130 C-6.76353751e-16,124.477153 4.4771525,120 10,120 Z" id="Rectangle" fill="#975D48"></path>
                    <path d="M10,0 L304,0 C309.522847,-1.01453063e-15 314,4.4771525 314,10 L314,85 C314,90.5228475 309.522847,95 304,95 L10,95 C4.4771525,95 6.76353751e-16,90.5228475 0,85 L0,10 C-6.76353751e-16,4.4771525 4.4771525,1.01453063e-15 10,0 Z" id="Rectangle" fill="#CCE5E8"></path>
                    <path d="M55.0130859,270.697545 L105.503936,203.982909 C107.170383,201.780997 110.306307,201.346917 112.508219,203.013364 C112.87439,203.290489 113.200639,203.616737 113.477764,203.982909 L153.39945,256.732283 C154.344571,257.981093 155.820228,258.714914 157.386364,258.714914 L220.511942,258.714914 C223.273366,258.714914 225.511942,256.476338 225.511942,253.714914 C225.511942,252.62356 225.15487,251.562176 224.495218,250.692743 L184.095478,197.445159 C182.42638,195.245257 179.289934,194.814955 177.090032,196.484054 C176.732262,196.7555 176.412693,197.073908 176.139948,197.430688 L158.872196,220.018775 C157.195105,222.212591 154.057115,222.631479 151.863299,220.954389 C151.511358,220.685342 151.196732,220.370717 150.927686,220.018775 L144.596075,211.736344 C143.23121,209.950953 143.225213,207.474314 144.581416,205.682334 L176.140299,163.982909 C177.806746,161.780997 180.942671,161.346917 183.144582,163.013364 C183.510754,163.290489 183.837002,163.616737 184.114128,163.982909 L264.877705,270.697545 C266.544151,272.899457 266.110071,276.035381 263.90816,277.701828 C263.039577,278.359187 261.980083,278.714914 260.89079,278.714914 L59,278.714914 C56.2385763,278.714914 54,276.476338 54,273.714914 C54,272.625622 54.3557266,271.566128 55.0130859,270.697545 Z M98.8714314,259.714914 L119.019359,259.714914 C121.780783,259.714914 124.019359,257.476338 124.019359,254.714914 C124.019359,253.643242 123.675034,252.599926 123.037145,251.738776 L112.963181,238.138925 C111.319506,235.919963 108.188219,235.453601 105.969257,237.097277 C105.572516,237.391159 105.221492,237.742184 104.927609,238.138925 L94.8536454,251.738776 C93.2099699,253.957738 93.6763317,257.089025 95.8952936,258.7327 C96.7564432,259.370589 97.7997596,259.714914 98.8714314,259.714914 Z M88.9453952,258.214914 L128.945395,258.214914 L88.9453952,258.214914 Z" id="Shape" fill="#FFFFFF" fill-rule="nonzero"></path>
                    <g id="stars" transform="translate(55, 302)" fill="#FFFFFF">
                        <path d="M18.1039766,29.9839329 L13.418604,32.4471791 C11.9520703,33.2181815 10.1381888,32.6543419 9.36718639,31.1878082 C9.06016918,30.6038267 8.95422516,29.9349225 9.06575569,29.2846496 L9.96058222,24.0674106 C10.127496,23.0942284 9.80485058,22.1012278 9.09779233,21.4120163 L5.30724629,17.7171471 C4.12079555,16.5606435 4.09651863,14.6613037 5.25302227,13.4748529 C5.71354808,13.002402 6.31697531,12.6949405 6.96988641,12.600067 L12.2082922,11.8388821 C13.1854227,11.6968967 14.0301194,11.0831886 14.4671055,10.1977581 L16.8097918,5.45095725 C17.5430586,3.96519627 19.3419362,3.35517928 20.8276971,4.08844616 C21.4193349,4.38043687 21.8982175,4.85931944 22.1902082,5.45095725 L24.5328945,10.1977581 C24.9698806,11.0831886 25.8145773,11.6968967 26.7917078,11.8388821 L32.0301136,12.600067 C33.6697482,12.8383198 34.8057925,14.3606484 34.5675397,16.000283 C34.4726662,16.6531941 34.1652046,17.2566213 33.6927537,17.7171471 L29.9022077,21.4120163 C29.1951494,22.1012278 28.872504,23.0942284 29.0394178,24.0674106 L29.9342443,29.2846496 C30.2143273,30.917659 29.1175639,32.4685267 27.4845545,32.7486098 C26.8342816,32.8601403 26.1653774,32.7541963 25.581396,32.4471791 L20.8960234,29.9839329 C20.0220513,29.5244586 18.9779487,29.5244586 18.1039766,29.9839329 Z" id="Star"></path>
                        <path d="M61.1039766,29.9839329 L56.418604,32.4471791 C54.9520703,33.2181815 53.1381888,32.6543419 52.3671864,31.1878082 C52.0601692,30.6038267 51.9542252,29.9349225 52.0657557,29.2846496 L52.9605822,24.0674106 C53.127496,23.0942284 52.8048506,22.1012278 52.0977923,21.4120163 L48.3072463,17.7171471 C47.1207956,16.5606435 47.0965186,14.6613037 48.2530223,13.4748529 C48.7135481,13.002402 49.3169753,12.6949405 49.9698864,12.600067 L55.2082922,11.8388821 C56.1854227,11.6968967 57.0301194,11.0831886 57.4671055,10.1977581 L59.8097918,5.45095725 C60.5430586,3.96519627 62.3419362,3.35517928 63.8276971,4.08844616 C64.4193349,4.38043687 64.8982175,4.85931944 65.1902082,5.45095725 L67.5328945,10.1977581 C67.9698806,11.0831886 68.8145773,11.6968967 69.7917078,11.8388821 L75.0301136,12.600067 C76.6697482,12.8383198 77.8057925,14.3606484 77.5675397,16.000283 C77.4726662,16.6531941 77.1652046,17.2566213 76.6927537,17.7171471 L72.9022077,21.4120163 C72.1951494,22.1012278 71.872504,23.0942284 72.0394178,24.0674106 L72.9342443,29.2846496 C73.2143273,30.917659 72.1175639,32.4685267 70.4845545,32.7486098 C69.8342816,32.8601403 69.1653774,32.7541963 68.581396,32.4471791 L63.8960234,29.9839329 C63.0220513,29.5244586 61.9779487,29.5244586 61.1039766,29.9839329 Z" id="Star"></path>
                        <path d="M105.103977,29.9839329 L100.418604,32.4471791 C98.9520703,33.2181815 97.1381888,32.6543419 96.3671864,31.1878082 C96.0601692,30.6038267 95.9542252,29.9349225 96.0657557,29.2846496 L96.9605822,24.0674106 C97.127496,23.0942284 96.8048506,22.1012278 96.0977923,21.4120163 L92.3072463,17.7171471 C91.1207956,16.5606435 91.0965186,14.6613037 92.2530223,13.4748529 C92.7135481,13.002402 93.3169753,12.6949405 93.9698864,12.600067 L99.2082922,11.8388821 C100.185423,11.6968967 101.030119,11.0831886 101.467105,10.1977581 L103.809792,5.45095725 C104.543059,3.96519627 106.341936,3.35517928 107.827697,4.08844616 C108.419335,4.38043687 108.898218,4.85931944 109.190208,5.45095725 L111.532895,10.1977581 C111.969881,11.0831886 112.814577,11.6968967 113.791708,11.8388821 L119.030114,12.600067 C120.669748,12.8383198 121.805793,14.3606484 121.56754,16.000283 C121.472666,16.6531941 121.165205,17.2566213 120.692754,17.7171471 L116.902208,21.4120163 C116.195149,22.1012278 115.872504,23.0942284 116.039418,24.0674106 L116.934244,29.2846496 C117.214327,30.917659 116.117564,32.4685267 114.484555,32.7486098 C113.834282,32.8601403 113.165377,32.7541963 112.581396,32.4471791 L107.896023,29.9839329 C107.022051,29.5244586 105.977949,29.5244586 105.103977,29.9839329 Z" id="Star"></path>
                        <path d="M148.103977,29.9839329 L143.418604,32.4471791 C141.95207,33.2181815 140.138189,32.6543419 139.367186,31.1878082 C139.060169,30.6038267 138.954225,29.9349225 139.065756,29.2846496 L139.960582,24.0674106 C140.127496,23.0942284 139.804851,22.1012278 139.097792,21.4120163 L135.307246,17.7171471 C134.120796,16.5606435 134.096519,14.6613037 135.253022,13.4748529 C135.713548,13.002402 136.316975,12.6949405 136.969886,12.600067 L142.208292,11.8388821 C143.185423,11.6968967 144.030119,11.0831886 144.467105,10.1977581 L146.809792,5.45095725 C147.543059,3.96519627 149.341936,3.35517928 150.827697,4.08844616 C151.419335,4.38043687 151.898218,4.85931944 152.190208,5.45095725 L154.532895,10.1977581 C154.969881,11.0831886 155.814577,11.6968967 156.791708,11.8388821 L162.030114,12.600067 C163.669748,12.8383198 164.805793,14.3606484 164.56754,16.000283 C164.472666,16.6531941 164.165205,17.2566213 163.692754,17.7171471 L159.902208,21.4120163 C159.195149,22.1012278 158.872504,23.0942284 159.039418,24.0674106 L159.934244,29.2846496 C160.214327,30.917659 159.117564,32.4685267 157.484555,32.7486098 C156.834282,32.8601403 156.165377,32.7541963 155.581396,32.4471791 L150.896023,29.9839329 C150.022051,29.5244586 148.977949,29.5244586 148.103977,29.9839329 Z" id="Star"></path>
                        <path d="M191.103977,29.9839329 L186.418604,32.4471791 C184.95207,33.2181815 183.138189,32.6543419 182.367186,31.1878082 C182.060169,30.6038267 181.954225,29.9349225 182.065756,29.2846496 L182.960582,24.0674106 C183.127496,23.0942284 182.804851,22.1012278 182.097792,21.4120163 L178.307246,17.7171471 C177.120796,16.5606435 177.096519,14.6613037 178.253022,13.4748529 C178.713548,13.002402 179.316975,12.6949405 179.969886,12.600067 L185.208292,11.8388821 C186.185423,11.6968967 187.030119,11.0831886 187.467105,10.1977581 L189.809792,5.45095725 C190.543059,3.96519627 192.341936,3.35517928 193.827697,4.08844616 C194.419335,4.38043687 194.898218,4.85931944 195.190208,5.45095725 L197.532895,10.1977581 C197.969881,11.0831886 198.814577,11.6968967 199.791708,11.8388821 L205.030114,12.600067 C206.669748,12.8383198 207.805793,14.3606484 207.56754,16.000283 C207.472666,16.6531941 207.165205,17.2566213 206.692754,17.7171471 L202.902208,21.4120163 C202.195149,22.1012278 201.872504,23.0942284 202.039418,24.0674106 L202.934244,29.2846496 C203.214327,30.917659 202.117564,32.4685267 200.484555,32.7486098 C199.834282,32.8601403 199.165377,32.7541963 198.581396,32.4471791 L193.896023,29.9839329 C193.022051,29.5244586 191.977949,29.5244586 191.103977,29.9839329 Z" id="Star"></path>
                    </g>
                </g>
            </g>
        </g>
    </g>
</svg>