<?xml version="1.0" encoding="UTF-8"?>
<svg width="726px" height="477px" viewBox="0 0 726 477" version="1.1" xmlns="http://www.w3.org/2000/svg" xmlns:xlink="http://www.w3.org/1999/xlink">
    <title>icon</title>
    <defs>
        <path d="M10,0 L636,0 C641.522847,-1.01453063e-15 646,4.4771525 646,10 L646,387 C646,392.522847 641.522847,397 636,397 L10,397 C4.4771525,397 6.76353751e-16,392.522847 0,387 L0,10 C-6.76353751e-16,4.4771525 4.4771525,1.01453063e-15 10,0 Z" id="path-1"></path>
        <filter x="-7.7%" y="-12.6%" width="115.5%" height="125.2%" filterUnits="objectBoundingBox" id="filter-2">
            <feMorphology radius="20" operator="dilate" in="SourceAlpha" result="shadowSpreadOuter1"></feMorphology>
            <feOffset dx="0" dy="0" in="shadowSpreadOuter1" result="shadowOffsetOuter1"></feOffset>
            <feGaussianBlur stdDeviation="10" in="shadowOffsetOuter1" result="shadowBlurOuter1"></feGaussianBlur>
            <feComposite in="shadowBlurOuter1" in2="SourceAlpha" operator="out" result="shadowBlurOuter1"></feComposite>
            <feColorMatrix values="0 0 0 0 0.8   0 0 0 0 0.8   0 0 0 0 0.8  0 0 0 1 0" type="matrix" in="shadowBlurOuter1"></feColorMatrix>
        </filter>
    </defs>
    <g id="Page-1" stroke="none" stroke-width="1" fill="none" fill-rule="evenodd">
        <g id="Review-Parallax" transform="translate(-157, -118)">
            <g id="icon" transform="translate(197, 158)">
                <g id="vh-box">
                    <use fill="black" fill-opacity="1" filter="url(#filter-2)" xlink:href="#path-1"></use>
                    <path stroke="#FFFFFF" stroke-width="20" d="M636,-10 C641.522847,-10 646.522847,-7.76142375 650.142136,-4.14213562 C653.761424,-0.522847498 656,4.4771525 656,10 L656,387 C656,392.522847 653.761424,397.522847 650.142136,401.142136 C646.522847,404.761424 641.522847,407 636,407 L10,407 C4.4771525,407 -0.522847498,404.761424 -4.14213562,401.142136 C-7.76142375,397.522847 -10,392.522847 -10,387 L-10,10 C-10,4.4771525 -7.76142375,-0.522847498 -4.14213562,-4.14213562 C-0.522847498,-7.76142375 4.4771525,-10 10,-10 Z" fill="#CCE5E8" fill-rule="evenodd"></path>
                </g>
                <g id="vh-text" transform="translate(157, 101)">
                    <g id="stars" fill="#3B8B96">
                        <path d="M29.1039766,46.4839329 L17.9529663,52.346366 C16.4864325,53.1173684 14.672551,52.5535289 13.9015486,51.0869951 C13.5945314,50.5030137 13.4885874,49.8341094 13.6001179,49.1838366 L15.7297714,36.767004 C15.8966852,35.7938218 15.5740397,34.8008212 14.8669815,34.1116098 L5.84562461,25.3179602 C4.65917387,24.1614565 4.63489695,22.2621167 5.79140059,21.075666 C6.2519264,20.6032151 6.85535364,20.2957536 7.50826473,20.20088 L19.9754733,18.3892886 C20.9526038,18.2473032 21.7973006,17.6335951 22.2342866,16.7481647 L27.8097918,5.45095725 C28.5430586,3.96519627 30.3419362,3.35517928 31.8276971,4.08844616 C32.4193349,4.38043687 32.8982175,4.85931944 33.1902082,5.45095725 L38.7657134,16.7481647 C39.2026994,17.6335951 40.0473962,18.2473032 41.0245267,18.3892886 L53.4917353,20.20088 C55.1313699,20.4391329 56.2674142,21.9614614 56.0291614,23.601096 C55.9342878,24.2540071 55.6268263,24.8574344 55.1543754,25.3179602 L46.1330185,34.1116098 C45.4259603,34.8008212 45.1033148,35.7938218 45.2702286,36.767004 L47.3998821,49.1838366 C47.6799651,50.8168459 46.5832016,52.3677137 44.9501923,52.6477967 C44.2999194,52.7593272 43.6310152,52.6533832 43.0470337,52.346366 L31.8960234,46.4839329 C31.0220513,46.0244586 29.9779487,46.0244586 29.1039766,46.4839329 Z" id="Star"></path>
                        <path d="M97.1039766,46.4839329 L85.9529663,52.346366 C84.4864325,53.1173684 82.672551,52.5535289 81.9015486,51.0869951 C81.5945314,50.5030137 81.4885874,49.8341094 81.6001179,49.1838366 L83.7297714,36.767004 C83.8966852,35.7938218 83.5740397,34.8008212 82.8669815,34.1116098 L73.8456246,25.3179602 C72.6591739,24.1614565 72.634897,22.2621167 73.7914006,21.075666 C74.2519264,20.6032151 74.8553536,20.2957536 75.5082647,20.20088 L87.9754733,18.3892886 C88.9526038,18.2473032 89.7973006,17.6335951 90.2342866,16.7481647 L95.8097918,5.45095725 C96.5430586,3.96519627 98.3419362,3.35517928 99.8276971,4.08844616 C100.419335,4.38043687 100.898218,4.85931944 101.190208,5.45095725 L106.765713,16.7481647 C107.202699,17.6335951 108.047396,18.2473032 109.024527,18.3892886 L121.491735,20.20088 C123.13137,20.4391329 124.267414,21.9614614 124.029161,23.601096 C123.934288,24.2540071 123.626826,24.8574344 123.154375,25.3179602 L114.133019,34.1116098 C113.42596,34.8008212 113.103315,35.7938218 113.270229,36.767004 L115.399882,49.1838366 C115.679965,50.8168459 114.583202,52.3677137 112.950192,52.6477967 C112.299919,52.7593272 111.631015,52.6533832 111.047034,52.346366 L99.8960234,46.4839329 C99.0220513,46.0244586 97.9779487,46.0244586 97.1039766,46.4839329 Z" id="Star"></path>
                        <path d="M166.103977,46.4839329 L154.952966,52.346366 C153.486433,53.1173684 151.672551,52.5535289 150.901549,51.0869951 C150.594531,50.5030137 150.488587,49.8341094 150.600118,49.1838366 L152.729771,36.767004 C152.896685,35.7938218 152.57404,34.8008212 151.866981,34.1116098 L142.845625,25.3179602 C141.659174,24.1614565 141.634897,22.2621167 142.791401,21.075666 C143.251926,20.6032151 143.855354,20.2957536 144.508265,20.20088 L156.975473,18.3892886 C157.952604,18.2473032 158.797301,17.6335951 159.234287,16.7481647 L164.809792,5.45095725 C165.543059,3.96519627 167.341936,3.35517928 168.827697,4.08844616 C169.419335,4.38043687 169.898218,4.85931944 170.190208,5.45095725 L175.765713,16.7481647 C176.202699,17.6335951 177.047396,18.2473032 178.024527,18.3892886 L190.491735,20.20088 C192.13137,20.4391329 193.267414,21.9614614 193.029161,23.601096 C192.934288,24.2540071 192.626826,24.8574344 192.154375,25.3179602 L183.133019,34.1116098 C182.42596,34.8008212 182.103315,35.7938218 182.270229,36.767004 L184.399882,49.1838366 C184.679965,50.8168459 183.583202,52.3677137 181.950192,52.6477967 C181.299919,52.7593272 180.631015,52.6533832 180.047034,52.346366 L168.896023,46.4839329 C168.022051,46.0244586 166.977949,46.0244586 166.103977,46.4839329 Z" id="Star"></path>
                        <path d="M232.103977,46.4839329 L220.952966,52.346366 C219.486433,53.1173684 217.672551,52.5535289 216.901549,51.0869951 C216.594531,50.5030137 216.488587,49.8341094 216.600118,49.1838366 L218.729771,36.767004 C218.896685,35.7938218 218.57404,34.8008212 217.866981,34.1116098 L208.845625,25.3179602 C207.659174,24.1614565 207.634897,22.2621167 208.791401,21.075666 C209.251926,20.6032151 209.855354,20.2957536 210.508265,20.20088 L222.975473,18.3892886 C223.952604,18.2473032 224.797301,17.6335951 225.234287,16.7481647 L230.809792,5.45095725 C231.543059,3.96519627 233.341936,3.35517928 234.827697,4.08844616 C235.419335,4.38043687 235.898218,4.85931944 236.190208,5.45095725 L241.765713,16.7481647 C242.202699,17.6335951 243.047396,18.2473032 244.024527,18.3892886 L256.491735,20.20088 C258.13137,20.4391329 259.267414,21.9614614 259.029161,23.601096 C258.934288,24.2540071 258.626826,24.8574344 258.154375,25.3179602 L249.133019,34.1116098 C248.42596,34.8008212 248.103315,35.7938218 248.270229,36.767004 L250.399882,49.1838366 C250.679965,50.8168459 249.583202,52.3677137 247.950192,52.6477967 C247.299919,52.7593272 246.631015,52.6533832 246.047034,52.346366 L234.896023,46.4839329 C234.022051,46.0244586 232.977949,46.0244586 232.103977,46.4839329 Z" id="Star"></path>
                        <path d="M299.103977,46.4839329 L287.952966,52.346366 C286.486433,53.1173684 284.672551,52.5535289 283.901549,51.0869951 C283.594531,50.5030137 283.488587,49.8341094 283.600118,49.1838366 L285.729771,36.767004 C285.896685,35.7938218 285.57404,34.8008212 284.866981,34.1116098 L275.845625,25.3179602 C274.659174,24.1614565 274.634897,22.2621167 275.791401,21.075666 C276.251926,20.6032151 276.855354,20.2957536 277.508265,20.20088 L289.975473,18.3892886 C290.952604,18.2473032 291.797301,17.6335951 292.234287,16.7481647 L297.809792,5.45095725 C298.543059,3.96519627 300.341936,3.35517928 301.827697,4.08844616 C302.419335,4.38043687 302.898218,4.85931944 303.190208,5.45095725 L308.765713,16.7481647 C309.202699,17.6335951 310.047396,18.2473032 311.024527,18.3892886 L323.491735,20.20088 C325.13137,20.4391329 326.267414,21.9614614 326.029161,23.601096 C325.934288,24.2540071 325.626826,24.8574344 325.154375,25.3179602 L316.133019,34.1116098 C315.42596,34.8008212 315.103315,35.7938218 315.270229,36.767004 L317.399882,49.1838366 C317.679965,50.8168459 316.583202,52.3677137 314.950192,52.6477967 C314.299919,52.7593272 313.631015,52.6533832 313.047034,52.346366 L301.896023,46.4839329 C301.022051,46.0244586 299.977949,46.0244586 299.103977,46.4839329 Z" id="Star"></path>
                    </g>
                    <rect id="Rectangle" fill="#FAEBD5" x="26" y="88" width="279" height="40" rx="8"></rect>
                    <rect id="Rectangle" fill="#FAEBD5" x="96" y="156" width="140" height="40" rx="8"></rect>
                </g>
                <g id="vh-play" transform="translate(20, 223.5)">
                    <rect id="Rectangle" fill="#FFFFFF" x="0" y="0" width="65" height="154" rx="30"></rect>
                    <circle id="Oval" fill="#3B8B96" cx="32" cy="123" r="25"></circle>
                </g>
            </g>
        </g>
    </g>
</svg>