<?xml version="1.0" encoding="UTF-8"?>
<svg width="726px" height="477px" viewBox="0 0 726 477" version="1.1" xmlns="http://www.w3.org/2000/svg" xmlns:xlink="http://www.w3.org/1999/xlink">
    <title>icon</title>
    <defs>
        <path d="M11,0.0676691729 L637,0.0676691729 C642.522847,0.0676691729 647,4.54482167 647,10.0676692 L647,387.067669 C647,392.590517 642.522847,397.067669 637,397.067669 L11,397.067669 C5.4771525,397.067669 1,392.590517 1,387.067669 L1,10.0676692 C1,4.54482167 5.4771525,0.0676691729 11,0.0676691729 Z" id="path-1"></path>
        <filter x="-7.7%" y="-12.6%" width="115.5%" height="125.2%" filterUnits="objectBoundingBox" id="filter-2">
            <feMorphology radius="20" operator="dilate" in="SourceAlpha" result="shadowSpreadOuter1"></feMorphology>
            <feOffset dx="0" dy="0" in="shadowSpreadOuter1" result="shadowOffsetOuter1"></feOffset>
            <feGaussianBlur stdDeviation="10" in="shadowOffsetOuter1" result="shadowBlurOuter1"></feGaussianBlur>
            <feComposite in="shadowBlurOuter1" in2="SourceAlpha" operator="out" result="shadowBlurOuter1"></feComposite>
            <feColorMatrix values="0 0 0 0 0.8   0 0 0 0 0.8   0 0 0 0 0.8  0 0 0 1 0" type="matrix" in="shadowBlurOuter1"></feColorMatrix>
        </filter>
    </defs>
    <g id="Page-1" stroke="none" stroke-width="1" fill="none" fill-rule="evenodd">
        <g id="Rounded-Feature" transform="translate(-157, -118)">
            <g id="icon" transform="translate(196, 157.9323)">
                <g id="vh-box">
                    <use fill="black" fill-opacity="1" filter="url(#filter-2)" xlink:href="#path-1"></use>
                    <path stroke="#FFFFFF" stroke-width="20" d="M637,-9.93233083 C642.522847,-9.93233083 647.522847,-7.69375458 651.142136,-4.07446645 C654.761424,-0.455178325 657,4.54482167 657,10.0676692 L657,387.067669 C657,392.590517 654.761424,397.590517 651.142136,401.209805 C647.522847,404.829093 642.522847,407.067669 637,407.067669 L11,407.067669 C5.4771525,407.067669 0.477152502,404.829093 -3.14213562,401.209805 C-6.76142375,397.590517 -9,392.590517 -9,387.067669 L-9,10.0676692 C-9,4.54482167 -6.76142375,-0.455178325 -3.14213562,-4.07446645 C0.477152502,-7.69375458 5.4771525,-9.93233083 11,-9.93233083 Z" fill="#FFFFFF" fill-rule="evenodd"></path>
                </g>
                <rect id="Rectangle" fill="#CCE5E8" x="0" y="0" width="647" height="397" rx="7.72727251"></rect>
                <rect id="Rectangle" fill="#3B8B96" x="0.555276382" y="0" width="323" height="397" rx="7.72727251"></rect>
                <path d="M67.0130859,242.765214 L117.503936,176.050578 C119.170383,173.848666 122.306307,173.414586 124.508219,175.081033 C124.87439,175.358158 125.200639,175.684406 125.477764,176.050578 L165.39945,228.799952 C166.344571,230.048762 167.820228,230.782583 169.386364,230.782583 L232.511942,230.782583 C235.273366,230.782583 237.511942,228.544007 237.511942,225.782583 C237.511942,224.691229 237.15487,223.629845 236.495218,222.760412 L196.095478,169.512828 C194.42638,167.312926 191.289934,166.882624 189.090032,168.551723 C188.732262,168.823169 188.412693,169.141577 188.139948,169.498358 L170.872196,192.086444 C169.195105,194.28026 166.057115,194.699149 163.863299,193.022058 C163.511358,192.753012 163.196732,192.438386 162.927686,192.086444 L156.596075,183.804013 C155.23121,182.018622 155.225213,179.541983 156.581416,177.750003 L188.140299,136.050578 C189.806746,133.848666 192.942671,133.414586 195.144582,135.081033 C195.510754,135.358158 195.837002,135.684406 196.114128,136.050578 L276.877705,242.765214 C278.544151,244.967126 278.110071,248.10305 275.90816,249.769497 C275.039577,250.426857 273.980083,250.782583 272.89079,250.782583 L71,250.782583 C68.2385763,250.782583 66,248.544007 66,245.782583 C66,244.693291 66.3557266,243.633797 67.0130859,242.765214 Z M110.871431,231.782583 L131.019359,231.782583 C133.780783,231.782583 136.019359,229.544007 136.019359,226.782583 C136.019359,225.710911 135.675034,224.667595 135.037145,223.806445 L124.963181,210.206594 C123.319506,207.987632 120.188219,207.521271 117.969257,209.164946 C117.572516,209.458828 117.221492,209.809853 116.927609,210.206594 L106.853645,223.806445 C105.20997,226.025407 105.676332,229.156694 107.895294,230.800369 C108.756443,231.438258 109.79976,231.782583 110.871431,231.782583 Z M100.945395,230.282583 L140.945395,230.282583 L100.945395,230.282583 Z" id="Shape" fill="#FAEBD5" fill-rule="nonzero"></path>
                <g id="vh-text" transform="translate(347, 100.0677)">
                    <rect id="Rectangle" fill="#FAEBD5" x="0" y="82" width="279" height="40" rx="8"></rect>
                    <rect id="Rectangle" fill="#FAEBD5" x="0" y="144" width="140" height="40" rx="8"></rect>
                    <rect id="Rectangle" fill="#3B8B96" x="1" y="0" width="279" height="60" rx="8"></rect>
                </g>
            </g>
        </g>
    </g>
</svg>