<?xml version="1.0" encoding="UTF-8"?>
<svg width="750px" height="500px" viewBox="0 0 750 500" version="1.1" xmlns="http://www.w3.org/2000/svg" xmlns:xlink="http://www.w3.org/1999/xlink">
    <title>icon</title>
    <defs>
        <rect id="path-1" x="31" y="28" width="688" height="437" rx="20"></rect>
        <filter x="-4.4%" y="-6.9%" width="108.7%" height="113.7%" filterUnits="objectBoundingBox" id="filter-2">
            <feOffset dx="0" dy="0" in="SourceAlpha" result="shadowOffsetOuter1"></feOffset>
            <feGaussianBlur stdDeviation="10" in="shadowOffsetOuter1" result="shadowBlurOuter1"></feGaussianBlur>
            <feColorMatrix values="0 0 0 0 0.8   0 0 0 0 0.8   0 0 0 0 0.8  0 0 0 1 0" type="matrix" in="shadowBlurOuter1"></feColorMatrix>
        </filter>
    </defs>
    <g id="Page-1" stroke="none" stroke-width="1" fill="none" fill-rule="evenodd">
        <g id="Icon-Banner" transform="translate(-146, -110)">
            <g id="icon" transform="translate(146, 110)">
                <rect id="Rectangle-Copy-4" x="0" y="0" width="750" height="500"></rect>
                <g id="Rectangle">
                    <use fill="black" fill-opacity="1" filter="url(#filter-2)" xlink:href="#path-1"></use>
                    <use fill="#FFFFFF" fill-rule="evenodd" xlink:href="#path-1"></use>
                </g>
                <path d="M65,48 L686,48 C691.522847,48 696,52.4771525 696,58 L696,435 C696,440.522847 691.522847,445 686,445 L65,445 C59.4771525,445 55,440.522847 55,435 L55,58 C55,52.4771525 59.4771525,48 65,48 Z" id="Rectangle" fill="#FFFFFF"></path>
                <g id="grid" transform="translate(55, 171)">
                    <rect id="Rectangle" fill="#3B8B96" x="0" y="0" width="641" height="151.932331" rx="7.72727251"></rect>
                    <g id="Group-31" transform="translate(95, 48)">
                        <g id="Group-15" fill="#E9AF58">
                            <rect id="Rectangle" x="60.5858156" y="0" width="153" height="56.406015" rx="6.29940701"></rect>
                            <path d="M18.1843972,45.4962406 L18.1843972,29.8031823 L4.54609929,21.8421053 L4.54609929,37.5351636 L18.1843972,45.4962406 Z M22.7304965,45.4962406 L36.3687943,37.5351636 L36.3687943,21.8421053 L22.7304965,29.8031823 L22.7304965,45.4962406 Z M18.1843972,50.3294173 L2.27304965,41.174812 C1.55325059,40.7578321 0.99445922,40.2081767 0.596675532,39.5258459 C0.198891844,38.843515 0,38.0853697 0,37.2514098 L0,19.1696429 C0,18.335683 0.198891844,17.5775376 0.596675532,16.8952068 C0.99445922,16.2128759 1.55325059,15.6632206 2.27304965,15.2462406 L18.1843972,6.09163534 C18.9041962,5.67465539 19.6618794,5.46616541 20.4574468,5.46616541 C21.2530142,5.46616541 22.0106974,5.67465539 22.7304965,6.09163534 L38.641844,15.2462406 C39.361643,15.6632206 39.9204344,16.2128759 40.3182181,16.8952068 C40.7160018,17.5775376 40.9148936,18.335683 40.9148936,19.1696429 L40.9148936,37.2514098 C40.9148936,38.0853697 40.7160018,38.843515 40.3182181,39.5258459 C39.9204344,40.2081767 39.361643,40.7578321 38.641844,41.174812 L22.7304965,50.3294173 C22.0106974,50.7463972 21.2530142,50.9548872 20.4574468,50.9548872 C19.6618794,50.9548872 18.9041962,50.7463972 18.1843972,50.3294173 Z M29.1960599,20.0225564 L33.6411348,17.5897894 L19.9595407,10.0150376 L15.4567376,12.5030948 L29.1960599,20.0225564 Z M20.9553529,25.481203 L25.458156,23.0068165 L11.776562,15.4736842 L7.27375887,17.9480707 L20.9553529,25.481203 Z" id="Shape" fill-rule="nonzero"></path>
                        </g>
                        <g id="Group-15" transform="translate(238, 0)" fill="#FAEBD5">
                            <rect id="Rectangle" x="60.5858156" y="0" width="153" height="56.406015" rx="6.29940701"></rect>
                            <path d="M18.1843972,45.4962406 L18.1843972,29.8031823 L4.54609929,21.8421053 L4.54609929,37.5351636 L18.1843972,45.4962406 Z M22.7304965,45.4962406 L36.3687943,37.5351636 L36.3687943,21.8421053 L22.7304965,29.8031823 L22.7304965,45.4962406 Z M18.1843972,50.3294173 L2.27304965,41.174812 C1.55325059,40.7578321 0.99445922,40.2081767 0.596675532,39.5258459 C0.198891844,38.843515 0,38.0853697 0,37.2514098 L0,19.1696429 C0,18.335683 0.198891844,17.5775376 0.596675532,16.8952068 C0.99445922,16.2128759 1.55325059,15.6632206 2.27304965,15.2462406 L18.1843972,6.09163534 C18.9041962,5.67465539 19.6618794,5.46616541 20.4574468,5.46616541 C21.2530142,5.46616541 22.0106974,5.67465539 22.7304965,6.09163534 L38.641844,15.2462406 C39.361643,15.6632206 39.9204344,16.2128759 40.3182181,16.8952068 C40.7160018,17.5775376 40.9148936,18.335683 40.9148936,19.1696429 L40.9148936,37.2514098 C40.9148936,38.0853697 40.7160018,38.843515 40.3182181,39.5258459 C39.9204344,40.2081767 39.361643,40.7578321 38.641844,41.174812 L22.7304965,50.3294173 C22.0106974,50.7463972 21.2530142,50.9548872 20.4574468,50.9548872 C19.6618794,50.9548872 18.9041962,50.7463972 18.1843972,50.3294173 Z M29.1960599,20.0225564 L33.6411348,17.5897894 L19.9595407,10.0150376 L15.4567376,12.5030948 L29.1960599,20.0225564 Z M20.9553529,25.481203 L25.458156,23.0068165 L11.776562,15.4736842 L7.27375887,17.9480707 L20.9553529,25.481203 Z" id="Shape" fill-rule="nonzero"></path>
                        </g>
                    </g>
                </g>
            </g>
        </g>
    </g>
</svg>