<?xml version="1.0" encoding="UTF-8"?>
<svg width="750px" height="500px" viewBox="0 0 750 500" version="1.1" xmlns="http://www.w3.org/2000/svg" xmlns:xlink="http://www.w3.org/1999/xlink">
    <title>icon</title>
    <defs>
        <rect id="path-1" x="31" y="28" width="688" height="437" rx="20"></rect>
        <filter x="-4.4%" y="-6.9%" width="108.7%" height="113.7%" filterUnits="objectBoundingBox" id="filter-2">
            <feOffset dx="0" dy="0" in="SourceAlpha" result="shadowOffsetOuter1"></feOffset>
            <feGaussianBlur stdDeviation="10" in="shadowOffsetOuter1" result="shadowBlurOuter1"></feGaussianBlur>
            <feColorMatrix values="0 0 0 0 0.8   0 0 0 0 0.8   0 0 0 0 0.8  0 0 0 1 0" type="matrix" in="shadowBlurOuter1"></feColorMatrix>
        </filter>
    </defs>
    <g id="Page-1" stroke="none" stroke-width="1" fill="none" fill-rule="evenodd">
        <g id="Sliding-Grid" transform="translate(-146, -110)">
            <g id="icon" transform="translate(146, 110)">
                <rect id="Rectangle" x="0" y="0" width="750" height="500"></rect>
                <g id="Rectangle">
                    <use fill="black" fill-opacity="1" filter="url(#filter-2)" xlink:href="#path-1"></use>
                    <use fill="#FFFFFF" fill-rule="evenodd" xlink:href="#path-1"></use>
                </g>
                <path d="M65,48 L686,48 C691.522847,48 696,52.4771525 696,58 L696,435 C696,440.522847 691.522847,445 686,445 L65,445 C59.4771525,445 55,440.522847 55,435 L55,58 C55,52.4771525 59.4771525,48 65,48 Z" id="Rectangle" fill="#FFFFFF"></path>
                <g id="Group-4" transform="translate(369, 86)" fill="#E9AF58">
                    <path d="M10,0 L188.111864,0 C193.634712,-1.01453063e-15 198.111864,4.4771525 198.111864,10 L198.111864,243 C198.111864,248.522847 193.634712,253 188.111864,253 L10,253 C4.4771525,253 6.76353751e-16,248.522847 0,243 L0,10 C-6.76353751e-16,4.4771525 4.4771525,1.01453063e-15 10,0 Z" id="Rectangle" transform="translate(99.0559, 126.5) scale(-1, 1) translate(-99.0559, -126.5)"></path>
                </g>
                <g id="Group-11" transform="translate(323, 389)">
                    <circle id="Oval" fill="#FAEBD5" cx="159.5" cy="23.5" r="23.5"></circle>
                    <circle id="Oval" fill="#DE6B5A" cx="91.5" cy="23.5" r="23.5"></circle>
                    <circle id="Oval" fill="#FAEBD5" cx="23.5" cy="23.5" r="23.5"></circle>
                </g>
                <g id="Group-4" transform="translate(54, 66)">
                    <path d="M542,21 L635,21 C640.522847,21 645,25.4771525 645,31 L645,264 C645,269.522847 640.522847,274 635,274 L542,274 C536.477153,274 532,269.522847 532,264 L532,31 C532,25.4771525 536.477153,21 542,21 Z" id="Rectangle" fill="#3B8B96" transform="translate(588.5, 147.5) scale(-1, 1) translate(-588.5, -147.5)"></path>
                    <path d="M10,0 L285,0 C290.522847,-1.01453063e-15 295,4.4771525 295,10 L295,285 C295,290.522847 290.522847,295 285,295 L10,295 C4.4771525,295 6.76353751e-16,290.522847 0,285 L0,10 C-6.76353751e-16,4.4771525 4.4771525,1.01453063e-15 10,0 Z" id="Rectangle" fill="#DE6B5A" transform="translate(147.5, 147.5) scale(-1, 1) translate(-147.5, -147.5)"></path>
                    <path d="M34.0152152,168.702444 L89.1335283,95.9800946 C90.8015279,93.7793587 93.9377577,93.3474906 96.1384935,95.0154903 C96.5025867,95.2914467 96.8271414,95.6160014 97.1030979,95.9800946 L140.504116,153.242804 C141.449369,154.489959 142.924005,155.222624 144.488901,155.222624 L213.403205,155.222624 C216.164629,155.222624 218.403205,152.984048 218.403205,150.222624 C218.403205,149.130062 218.045342,148.067571 217.384346,147.197643 L173.129907,88.9549114 C171.459256,86.7561877 168.322507,86.3281003 166.123784,87.9987515 C165.768089,88.2690182 165.450218,88.5857343 165.178659,88.9404431 L145.974783,114.024401 C144.296141,116.21703 141.157856,116.633699 138.965227,114.955058 C138.615356,114.687202 138.302426,114.374272 138.03457,114.024401 L130.740429,104.496848 C129.372707,102.710341 129.3667,100.230331 130.725751,98.4372182 L165.178983,52.9800946 C166.846982,50.7793587 169.983212,50.3474906 172.183948,52.0154903 C172.548041,52.2914467 172.872596,52.6160014 173.148552,52.9800946 L260.857775,168.702444 C262.525774,170.903179 262.093906,174.039409 259.89317,175.707409 C259.024089,176.36611 257.963489,176.722624 256.87299,176.722624 L38,176.722624 C35.2385763,176.722624 33,174.484048 33,171.722624 C33,170.632125 33.3565143,169.571524 34.0152152,168.702444 Z M82.0055552,155.722624 L105.867435,155.722624 C108.628858,155.722624 110.867435,153.484048 110.867435,150.722624 C110.867435,149.631372 110.510429,148.570082 109.850891,147.700692 L97.9199513,131.973544 C96.2509841,129.773542 93.1145647,129.343053 90.9145625,131.01202 C90.5517639,131.287246 90.228265,131.610745 89.9530385,131.973544 L78.0220988,147.700692 C76.3531316,149.900694 76.7836206,153.037113 78.9836227,154.70608 C79.8530135,155.365618 80.9143034,155.722624 82.0055552,155.722624 Z M71.9364949,155.222624 L115.936495,155.222624 L71.9364949,155.222624 Z" id="Shape" fill="#FFFFFF" fill-rule="nonzero"></path>
                    <g id="stars" transform="translate(33, 194)" fill="#FFFFFF">
                        <path d="M19.6039766,32.2339329 L14.0369262,35.1607046 C12.5703924,35.931707 10.7565109,35.3678674 9.98550851,33.9013337 C9.6784913,33.3173522 9.57254728,32.648448 9.68407781,31.9981751 L10.7472898,25.7991733 C10.9142037,24.8259911 10.5915582,23.8329905 9.88449994,23.1437791 L5.38066151,18.7536216 C4.19421078,17.597118 4.16993386,15.6977782 5.32643749,14.5113274 C5.78696331,14.0388765 6.39039054,13.731415 7.04330163,13.6365415 L13.2674533,12.7321193 C14.2445837,12.5901339 15.0892805,11.9764258 15.5262665,11.0909954 L18.3097918,5.45095725 C19.0430586,3.96519627 20.8419362,3.35517928 22.3276971,4.08844616 C22.9193349,4.38043687 23.3982175,4.85931944 23.6902082,5.45095725 L26.4737335,11.0909954 C26.9107195,11.9764258 27.7554163,12.5901339 28.7325467,12.7321193 L34.9566984,13.6365415 C36.596333,13.8747943 37.7323773,15.3971229 37.4941245,17.0367575 C37.3992509,17.6896686 37.0917894,18.2930958 36.6193385,18.7536216 L32.1155001,23.1437791 C31.4084418,23.8329905 31.0857963,24.8259911 31.2527102,25.7991733 L32.3159222,31.9981751 C32.5960052,33.6311844 31.4992417,35.1820522 29.8662324,35.4621353 C29.2159595,35.5736658 28.5470553,35.4677218 27.9630738,35.1607046 L22.3960234,32.2339329 C21.5220513,31.7744586 20.4779487,31.7744586 19.6039766,32.2339329 Z" id="Star"></path>
                        <path d="M66.6039766,32.2339329 L61.0369262,35.1607046 C59.5703924,35.931707 57.7565109,35.3678674 56.9855085,33.9013337 C56.6784913,33.3173522 56.5725473,32.648448 56.6840778,31.9981751 L57.7472898,25.7991733 C57.9142037,24.8259911 57.5915582,23.8329905 56.8844999,23.1437791 L52.3806615,18.7536216 C51.1942108,17.597118 51.1699339,15.6977782 52.3264375,14.5113274 C52.7869633,14.0388765 53.3903905,13.731415 54.0433016,13.6365415 L60.2674533,12.7321193 C61.2445837,12.5901339 62.0892805,11.9764258 62.5262665,11.0909954 L65.3097918,5.45095725 C66.0430586,3.96519627 67.8419362,3.35517928 69.3276971,4.08844616 C69.9193349,4.38043687 70.3982175,4.85931944 70.6902082,5.45095725 L73.4737335,11.0909954 C73.9107195,11.9764258 74.7554163,12.5901339 75.7325467,12.7321193 L81.9566984,13.6365415 C83.596333,13.8747943 84.7323773,15.3971229 84.4941245,17.0367575 C84.3992509,17.6896686 84.0917894,18.2930958 83.6193385,18.7536216 L79.1155001,23.1437791 C78.4084418,23.8329905 78.0857963,24.8259911 78.2527102,25.7991733 L79.3159222,31.9981751 C79.5960052,33.6311844 78.4992417,35.1820522 76.8662324,35.4621353 C76.2159595,35.5736658 75.5470553,35.4677218 74.9630738,35.1607046 L69.3960234,32.2339329 C68.5220513,31.7744586 67.4779487,31.7744586 66.6039766,32.2339329 Z" id="Star"></path>
                        <path d="M113.603977,32.2339329 L108.036926,35.1607046 C106.570392,35.931707 104.756511,35.3678674 103.985509,33.9013337 C103.678491,33.3173522 103.572547,32.648448 103.684078,31.9981751 L104.74729,25.7991733 C104.914204,24.8259911 104.591558,23.8329905 103.8845,23.1437791 L99.3806615,18.7536216 C98.1942108,17.597118 98.1699339,15.6977782 99.3264375,14.5113274 C99.7869633,14.0388765 100.390391,13.731415 101.043302,13.6365415 L107.267453,12.7321193 C108.244584,12.5901339 109.089281,11.9764258 109.526267,11.0909954 L112.309792,5.45095725 C113.043059,3.96519627 114.841936,3.35517928 116.327697,4.08844616 C116.919335,4.38043687 117.398218,4.85931944 117.690208,5.45095725 L120.473733,11.0909954 C120.910719,11.9764258 121.755416,12.5901339 122.732547,12.7321193 L128.956698,13.6365415 C130.596333,13.8747943 131.732377,15.3971229 131.494124,17.0367575 C131.399251,17.6896686 131.091789,18.2930958 130.619338,18.7536216 L126.1155,23.1437791 C125.408442,23.8329905 125.085796,24.8259911 125.25271,25.7991733 L126.315922,31.9981751 C126.596005,33.6311844 125.499242,35.1820522 123.866232,35.4621353 C123.21596,35.5736658 122.547055,35.4677218 121.963074,35.1607046 L116.396023,32.2339329 C115.522051,31.7744586 114.477949,31.7744586 113.603977,32.2339329 Z" id="Star"></path>
                        <path d="M159.603977,32.2339329 L154.036926,35.1607046 C152.570392,35.931707 150.756511,35.3678674 149.985509,33.9013337 C149.678491,33.3173522 149.572547,32.648448 149.684078,31.9981751 L150.74729,25.7991733 C150.914204,24.8259911 150.591558,23.8329905 149.8845,23.1437791 L145.380662,18.7536216 C144.194211,17.597118 144.169934,15.6977782 145.326437,14.5113274 C145.786963,14.0388765 146.390391,13.731415 147.043302,13.6365415 L153.267453,12.7321193 C154.244584,12.5901339 155.089281,11.9764258 155.526267,11.0909954 L158.309792,5.45095725 C159.043059,3.96519627 160.841936,3.35517928 162.327697,4.08844616 C162.919335,4.38043687 163.398218,4.85931944 163.690208,5.45095725 L166.473733,11.0909954 C166.910719,11.9764258 167.755416,12.5901339 168.732547,12.7321193 L174.956698,13.6365415 C176.596333,13.8747943 177.732377,15.3971229 177.494124,17.0367575 C177.399251,17.6896686 177.091789,18.2930958 176.619338,18.7536216 L172.1155,23.1437791 C171.408442,23.8329905 171.085796,24.8259911 171.25271,25.7991733 L172.315922,31.9981751 C172.596005,33.6311844 171.499242,35.1820522 169.866232,35.4621353 C169.21596,35.5736658 168.547055,35.4677218 167.963074,35.1607046 L162.396023,32.2339329 C161.522051,31.7744586 160.477949,31.7744586 159.603977,32.2339329 Z" id="Star"></path>
                        <path d="M205.603977,32.2339329 L200.036926,35.1607046 C198.570392,35.931707 196.756511,35.3678674 195.985509,33.9013337 C195.678491,33.3173522 195.572547,32.648448 195.684078,31.9981751 L196.74729,25.7991733 C196.914204,24.8259911 196.591558,23.8329905 195.8845,23.1437791 L191.380662,18.7536216 C190.194211,17.597118 190.169934,15.6977782 191.326437,14.5113274 C191.786963,14.0388765 192.390391,13.731415 193.043302,13.6365415 L199.267453,12.7321193 C200.244584,12.5901339 201.089281,11.9764258 201.526267,11.0909954 L204.309792,5.45095725 C205.043059,3.96519627 206.841936,3.35517928 208.327697,4.08844616 C208.919335,4.38043687 209.398218,4.85931944 209.690208,5.45095725 L212.473733,11.0909954 C212.910719,11.9764258 213.755416,12.5901339 214.732547,12.7321193 L220.956698,13.6365415 C222.596333,13.8747943 223.732377,15.3971229 223.494124,17.0367575 C223.399251,17.6896686 223.091789,18.2930958 222.619338,18.7536216 L218.1155,23.1437791 C217.408442,23.8329905 217.085796,24.8259911 217.25271,25.7991733 L218.315922,31.9981751 C218.596005,33.6311844 217.499242,35.1820522 215.866232,35.4621353 C215.21596,35.5736658 214.547055,35.4677218 213.963074,35.1607046 L208.396023,32.2339329 C207.522051,31.7744586 206.477949,31.7744586 205.603977,32.2339329 Z" id="Star"></path>
                    </g>
                </g>
            </g>
        </g>
    </g>
</svg>