<?xml version="1.0" encoding="UTF-8"?>
<svg width="750px" height="500px" viewBox="0 0 750 500" version="1.1" xmlns="http://www.w3.org/2000/svg" xmlns:xlink="http://www.w3.org/1999/xlink">
    <title>icon</title>
    <defs>
        <rect id="path-1" x="31" y="28" width="688" height="437" rx="20"></rect>
        <filter x="-4.4%" y="-6.9%" width="108.7%" height="113.7%" filterUnits="objectBoundingBox" id="filter-2">
            <feOffset dx="0" dy="0" in="SourceAlpha" result="shadowOffsetOuter1"></feOffset>
            <feGaussianBlur stdDeviation="10" in="shadowOffsetOuter1" result="shadowBlurOuter1"></feGaussianBlur>
            <feColorMatrix values="0 0 0 0 0.8   0 0 0 0 0.8   0 0 0 0 0.8  0 0 0 1 0" type="matrix" in="shadowBlurOuter1"></feColorMatrix>
        </filter>
    </defs>
    <g id="Page-1" stroke="none" stroke-width="1" fill="none" fill-rule="evenodd">
        <g id="Social-Icons" transform="translate(-146, -110)">
            <g id="icon" transform="translate(146, 110)">
                <rect id="Rectangle" x="0" y="0" width="750" height="500"></rect>
                <g id="Rectangle">
                    <use fill="black" fill-opacity="1" filter="url(#filter-2)" xlink:href="#path-1"></use>
                    <use fill="#FFFFFF" fill-rule="evenodd" xlink:href="#path-1"></use>
                </g>
                <path d="M61,48 L682,48 C687.522847,48 692,52.4771525 692,58 L692,435 C692,440.522847 687.522847,445 682,445 L61,445 C55.4771525,445 51,440.522847 51,435 L51,58 C51,52.4771525 55.4771525,48 61,48 Z" id="Rectangle" fill="#FAEBD5"></path>
                <path d="M571.055038,183 C534.022996,183 504,212.973684 504,249.944901 C504,278.320724 521.660586,302.564145 546.606164,312.316612 C545.999081,307.027138 545.502377,298.872533 546.826921,293.087171 C548.041086,287.852796 554.663806,259.807566 554.663806,259.807566 C554.663806,259.807566 552.67699,255.785362 552.67699,249.889803 C552.67699,240.578125 558.085545,233.635691 564.818643,233.635691 C570.558334,233.635691 573.3178,237.933388 573.3178,243.057566 C573.3178,248.787829 569.675304,257.383224 567.743678,265.372533 C566.143187,272.039474 571.110227,277.494243 577.677757,277.494243 C589.598653,277.494243 598.760082,264.931743 598.760082,246.859375 C598.760082,230.825658 587.225512,219.640625 570.723902,219.640625 C551.628393,219.640625 540.424959,233.911184 540.424959,248.677632 C540.424959,254.407895 542.632532,260.578947 545.391999,263.939967 C545.943892,264.601151 545.999081,265.207237 545.833513,265.868421 C545.336809,267.962171 544.177833,272.535362 543.957076,273.472039 C543.681129,274.684211 542.963668,274.959704 541.694313,274.353618 C533.305535,270.441612 528.062548,258.264803 528.062548,248.402138 C528.062548,227.299342 543.405183,207.904605 572.379582,207.904605 C595.61429,207.904605 613.716391,224.434211 613.716391,246.583882 C613.716391,269.67023 599.146407,288.238487 578.947112,288.238487 C572.158824,288.238487 565.756862,284.712171 563.604478,280.524671 C563.604478,280.524671 560.237929,293.307566 559.410089,296.448191 C557.919977,302.288651 553.835966,309.561678 551.0765,314.024671 C557.368083,315.953125 563.990803,317 570.944659,317 C607.9767,317 638,287.026316 638,250.055099 C638.110075,212.973684 608.087079,183 571.055038,183 Z" id="Path" fill="#E9AF58" fill-rule="nonzero"></path>
                <g id="YouTube-Icon-Almost-Black-Logo.wine" transform="translate(111, 183)" fill-rule="nonzero">
                    <path d="M349.029437,20.9243043 C346.844171,12.6881506 340.40658,6.20183508 332.231464,4.00055645 C317.414724,0 257.999595,0 257.999595,0 C257.999595,0 198.585276,0 183.768536,4.00055645 C175.59342,6.20183508 169.15502,12.6881506 166.970563,20.9243043 C163,35.8534473 163,67.0004052 163,67.0004052 C163,67.0004052 163,98.1473632 166.970563,113.076506 C169.15502,121.31266 175.59342,127.798165 183.768536,130.000254 C198.585276,134 257.999595,134 257.999595,134 C257.999595,134 317.414724,134 332.231464,130.000254 C340.40658,127.798165 346.844171,121.311849 349.029437,113.077317 C353,98.1465527 353,67.0004052 353,67.0004052 C353,67.0004052 353,35.8534473 349.029437,20.9243043" id="Path" fill="#E9AF58"></path>
                    <g id="logo" transform="translate(0, 3)" fill="#E9AF58">
                        <path d="M75.5822508,55.046128 L122.860858,0 L111.657342,0 L70.6053325,47.7957794 L37.8172133,0 L0,0 L49.58207,72.2756835 L0,130 L11.2041517,130 L54.5561308,79.5260321 L89.1827867,130 L127,130 L75.5794992,55.046128 L75.5822508,55.046128 Z M59.7987847,73.1871262 L54.7970472,66.0210681 L15,9 L32.1337012,9 L64.2503817,55.0178219 L69.2521192,62.18388 L111,122 L93.8662988,122 L59.7987847,73.1898705 L59.7987847,73.1871262 Z" id="Shape"></path>
                    </g>
                    <polygon id="Path" fill="#FAEBD5" points="238 95 288 66.5012252 238 38"></polygon>
                </g>
            </g>
        </g>
    </g>
</svg>