<?xml version="1.0" encoding="UTF-8"?>
<svg width="750px" height="500px" viewBox="0 0 750 500" version="1.1" xmlns="http://www.w3.org/2000/svg" xmlns:xlink="http://www.w3.org/1999/xlink">
    <title>icon</title>
    <defs>
        <rect id="path-1" x="31" y="28" width="688" height="437" rx="20"></rect>
        <filter x="-4.4%" y="-6.9%" width="108.7%" height="113.7%" filterUnits="objectBoundingBox" id="filter-2">
            <feOffset dx="0" dy="0" in="SourceAlpha" result="shadowOffsetOuter1"></feOffset>
            <feGaussianBlur stdDeviation="10" in="shadowOffsetOuter1" result="shadowBlurOuter1"></feGaussianBlur>
            <feColorMatrix values="0 0 0 0 0.8   0 0 0 0 0.8   0 0 0 0 0.8  0 0 0 1 0" type="matrix" in="shadowBlurOuter1"></feColorMatrix>
        </filter>
    </defs>
    <g id="Page-1" stroke="none" stroke-width="1" fill="none" fill-rule="evenodd">
        <g id="Tabs-Premium" transform="translate(-146, -110)">
            <g id="icon" transform="translate(146, 110)">
                <rect id="Rectangle-Copy" x="0" y="0" width="750" height="500"></rect>
                <g id="Rectangle">
                    <use fill="black" fill-opacity="1" filter="url(#filter-2)" xlink:href="#path-1"></use>
                    <use fill="#FFFFFF" fill-rule="evenodd" xlink:href="#path-1"></use>
                </g>
                <g id="Group-8" transform="translate(52, 56)">
                    <path d="M192,0 L10,0 C4.4771525,-1.01453063e-15 0,4.4771525 0,10 L0,373 C0,378.522847 4.4771525,383 10,383 L636,383 C641.522847,383 646,378.522847 646,373 L646,95.6328125 C646,90.109965 641.522847,85.6328125 636,85.6328125 L212,85.6328125 C206.477153,85.6328125 202,81.15566 202,75.6328125 L202,10 C202,4.4771525 197.522847,3.04461744e-14 192,0 Z" id="Combined-Shape" fill="#CEE2E5"></path>
                    <path d="M232,0 L414,0 C419.522847,-1.01453063e-15 424,4.4771525 424,10 L424,50 C424,55.5228475 419.522847,60 414,60 L232,60 C226.477153,60 222,55.5228475 222,50 L222,10 C222,4.4771525 226.477153,1.01453063e-15 232,0 Z" id="Rectangle" fill="#E9AF58" transform="translate(323, 30) scale(-1, 1) translate(-323, -30)"></path>
                    <path d="M296,132 L478,132 C483.522847,132 488,136.477153 488,142 L488,182 C488,187.522847 483.522847,192 478,192 L296,192 C290.477153,192 286,187.522847 286,182 L286,142 C286,136.477153 290.477153,132 296,132 Z" id="Rectangle" fill="#3B8B96" transform="translate(387, 162) scale(-1, 1) translate(-387, -162)"></path>
                    <path d="M42.013009,224.996647 L84.0934264,168.987342 C85.7521327,166.779593 88.8865138,166.334506 91.0942626,167.993212 C91.4708062,168.276114 91.8054903,168.610798 92.0883918,168.987342 L125.658988,213.67002 C126.603429,214.927077 128.08416,215.666667 129.656471,215.666667 L182.247161,215.666667 C185.008585,215.666667 187.247161,213.42809 187.247161,210.666667 C187.247161,209.581324 186.894006,208.525452 186.241029,207.658508 L152.842454,163.315926 C151.181094,161.110173 148.04618,160.668856 145.840427,162.330216 C145.472299,162.607488 145.144273,162.934325 144.865666,163.301445 L131.142011,181.385054 C129.472654,183.58476 126.336158,184.014693 124.136452,182.345335 C123.774175,182.070403 123.451102,181.74733 123.176171,181.385054 L118.589209,175.340832 C117.238522,173.561036 117.232577,171.101142 118.574647,169.314839 L144.866154,134.320675 C146.52486,132.112926 149.659241,131.66784 151.86699,133.326546 C152.243533,133.609447 152.578218,133.944131 152.861119,134.320675 L220.986991,224.996647 C222.645697,227.204395 222.20061,230.338776 219.992862,231.997483 C219.126779,232.648181 218.072794,233 216.989508,233 L46.0104917,233 C43.249068,233 41.0104917,230.761424 41.0104917,228 C41.0104917,226.916714 41.3623111,225.86273 42.013009,224.996647 Z M80.087107,215 L94.912893,215 C97.6743168,215 99.912893,212.761424 99.912893,210 C99.912893,208.906308 99.5542909,207.842782 98.8920365,206.972391 L91.4791435,197.229731 C89.8070411,195.032111 86.6700111,194.606095 84.4723908,196.278197 C84.113785,196.551049 83.7937088,196.871126 83.5208565,197.229731 L76.1079635,206.972391 C74.4358611,209.170011 74.8618775,212.307041 77.0594978,213.979143 C77.9298893,214.641398 78.993415,215 80.087107,215 Z M70,215 L105,215 L70,215 Z" id="Shape" fill="#3B8B96" fill-rule="nonzero"></path>
                    <path d="M296,208 L604,208 C609.522847,208 614,212.477153 614,218 L614,335 C614,340.522847 609.522847,345 604,345 L296,345 C290.477153,345 286,340.522847 286,335 L286,218 C286,212.477153 290.477153,208 296,208 Z" id="Rectangle" fill="#3B8B96" transform="translate(450, 276.5) scale(-1, 1) translate(-450, -276.5)"></path>
                    <path d="M454,0 L636,0 C641.522847,-1.01453063e-15 646,4.4771525 646,10 L646,50 C646,55.5228475 641.522847,60 636,60 L454,60 C448.477153,60 444,55.5228475 444,50 L444,10 C444,4.4771525 448.477153,1.01453063e-15 454,0 Z" id="Rectangle" fill="#E9AF58" transform="translate(545, 30) scale(-1, 1) translate(-545, -30)"></path>
                </g>
            </g>
        </g>
    </g>
</svg>