<?xml version="1.0" encoding="UTF-8"?>
<svg width="750px" height="500px" viewBox="0 0 750 500" version="1.1" xmlns="http://www.w3.org/2000/svg" xmlns:xlink="http://www.w3.org/1999/xlink">
    <title>icon</title>
    <defs>
        <rect id="path-1" x="31" y="28" width="688" height="437" rx="20"></rect>
        <filter x="-4.4%" y="-6.9%" width="108.7%" height="113.7%" filterUnits="objectBoundingBox" id="filter-2">
            <feOffset dx="0" dy="0" in="SourceAlpha" result="shadowOffsetOuter1"></feOffset>
            <feGaussianBlur stdDeviation="10" in="shadowOffsetOuter1" result="shadowBlurOuter1"></feGaussianBlur>
            <feColorMatrix values="0 0 0 0 0.8   0 0 0 0 0.8   0 0 0 0 0.8  0 0 0 1 0" type="matrix" in="shadowBlurOuter1"></feColorMatrix>
        </filter>
    </defs>
    <g id="Page-1" stroke="none" stroke-width="1" fill="none" fill-rule="evenodd">
        <g id="Image-Standalone-Copy" transform="translate(-146, -110)">
            <g id="icon" transform="translate(146, 110)">
                <rect id="Rectangle-Copy" x="0" y="0" width="750" height="500"></rect>
                <g id="Rectangle">
                    <use fill="black" fill-opacity="1" filter="url(#filter-2)" xlink:href="#path-1"></use>
                    <use fill="#FFFFFF" fill-rule="evenodd" xlink:href="#path-1"></use>
                </g>
                <g id="Group-8" transform="translate(52, 56)">
                    <path d="M192,0 L10,0 C4.4771525,-1.01453063e-15 0,4.4771525 0,10 L0,373 C0,378.522847 4.4771525,383 10,383 L636,383 C641.522847,383 646,378.522847 646,373 L646,95.6328125 C646,90.109965 641.522847,85.6328125 636,85.6328125 L212,85.6328125 C206.477153,85.6328125 202,81.15566 202,75.6328125 L202,10 C202,4.4771525 197.522847,3.04461744e-14 192,0 Z" id="Combined-Shape" fill="#0F8060"></path>
                    <path d="M232,0 L414,0 C419.522847,-1.01453063e-15 424,4.4771525 424,10 L424,50 C424,55.5228475 419.522847,60 414,60 L232,60 C226.477153,60 222,55.5228475 222,50 L222,10 C222,4.4771525 226.477153,1.01453063e-15 232,0 Z" id="Rectangle" fill="#E9AF58" transform="translate(323, 30) scale(-1, 1) translate(-323, -30)"></path>
                    <path d="M48,128 L230,128 C235.522847,128 240,132.477153 240,138 L240,178 C240,183.522847 235.522847,188 230,188 L48,188 C42.4771525,188 38,183.522847 38,178 L38,138 C38,132.477153 42.4771525,128 48,128 Z" id="Rectangle" fill="#C3DFD7" transform="translate(139, 158) scale(-1, 1) translate(-139, -158)"></path>
                    <path d="M48,208 L604,208 C609.522847,208 614,212.477153 614,218 L614,335 C614,340.522847 609.522847,345 604,345 L48,345 C42.4771525,345 38,340.522847 38,335 L38,218 C38,212.477153 42.4771525,208 48,208 Z" id="Rectangle" fill="#C3DFD7" transform="translate(326, 276.5) scale(-1, 1) translate(-326, -276.5)"></path>
                    <path d="M454,0 L636,0 C641.522847,-1.01453063e-15 646,4.4771525 646,10 L646,50 C646,55.5228475 641.522847,60 636,60 L454,60 C448.477153,60 444,55.5228475 444,50 L444,10 C444,4.4771525 448.477153,1.01453063e-15 454,0 Z" id="Rectangle" fill="#E9AF58" transform="translate(545, 30) scale(-1, 1) translate(-545, -30)"></path>
                </g>
            </g>
        </g>
    </g>
</svg>