<?xml version="1.0" encoding="UTF-8"?>
<svg width="750px" height="500px" viewBox="0 0 750 500" version="1.1" xmlns="http://www.w3.org/2000/svg" xmlns:xlink="http://www.w3.org/1999/xlink">
    <title>icon</title>
    <defs>
        <rect id="path-1" x="31" y="28" width="688" height="437" rx="20"></rect>
        <filter x="-4.4%" y="-6.9%" width="108.7%" height="113.7%" filterUnits="objectBoundingBox" id="filter-2">
            <feOffset dx="0" dy="0" in="SourceAlpha" result="shadowOffsetOuter1"></feOffset>
            <feGaussianBlur stdDeviation="10" in="shadowOffsetOuter1" result="shadowBlurOuter1"></feGaussianBlur>
            <feColorMatrix values="0 0 0 0 0.8   0 0 0 0 0.8   0 0 0 0 0.8  0 0 0 1 0" type="matrix" in="shadowBlurOuter1"></feColorMatrix>
        </filter>
    </defs>
    <g id="Page-1" stroke="none" stroke-width="1" fill="none" fill-rule="evenodd">
        <g id="Testimonials-Grid" transform="translate(-146, -110)">
            <g id="icon" transform="translate(146, 110)">
                <rect id="Rectangle" x="0" y="0" width="750" height="500"></rect>
                <g id="Rectangle">
                    <use fill="black" fill-opacity="1" filter="url(#filter-2)" xlink:href="#path-1"></use>
                    <use fill="#FFFFFF" fill-rule="evenodd" xlink:href="#path-1"></use>
                </g>
                <path d="M61,48 L355,48 C360.522847,48 365,52.4771525 365,58 L365,435 C365,440.522847 360.522847,445 355,445 L61,445 C55.4771525,445 51,440.522847 51,435 L51,58 C51,52.4771525 55.4771525,48 61,48 Z" id="Rectangle" fill="#FAEBD5"></path>
                <g id="Group-3" transform="translate(75, 284)" fill="#E9AF58">
                    <rect id="Rectangle" x="87" y="60" width="93" height="40" rx="8"></rect>
                    <g id="Group-10">
                        <path d="M23.1039766,37.4839329 L15.4796778,41.492264 C14.013144,42.2632665 12.1992626,41.6994269 11.4282601,40.2328931 C11.1212429,39.6489117 11.0152989,38.9800075 11.1268294,38.3297346 L12.5829409,29.8399531 C12.7498547,28.8667709 12.4272093,27.8737703 11.720151,27.1845588 L5.5519637,21.1720621 C4.36551297,20.0155585 4.34123605,18.1162187 5.49773969,16.929768 C5.9582655,16.4573171 6.56169273,16.1498555 7.21460383,16.054982 L15.7388291,14.8163396 C16.7159596,14.6743542 17.5606563,14.0606461 17.9976424,13.1752157 L21.8097918,5.45095725 C22.5430586,3.96519627 24.3419362,3.35517928 25.8276971,4.08844616 C26.4193349,4.38043687 26.8982175,4.85931944 27.1902082,5.45095725 L31.0023576,13.1752157 C31.4393437,14.0606461 32.2840404,14.6743542 33.2611709,14.8163396 L41.7853962,16.054982 C43.4250308,16.2932348 44.5610751,17.8155634 44.3228223,19.455198 C44.2279487,20.1081091 43.9204872,20.7115363 43.4480363,21.1720621 L37.279849,27.1845588 C36.5727907,27.8737703 36.2501453,28.8667709 36.4170591,29.8399531 L37.8731706,38.3297346 C38.1532536,39.9627439 37.0564901,41.5136117 35.4234808,41.7936947 C34.7732079,41.9052253 34.1043037,41.7992812 33.5203222,41.492264 L25.8960234,37.4839329 C25.0220513,37.0244586 23.9779487,37.0244586 23.1039766,37.4839329 Z" id="Star"></path>
                        <path d="M77.1039766,37.4839329 L69.4796778,41.492264 C68.013144,42.2632665 66.1992626,41.6994269 65.4282601,40.2328931 C65.1212429,39.6489117 65.0152989,38.9800075 65.1268294,38.3297346 L66.5829409,29.8399531 C66.7498547,28.8667709 66.4272093,27.8737703 65.720151,27.1845588 L59.5519637,21.1720621 C58.365513,20.0155585 58.3412361,18.1162187 59.4977397,16.929768 C59.9582655,16.4573171 60.5616927,16.1498555 61.2146038,16.054982 L69.7388291,14.8163396 C70.7159596,14.6743542 71.5606563,14.0606461 71.9976424,13.1752157 L75.8097918,5.45095725 C76.5430586,3.96519627 78.3419362,3.35517928 79.8276971,4.08844616 C80.4193349,4.38043687 80.8982175,4.85931944 81.1902082,5.45095725 L85.0023576,13.1752157 C85.4393437,14.0606461 86.2840404,14.6743542 87.2611709,14.8163396 L95.7853962,16.054982 C97.4250308,16.2932348 98.5610751,17.8155634 98.3228223,19.455198 C98.2279487,20.1081091 97.9204872,20.7115363 97.4480363,21.1720621 L91.279849,27.1845588 C90.5727907,27.8737703 90.2501453,28.8667709 90.4170591,29.8399531 L91.8731706,38.3297346 C92.1532536,39.9627439 91.0564901,41.5136117 89.4234808,41.7936947 C88.7732079,41.9052253 88.1043037,41.7992812 87.5203222,41.492264 L79.8960234,37.4839329 C79.0220513,37.0244586 77.9779487,37.0244586 77.1039766,37.4839329 Z" id="Star"></path>
                        <path d="M132.103977,37.4839329 L124.479678,41.492264 C123.013144,42.2632665 121.199263,41.6994269 120.42826,40.2328931 C120.121243,39.6489117 120.015299,38.9800075 120.126829,38.3297346 L121.582941,29.8399531 C121.749855,28.8667709 121.427209,27.8737703 120.720151,27.1845588 L114.551964,21.1720621 C113.365513,20.0155585 113.341236,18.1162187 114.49774,16.929768 C114.958266,16.4573171 115.561693,16.1498555 116.214604,16.054982 L124.738829,14.8163396 C125.71596,14.6743542 126.560656,14.0606461 126.997642,13.1752157 L130.809792,5.45095725 C131.543059,3.96519627 133.341936,3.35517928 134.827697,4.08844616 C135.419335,4.38043687 135.898218,4.85931944 136.190208,5.45095725 L140.002358,13.1752157 C140.439344,14.0606461 141.28404,14.6743542 142.261171,14.8163396 L150.785396,16.054982 C152.425031,16.2932348 153.561075,17.8155634 153.322822,19.455198 C153.227949,20.1081091 152.920487,20.7115363 152.448036,21.1720621 L146.279849,27.1845588 C145.572791,27.8737703 145.250145,28.8667709 145.417059,29.8399531 L146.873171,38.3297346 C147.153254,39.9627439 146.05649,41.5136117 144.423481,41.7936947 C143.773208,41.9052253 143.104304,41.7992812 142.520322,41.492264 L134.896023,37.4839329 C134.022051,37.0244586 132.977949,37.0244586 132.103977,37.4839329 Z" id="Star"></path>
                        <path d="M186.103977,37.4839329 L178.479678,41.492264 C177.013144,42.2632665 175.199263,41.6994269 174.42826,40.2328931 C174.121243,39.6489117 174.015299,38.9800075 174.126829,38.3297346 L175.582941,29.8399531 C175.749855,28.8667709 175.427209,27.8737703 174.720151,27.1845588 L168.551964,21.1720621 C167.365513,20.0155585 167.341236,18.1162187 168.49774,16.929768 C168.958266,16.4573171 169.561693,16.1498555 170.214604,16.054982 L178.738829,14.8163396 C179.71596,14.6743542 180.560656,14.0606461 180.997642,13.1752157 L184.809792,5.45095725 C185.543059,3.96519627 187.341936,3.35517928 188.827697,4.08844616 C189.419335,4.38043687 189.898218,4.85931944 190.190208,5.45095725 L194.002358,13.1752157 C194.439344,14.0606461 195.28404,14.6743542 196.261171,14.8163396 L204.785396,16.054982 C206.425031,16.2932348 207.561075,17.8155634 207.322822,19.455198 C207.227949,20.1081091 206.920487,20.7115363 206.448036,21.1720621 L200.279849,27.1845588 C199.572791,27.8737703 199.250145,28.8667709 199.417059,29.8399531 L200.873171,38.3297346 C201.153254,39.9627439 200.05649,41.5136117 198.423481,41.7936947 C197.773208,41.9052253 197.104304,41.7992812 196.520322,41.492264 L188.896023,37.4839329 C188.022051,37.0244586 186.977949,37.0244586 186.103977,37.4839329 Z" id="Star"></path>
                        <path d="M240.103977,37.4839329 L232.479678,41.492264 C231.013144,42.2632665 229.199263,41.6994269 228.42826,40.2328931 C228.121243,39.6489117 228.015299,38.9800075 228.126829,38.3297346 L229.582941,29.8399531 C229.749855,28.8667709 229.427209,27.8737703 228.720151,27.1845588 L222.551964,21.1720621 C221.365513,20.0155585 221.341236,18.1162187 222.49774,16.929768 C222.958266,16.4573171 223.561693,16.1498555 224.214604,16.054982 L232.738829,14.8163396 C233.71596,14.6743542 234.560656,14.0606461 234.997642,13.1752157 L238.809792,5.45095725 C239.543059,3.96519627 241.341936,3.35517928 242.827697,4.08844616 C243.419335,4.38043687 243.898218,4.85931944 244.190208,5.45095725 L248.002358,13.1752157 C248.439344,14.0606461 249.28404,14.6743542 250.261171,14.8163396 L258.785396,16.054982 C260.425031,16.2932348 261.561075,17.8155634 261.322822,19.455198 C261.227949,20.1081091 260.920487,20.7115363 260.448036,21.1720621 L254.279849,27.1845588 C253.572791,27.8737703 253.250145,28.8667709 253.417059,29.8399531 L254.873171,38.3297346 C255.153254,39.9627439 254.05649,41.5136117 252.423481,41.7936947 C251.773208,41.9052253 251.104304,41.7992812 250.520322,41.492264 L242.896023,37.4839329 C242.022051,37.0244586 240.977949,37.0244586 240.103977,37.4839329 Z" id="Star"></path>
                    </g>
                </g>
                <circle id="Oval" fill="#975D48" cx="208.5" cy="187.5" r="79.5"></circle>
                <path d="M395,48 L691,48 C696.522847,48 701,52.4771525 701,58 L701,435 C701,440.522847 696.522847,445 691,445 L395,445 C389.477153,445 385,440.522847 385,435 L385,58 C385,52.4771525 389.477153,48 395,48 Z" id="Rectangle" fill="#C3DFD7"></path>
                <g id="Group-10" transform="translate(410, 284)" fill="#0F8060">
                    <path d="M23.1039766,37.4839329 L15.4796778,41.492264 C14.013144,42.2632665 12.1992626,41.6994269 11.4282601,40.2328931 C11.1212429,39.6489117 11.0152989,38.9800075 11.1268294,38.3297346 L12.5829409,29.8399531 C12.7498547,28.8667709 12.4272093,27.8737703 11.720151,27.1845588 L5.5519637,21.1720621 C4.36551297,20.0155585 4.34123605,18.1162187 5.49773969,16.929768 C5.9582655,16.4573171 6.56169273,16.1498555 7.21460383,16.054982 L15.7388291,14.8163396 C16.7159596,14.6743542 17.5606563,14.0606461 17.9976424,13.1752157 L21.8097918,5.45095725 C22.5430586,3.96519627 24.3419362,3.35517928 25.8276971,4.08844616 C26.4193349,4.38043687 26.8982175,4.85931944 27.1902082,5.45095725 L31.0023576,13.1752157 C31.4393437,14.0606461 32.2840404,14.6743542 33.2611709,14.8163396 L41.7853962,16.054982 C43.4250308,16.2932348 44.5610751,17.8155634 44.3228223,19.455198 C44.2279487,20.1081091 43.9204872,20.7115363 43.4480363,21.1720621 L37.279849,27.1845588 C36.5727907,27.8737703 36.2501453,28.8667709 36.4170591,29.8399531 L37.8731706,38.3297346 C38.1532536,39.9627439 37.0564901,41.5136117 35.4234808,41.7936947 C34.7732079,41.9052253 34.1043037,41.7992812 33.5203222,41.492264 L25.8960234,37.4839329 C25.0220513,37.0244586 23.9779487,37.0244586 23.1039766,37.4839329 Z" id="Star"></path>
                    <path d="M77.1039766,37.4839329 L69.4796778,41.492264 C68.013144,42.2632665 66.1992626,41.6994269 65.4282601,40.2328931 C65.1212429,39.6489117 65.0152989,38.9800075 65.1268294,38.3297346 L66.5829409,29.8399531 C66.7498547,28.8667709 66.4272093,27.8737703 65.720151,27.1845588 L59.5519637,21.1720621 C58.365513,20.0155585 58.3412361,18.1162187 59.4977397,16.929768 C59.9582655,16.4573171 60.5616927,16.1498555 61.2146038,16.054982 L69.7388291,14.8163396 C70.7159596,14.6743542 71.5606563,14.0606461 71.9976424,13.1752157 L75.8097918,5.45095725 C76.5430586,3.96519627 78.3419362,3.35517928 79.8276971,4.08844616 C80.4193349,4.38043687 80.8982175,4.85931944 81.1902082,5.45095725 L85.0023576,13.1752157 C85.4393437,14.0606461 86.2840404,14.6743542 87.2611709,14.8163396 L95.7853962,16.054982 C97.4250308,16.2932348 98.5610751,17.8155634 98.3228223,19.455198 C98.2279487,20.1081091 97.9204872,20.7115363 97.4480363,21.1720621 L91.279849,27.1845588 C90.5727907,27.8737703 90.2501453,28.8667709 90.4170591,29.8399531 L91.8731706,38.3297346 C92.1532536,39.9627439 91.0564901,41.5136117 89.4234808,41.7936947 C88.7732079,41.9052253 88.1043037,41.7992812 87.5203222,41.492264 L79.8960234,37.4839329 C79.0220513,37.0244586 77.9779487,37.0244586 77.1039766,37.4839329 Z" id="Star"></path>
                    <path d="M132.103977,37.4839329 L124.479678,41.492264 C123.013144,42.2632665 121.199263,41.6994269 120.42826,40.2328931 C120.121243,39.6489117 120.015299,38.9800075 120.126829,38.3297346 L121.582941,29.8399531 C121.749855,28.8667709 121.427209,27.8737703 120.720151,27.1845588 L114.551964,21.1720621 C113.365513,20.0155585 113.341236,18.1162187 114.49774,16.929768 C114.958266,16.4573171 115.561693,16.1498555 116.214604,16.054982 L124.738829,14.8163396 C125.71596,14.6743542 126.560656,14.0606461 126.997642,13.1752157 L130.809792,5.45095725 C131.543059,3.96519627 133.341936,3.35517928 134.827697,4.08844616 C135.419335,4.38043687 135.898218,4.85931944 136.190208,5.45095725 L140.002358,13.1752157 C140.439344,14.0606461 141.28404,14.6743542 142.261171,14.8163396 L150.785396,16.054982 C152.425031,16.2932348 153.561075,17.8155634 153.322822,19.455198 C153.227949,20.1081091 152.920487,20.7115363 152.448036,21.1720621 L146.279849,27.1845588 C145.572791,27.8737703 145.250145,28.8667709 145.417059,29.8399531 L146.873171,38.3297346 C147.153254,39.9627439 146.05649,41.5136117 144.423481,41.7936947 C143.773208,41.9052253 143.104304,41.7992812 142.520322,41.492264 L134.896023,37.4839329 C134.022051,37.0244586 132.977949,37.0244586 132.103977,37.4839329 Z" id="Star"></path>
                    <path d="M186.103977,37.4839329 L178.479678,41.492264 C177.013144,42.2632665 175.199263,41.6994269 174.42826,40.2328931 C174.121243,39.6489117 174.015299,38.9800075 174.126829,38.3297346 L175.582941,29.8399531 C175.749855,28.8667709 175.427209,27.8737703 174.720151,27.1845588 L168.551964,21.1720621 C167.365513,20.0155585 167.341236,18.1162187 168.49774,16.929768 C168.958266,16.4573171 169.561693,16.1498555 170.214604,16.054982 L178.738829,14.8163396 C179.71596,14.6743542 180.560656,14.0606461 180.997642,13.1752157 L184.809792,5.45095725 C185.543059,3.96519627 187.341936,3.35517928 188.827697,4.08844616 C189.419335,4.38043687 189.898218,4.85931944 190.190208,5.45095725 L194.002358,13.1752157 C194.439344,14.0606461 195.28404,14.6743542 196.261171,14.8163396 L204.785396,16.054982 C206.425031,16.2932348 207.561075,17.8155634 207.322822,19.455198 C207.227949,20.1081091 206.920487,20.7115363 206.448036,21.1720621 L200.279849,27.1845588 C199.572791,27.8737703 199.250145,28.8667709 199.417059,29.8399531 L200.873171,38.3297346 C201.153254,39.9627439 200.05649,41.5136117 198.423481,41.7936947 C197.773208,41.9052253 197.104304,41.7992812 196.520322,41.492264 L188.896023,37.4839329 C188.022051,37.0244586 186.977949,37.0244586 186.103977,37.4839329 Z" id="Star"></path>
                    <path d="M240.103977,37.4839329 L232.479678,41.492264 C231.013144,42.2632665 229.199263,41.6994269 228.42826,40.2328931 C228.121243,39.6489117 228.015299,38.9800075 228.126829,38.3297346 L229.582941,29.8399531 C229.749855,28.8667709 229.427209,27.8737703 228.720151,27.1845588 L222.551964,21.1720621 C221.365513,20.0155585 221.341236,18.1162187 222.49774,16.929768 C222.958266,16.4573171 223.561693,16.1498555 224.214604,16.054982 L232.738829,14.8163396 C233.71596,14.6743542 234.560656,14.0606461 234.997642,13.1752157 L238.809792,5.45095725 C239.543059,3.96519627 241.341936,3.35517928 242.827697,4.08844616 C243.419335,4.38043687 243.898218,4.85931944 244.190208,5.45095725 L248.002358,13.1752157 C248.439344,14.0606461 249.28404,14.6743542 250.261171,14.8163396 L258.785396,16.054982 C260.425031,16.2932348 261.561075,17.8155634 261.322822,19.455198 C261.227949,20.1081091 260.920487,20.7115363 260.448036,21.1720621 L254.279849,27.1845588 C253.572791,27.8737703 253.250145,28.8667709 253.417059,29.8399531 L254.873171,38.3297346 C255.153254,39.9627439 254.05649,41.5136117 252.423481,41.7936947 C251.773208,41.9052253 251.104304,41.7992812 250.520322,41.492264 L242.896023,37.4839329 C242.022051,37.0244586 240.977949,37.0244586 240.103977,37.4839329 Z" id="Star"></path>
                </g>
                <g id="Group-3" transform="translate(496, 344)" fill="#0F8060">
                    <rect id="Rectangle" x="0" y="0" width="93" height="40" rx="8"></rect>
                </g>
                <circle id="Oval" fill="#0F8060" cx="543.5" cy="187.5" r="79.5"></circle>
            </g>
        </g>
    </g>
</svg>