<?xml version="1.0" encoding="UTF-8"?>
<svg width="750px" height="500px" viewBox="0 0 750 500" version="1.1" xmlns="http://www.w3.org/2000/svg" xmlns:xlink="http://www.w3.org/1999/xlink">
    <title>icon</title>
    <defs>
        <rect id="path-1" x="31" y="28" width="688" height="437" rx="20"></rect>
        <filter x="-4.4%" y="-6.9%" width="108.7%" height="113.7%" filterUnits="objectBoundingBox" id="filter-2">
            <feOffset dx="0" dy="0" in="SourceAlpha" result="shadowOffsetOuter1"></feOffset>
            <feGaussianBlur stdDeviation="10" in="shadowOffsetOuter1" result="shadowBlurOuter1"></feGaussianBlur>
            <feColorMatrix values="0 0 0 0 0.8   0 0 0 0 0.8   0 0 0 0 0.8  0 0 0 1 0" type="matrix" in="shadowBlurOuter1"></feColorMatrix>
        </filter>
    </defs>
    <g id="Page-1" stroke="none" stroke-width="1" fill="none" fill-rule="evenodd">
        <g id="Triptych" transform="translate(-146, -110)">
            <g id="icon" transform="translate(146, 110)">
                <rect id="Rectangle" x="0" y="0" width="750" height="500"></rect>
                <g id="Rectangle">
                    <use fill="black" fill-opacity="1" filter="url(#filter-2)" xlink:href="#path-1"></use>
                    <use fill="#FFFFFF" fill-rule="evenodd" xlink:href="#path-1"></use>
                </g>
                <g id="Group-4" transform="translate(525.5, 280.5) rotate(5) translate(-525.5, -280.5)translate(378, 133)">
                    <path d="M10,0 L285,0 C290.522847,-1.01453063e-15 295,4.4771525 295,10 L295,285 C295,290.522847 290.522847,295 285,295 L10,295 C4.4771525,295 6.76353751e-16,290.522847 0,285 L0,10 C-6.76353751e-16,4.4771525 4.4771525,1.01453063e-15 10,0 Z" id="Rectangle" fill="#3B8B96" transform="translate(147.5, 147.5) scale(-1, 1) translate(-147.5, -147.5)"></path>
                    <path d="M34.0787203,201.97982 L89.1970334,129.257471 C90.865033,127.056735 94.0012628,126.624867 96.2019986,128.292866 C96.5660918,128.568823 96.8906465,128.893377 97.166603,129.257471 L140.567621,186.52018 C141.512874,187.767335 142.987511,188.5 144.552406,188.5 L213.46671,188.5 C216.228134,188.5 218.46671,186.261424 218.46671,183.5 C218.46671,182.407438 218.108847,181.344947 217.447851,180.475019 L173.193412,122.232287 C171.522761,120.033564 168.386013,119.605476 166.187289,121.276127 C165.831594,121.546394 165.513723,121.86311 165.242164,122.217819 L146.038288,147.301777 C144.359646,149.494406 141.221361,149.911075 139.028732,148.232434 C138.678861,147.964578 138.365931,147.651648 138.098075,147.301777 L130.803934,137.774224 C129.436212,135.987717 129.430205,133.507707 130.789256,131.714594 L165.242488,86.2574706 C166.910488,84.0567347 170.046717,83.6248667 172.247453,85.2928663 C172.611546,85.5688227 172.936101,85.8933774 173.212058,86.2574706 L260.92128,201.97982 C262.589279,204.180555 262.157411,207.316785 259.956675,208.984785 C259.087594,209.643486 258.026994,210 256.936495,210 L38.0635051,210 C35.3020813,210 33.0635051,207.761424 33.0635051,205 C33.0635051,203.909501 33.4200194,202.8489 34.0787203,201.97982 Z M82.0690602,189 L105.93094,189 C108.692363,189 110.93094,186.761424 110.93094,184 C110.93094,182.908748 110.573934,181.847458 109.914396,180.978068 L97.9834564,165.25092 C96.3144892,163.050918 93.1780698,162.620429 90.9780676,164.289396 C90.615269,164.564622 90.2917701,164.888121 90.0165436,165.25092 L78.0856039,180.978068 C76.4166367,183.17807 76.8471256,186.314489 79.0471278,187.983456 C79.9165186,188.642994 80.9778085,189 82.0690602,189 Z M72,188.5 L116,188.5 L72,188.5 Z" id="Shape" fill="#FFFFFF" fill-rule="nonzero"></path>
                </g>
                <g id="Group-4" transform="translate(235.5, 280.5) rotate(5) translate(-235.5, -280.5)translate(88, 133)">
                    <path d="M10,0 L285,0 C290.522847,-1.01453063e-15 295,4.4771525 295,10 L295,285 C295,290.522847 290.522847,295 285,295 L10,295 C4.4771525,295 6.76353751e-16,290.522847 0,285 L0,10 C-6.76353751e-16,4.4771525 4.4771525,1.01453063e-15 10,0 Z" id="Rectangle" fill="#DE6B5A" transform="translate(147.5, 147.5) scale(-1, 1) translate(-147.5, -147.5)"></path>
                    <path d="M34.0787203,201.97982 L89.1970334,129.257471 C90.865033,127.056735 94.0012628,126.624867 96.2019986,128.292866 C96.5660918,128.568823 96.8906465,128.893377 97.166603,129.257471 L140.567621,186.52018 C141.512874,187.767335 142.987511,188.5 144.552406,188.5 L213.46671,188.5 C216.228134,188.5 218.46671,186.261424 218.46671,183.5 C218.46671,182.407438 218.108847,181.344947 217.447851,180.475019 L173.193412,122.232287 C171.522761,120.033564 168.386013,119.605476 166.187289,121.276127 C165.831594,121.546394 165.513723,121.86311 165.242164,122.217819 L146.038288,147.301777 C144.359646,149.494406 141.221361,149.911075 139.028732,148.232434 C138.678861,147.964578 138.365931,147.651648 138.098075,147.301777 L130.803934,137.774224 C129.436212,135.987717 129.430205,133.507707 130.789256,131.714594 L165.242488,86.2574706 C166.910488,84.0567347 170.046717,83.6248667 172.247453,85.2928663 C172.611546,85.5688227 172.936101,85.8933774 173.212058,86.2574706 L260.92128,201.97982 C262.589279,204.180555 262.157411,207.316785 259.956675,208.984785 C259.087594,209.643486 258.026994,210 256.936495,210 L38.0635051,210 C35.3020813,210 33.0635051,207.761424 33.0635051,205 C33.0635051,203.909501 33.4200194,202.8489 34.0787203,201.97982 Z M82.0690602,189 L105.93094,189 C108.692363,189 110.93094,186.761424 110.93094,184 C110.93094,182.908748 110.573934,181.847458 109.914396,180.978068 L97.9834564,165.25092 C96.3144892,163.050918 93.1780698,162.620429 90.9780676,164.289396 C90.615269,164.564622 90.2917701,164.888121 90.0165436,165.25092 L78.0856039,180.978068 C76.4166367,183.17807 76.8471256,186.314489 79.0471278,187.983456 C79.9165186,188.642994 80.9778085,189 82.0690602,189 Z M72,188.5 L116,188.5 L72,188.5 Z" id="Shape" fill="#FFFFFF" fill-rule="nonzero"></path>
                </g>
                <g id="Group-4" transform="translate(375.5, 200.5) rotate(-5) translate(-375.5, -200.5)translate(228, 53)">
                    <path d="M10,0 L285,0 C290.522847,-1.01453063e-15 295,4.4771525 295,10 L295,285 C295,290.522847 290.522847,295 285,295 L10,295 C4.4771525,295 6.76353751e-16,290.522847 0,285 L0,10 C-6.76353751e-16,4.4771525 4.4771525,1.01453063e-15 10,0 Z" id="Rectangle" fill="#C3DFD7" transform="translate(147.5, 147.5) scale(-1, 1) translate(-147.5, -147.5)"></path>
                    <path d="M34.0787203,201.97982 L89.1970334,129.257471 C90.865033,127.056735 94.0012628,126.624867 96.2019986,128.292866 C96.5660918,128.568823 96.8906465,128.893377 97.166603,129.257471 L140.567621,186.52018 C141.512874,187.767335 142.987511,188.5 144.552406,188.5 L213.46671,188.5 C216.228134,188.5 218.46671,186.261424 218.46671,183.5 C218.46671,182.407438 218.108847,181.344947 217.447851,180.475019 L173.193412,122.232287 C171.522761,120.033564 168.386013,119.605476 166.187289,121.276127 C165.831594,121.546394 165.513723,121.86311 165.242164,122.217819 L146.038288,147.301777 C144.359646,149.494406 141.221361,149.911075 139.028732,148.232434 C138.678861,147.964578 138.365931,147.651648 138.098075,147.301777 L130.803934,137.774224 C129.436212,135.987717 129.430205,133.507707 130.789256,131.714594 L165.242488,86.2574706 C166.910488,84.0567347 170.046717,83.6248667 172.247453,85.2928663 C172.611546,85.5688227 172.936101,85.8933774 173.212058,86.2574706 L260.92128,201.97982 C262.589279,204.180555 262.157411,207.316785 259.956675,208.984785 C259.087594,209.643486 258.026994,210 256.936495,210 L38.0635051,210 C35.3020813,210 33.0635051,207.761424 33.0635051,205 C33.0635051,203.909501 33.4200194,202.8489 34.0787203,201.97982 Z M82.0690602,189 L105.93094,189 C108.692363,189 110.93094,186.761424 110.93094,184 C110.93094,182.908748 110.573934,181.847458 109.914396,180.978068 L97.9834564,165.25092 C96.3144892,163.050918 93.1780698,162.620429 90.9780676,164.289396 C90.615269,164.564622 90.2917701,164.888121 90.0165436,165.25092 L78.0856039,180.978068 C76.4166367,183.17807 76.8471256,186.314489 79.0471278,187.983456 C79.9165186,188.642994 80.9778085,189 82.0690602,189 Z M72,188.5 L116,188.5 L72,188.5 Z" id="Shape" fill="#0F8060" fill-rule="nonzero"></path>
                </g>
            </g>
        </g>
    </g>
</svg>