<?xml version="1.0" encoding="UTF-8"?>
<svg width="796px" height="250px" viewBox="0 0 796 250" version="1.1" xmlns="http://www.w3.org/2000/svg" xmlns:xlink="http://www.w3.org/1999/xlink">
    <title>sprout</title>
    <defs>
        <rect id="path-1" x="0" y="0" width="250" height="250" rx="10"></rect>
    </defs>
    <g id="Page-1" stroke="none" stroke-width="1" fill="none" fill-rule="evenodd">
        <g id="sprout">
            <g id="Group-46">
                <mask id="mask-2" fill="white">
                    <use xlink:href="#path-1"></use>
                </mask>
                <use id="Rectangle" fill="#F3F9FE" xlink:href="#path-1"></use>
                <g id="Plant" mask="url(#mask-2)">
                    <g transform="translate(66.8824, 33.3226)">
                        <path d="M99.6752751,117.991899 C100.703618,117.991899 101.634607,118.408717 102.308511,119.082621 C103.013357,119.787466 103.436967,120.773547 103.396582,121.858103 L100.940141,135.549773 C100.778894,136.434821 100.31279,137.198941 99.6620928,137.741799 C99.0113957,138.284657 98.1761061,138.606253 97.2764897,138.606253 L94.5921961,138.606253 L94.2425109,143.860246 L91.3877822,181.519761 C91.319749,182.495472 90.8800544,183.361704 90.2128481,183.984008 C89.5456418,184.606312 88.6509238,184.984688 87.6728436,184.984688 L24.6842651,184.984688 C23.706185,184.984688 22.8114669,184.606312 22.1442606,183.984008 C21.4770543,183.361704 21.0373598,182.495472 20.9693266,181.519761 L17.9771048,138.606253 L14.433855,138.606253 C13.5342386,138.606253 12.698949,138.284657 12.0482519,137.741799 C11.3975549,137.198941 10.9314504,136.434821 10.7702041,135.549773 L8.37141866,122.383335 C8.1870996,121.371646 8.43029811,120.381023 8.97249871,119.597243 C9.53991163,118.777017 10.4347804,118.183317 11.5098149,118.029059 Z M62.4177041,24.7557762 C70.6049166,15.0081597 83.3774481,10.5948453 100.856008,11.7462395 C101.205921,11.7692898 101.553671,11.7943037 101.89854,11.8237701 C101.984874,12.1581038 102.069659,12.4948919 102.152895,12.834136 C106.323315,29.8316117 104.190665,43.1649867 96.0029337,52.9132296 C88.5571302,61.7781316 77.323234,66.2287147 62.2148026,66.0992764 C61.7237615,67.7675954 61.3455935,69.3463033 61.0659546,70.7840136 C59.4467075,79.109066 59.3068576,89.773208 60.62223,102.771327 C62.3875289,100.004563 64.0820619,97.6678172 65.7033535,95.7586851 C65.9945732,86.3073726 69.0749009,79.2101591 74.815791,74.3976781 C81.5418969,68.7593138 90.7362862,67.2539434 102.477738,70.129152 C102.818859,70.2126847 103.156366,70.2985031 103.488461,70.3872081 C103.517256,70.7303271 103.543188,71.0765929 103.566251,71.426009 C104.361742,83.4782924 101.281003,92.2635307 94.5542755,97.9024204 C88.1548452,103.266939 79.5225811,104.889722 68.5910337,102.560703 C67.5716691,104.215297 66.6237443,106.009798 65.9010801,107.671625 C64.8252441,110.145599 63.879501,114.493546 63.0182504,120.699919 L52.2736972,120.699919 C52.5739779,107.467802 51.0592324,97.2764029 47.6444895,90.149618 C46.2539227,87.2474168 44.1338778,83.9919991 41.2929802,80.3782953 C31.3211155,82.4866354 23.2601878,81.0351934 17.059368,76.1953105 C10.1397695,70.7943998 6.75403838,62.1219416 7.12801459,50.049307 C7.13887962,49.698564 7.15273436,49.3508818 7.16981847,49.0071589 C7.49975413,48.9076899 7.83336195,48.810366 8.1706466,48.7151914 C19.8044816,45.4323698 29.0458455,46.6162308 35.9648153,52.0166463 C42.3648368,57.0120148 45.7393862,64.8022744 45.916772,75.4860251 C46.796054,76.4588343 47.7253152,77.5406194 48.7111898,78.7387206 C49.5979708,79.8163964 50.8989284,81.4634385 52.6139185,83.6792507 C53.1679611,77.5258466 53.7765052,73.0293753 54.432139,70.1884701 C54.8997688,68.1621993 55.4917427,66.1749847 56.1377471,64.2945659 C52.1432627,47.5548983 54.3167712,34.4006771 62.4177041,24.7557762 Z" id="shadow" stroke="#FFFFFF" stroke-width="2.86458333"></path>
                        <g id="Plant" stroke="none" stroke-width="1" fill-rule="evenodd">
                            <path d="M12.0350696,119.42419 L99.6752751,119.42419 C100.940928,119.42419 101.966942,120.450205 101.966942,121.715857 C101.966942,121.853613 101.954521,121.991088 101.92983,122.126613 L99.5310441,135.293051 C99.3325872,136.38234 98.3837099,137.173962 97.2764897,137.173962 L14.433855,137.173962 C13.3266348,137.173962 12.3777576,136.38234 12.1793006,135.293051 L9.78051518,122.126613 C9.55366095,120.881457 10.3791577,119.688157 11.6243137,119.461303 C11.7598386,119.436611 11.8973138,119.42419 12.0350696,119.42419 Z" id="Rectangle" fill="#CF7437"></path>
                            <path d="M19.3130049,137.173962 L93.0441039,137.173962 L89.9589597,181.420133 C89.8752265,182.621009 88.8766346,183.552397 87.6728436,183.552397 L24.6842651,183.552397 C23.4804742,183.552397 22.4818823,182.621009 22.3981491,181.420133 L19.3130049,137.173962 L19.3130049,137.173962 Z" id="Rectangle" fill="#CF7437"></path>
                            <polygon id="Rectangle" fill="#B65C23" points="19.31798 137.173962 93.2520634 137.173962 92.8138186 143.758554 19.7777732 143.758554"></polygon>
                            <path d="M79.220162,59.3157317 C91.5578542,59.3216596 102.724257,52.4999523 112.71937,38.8506099 C102.711133,25.1916523 91.5381678,18.3592071 79.2004757,18.353274 C66.8627836,18.3473462 55.6963808,25.1690535 45.7012673,38.8183959 C55.709505,52.4773534 66.8824699,59.3097987 79.220162,59.3157317 Z" id="Oval" fill="#6DA244" transform="translate(79.2103, 38.8345) rotate(-50) translate(-79.2103, -38.8345)"></path>
                            <path d="M84.6917216,100.064423 C93.0764463,100.068451 100.66516,95.4339745 107.457864,86.1609937 C100.656243,76.8814796 93.0630696,72.2397069 84.678345,72.2356755 C76.2936203,72.2316476 68.7049062,76.866124 61.9122027,86.1391047 C68.7138239,95.4186188 76.3069969,100.060392 84.6917216,100.064423 Z" id="Oval" fill="#6DA244" transform="translate(84.685, 86.15) rotate(-40) translate(-84.685, -86.15)"></path>
                            <path d="M26.5055019,78.0198884 C34.8905059,78.0159164 42.483899,73.374352 49.285681,64.0951952 C42.4926853,54.8224754 34.9036854,50.1880998 26.5186814,50.1920684 C18.1336773,50.1960404 10.5402843,54.8376048 3.73850232,64.1167616 C10.531498,73.3894814 18.1204978,78.023857 26.5055019,78.0198884 Z" id="Oval" fill="#6DA244" transform="translate(26.5121, 64.106) rotate(38) translate(-26.5121, -64.106)"></path>
                            <path d="M53.7316719,119.267627 L61.7756751,119.267627 C62.6155187,113.535729 63.552829,109.480002 64.5876061,107.100445 C66.0973537,103.628655 68.5551326,99.5964843 70.6536308,97.3191719 C74.9095869,92.7005633 79.7494962,88.4183787 85.1733588,84.4726183 C78.1153579,87.765455 73.0293672,90.7675506 69.915387,93.4789051 C66.8014067,96.1902595 63.3829479,100.730773 59.6600105,107.100445 C57.8495687,92.0152274 57.8495687,79.8185966 59.6600105,70.5105533 C60.6150354,65.6004739 62.6864149,59.0894803 66.408309,52.9257323 C68.630779,49.2451483 73.1634132,43.5460686 80.0062118,35.8284932 C70.8519243,42.6795433 64.7750787,48.9990971 61.7756751,54.7871546 C60.0889843,58.0420228 57.3132728,64.0736717 55.8277471,70.5105533 C55.0569801,73.8503382 54.3582883,79.5074813 53.7316719,87.4819829 C50.8823868,83.7607523 48.8402294,81.1496915 47.6051997,79.6488003 C45.3659529,76.9275171 43.4241824,74.8155593 41.686376,73.2157384 C38.5108703,70.2923745 33.4427901,66.6858338 26.4821353,62.3961165 C32.6326795,68.4991831 36.8638893,72.8885367 39.1757647,75.5641773 C43.7678653,80.8788285 47.0213322,85.5343432 48.9361654,89.5307216 C52.2970218,96.5450419 53.8955239,106.457344 53.7316719,119.267627 Z" id="Path-2" fill="#2B6822"></path>
                        </g>
                    </g>
                </g>
            </g>
            <text id="Fundlet" font-family="Futura-Bold, Futura" font-size="125" font-weight="bold" fill="#111111">
                <tspan x="307" y="174">Fundlet</tspan>
            </text>
        </g>
    </g>
</svg>