<?xml version="1.0" encoding="UTF-8"?>
<svg width="688px" height="1037px" viewBox="0 0 688 1037" version="1.1" xmlns="http://www.w3.org/2000/svg" xmlns:xlink="http://www.w3.org/1999/xlink">
    <title>Group</title>
    <defs>
        <linearGradient x1="43.4883034%" y1="45.1056106%" x2="94.2594255%" y2="54.9780901%" id="linearGradient-1">
            <stop stop-color="#72C531" offset="0%"></stop>
            <stop stop-color="#00742A" offset="71.4925411%"></stop>
            <stop stop-color="#00742A" offset="100%"></stop>
        </linearGradient>
    </defs>
    <g id="Page-1" stroke="none" stroke-width="1" fill="none" fill-rule="evenodd">
        <g id="Plant" transform="translate(-0.9565, -16.0526)">
            <g id="Group" transform="translate(1, 17)">
                <path d="M64.1643131,682.024035 L551.795947,682.024035 C557.871079,682.024035 562.795947,686.948902 562.795947,693.024035 C562.795947,693.684996 562.736374,694.344612 562.617951,694.994879 L548.777248,770.994879 C547.82498,776.223833 543.270202,780.024035 537.955244,780.024035 L78.005016,780.024035 C72.6900583,780.024035 68.1352803,776.223833 67.1830118,770.994879 L53.3423089,694.994879 C52.2538418,689.018051 56.2166412,683.290498 62.193469,682.20203 C62.8437352,682.083608 63.5033516,682.024035 64.1643131,682.024035 Z" id="Rectangle" fill="#CF7437"></path>
                <path d="M106.98013,780.024035 L513.98013,780.024035 L496.842927,1025.78921 C496.440991,1031.55339 491.647756,1036.02403 485.869573,1036.02403 L135.090687,1036.02403 C129.312504,1036.02403 124.519269,1031.55339 124.117333,1025.78921 L106.98013,780.024035 L106.98013,780.024035 Z" id="Rectangle" fill="#CF7437"></path>
                <polygon id="Rectangle" fill="#B65C23" points="106.98013 780.024035 514.98013 780.024035 512.561707 816.024035 109.517466 816.024035"></polygon>
                <path d="M443.520543,328.653372 C469.621316,335.976456 482.671703,339.637998 482.671703,339.637998 L598.805704,359.888181 C609.234953,361.70672 619.16825,354.740265 621.010792,344.31523 L654.407472,155.357802 C656.212194,145.147685 649.584649,135.34906 639.43645,133.223598 C561.304807,116.865286 505.634328,107.17133 472.425073,104.141436 C460.665261,103.068513 450.678137,102.506379 443.500414,102.506379 C375.376686,102.500315 316.992456,142.992954 268.347724,223.984296 C323.204414,276.389353 381.595354,311.279045 443.520543,328.653372 Z" id="Oval" fill="#72C531" transform="translate(462.9939, 232.8425) rotate(-50) translate(-462.9939, -232.8425)"></path>
                <path d="M447.04896,110.083923 C452.899216,110.083923 461.039023,110.552993 470.623756,111.438802 C498.378816,114.003888 548.424824,123.728949 620.765936,140.573909 C623.519592,141.215703 625.776092,142.88515 627.213582,145.088845 C628.651072,147.29254 629.269553,150.030482 628.747144,152.809408 L596.587622,323.908455 C596.056281,326.735389 594.442419,329.089604 592.252232,330.617884 C590.062044,332.146163 587.295532,332.848507 584.45889,332.3717 L491.514053,316.748722 C482.780707,316.389459 467.726672,313.114101 446.339133,307.035866 C396.573857,292.892818 350.642119,259.235246 308.404503,206.295072 C346.680343,142.492212 392.738818,110.078752 447.04896,110.083923 Z" id="Oval" stroke="url(#linearGradient-1)" stroke-width="9.6" transform="translate(469.3821, 222.4434) rotate(-50) translate(-469.3821, -222.4434)"></path>
                <path d="M467.470165,574.840545 C513.760406,574.844665 555.666074,549.238795 593.187169,498.022934 C555.656956,446.800393 513.746729,421.187062 467.456488,421.182942 C421.166248,421.178822 379.26058,446.784692 341.739485,498.000553 C379.269698,549.223094 421.179925,574.836425 467.470165,574.840545 Z" id="Oval" fill="#72C531" transform="translate(467.4633, 498.0117) rotate(-40) translate(-467.4633, -498.0117)"></path>
                <path d="M146.415457,300.11357 C192.393761,300.109538 233.998797,325.522992 271.277576,376.247348 C233.989787,426.970403 192.380236,452.391194 146.401861,452.395226 C100.423558,452.399258 58.8185212,426.985804 21.5397422,376.261449 C58.8275313,325.538393 100.437083,300.117602 146.415457,300.11357 Z" id="Oval" stroke="#6DA244" stroke-width="1.375" fill="#72C531" transform="translate(146.4087, 376.2544) rotate(38) translate(-146.4087, -376.2544)"></path>
                <path d="M296.408922,671.024035 L340.81517,671.024035 C345.451457,645.997753 350.6258,626.906062 356.338201,613.748963 C364.672636,594.552656 378.240599,572.257882 389.825183,559.666112 C413.319834,534.128792 440.038149,510.451635 469.98013,488.634643 C431.017025,506.841474 402.940238,523.440732 385.74977,538.432418 C368.559302,553.424103 349.687985,578.529618 329.13582,613.748963 C319.141428,530.339416 319.141428,462.901516 329.13582,411.435261 C334.407955,384.286333 345.842833,348.285593 366.389239,314.204851 C378.658199,293.854078 381.979729,282.17414 376.353829,279.165038 C369.219347,277.382928 357.373128,292.493606 340.81517,324.497071 C331.503934,342.493966 316.18085,375.844303 307.98013,411.435261 C303.725175,429.901679 299.868106,461.18129 296.408922,505.274093 C280.679681,484.698577 269.406122,470.261437 262.588243,461.962674 C250.226668,446.91609 239.507286,435.238603 229.913871,426.392835 C212.383757,410.228902 184.405843,390.287531 145.98013,366.568725 C179.933696,400.313945 203.291736,424.583664 216.054251,439.377879 C241.404559,468.763775 259.365052,494.505158 269.935729,516.602028 C288.489056,555.385774 297.313453,606.859777 296.408922,671.024035 Z" id="Path-2" fill="#00742A"></path>
                <path d="M605.477187,219.024035 C616.245114,219.024035 630.98013,207.831153 630.98013,194.024035 C630.98013,180.216916 616.245114,169.024035 605.477187,169.024035 C594.70926,169.024035 585.98013,180.216916 585.98013,194.024035 C585.98013,207.831153 594.70926,219.024035 605.477187,219.024035 Z" id="Oval" fill="#00742A"></path>
                <path d="M507.075956,99.5909843 C517.751859,99.588501 529.64168,88.2360149 529.644872,74.5188563 C529.648063,60.8016978 517.763417,49.9142757 507.087514,49.9167581 C496.411611,49.9192414 487.754495,61.0412082 487.751302,74.7583668 C487.748112,88.4755253 496.400054,99.5934667 507.075956,99.5909843 Z" id="Oval-Copy" fill="#00742A" transform="translate(508.6981, 74.7539) rotate(-79) translate(-508.6981, -74.7539)"></path>
                <path d="M462.673576,120.07229 C501.543181,120.07229 533.053222,161.784962 533.053222,213.240151 C533.053222,264.69534 501.543181,306.408012 462.673576,306.408012 C423.803971,306.408012 392.29393,264.69534 392.29393,213.240151 C392.29393,161.784962 423.803971,120.07229 462.673576,120.07229 Z M468.98311,163.990742 L457.816881,163.990742 L457.816881,176.164676 C453.722597,176.647769 449.721364,178.628448 445.813184,182.106715 C441.905004,185.584982 439.950914,190.464217 439.950914,196.744421 C439.950914,201.961821 441.439744,206.382119 444.417406,210.005313 C447.395067,213.628508 452.885129,216.744455 460.887594,219.353155 C468.331746,221.865237 473.077394,224.111618 475.124536,226.092297 C477.171678,228.072977 478.195249,230.754141 478.195249,234.135789 C478.195249,237.903912 476.869259,240.681694 474.21728,242.469137 C471.5653,244.25658 468.331746,245.150301 464.516618,245.150301 C460.050126,245.150301 456.444365,243.942569 453.699334,241.527106 C450.954302,239.111643 448.883897,235.585067 447.488119,230.947378 L437.159357,235.295212 C438.834291,241.28556 441.463007,245.923249 445.045506,249.208279 C448.628004,252.493309 452.885129,254.715535 457.816881,255.874957 L457.816881,268.338746 L468.98311,268.338746 L468.98311,256.164812 C474.752328,255.295246 479.591027,253.07302 483.499208,249.498134 C487.407388,245.923249 489.361478,240.705849 489.361478,233.845934 C489.361478,228.338678 487.709807,223.483597 484.406464,219.280692 C481.103121,215.077786 476.241159,212.010148 469.820577,210.077777 C462.934736,208.048788 458.096036,206.116418 455.304479,204.280666 C452.512922,202.444914 451.117143,199.932832 451.117143,196.744421 C451.117143,193.942484 452.18724,191.599485 454.327434,189.715424 C456.467628,187.831363 459.584867,186.889332 463.679151,186.889332 C467.215123,186.889332 470.006681,187.66228 472.053823,189.208176 C474.100965,190.754073 475.682847,193.072917 476.79947,196.16471 L487.128232,191.527021 C485.732454,187.565662 483.522471,184.208168 480.498284,181.45454 C477.474097,178.700912 473.635705,176.937624 468.98311,176.164676 L468.98311,163.990742 Z" id="Combined-Shape" fill="#00742A" transform="translate(462.6736, 213.2402) rotate(-40) translate(-462.6736, -213.2402)"></path>
            </g>
        </g>
    </g>
</svg>