<?xml version="1.0" encoding="UTF-8"?>
<svg width="502px" height="502px" viewBox="0 0 502 502" version="1.1" xmlns="http://www.w3.org/2000/svg" xmlns:xlink="http://www.w3.org/1999/xlink">
    <title>Shape</title>
    <g id="Page-1" stroke="none" stroke-width="1" fill="none" fill-rule="evenodd">
        <g id="Layer_1" fill="#000000">
            <path d="M501.43,83.79 L501.43,417.63 C501.43,463.9 463.93,501.42 417.64,501.42 L83.79,501.42 C37.51,501.42 0,463.92 0,417.63 L0,83.79 C0,37.52 37.52,0 83.79,0 L417.63,0 C463.92,0 501.42,37.5 501.42,83.79 L501.43,83.79 Z M410.23,117.65 C410.23,103.04 398.38,91.2 383.78,91.2 L117.63,91.2 C103.02,91.2 91.18,103.04 91.18,117.65 L91.18,383.84 C91.18,398.45 103.02,410.29 117.63,410.29 L383.8,410.29 C398.41,410.29 410.25,398.44 410.25,383.84 L410.25,117.65 L410.23,117.65 Z M182.32,197.6 C182.32,189.17 189.11,182.34 197.49,182.34 L303.89,182.34 C312.28,182.34 319.06,189.18 319.06,197.6 L319.06,303.84 C319.06,312.27 312.31,319.1 303.89,319.1 L197.49,319.1 C189.1,319.1 182.32,312.26 182.32,303.84 L182.32,197.6 Z" id="Shape" fill-rule="nonzero"></path>
        </g>
    </g>
</svg>