<?xml version="1.0" encoding="UTF-8"?>
<svg width="502px" height="502px" viewBox="0 0 502 502" version="1.1" xmlns="http://www.w3.org/2000/svg" xmlns:xlink="http://www.w3.org/1999/xlink">
    <title>Shape</title>
    <g id="Page-1" stroke="none" stroke-width="1" fill="none" fill-rule="evenodd">
        <g id="Layer_1" fill="#FFFFFF">
            <path d="M501.42,83.79 L501.42,417.63 C501.42,463.9 463.92,501.42 417.63,501.42 L83.79,501.42 C37.51,501.42 0,463.92 0,417.63 L0,83.79 C0,37.51 37.52,0 83.79,0 L417.63,0 C463.92,0 501.42,37.5 501.42,83.79 L501.42,83.79 Z M410.22,117.64 C410.22,103.03 398.37,91.19 383.77,91.19 L117.62,91.19 C103.01,91.19 91.17,103.03 91.17,117.64 L91.17,383.83 C91.17,398.44 103.01,410.28 117.62,410.28 L383.79,410.28 C398.4,410.28 410.24,398.43 410.24,383.83 L410.24,117.64 L410.22,117.64 Z M182.31,197.59 C182.31,189.16 189.1,182.33 197.48,182.33 L303.88,182.33 C312.27,182.33 319.05,189.17 319.05,197.59 L319.05,303.83 C319.05,312.26 312.3,319.09 303.88,319.09 L197.48,319.09 C189.09,319.09 182.31,312.25 182.31,303.83 L182.31,197.59 Z" id="Shape" fill-rule="nonzero"></path>
        </g>
    </g>
</svg>