<?xml version="1.0" encoding="UTF-8"?>
<svg width="768px" height="163px" viewBox="0 0 768 163" version="1.1" xmlns="http://www.w3.org/2000/svg" xmlns:xlink="http://www.w3.org/1999/xlink">
    <title>Star Power</title>
    <g id="Page-1" stroke="none" stroke-width="1" fill="none" fill-rule="evenodd">
        <g id="Star-Power" transform="translate(0, 0.614)">
            <path d="M57.9102334,82.0769325 C55.1526032,79.8340514 52.3949731,78.1734567 49.6373429,77.0951485 C46.8797127,76.0168403 44.2082585,75.4776862 41.6229803,75.4776862 C38.3482944,75.4776862 35.6768402,76.2540681 33.6086176,77.806832 C31.540395,79.3595958 30.5062837,81.3868152 30.5062837,83.8884902 C30.5062837,85.6137834 31.0233393,87.0371502 32.0574506,88.1585908 C33.0915619,89.2800313 34.448833,90.2505087 36.1292639,91.0700229 C37.8096948,91.8895372 39.7055655,92.6012206 41.8168761,93.2050732 C43.9281867,93.8089258 46.0179533,94.4559107 48.0861759,95.1460279 C56.3590664,97.9064969 62.4129264,101.594311 66.2477558,106.20947 C70.0825853,110.824629 72,116.841589 72,124.26035 C72,129.2637 71.1597846,133.792594 69.4793537,137.847033 C67.7989228,141.901472 65.3429084,145.373624 62.1113106,148.26349 C58.8797127,151.153356 54.9156194,153.396237 50.2190305,154.992133 C45.5224417,156.58803 40.2010772,157.385978 34.2549372,157.385978 C21.9317774,157.385978 10.513465,153.71973 0,146.387234 L10.8581688,125.94251 C14.6499102,129.306832 18.3985637,131.808507 22.1041293,133.447535 C25.8096948,135.086564 29.4721724,135.906078 33.0915619,135.906078 C37.2280072,135.906078 40.3087971,134.957167 42.3339318,133.059345 C44.3590664,131.161522 45.3716338,129.004906 45.3716338,126.589495 C45.3716338,125.122996 45.1131059,123.850592 44.5960503,122.772284 C44.0789946,121.693976 43.2172352,120.701932 42.010772,119.796154 C40.8043088,118.890375 39.2315978,118.049294 37.2926391,117.272912 C35.3536804,116.49653 33.005386,115.633884 30.2477558,114.684973 C26.97307,113.649797 23.7630162,112.50679 20.6175943,111.255953 C17.4721724,110.005115 14.6714542,108.34452 12.2154399,106.274169 C9.75942549,104.203817 7.77737882,101.594311 6.26929982,98.4456511 C4.76122083,95.2969911 4.00718133,91.3072507 4.00718133,86.4764299 C4.00718133,81.6456092 4.8043088,77.2676779 6.39856373,73.342636 C7.99281867,69.4175941 10.2333932,66.0532725 13.1202873,63.2496712 C16.0071813,60.4460698 19.540395,58.2678872 23.7199282,56.7151234 C27.8994614,55.1623596 32.5745063,54.3859777 37.7450628,54.3859777 C42.5709156,54.3859777 47.6122083,55.0545288 52.8689408,56.391631 C58.1256732,57.7287331 63.1669659,59.6912541 67.9928187,62.2791938 L57.9102334,82.0769325 Z" id="Path" fill="#111111" fill-rule="nonzero"></path>
            <polygon id="Path" fill="#111111" fill-rule="nonzero" points="113.526163 107.711315 113.526163 154.385978 89.8488372 154.385978 89.8488372 107.711315 82 107.711315 82 88.2420497 89.8488372 88.2420497 89.8488372 68.3859777 113.526163 68.3859777 113.526163 88.2420497 127 88.2420497 127 107.711315"></polygon>
            <path d="M158.207358,121.690565 C158.207358,123.861819 158.593645,125.881085 159.366221,127.748363 C160.138796,129.615641 161.190357,131.244082 162.520903,132.633684 C163.851449,134.023287 165.439521,135.108913 167.285117,135.890565 C169.130713,136.672216 171.126533,137.063042 173.272575,137.063042 C175.332776,137.063042 177.285674,136.672216 179.131271,135.890565 C180.976867,135.108913 182.564939,134.023287 183.895485,132.633684 C185.226031,131.244082 186.299052,129.637354 187.114548,127.813501 C187.930045,125.989647 188.337793,124.035519 188.337793,121.951115 C188.337793,119.866712 187.930045,117.890871 187.114548,116.023592 C186.299052,114.156314 185.226031,112.527874 183.895485,111.138271 C182.564939,109.748669 180.976867,108.663042 179.131271,107.881391 C177.285674,107.099739 175.332776,106.708913 173.272575,106.708913 C171.126533,106.708913 169.130713,107.099739 167.285117,107.881391 C165.439521,108.663042 163.851449,109.748669 162.520903,111.138271 C161.190357,112.527874 160.138796,114.112889 159.366221,115.893317 C158.593645,117.673745 158.207358,119.606161 158.207358,121.690565 Z M187.565217,88.4703814 L211,88.4703814 L211,155.301574 L187.565217,155.301574 L187.565217,147.875886 C182.586399,154.215947 175.847826,157.385978 167.349498,157.385978 C162.542363,157.385978 158.121516,156.495764 154.086957,154.715335 C150.052397,152.934907 146.532887,150.437965 143.528428,147.22451 C140.523969,144.011054 138.184783,140.233072 136.51087,135.890565 C134.836957,131.548057 134,126.814724 134,121.690565 C134,116.913806 134.815496,112.375886 136.446488,108.076803 C138.07748,103.777721 140.352285,100.021452 143.270903,96.807996 C146.189521,93.5945404 149.666109,91.0541734 153.700669,89.1868951 C157.735229,87.3196168 162.198997,86.3859777 167.091973,86.3859777 C175.332776,86.3859777 182.157191,89.2954578 187.565217,95.1144181 L187.565217,88.4703814 Z" id="Shape" fill="#111111" fill-rule="nonzero"></path>
            <path d="M227,87.8134586 L250.506494,87.8134586 L250.506494,98.714222 C253.017316,94.7345782 256.090909,91.6849599 259.727273,89.565367 C263.363636,87.4457741 267.606061,86.3859777 272.454545,86.3859777 C273.060606,86.3859777 273.731602,86.3859777 274.467532,86.3859777 C275.203463,86.3859777 276.047619,86.4724917 277,86.6455197 L277,109.095901 C273.883117,107.538649 270.506494,106.760023 266.87013,106.760023 C261.415584,106.760023 257.324675,108.382161 254.597403,111.626436 C251.87013,114.870711 250.506494,119.607352 250.506494,125.836359 L250.506494,154.385978 L227,154.385978 L227,87.8134586 Z" id="Path" fill="#111111" fill-rule="nonzero"></path>
            <path d="M359.268293,102.3568 L367.648084,102.3568 C376.930314,102.3568 381.571429,98.2842978 381.571429,90.1392933 C381.571429,81.9942889 376.930314,77.9217867 367.648084,77.9217867 L359.268293,77.9217867 L359.268293,102.3568 Z M359.268293,155.385978 L334,155.385978 L334,57.3859777 L374.222997,57.3859777 C385.138211,57.3859777 393.496516,60.2453941 399.297909,65.964227 C405.099303,71.6830599 408,79.7414154 408,90.1392933 C408,100.537171 405.099303,108.595527 399.297909,114.31436 C393.496516,120.033193 385.138211,122.892609 374.222997,122.892609 L359.268293,122.892609 L359.268293,155.385978 Z" id="Shape" fill="#111111" fill-rule="nonzero"></path>
            <g id="Group" transform="translate(411.8744, -0)">
                <path d="M47.8747451,57.1982653 L35.8629415,63.4639621 C33.9042633,64.4856641 31.4881878,63.7260948 30.4664858,61.7674166 C30.0608483,60.9897795 29.9220446,60.1003745 30.0714424,59.2361166 L32.3501899,46.0536837 C32.5757011,44.7491136 32.1411064,43.4174738 31.1894557,42.4970828 L21.5596256,33.1835726 C19.9716656,31.6477738 19.9293806,29.1154669 21.4651794,27.5275068 C22.0815294,26.8902234 22.892136,26.4757657 23.7696392,26.3492521 L37.1331133,24.4225797 C38.4333552,24.2351179 39.5586656,23.4211607 40.1437267,22.2449488 L46.1432906,10.1833733 C47.1271492,8.20541538 49.5281758,7.39953869 51.5061337,8.38339728 C52.286125,8.77137377 52.9181332,9.40338195 53.3061097,10.1833733 L59.3056736,22.2449488 C59.8907347,23.4211607 61.0160451,24.2351179 62.316287,24.4225797 L75.6797612,26.3492521 C77.8662921,26.6644942 79.3832715,28.6925819 79.0680294,30.8791129 C78.9415158,31.756616 78.5270581,32.5672226 77.8897747,33.1835726 L68.2599446,42.4970828 C67.3082939,43.4174738 66.8736992,44.7491136 67.0992104,46.0536837 L69.3779579,59.2361166 C69.7542543,61.4129713 68.2946135,63.4827091 66.1177588,63.8590055 C65.2535009,64.0084033 64.364096,63.8695997 63.5864588,63.4639621 L51.5746552,57.1982653 C50.415466,56.5935994 49.0339343,56.5935994 47.8747451,57.1982653 Z" id="Star" fill="#FFD35B" transform="translate(49.7247, 38.4833) rotate(5) translate(-49.7247, -38.4833)"></path>
                <path d="M74.1256415,83.3859777 C76.3347805,83.3859777 78.1256415,85.1768387 78.1256415,87.3859777 L78.1256415,154.385978 C78.1256415,156.595117 76.3347805,158.385978 74.1256415,158.385978 L7.12564153,158.385978 C4.91650253,158.385978 3.12564153,156.595117 3.12564153,154.385978 L3.12564153,87.3859777 C3.12564153,85.1768387 4.91650253,83.3859777 7.12564153,83.3859777 L74.1256415,83.3859777 Z M10.6256415,148 C8.69264491,148 7.12564153,149.567003 7.12564153,151.5 C7.12564153,153.432997 8.69264491,155 10.6256415,155 C12.5586382,155 14.1256415,153.432997 14.1256415,151.5 C14.1256415,149.567003 12.5586382,148 10.6256415,148 Z M70.6256415,148 C68.6926449,148 67.1256415,149.567003 67.1256415,151.5 C67.1256415,153.432997 68.6926449,155 70.6256415,155 C72.5586382,155 74.1256415,153.432997 74.1256415,151.5 C74.1256415,149.567003 72.5586382,148 70.6256415,148 Z M37.1156605,99.5860746 L33.2344136,107.388967 C32.6493525,108.565179 31.5240422,109.379136 30.2238003,109.566598 L21.5970269,110.810359 C20.7195237,110.936873 19.9089171,111.35133 19.2925671,111.988614 C17.7567683,113.576574 17.7990533,116.108881 19.3870133,117.64468 L25.5893345,123.643267 C26.5409853,124.563658 26.9755799,125.895298 26.7500688,127.199868 L25.2804463,135.701556 C25.1310486,136.565814 25.2698522,137.455219 25.6754897,138.232856 C26.6971917,140.191534 29.1132672,140.951103 31.0719454,139.929401 L38.847115,135.873653 C40.0063043,135.268987 41.3878359,135.268987 42.5470252,135.873653 L50.3221948,139.929401 C51.099832,140.335039 51.9892369,140.473842 52.8534948,140.324445 C55.0303495,139.948148 56.4899903,137.87841 56.1136939,135.701556 L54.6440714,127.199868 C54.4185603,125.895298 54.853155,124.563658 55.8048057,123.643267 L62.0071269,117.64468 C62.6444103,117.02833 63.058868,116.217723 63.1853816,115.34022 C63.5006237,113.153689 61.9836443,111.125601 59.7971134,110.810359 L51.1703399,109.566598 C49.870098,109.379136 48.7447877,108.565179 48.1597266,107.388967 L44.2784797,99.5860746 C43.8905032,98.8060833 43.258495,98.1740751 42.4785037,97.7860986 C40.5005458,96.80224 38.0995191,97.6081167 37.1156605,99.5860746 Z M10.6256415,87 C8.69264491,87 7.12564153,88.5670034 7.12564153,90.5 C7.12564153,92.4329966 8.69264491,94 10.6256415,94 C12.5586382,94 14.1256415,92.4329966 14.1256415,90.5 C14.1256415,88.5670034 12.5586382,87 10.6256415,87 Z M70.6256415,87 C68.6926449,87 67.1256415,88.5670034 67.1256415,90.5 C67.1256415,92.4329966 68.6926449,94 70.6256415,94 C72.5586382,94 74.1256415,92.4329966 74.1256415,90.5 C74.1256415,88.5670034 72.5586382,87 70.6256415,87 Z" id="Combined-Shape" fill="#111111" transform="translate(40.6256, 120.886) rotate(5) translate(-40.6256, -120.886)"></path>
            </g>
            <polygon id="Path" fill="#111111" fill-rule="nonzero" points="522.210732 88.3859777 538.170732 123.12282 554.779512 88.3859777 569.571707 88.3859777 586.180488 124.15206 602.919024 88.3859777 629 88.3859777 594.225366 154.385978 578.524878 154.385978 561.916098 118.233931 546.085854 154.385978 530.125854 154.385978 496 88.3859777"></polygon>
            <path d="M682.125887,112.286159 C681.349291,109.021791 679.752955,106.401707 677.336879,104.425905 C674.920804,102.450104 671.986998,101.462203 668.535461,101.462203 C664.911348,101.462203 661.955969,102.407151 659.669326,104.297048 C657.382683,106.186946 655.937352,108.849983 655.333333,112.286159 L682.125887,112.286159 Z M654.68617,125.816105 C654.68617,135.866921 659.432033,140.89233 668.923759,140.89233 C674.014775,140.89233 677.85461,138.830624 680.443262,134.707212 L703.093972,134.707212 C698.520686,149.826389 687.08747,157.385978 668.794326,157.385978 C663.185579,157.385978 658.051418,156.54841 653.391844,154.873274 C648.73227,153.198137 644.74143,150.81429 641.419326,147.721731 C638.097222,144.629172 635.530142,140.935282 633.718085,136.640061 C631.906028,132.34484 631,127.534193 631,122.208119 C631,116.710237 631.862884,111.749257 633.588652,107.325179 C635.314421,102.901102 637.773641,99.1427835 640.966312,96.0502245 C644.158983,92.9576655 648.02039,90.573818 652.550532,88.8986819 C657.080674,87.2235457 662.193262,86.3859777 667.888298,86.3859777 C673.497045,86.3859777 678.544917,87.2235457 683.031915,88.8986819 C687.518913,90.573818 691.315603,93.0006177 694.421986,96.1790811 C697.528369,99.3575445 699.9013,103.244719 701.54078,107.840606 C703.18026,112.436492 704,117.612233 704,123.367829 L704,125.816105 L654.68617,125.816105 Z" id="Shape" fill="#111111" fill-rule="nonzero"></path>
            <path d="M718,87.8134586 L741.506494,87.8134586 L741.506494,98.714222 C744.017316,94.7345782 747.090909,91.6849599 750.727273,89.565367 C754.363636,87.4457741 758.606061,86.3859777 763.454545,86.3859777 C764.060606,86.3859777 764.731602,86.3859777 765.467532,86.3859777 C766.203463,86.3859777 767.047619,86.4724917 768,86.6455197 L768,109.095901 C764.883117,107.538649 761.506494,106.760023 757.87013,106.760023 C752.415584,106.760023 748.324675,108.382161 745.597403,111.626436 C742.87013,114.870711 741.506494,119.607352 741.506494,125.836359 L741.506494,154.385978 L718,154.385978 L718,87.8134586 Z" id="Path" fill="#111111" fill-rule="nonzero"></path>
        </g>
    </g>
</svg>