<?xml version="1.0" encoding="UTF-8"?>
<svg width="750px" height="500px" viewBox="0 0 750 500" version="1.1" xmlns="http://www.w3.org/2000/svg" xmlns:xlink="http://www.w3.org/1999/xlink">
    <title>icon</title>
    <defs>
        <rect id="path-1" x="31" y="28" width="688" height="437" rx="20"></rect>
        <filter x="-4.4%" y="-6.9%" width="108.7%" height="113.7%" filterUnits="objectBoundingBox" id="filter-2">
            <feOffset dx="0" dy="0" in="SourceAlpha" result="shadowOffsetOuter1"></feOffset>
            <feGaussianBlur stdDeviation="10" in="shadowOffsetOuter1" result="shadowBlurOuter1"></feGaussianBlur>
            <feColorMatrix values="0 0 0 0 0.8   0 0 0 0 0.8   0 0 0 0 0.8  0 0 0 1 0" type="matrix" in="shadowBlurOuter1"></feColorMatrix>
        </filter>
    </defs>
    <g id="Page-1" stroke="none" stroke-width="1" fill="none" fill-rule="evenodd">
        <g id="Columns-Premium" transform="translate(-146, -110)">
            <g id="icon" transform="translate(146, 110)">
                <rect id="Rectangle" x="0" y="0" width="750" height="500"></rect>
                <g id="Rectangle">
                    <use fill="black" fill-opacity="1" filter="url(#filter-2)" xlink:href="#path-1"></use>
                    <use fill="#FFFFFF" fill-rule="evenodd" xlink:href="#path-1"></use>
                </g>
                <path d="M61,48 L360,48 C365.522847,48 370,52.4771525 370,58 L370,435 C370,440.522847 365.522847,445 360,445 L61,445 C55.4771525,445 51,440.522847 51,435 L51,58 C51,52.4771525 55.4771525,48 61,48 Z" id="Rectangle" fill="#CCE5E8"></path>
                <path d="M106.013086,296.697545 L156.503936,229.982909 C158.170383,227.780997 161.306307,227.346917 163.508219,229.013364 C163.87439,229.290489 164.200639,229.616737 164.477764,229.982909 L204.39945,282.732283 C205.344571,283.981093 206.820228,284.714914 208.386364,284.714914 L271.511942,284.714914 C274.273366,284.714914 276.511942,282.476338 276.511942,279.714914 C276.511942,278.62356 276.15487,277.562176 275.495218,276.692743 L235.095478,223.445159 C233.42638,221.245257 230.289934,220.814955 228.090032,222.484054 C227.732262,222.7555 227.412693,223.073908 227.139948,223.430688 L209.872196,246.018775 C208.195105,248.212591 205.057115,248.631479 202.863299,246.954389 C202.511358,246.685342 202.196732,246.370717 201.927686,246.018775 L195.596075,237.736344 C194.23121,235.950953 194.225213,233.474314 195.581416,231.682334 L227.140299,189.982909 C228.806746,187.780997 231.942671,187.346917 234.144582,189.013364 C234.510754,189.290489 234.837002,189.616737 235.114128,189.982909 L315.877705,296.697545 C317.544151,298.899457 317.110071,302.035381 314.90816,303.701828 C314.039577,304.359187 312.980083,304.714914 311.89079,304.714914 L110,304.714914 C107.238576,304.714914 105,302.476338 105,299.714914 C105,298.625622 105.355727,297.566128 106.013086,296.697545 Z M149.871431,285.714914 L170.019359,285.714914 C172.780783,285.714914 175.019359,283.476338 175.019359,280.714914 C175.019359,279.643242 174.675034,278.599926 174.037145,277.738776 L163.963181,264.138925 C162.319506,261.919963 159.188219,261.453601 156.969257,263.097277 C156.572516,263.391159 156.221492,263.742184 155.927609,264.138925 L145.853645,277.738776 C144.20997,279.957738 144.676332,283.089025 146.895294,284.7327 C147.756443,285.370589 148.79976,285.714914 149.871431,285.714914 Z M139.945395,284.214914 L179.945395,284.214914 L139.945395,284.214914 Z" id="Shape" fill="#3B8B96" fill-rule="nonzero"></path>
                <g id="Group" transform="translate(398, 122)">
                    <rect id="Rectangle" fill="#975D48" x="4" y="0" width="279" height="60" rx="8"></rect>
                    <rect id="Rectangle" fill="#E9AF58" x="4" y="141" width="279" height="40" rx="8"></rect>
                    <rect id="Rectangle" fill="#E9AF58" x="4" y="209" width="140" height="40" rx="8"></rect>
                    <path d="M25.1039766,114.483933 L16.3041073,119.110298 C14.8375735,119.8813 13.023692,119.317461 12.2526896,117.850927 C11.9456724,117.266946 11.8397284,116.598041 11.9512589,115.947769 L13.6318844,106.14897 C13.7987982,105.175788 13.4761528,104.182787 12.7690945,103.493576 L5.64985067,96.5540281 C4.46339994,95.3975245 4.43912302,93.4981847 5.59562665,92.311734 C6.05615247,91.8392831 6.6595797,91.5318215 7.31249079,91.436948 L17.1510438,90.0073226 C18.1281743,89.8653372 18.9728711,89.2516291 19.4098571,88.3661987 L23.8097918,79.4509573 C24.5430586,77.9651963 26.3419362,77.3551793 27.8276971,78.0884462 C28.4193349,78.3804369 28.8982175,78.8593194 29.1902082,79.4509573 L33.5901429,88.3661987 C34.0271289,89.2516291 34.8718257,89.8653372 35.8489562,90.0073226 L45.6875092,91.436948 C47.3271438,91.6752009 48.4631882,93.1975294 48.2249353,94.837164 C48.1300618,95.4900751 47.8226002,96.0935023 47.3501493,96.5540281 L40.2309055,103.493576 C39.5238472,104.182787 39.2012018,105.175788 39.3681156,106.14897 L41.0487411,115.947769 C41.3288241,117.580778 40.2320606,119.131646 38.5990513,119.411729 C37.9487784,119.523259 37.2798742,119.417315 36.6958927,119.110298 L27.8960234,114.483933 C27.0220513,114.024459 25.9779487,114.024459 25.1039766,114.483933 Z" id="Star" fill="#E9AF58"></path>
                    <path d="M83.5121399,114.483933 L74.7122705,119.110298 C73.2457368,119.8813 71.4318553,119.317461 70.6608529,117.850927 C70.3538357,117.266946 70.2478917,116.598041 70.3594222,115.947769 L72.0400477,106.14897 C72.2069615,105.175788 71.884316,104.182787 71.1772578,103.493576 L64.0580139,96.5540281 C62.8715632,95.3975245 62.8472863,93.4981847 64.0037899,92.311734 C64.4643157,91.8392831 65.067743,91.5318215 65.7206541,91.436948 L75.5592071,90.0073226 C76.5363376,89.8653372 77.3810343,89.2516291 77.8180204,88.3661987 L82.217955,79.4509573 C82.9512219,77.9651963 84.7500994,77.3551793 86.2358604,78.0884462 C86.8274982,78.3804369 87.3063808,78.8593194 87.5983715,79.4509573 L91.9983062,88.3661987 C92.4352922,89.2516291 93.279989,89.8653372 94.2571194,90.0073226 L104.095672,91.436948 C105.735307,91.6752009 106.871351,93.1975294 106.633099,94.837164 C106.538225,95.4900751 106.230763,96.0935023 105.758313,96.5540281 L98.6390687,103.493576 C97.9320105,104.182787 97.609365,105.175788 97.7762788,106.14897 L99.4569043,115.947769 C99.7369874,117.580778 98.6402239,119.131646 97.0072146,119.411729 C96.3569417,119.523259 95.6880374,119.417315 95.104056,119.110298 L86.3041866,114.483933 C85.4302146,114.024459 84.386112,114.024459 83.5121399,114.483933 Z" id="Star" fill="#E9AF58"></path>
                    <path d="M143.001936,114.483933 L134.202066,119.110298 C132.735533,119.8813 130.921651,119.317461 130.150649,117.850927 C129.843632,117.266946 129.737688,116.598041 129.849218,115.947769 L131.529844,106.14897 C131.696757,105.175788 131.374112,104.182787 130.667054,103.493576 L123.54781,96.5540281 C122.361359,95.3975245 122.337082,93.4981847 123.493586,92.311734 C123.954112,91.8392831 124.557539,91.5318215 125.21045,91.436948 L135.049003,90.0073226 C136.026133,89.8653372 136.87083,89.2516291 137.307816,88.3661987 L141.707751,79.4509573 C142.441018,77.9651963 144.239895,77.3551793 145.725656,78.0884462 C146.317294,78.3804369 146.796177,78.8593194 147.088167,79.4509573 L151.488102,88.3661987 C151.925088,89.2516291 152.769785,89.8653372 153.746915,90.0073226 L163.585468,91.436948 C165.225103,91.6752009 166.361147,93.1975294 166.122894,94.837164 C166.028021,95.4900751 165.720559,96.0935023 165.248109,96.5540281 L158.128865,103.493576 C157.421806,104.182787 157.099161,105.175788 157.266075,106.14897 L158.9467,115.947769 C159.226783,117.580778 158.13002,119.131646 156.49701,119.411729 C155.846738,119.523259 155.177833,119.417315 154.593852,119.110298 L145.793983,114.483933 C144.92001,114.024459 143.875908,114.024459 143.001936,114.483933 Z" id="Star" fill="#E9AF58"></path>
                    <path d="M201.410099,114.483933 L192.61023,119.110298 C191.143696,119.8813 189.329814,119.317461 188.558812,117.850927 C188.251795,117.266946 188.145851,116.598041 188.257381,115.947769 L189.938007,106.14897 C190.104921,105.175788 189.782275,104.182787 189.075217,103.493576 L181.955973,96.5540281 C180.769522,95.3975245 180.745245,93.4981847 181.901749,92.311734 C182.362275,91.8392831 182.965702,91.5318215 183.618613,91.436948 L193.457166,90.0073226 C194.434297,89.8653372 195.278994,89.2516291 195.71598,88.3661987 L200.115914,79.4509573 C200.849181,77.9651963 202.648059,77.3551793 204.13382,78.0884462 C204.725457,78.3804369 205.20434,78.8593194 205.496331,79.4509573 L209.896265,88.3661987 C210.333251,89.2516291 211.177948,89.8653372 212.155079,90.0073226 L221.993632,91.436948 C223.633266,91.6752009 224.769311,93.1975294 224.531058,94.837164 C224.436184,95.4900751 224.128723,96.0935023 223.656272,96.5540281 L216.537028,103.493576 C215.82997,104.182787 215.507324,105.175788 215.674238,106.14897 L217.354864,115.947769 C217.634947,117.580778 216.538183,119.131646 214.905174,119.411729 C214.254901,119.523259 213.585997,119.417315 213.002015,119.110298 L204.202146,114.483933 C203.328174,114.024459 202.284071,114.024459 201.410099,114.483933 Z" id="Star" fill="#E9AF58"></path>
                    <path d="M259.818262,114.483933 L251.018393,119.110298 C249.551859,119.8813 247.737978,119.317461 246.966975,117.850927 C246.659958,117.266946 246.554014,116.598041 246.665545,115.947769 L248.34617,106.14897 C248.513084,105.175788 248.190438,104.182787 247.48338,103.493576 L240.364136,96.5540281 C239.177686,95.3975245 239.153409,93.4981847 240.309912,92.311734 C240.770438,91.8392831 241.373865,91.5318215 242.026777,91.436948 L251.86533,90.0073226 C252.84246,89.8653372 253.687157,89.2516291 254.124143,88.3661987 L258.524077,79.4509573 C259.257344,77.9651963 261.056222,77.3551793 262.541983,78.0884462 C263.133621,78.3804369 263.612503,78.8593194 263.904494,79.4509573 L268.304429,88.3661987 C268.741415,89.2516291 269.586111,89.8653372 270.563242,90.0073226 L280.401795,91.436948 C282.04143,91.6752009 283.177474,93.1975294 282.939221,94.837164 C282.844347,95.4900751 282.536886,96.0935023 282.064435,96.5540281 L274.945191,103.493576 C274.238133,104.182787 273.915487,105.175788 274.082401,106.14897 L275.763027,115.947769 C276.04311,117.580778 274.946346,119.131646 273.313337,119.411729 C272.663064,119.523259 271.99416,119.417315 271.410178,119.110298 L262.610309,114.483933 C261.736337,114.024459 260.692234,114.024459 259.818262,114.483933 Z" id="Star" fill="#E9AF58"></path>
                </g>
            </g>
        </g>
    </g>
</svg>