<?xml version="1.0" encoding="UTF-8"?>
<svg width="750px" height="500px" viewBox="0 0 750 500" version="1.1" xmlns="http://www.w3.org/2000/svg" xmlns:xlink="http://www.w3.org/1999/xlink">
    <title>icon</title>
    <defs>
        <rect id="path-1" x="31" y="28" width="688" height="437" rx="20"></rect>
        <filter x="-4.4%" y="-6.9%" width="108.7%" height="113.7%" filterUnits="objectBoundingBox" id="filter-2">
            <feOffset dx="0" dy="0" in="SourceAlpha" result="shadowOffsetOuter1"></feOffset>
            <feGaussianBlur stdDeviation="10" in="shadowOffsetOuter1" result="shadowBlurOuter1"></feGaussianBlur>
            <feColorMatrix values="0 0 0 0 0.8   0 0 0 0 0.8   0 0 0 0 0.8  0 0 0 1 0" type="matrix" in="shadowBlurOuter1"></feColorMatrix>
        </filter>
    </defs>
    <g id="Page-1" stroke="none" stroke-width="1" fill="none" fill-rule="evenodd">
        <g id="Comparison" transform="translate(-146, -110)">
            <g id="icon" transform="translate(146, 110)">
                <rect id="Rectangle-Copy-5" x="0" y="0" width="750" height="500"></rect>
                <g id="Rectangle">
                    <use fill="black" fill-opacity="1" filter="url(#filter-2)" xlink:href="#path-1"></use>
                    <use fill="#FFFFFF" fill-rule="evenodd" xlink:href="#path-1"></use>
                </g>
                <path d="M61,48 L682,48 C687.522847,48 692,52.4771525 692,58 L692,435 C692,440.522847 687.522847,445 682,445 L61,445 C55.4771525,445 51,440.522847 51,435 L51,58 C51,52.4771525 55.4771525,48 61,48 Z" id="Rectangle" fill="#C3DFD7"></path>
                <g id="comparison" transform="translate(121, 151)">
                    <rect id="Rectangle" fill="#FAEBD5" x="0" y="4" width="289.772727" height="44" rx="6.29940701"></rect>
                    <path d="M396.5,0 C403.61875,0 409.648438,2.4703125 414.589063,7.4109375 C419.529688,12.3515625 422,18.38125 422,25.5 C422,32.61875 419.529688,38.6484375 414.589063,43.5890625 C409.648438,48.5296875 403.61875,51 396.5,51 C389.38125,51 383.351562,48.5296875 378.410937,43.5890625 C373.470312,38.6484375 371,32.61875 371,25.5 C371,18.38125 373.470312,12.3515625 378.410937,7.4109375 C383.351562,2.4703125 389.38125,0 396.5,0 Z M409.539823,13 L391.539823,31.0532544 L382.460177,21.9467456 L378,26.4201183 L391.539823,40 L414,17.4733728 L409.539823,13 Z" id="Shape" fill="#0F8060" fill-rule="nonzero"></path>
                    <path d="M474.5,0 C478.0275,0 481.3425,0.669375 484.445,2.008125 C487.5475,3.346875 490.24625,5.16375 492.54125,7.45875 C494.83625,9.75375 496.653125,12.4525 497.991875,15.555 C499.330625,18.6575 500,21.9725 500,25.5 C500,29.0275 499.330625,32.3425 497.991875,35.445 C496.653125,38.5475 494.83625,41.24625 492.54125,43.54125 C490.24625,45.83625 487.5475,47.653125 484.445,48.991875 C481.3425,50.330625 478.0275,51 474.5,51 C470.9725,51 467.6575,50.330625 464.555,48.991875 C461.4525,47.653125 458.75375,45.83625 456.45875,43.54125 C454.16375,41.24625 452.346875,38.5475 451.008125,35.445 C449.669375,32.3425 449,29.0275 449,25.5 C449,21.9725 449.669375,18.6575 451.008125,15.555 C452.346875,12.4525 454.16375,9.75375 456.45875,7.45875 C458.75375,5.16375 461.4525,3.346875 464.555,2.008125 C467.6575,0.669375 470.9725,0 474.5,0 Z M483.5,13 L474.5,22 L465.5,13 L462,16.5 L471,25.5 L462,34.5 L465.5,38 L474.5,29 L483.5,38 L487,34.5 L478,25.5 L487,16.5 L483.5,13 Z" id="Shape" fill="#FAEBD5" fill-rule="nonzero"></path>
                </g>
                <g id="comparison" transform="translate(121, 221)">
                    <rect id="Rectangle" fill="#FAEBD5" x="0" y="4" width="289.772727" height="44" rx="6.29940701"></rect>
                    <path d="M396.5,0 C403.61875,0 409.648438,2.4703125 414.589063,7.4109375 C419.529688,12.3515625 422,18.38125 422,25.5 C422,32.61875 419.529688,38.6484375 414.589063,43.5890625 C409.648438,48.5296875 403.61875,51 396.5,51 C389.38125,51 383.351562,48.5296875 378.410937,43.5890625 C373.470312,38.6484375 371,32.61875 371,25.5 C371,18.38125 373.470312,12.3515625 378.410937,7.4109375 C383.351562,2.4703125 389.38125,0 396.5,0 Z M409.539823,13 L391.539823,31.0532544 L382.460177,21.9467456 L378,26.4201183 L391.539823,40 L414,17.4733728 L409.539823,13 Z" id="Shape" fill="#0F8060" fill-rule="nonzero"></path>
                    <path d="M474.5,0 C478.0275,0 481.3425,0.669375 484.445,2.008125 C487.5475,3.346875 490.24625,5.16375 492.54125,7.45875 C494.83625,9.75375 496.653125,12.4525 497.991875,15.555 C499.330625,18.6575 500,21.9725 500,25.5 C500,29.0275 499.330625,32.3425 497.991875,35.445 C496.653125,38.5475 494.83625,41.24625 492.54125,43.54125 C490.24625,45.83625 487.5475,47.653125 484.445,48.991875 C481.3425,50.330625 478.0275,51 474.5,51 C470.9725,51 467.6575,50.330625 464.555,48.991875 C461.4525,47.653125 458.75375,45.83625 456.45875,43.54125 C454.16375,41.24625 452.346875,38.5475 451.008125,35.445 C449.669375,32.3425 449,29.0275 449,25.5 C449,21.9725 449.669375,18.6575 451.008125,15.555 C452.346875,12.4525 454.16375,9.75375 456.45875,7.45875 C458.75375,5.16375 461.4525,3.346875 464.555,2.008125 C467.6575,0.669375 470.9725,0 474.5,0 Z M483.5,13 L474.5,22 L465.5,13 L462,16.5 L471,25.5 L462,34.5 L465.5,38 L474.5,29 L483.5,38 L487,34.5 L478,25.5 L487,16.5 L483.5,13 Z" id="Shape" fill="#FAEBD5" fill-rule="nonzero"></path>
                </g>
                <g id="comparison" transform="translate(121, 291)">
                    <rect id="Rectangle" fill="#FAEBD5" x="0" y="4" width="289.772727" height="44" rx="6.29940701"></rect>
                    <path d="M396.5,0 C403.61875,0 409.648438,2.4703125 414.589063,7.4109375 C419.529688,12.3515625 422,18.38125 422,25.5 C422,32.61875 419.529688,38.6484375 414.589063,43.5890625 C409.648438,48.5296875 403.61875,51 396.5,51 C389.38125,51 383.351562,48.5296875 378.410937,43.5890625 C373.470312,38.6484375 371,32.61875 371,25.5 C371,18.38125 373.470312,12.3515625 378.410937,7.4109375 C383.351562,2.4703125 389.38125,0 396.5,0 Z M409.539823,13 L391.539823,31.0532544 L382.460177,21.9467456 L378,26.4201183 L391.539823,40 L414,17.4733728 L409.539823,13 Z" id="Shape" fill="#FAEBD5" fill-rule="nonzero"></path>
                    <path d="M474.5,0 C478.0275,0 481.3425,0.669375 484.445,2.008125 C487.5475,3.346875 490.24625,5.16375 492.54125,7.45875 C494.83625,9.75375 496.653125,12.4525 497.991875,15.555 C499.330625,18.6575 500,21.9725 500,25.5 C500,29.0275 499.330625,32.3425 497.991875,35.445 C496.653125,38.5475 494.83625,41.24625 492.54125,43.54125 C490.24625,45.83625 487.5475,47.653125 484.445,48.991875 C481.3425,50.330625 478.0275,51 474.5,51 C470.9725,51 467.6575,50.330625 464.555,48.991875 C461.4525,47.653125 458.75375,45.83625 456.45875,43.54125 C454.16375,41.24625 452.346875,38.5475 451.008125,35.445 C449.669375,32.3425 449,29.0275 449,25.5 C449,21.9725 449.669375,18.6575 451.008125,15.555 C452.346875,12.4525 454.16375,9.75375 456.45875,7.45875 C458.75375,5.16375 461.4525,3.346875 464.555,2.008125 C467.6575,0.669375 470.9725,0 474.5,0 Z M483.5,13 L474.5,22 L465.5,13 L462,16.5 L471,25.5 L462,34.5 L465.5,38 L474.5,29 L483.5,38 L487,34.5 L478,25.5 L487,16.5 L483.5,13 Z" id="Shape" fill="#DE6B5A" fill-rule="nonzero"></path>
                </g>
            </g>
        </g>
    </g>
</svg>