<?xml version="1.0" encoding="UTF-8"?>
<svg width="750px" height="500px" viewBox="0 0 750 500" version="1.1" xmlns="http://www.w3.org/2000/svg" xmlns:xlink="http://www.w3.org/1999/xlink">
    <title>icon</title>
    <defs>
        <rect id="path-1" x="31" y="28" width="688" height="437" rx="20"></rect>
        <filter x="-4.4%" y="-6.9%" width="108.7%" height="113.7%" filterUnits="objectBoundingBox" id="filter-2">
            <feOffset dx="0" dy="0" in="SourceAlpha" result="shadowOffsetOuter1"></feOffset>
            <feGaussianBlur stdDeviation="10" in="shadowOffsetOuter1" result="shadowBlurOuter1"></feGaussianBlur>
            <feColorMatrix values="0 0 0 0 0.8   0 0 0 0 0.8   0 0 0 0 0.8  0 0 0 1 0" type="matrix" in="shadowBlurOuter1"></feColorMatrix>
        </filter>
        <rect id="path-3" x="0" y="0" width="195" height="198"></rect>
    </defs>
    <g id="Page-1" stroke="none" stroke-width="1" fill="none" fill-rule="evenodd">
        <g id="Count-Down" transform="translate(-146, -110)">
            <g id="icon" transform="translate(146, 110)">
                <rect id="Rectangle" x="0" y="0" width="750" height="500"></rect>
                <g id="Rectangle">
                    <use fill="black" fill-opacity="1" filter="url(#filter-2)" xlink:href="#path-1"></use>
                    <use fill="#FFFFFF" fill-rule="evenodd" xlink:href="#path-1"></use>
                </g>
                <path d="M61,48 L689,48 C694.522847,48 699,52.4771525 699,58 L699,435 C699,440.522847 694.522847,445 689,445 L61,445 C55.4771525,445 51,440.522847 51,435 L51,58 C51,52.4771525 55.4771525,48 61,48 Z" id="Rectangle" fill-opacity="0.25" fill="#E9AF58" transform="translate(375, 246.5) scale(-1, 1) translate(-375, -246.5)"></path>
                <g id="Group-2" transform="translate(82, 114)">
                    <g id="1,000">
                        <path d="M85,194 L85,7 L54.7955975,7 C53.7264151,14.1238095 51.4989518,20.09 48.1132075,24.8985714 C44.7274633,29.7071429 40.5843816,33.5807143 35.6839623,36.5192857 C30.783543,39.4578571 25.259434,41.5059524 19.1116352,42.6635714 C12.9638365,43.8211905 6.5932914,44.3109524 0,44.1328571 L0,72.7171429 L47.0440252,72.7171429 L47.0440252,194 L85,194 Z" id="Path" fill="#D9942E" fill-rule="nonzero"></path>
                        <g id="Group-7" transform="translate(422, 0)">
                            <mask id="mask-4" fill="white">
                                <use xlink:href="#path-3"></use>
                            </mask>
                            <g id="Rectangle"></g>
                            <path d="M126.349315,198.251953 L126.349315,75.2134078 L96.1643836,75.2134078 C95.0958904,82.3344507 92.869863,88.298324 89.4863014,93.1050279 C86.1027397,97.9117318 81.9623288,101.783799 77.0650685,104.721229 C72.1678082,107.658659 66.6472603,109.705959 60.5034247,110.863128 C54.359589,112.020298 47.9931507,112.50987 41.4041096,112.331844 L41.4041096,140.905028 L88.4178082,140.905028 L88.4178082,197.712891 L126.349315,198.251953 Z" id="Path" fill="#59B2AC" fill-rule="nonzero" mask="url(#mask-4)"></path>
                            <path d="M126.331813,8 C124.555112,12.3470819 122.122114,16.7956393 119.270548,20.1921788 C115.085616,25.1769088 109.075342,27.6692737 101.239726,27.6692737 C93.5821918,27.6692737 87.7054795,25.1769088 83.609589,20.1921788 C80.7927207,16.7640284 78.1431934,12.3964682 76.3791762,8 M38.3321918,7.77486034 C41.9828767,20.3256983 46.9246575,30.3396648 53.1575342,37.8167598 C59.390411,45.2938547 66.6472603,50.6346369 74.9280822,53.8391061 C83.2089041,57.0435754 91.9794521,58.6458101 101.239726,58.6458101 C110.678082,58.6458101 119.537671,57.0435754 127.818493,53.8391061 C136.099315,50.6346369 143.400685,45.2938547 149.722603,37.8167598 C156.044521,30.3396648 161.030822,20.3256983 164.681507,7.77486034" id="Shape" fill="#59B2AC" fill-rule="nonzero" mask="url(#mask-4)"></path>
                        </g>
                        <path d="M353.124514,99.829436 C353.124514,96.610729 353.169261,92.721458 353.258755,88.1616231 C353.348249,83.6017882 353.661479,78.9078404 354.198444,74.0797799 C354.735409,69.2517194 355.63035,64.4683631 356.883268,59.7297111 C358.136187,54.9910591 359.881323,50.7441541 362.118677,46.9889959 C364.356031,43.2338377 367.219844,40.1939477 370.710117,37.869326 C374.200389,35.5447043 378.540856,34.3823934 383.731518,34.3823934 C388.922179,34.3823934 393.307393,35.5447043 396.88716,37.869326 C400.466926,40.1939477 403.420233,43.2338377 405.747082,46.9889959 C408.07393,50.7441541 409.819066,54.9910591 410.98249,59.7297111 C412.145914,64.4683631 413.040856,69.2517194 413.667315,74.0797799 C414.293774,78.9078404 414.651751,83.6017882 414.741245,88.1616231 C414.830739,92.721458 414.875486,96.610729 414.875486,99.829436 C414.875486,105.193948 414.696498,111.676066 414.338521,119.275791 C413.980545,126.875516 412.861868,134.207015 410.98249,141.270289 C409.103113,148.333563 406.060311,154.368638 401.854086,159.375516 C397.64786,164.382393 391.607004,166.885832 383.731518,166.885832 C376.035019,166.885832 370.128405,164.382393 366.011673,159.375516 C361.894942,154.368638 358.896887,148.333563 357.01751,141.270289 C355.138132,134.207015 354.019455,126.875516 353.661479,119.275791 C353.303502,111.676066 353.124514,105.193948 353.124514,99.829436 Z M315,99.829436 C315,118.605227 316.83463,134.296424 320.503891,146.903026 C324.173152,159.509629 329.140078,169.568088 335.404669,177.078404 C341.669261,184.588721 348.963035,189.953232 357.285992,193.171939 C365.608949,196.390646 374.424125,198 383.731518,198 C393.217899,198 402.122568,196.390646 410.445525,193.171939 C418.768482,189.953232 426.107004,184.588721 432.461089,177.078404 C438.815175,169.568088 443.826848,159.509629 447.496109,146.903026 C451.16537,134.296424 453,118.605227 453,99.829436 C453,81.5900963 451.16537,66.2565337 447.496109,53.8287483 C443.826848,41.4009629 438.815175,31.431912 432.461089,23.9215956 C426.107004,16.4112792 418.768482,11.0467675 410.445525,7.82806052 C402.122568,4.60935351 393.217899,3 383.731518,3 C374.424125,3 365.608949,4.60935351 357.285992,7.82806052 C348.963035,11.0467675 341.669261,16.4112792 335.404669,23.9215956 C329.140078,31.431912 324.173152,41.4009629 320.503891,53.8287483 C316.83463,66.2565337 315,81.5900963 315,99.829436 Z" id="Shape" fill="#D9942E" fill-rule="nonzero"></path>
                        <path d="M146.124514,99.829436 C146.124514,96.610729 146.169261,92.721458 146.258755,88.1616231 C146.348249,83.6017882 146.661479,78.9078404 147.198444,74.0797799 C147.735409,69.2517194 148.63035,64.4683631 149.883268,59.7297111 C151.136187,54.9910591 152.881323,50.7441541 155.118677,46.9889959 C157.356031,43.2338377 160.219844,40.1939477 163.710117,37.869326 C167.200389,35.5447043 171.540856,34.3823934 176.731518,34.3823934 C181.922179,34.3823934 186.307393,35.5447043 189.88716,37.869326 C193.466926,40.1939477 196.420233,43.2338377 198.747082,46.9889959 C201.07393,50.7441541 202.819066,54.9910591 203.98249,59.7297111 C205.145914,64.4683631 206.040856,69.2517194 206.667315,74.0797799 C207.293774,78.9078404 207.651751,83.6017882 207.741245,88.1616231 C207.830739,92.721458 207.875486,96.610729 207.875486,99.829436 C207.875486,105.193948 207.696498,111.676066 207.338521,119.275791 C206.980545,126.875516 205.861868,134.207015 203.98249,141.270289 C202.103113,148.333563 199.060311,154.368638 194.854086,159.375516 C190.64786,164.382393 184.607004,166.885832 176.731518,166.885832 C169.035019,166.885832 163.128405,164.382393 159.011673,159.375516 C154.894942,154.368638 151.896887,148.333563 150.01751,141.270289 C148.138132,134.207015 147.019455,126.875516 146.661479,119.275791 C146.303502,111.676066 146.124514,105.193948 146.124514,99.829436 Z M108,99.829436 C108,118.605227 109.83463,134.296424 113.503891,146.903026 C117.173152,159.509629 122.140078,169.568088 128.404669,177.078404 C134.669261,184.588721 141.963035,189.953232 150.285992,193.171939 C158.608949,196.390646 167.424125,198 176.731518,198 C186.217899,198 195.122568,196.390646 203.445525,193.171939 C211.768482,189.953232 219.107004,184.588721 225.461089,177.078404 C231.815175,169.568088 236.826848,159.509629 240.496109,146.903026 C244.16537,134.296424 246,118.605227 246,99.829436 C246,81.5900963 244.16537,66.2565337 240.496109,53.8287483 C236.826848,41.4009629 231.815175,31.431912 225.461089,23.9215956 C219.107004,16.4112792 211.768482,11.0467675 203.445525,7.82806052 C195.122568,4.60935351 186.217899,3 176.731518,3 C167.424125,3 158.608949,4.60935351 150.285992,7.82806052 C141.963035,11.0467675 134.669261,16.4112792 128.404669,23.9215956 C122.140078,31.431912 117.173152,41.4009629 113.503891,53.8287483 C109.83463,66.2565337 108,81.5900963 108,99.829436 Z" id="Shape" fill="#D9942E" fill-rule="nonzero"></path>
                    </g>
                    <g id="Hours" transform="translate(66.08, 235.5792)" fill="#975D48" fill-rule="nonzero">
                        <polygon id="Path" points="0 0 0 35.7 4.75 35.7 4.75 19.35 23.55 19.35 23.55 35.7 28.3 35.7 28.3 0 23.55 0 23.55 15.35 4.75 15.35 4.75 0"></polygon>
                        <path d="M38.5,22.8 C38.5,21.2333333 38.7083333,19.8416667 39.125,18.625 C39.5416667,17.4083333 40.1166667,16.3833333 40.85,15.55 C41.5833333,14.7166667 42.4416667,14.0833333 43.425,13.65 C44.4083333,13.2166667 45.45,13 46.55,13 C47.65,13 48.6916667,13.2166667 49.675,13.65 C50.6583333,14.0833333 51.5166667,14.7166667 52.25,15.55 C52.9833333,16.3833333 53.5583333,17.4083333 53.975,18.625 C54.3916667,19.8416667 54.6,21.2333333 54.6,22.8 C54.6,24.3666667 54.3916667,25.7583333 53.975,26.975 C53.5583333,28.1916667 52.9833333,29.2083333 52.25,30.025 C51.5166667,30.8416667 50.6583333,31.4666667 49.675,31.9 C48.6916667,32.3333333 47.65,32.55 46.55,32.55 C45.45,32.55 44.4083333,32.3333333 43.425,31.9 C42.4416667,31.4666667 41.5833333,30.8416667 40.85,30.025 C40.1166667,29.2083333 39.5416667,28.1916667 39.125,26.975 C38.7083333,25.7583333 38.5,24.3666667 38.5,22.8 Z M34,22.8 C34,24.7 34.2666667,26.4666667 34.8,28.1 C35.3333333,29.7333333 36.1333333,31.1583333 37.2,32.375 C38.2666667,33.5916667 39.5833333,34.5416667 41.15,35.225 C42.7166667,35.9083333 44.5166667,36.25 46.55,36.25 C48.6166667,36.25 50.425,35.9083333 51.975,35.225 C53.525,34.5416667 54.8333333,33.5916667 55.9,32.375 C56.9666667,31.1583333 57.7666667,29.7333333 58.3,28.1 C58.8333333,26.4666667 59.1,24.7 59.1,22.8 C59.1,20.9 58.8333333,19.125 58.3,17.475 C57.7666667,15.825 56.9666667,14.3916667 55.9,13.175 C54.8333333,11.9583333 53.525,11 51.975,10.3 C50.425,9.6 48.6166667,9.25 46.55,9.25 C44.5166667,9.25 42.7166667,9.6 41.15,10.3 C39.5833333,11 38.2666667,11.9583333 37.2,13.175 C36.1333333,14.3916667 35.3333333,15.825 34.8,17.475 C34.2666667,19.125 34,20.9 34,22.8 Z" id="Shape"></path>
                        <path d="M85.5,35.7 L85.5,9.85 L81.25,9.85 L81.25,24.45 C81.25,25.6166667 81.0916667,26.6916667 80.775,27.675 C80.4583333,28.6583333 79.9833333,29.5166667 79.35,30.25 C78.7166667,30.9833333 77.925,31.55 76.975,31.95 C76.025,32.35 74.9,32.55 73.6,32.55 C71.9666667,32.55 70.6833333,32.0833333 69.75,31.15 C68.8166667,30.2166667 68.35,28.95 68.35,27.35 L68.35,9.85 L64.1,9.85 L64.1,26.85 C64.1,28.25 64.2416667,29.525 64.525,30.675 C64.8083333,31.825 65.3,32.8166667 66,33.65 C66.7,34.4833333 67.6166667,35.125 68.75,35.575 C69.8833333,36.025 71.3,36.25 73,36.25 C74.9,36.25 76.55,35.875 77.95,35.125 C79.35,34.375 80.5,33.2 81.4,31.6 L81.5,31.6 L81.5,35.7 L85.5,35.7 Z" id="Path"></path>
                        <path d="M91.75,9.85 L91.75,35.7 L96,35.7 L96,24.2 C96,22.5333333 96.1666667,21.0583333 96.5,19.775 C96.8333333,18.4916667 97.3666667,17.4 98.1,16.5 C98.8333333,15.6 99.8,14.9166667 101,14.45 C102.2,13.9833333 103.65,13.75 105.35,13.75 L105.35,9.25 C103.05,9.18333333 101.15,9.65 99.65,10.65 C98.15,11.65 96.8833333,13.2 95.85,15.3 L95.75,15.3 L95.75,9.85 L91.75,9.85 Z" id="Path"></path>
                        <path d="M111.15,27.55 L106.9,27.55 C106.966667,29.15 107.3,30.5083333 107.9,31.625 C108.5,32.7416667 109.3,33.6416667 110.3,34.325 C111.3,35.0083333 112.45,35.5 113.75,35.8 C115.05,36.1 116.416667,36.25 117.85,36.25 C119.15,36.25 120.458333,36.125 121.775,35.875 C123.091667,35.625 124.275,35.1833333 125.325,34.55 C126.375,33.9166667 127.225,33.0833333 127.875,32.05 C128.525,31.0166667 128.85,29.7166667 128.85,28.15 C128.85,26.9166667 128.608333,25.8833333 128.125,25.05 C127.641667,24.2166667 127.008333,23.525 126.225,22.975 C125.441667,22.425 124.541667,21.9833333 123.525,21.65 C122.508333,21.3166667 121.466667,21.0333333 120.4,20.8 C119.4,20.5666667 118.4,20.3416667 117.4,20.125 C116.4,19.9083333 115.5,19.6416667 114.7,19.325 C113.9,19.0083333 113.241667,18.6083333 112.725,18.125 C112.208333,17.6416667 111.95,17.0333333 111.95,16.3 C111.95,15.6333333 112.116667,15.0916667 112.45,14.675 C112.783333,14.2583333 113.216667,13.925 113.75,13.675 C114.283333,13.425 114.875,13.25 115.525,13.15 C116.175,13.05 116.816667,13 117.45,13 C118.15,13 118.841667,13.075 119.525,13.225 C120.208333,13.375 120.833333,13.6166667 121.4,13.95 C121.966667,14.2833333 122.433333,14.725 122.8,15.275 C123.166667,15.825 123.383333,16.5166667 123.45,17.35 L127.7,17.35 C127.6,15.7833333 127.266667,14.475 126.7,13.425 C126.133333,12.375 125.375,11.5416667 124.425,10.925 C123.475,10.3083333 122.383333,9.875 121.15,9.625 C119.916667,9.375 118.566667,9.25 117.1,9.25 C115.966667,9.25 114.825,9.39166667 113.675,9.675 C112.525,9.95833333 111.491667,10.3916667 110.575,10.975 C109.658333,11.5583333 108.908333,12.3166667 108.325,13.25 C107.741667,14.1833333 107.45,15.3 107.45,16.6 C107.45,18.2666667 107.866667,19.5666667 108.7,20.5 C109.533333,21.4333333 110.575,22.1583333 111.825,22.675 C113.075,23.1916667 114.433333,23.5916667 115.9,23.875 C117.366667,24.1583333 118.725,24.475 119.975,24.825 C121.225,25.175 122.266667,25.6333333 123.1,26.2 C123.933333,26.7666667 124.35,27.6 124.35,28.7 C124.35,29.5 124.15,30.1583333 123.75,30.675 C123.35,31.1916667 122.841667,31.5833333 122.225,31.85 C121.608333,32.1166667 120.933333,32.3 120.2,32.4 C119.466667,32.5 118.766667,32.55 118.1,32.55 C117.233333,32.55 116.391667,32.4666667 115.575,32.3 C114.758333,32.1333333 114.025,31.8583333 113.375,31.475 C112.725,31.0916667 112.2,30.575 111.8,29.925 C111.4,29.275 111.183333,28.4833333 111.15,27.55 Z" id="Path"></path>
                    </g>
                    <g id="Minutes" transform="translate(369.38, 235.5792)" fill="#975D48" fill-rule="nonzero">
                        <polygon id="Path" points="0 0 0 35.7 4.5 35.7 4.5 6 4.6 6 15.75 35.7 19.8 35.7 30.95 6 31.05 6 31.05 35.7 35.55 35.7 35.55 0 29.05 0 17.75 30 6.5 0"></polygon>
                        <path d="M47.25,5.2 L47.25,0 L43,0 L43,5.2 L47.25,5.2 Z M43,9.85 L43,35.7 L47.25,35.7 L47.25,9.85 L43,9.85 Z" id="Shape"></path>
                        <path d="M53.85,9.85 L53.85,35.7 L58.1,35.7 L58.1,21.1 C58.1,19.9333333 58.2583333,18.8583333 58.575,17.875 C58.8916667,16.8916667 59.3666667,16.0333333 60,15.3 C60.6333333,14.5666667 61.425,14 62.375,13.6 C63.325,13.2 64.45,13 65.75,13 C67.3833333,13 68.6666667,13.4666667 69.6,14.4 C70.5333333,15.3333333 71,16.6 71,18.2 L71,35.7 L75.25,35.7 L75.25,18.7 C75.25,17.3 75.1083333,16.025 74.825,14.875 C74.5416667,13.725 74.05,12.7333333 73.35,11.9 C72.65,11.0666667 71.7333333,10.4166667 70.6,9.95 C69.4666667,9.48333333 68.05,9.25 66.35,9.25 C62.5166667,9.25 59.7166667,10.8166667 57.95,13.95 L57.85,13.95 L57.85,9.85 L53.85,9.85 Z" id="Path"></path>
                        <path d="M103.05,35.7 L103.05,9.85 L98.8,9.85 L98.8,24.45 C98.8,25.6166667 98.6416667,26.6916667 98.325,27.675 C98.0083333,28.6583333 97.5333333,29.5166667 96.9,30.25 C96.2666667,30.9833333 95.475,31.55 94.525,31.95 C93.575,32.35 92.45,32.55 91.15,32.55 C89.5166667,32.55 88.2333333,32.0833333 87.3,31.15 C86.3666667,30.2166667 85.9,28.95 85.9,27.35 L85.9,9.85 L81.65,9.85 L81.65,26.85 C81.65,28.25 81.7916667,29.525 82.075,30.675 C82.3583333,31.825 82.85,32.8166667 83.55,33.65 C84.25,34.4833333 85.1666667,35.125 86.3,35.575 C87.4333333,36.025 88.85,36.25 90.55,36.25 C92.45,36.25 94.1,35.875 95.5,35.125 C96.9,34.375 98.05,33.2 98.95,31.6 L99.05,31.6 L99.05,35.7 L103.05,35.7 Z" id="Path"></path>
                        <path d="M115.35,9.85 L115.35,2.1 L111.1,2.1 L111.1,9.85 L106.7,9.85 L106.7,13.6 L111.1,13.6 L111.1,30.05 C111.1,31.25 111.216667,32.2166667 111.45,32.95 C111.683333,33.6833333 112.041667,34.25 112.525,34.65 C113.008333,35.05 113.641667,35.325 114.425,35.475 C115.208333,35.625 116.15,35.7 117.25,35.7 L120.5,35.7 L120.5,31.95 L118.55,31.95 C117.883333,31.95 117.341667,31.925 116.925,31.875 C116.508333,31.825 116.183333,31.7166667 115.95,31.55 C115.716667,31.3833333 115.558333,31.15 115.475,30.85 C115.391667,30.55 115.35,30.15 115.35,29.65 L115.35,13.6 L120.5,13.6 L120.5,9.85 L115.35,9.85 Z" id="Path"></path>
                        <path d="M143.15,20.3 L128.3,20.3 C128.366667,19.3 128.583333,18.3583333 128.95,17.475 C129.316667,16.5916667 129.816667,15.8166667 130.45,15.15 C131.083333,14.4833333 131.841667,13.9583333 132.725,13.575 C133.608333,13.1916667 134.6,13 135.7,13 C136.766667,13 137.741667,13.1916667 138.625,13.575 C139.508333,13.9583333 140.275,14.475 140.925,15.125 C141.575,15.775 142.091667,16.55 142.475,17.45 C142.858333,18.35 143.083333,19.3 143.15,20.3 Z M147.25,27.5 L143.05,27.5 C142.683333,29.2 141.925,30.4666667 140.775,31.3 C139.625,32.1333333 138.15,32.55 136.35,32.55 C134.95,32.55 133.733333,32.3166667 132.7,31.85 C131.666667,31.3833333 130.816667,30.7583333 130.15,29.975 C129.483333,29.1916667 129,28.2916667 128.7,27.275 C128.4,26.2583333 128.266667,25.1833333 128.3,24.05 L147.65,24.05 C147.716667,22.4833333 147.575,20.8333333 147.225,19.1 C146.875,17.3666667 146.241667,15.7666667 145.325,14.3 C144.408333,12.8333333 143.191667,11.625 141.675,10.675 C140.158333,9.725 138.25,9.25 135.95,9.25 C134.183333,9.25 132.558333,9.58333333 131.075,10.25 C129.591667,10.9166667 128.308333,11.85 127.225,13.05 C126.141667,14.25 125.3,15.6666667 124.7,17.3 C124.1,18.9333333 123.8,20.7333333 123.8,22.7 C123.866667,24.6666667 124.158333,26.4833333 124.675,28.15 C125.191667,29.8166667 125.966667,31.25 127,32.45 C128.033333,33.65 129.308333,34.5833333 130.825,35.25 C132.341667,35.9166667 134.133333,36.25 136.2,36.25 C139.133333,36.25 141.566667,35.5166667 143.5,34.05 C145.433333,32.5833333 146.683333,30.4 147.25,27.5 Z" id="Shape"></path>
                        <path d="M154.65,27.55 L150.4,27.55 C150.466667,29.15 150.8,30.5083333 151.4,31.625 C152,32.7416667 152.8,33.6416667 153.8,34.325 C154.8,35.0083333 155.95,35.5 157.25,35.8 C158.55,36.1 159.916667,36.25 161.35,36.25 C162.65,36.25 163.958333,36.125 165.275,35.875 C166.591667,35.625 167.775,35.1833333 168.825,34.55 C169.875,33.9166667 170.725,33.0833333 171.375,32.05 C172.025,31.0166667 172.35,29.7166667 172.35,28.15 C172.35,26.9166667 172.108333,25.8833333 171.625,25.05 C171.141667,24.2166667 170.508333,23.525 169.725,22.975 C168.941667,22.425 168.041667,21.9833333 167.025,21.65 C166.008333,21.3166667 164.966667,21.0333333 163.9,20.8 C162.9,20.5666667 161.9,20.3416667 160.9,20.125 C159.9,19.9083333 159,19.6416667 158.2,19.325 C157.4,19.0083333 156.741667,18.6083333 156.225,18.125 C155.708333,17.6416667 155.45,17.0333333 155.45,16.3 C155.45,15.6333333 155.616667,15.0916667 155.95,14.675 C156.283333,14.2583333 156.716667,13.925 157.25,13.675 C157.783333,13.425 158.375,13.25 159.025,13.15 C159.675,13.05 160.316667,13 160.95,13 C161.65,13 162.341667,13.075 163.025,13.225 C163.708333,13.375 164.333333,13.6166667 164.9,13.95 C165.466667,14.2833333 165.933333,14.725 166.3,15.275 C166.666667,15.825 166.883333,16.5166667 166.95,17.35 L171.2,17.35 C171.1,15.7833333 170.766667,14.475 170.2,13.425 C169.633333,12.375 168.875,11.5416667 167.925,10.925 C166.975,10.3083333 165.883333,9.875 164.65,9.625 C163.416667,9.375 162.066667,9.25 160.6,9.25 C159.466667,9.25 158.325,9.39166667 157.175,9.675 C156.025,9.95833333 154.991667,10.3916667 154.075,10.975 C153.158333,11.5583333 152.408333,12.3166667 151.825,13.25 C151.241667,14.1833333 150.95,15.3 150.95,16.6 C150.95,18.2666667 151.366667,19.5666667 152.2,20.5 C153.033333,21.4333333 154.075,22.1583333 155.325,22.675 C156.575,23.1916667 157.933333,23.5916667 159.4,23.875 C160.866667,24.1583333 162.225,24.475 163.475,24.825 C164.725,25.175 165.766667,25.6333333 166.6,26.2 C167.433333,26.7666667 167.85,27.6 167.85,28.7 C167.85,29.5 167.65,30.1583333 167.25,30.675 C166.85,31.1916667 166.341667,31.5833333 165.725,31.85 C165.108333,32.1166667 164.433333,32.3 163.7,32.4 C162.966667,32.5 162.266667,32.55 161.6,32.55 C160.733333,32.55 159.891667,32.4666667 159.075,32.3 C158.258333,32.1333333 157.525,31.8583333 156.875,31.475 C156.225,31.0916667 155.7,30.575 155.3,29.925 C154.9,29.275 154.683333,28.4833333 154.65,27.55 Z" id="Path"></path>
                    </g>
                </g>
            </g>
        </g>
    </g>
</svg>