<?xml version="1.0" encoding="UTF-8"?>
<svg width="750px" height="500px" viewBox="0 0 750 500" version="1.1" xmlns="http://www.w3.org/2000/svg" xmlns:xlink="http://www.w3.org/1999/xlink">
    <title>icon</title>
    <defs>
        <rect id="path-1" x="31" y="28" width="688" height="437" rx="20"></rect>
        <filter x="-4.4%" y="-6.9%" width="108.7%" height="113.7%" filterUnits="objectBoundingBox" id="filter-2">
            <feOffset dx="0" dy="0" in="SourceAlpha" result="shadowOffsetOuter1"></feOffset>
            <feGaussianBlur stdDeviation="10" in="shadowOffsetOuter1" result="shadowBlurOuter1"></feGaussianBlur>
            <feColorMatrix values="0 0 0 0 0.8   0 0 0 0 0.8   0 0 0 0 0.8  0 0 0 1 0" type="matrix" in="shadowBlurOuter1"></feColorMatrix>
        </filter>
        <rect id="path-3" x="0" y="0" width="195" height="198"></rect>
    </defs>
    <g id="Page-1" stroke="none" stroke-width="1" fill="none" fill-rule="evenodd">
        <g id="Count-Down-Premium" transform="translate(-146, -110)">
            <g id="icon" transform="translate(146, 110)">
                <rect id="Rectangle" x="0" y="0" width="750" height="500"></rect>
                <g id="Rectangle">
                    <use fill="black" fill-opacity="1" filter="url(#filter-2)" xlink:href="#path-1"></use>
                    <use fill="#FFFFFF" fill-rule="evenodd" xlink:href="#path-1"></use>
                </g>
                <path d="M61,48 L689,48 C694.522847,48 699,52.4771525 699,58 L699,435 C699,440.522847 694.522847,445 689,445 L61,445 C55.4771525,445 51,440.522847 51,435 L51,58 C51,52.4771525 55.4771525,48 61,48 Z" id="Rectangle" fill="#FAEBD5" transform="translate(375, 246.5) scale(-1, 1) translate(-375, -246.5)"></path>
                <g id="1,000" transform="translate(127, 148)">
                    <g id="Group-7" transform="translate(340, 3)">
                        <mask id="mask-4" fill="white">
                            <use xlink:href="#path-3"></use>
                        </mask>
                        <g id="Rectangle"></g>
                        <path d="M126.349315,198.251953 L126.349315,75.2134078 L96.1643836,75.2134078 C95.0958904,82.3344507 92.869863,88.298324 89.4863014,93.1050279 C86.1027397,97.9117318 81.9623288,101.783799 77.0650685,104.721229 C72.1678082,107.658659 66.6472603,109.705959 60.5034247,110.863128 C54.359589,112.020298 47.9931507,112.50987 41.4041096,112.331844 L41.4041096,140.905028 L88.4178082,140.905028 L88.4178082,197.712891 L126.349315,198.251953 Z" id="Path" fill="#975D48" fill-rule="nonzero" mask="url(#mask-4)"></path>
                        <path d="M126.331813,8 C124.555112,12.3470819 122.122114,16.7956393 119.270548,20.1921788 C115.085616,25.1769088 109.075342,27.6692737 101.239726,27.6692737 C93.5821918,27.6692737 87.7054795,25.1769088 83.609589,20.1921788 C80.7927207,16.7640284 78.1431934,12.3964682 76.3791762,8 M38.3321918,7.77486034 C41.9828767,20.3256983 46.9246575,30.3396648 53.1575342,37.8167598 C59.390411,45.2938547 66.6472603,50.6346369 74.9280822,53.8391061 C83.2089041,57.0435754 91.9794521,58.6458101 101.239726,58.6458101 C110.678082,58.6458101 119.537671,57.0435754 127.818493,53.8391061 C136.099315,50.6346369 143.400685,45.2938547 149.722603,37.8167598 C156.044521,30.3396648 161.030822,20.3256983 164.681507,7.77486034" id="Shape" fill="#975D48" fill-rule="nonzero" mask="url(#mask-4)"></path>
                    </g>
                    <path d="M271.124514,101.829436 C271.124514,98.610729 271.169261,94.721458 271.258755,90.1616231 C271.348249,85.6017882 271.661479,80.9078404 272.198444,76.0797799 C272.735409,71.2517194 273.63035,66.4683631 274.883268,61.7297111 C276.136187,56.9910591 277.881323,52.7441541 280.118677,48.9889959 C282.356031,45.2338377 285.219844,42.1939477 288.710117,39.869326 C292.200389,37.5447043 296.540856,36.3823934 301.731518,36.3823934 C306.922179,36.3823934 311.307393,37.5447043 314.88716,39.869326 C318.466926,42.1939477 321.420233,45.2338377 323.747082,48.9889959 C326.07393,52.7441541 327.819066,56.9910591 328.98249,61.7297111 C330.145914,66.4683631 331.040856,71.2517194 331.667315,76.0797799 C332.293774,80.9078404 332.651751,85.6017882 332.741245,90.1616231 C332.830739,94.721458 332.875486,98.610729 332.875486,101.829436 C332.875486,107.193948 332.696498,113.676066 332.338521,121.275791 C331.980545,128.875516 330.861868,136.207015 328.98249,143.270289 C327.103113,150.333563 324.060311,156.368638 319.854086,161.375516 C315.64786,166.382393 309.607004,168.885832 301.731518,168.885832 C294.035019,168.885832 288.128405,166.382393 284.011673,161.375516 C279.894942,156.368638 276.896887,150.333563 275.01751,143.270289 C273.138132,136.207015 272.019455,128.875516 271.661479,121.275791 C271.303502,113.676066 271.124514,107.193948 271.124514,101.829436 Z M233,101.829436 C233,120.605227 234.83463,136.296424 238.503891,148.903026 C242.173152,161.509629 247.140078,171.568088 253.404669,179.078404 C259.669261,186.588721 266.963035,191.953232 275.285992,195.171939 C283.608949,198.390646 292.424125,200 301.731518,200 C311.217899,200 320.122568,198.390646 328.445525,195.171939 C336.768482,191.953232 344.107004,186.588721 350.461089,179.078404 C356.815175,171.568088 361.826848,161.509629 365.496109,148.903026 C369.16537,136.296424 371,120.605227 371,101.829436 C371,83.5900963 369.16537,68.2565337 365.496109,55.8287483 C361.826848,43.4009629 356.815175,33.431912 350.461089,25.9215956 C344.107004,18.4112792 336.768482,13.0467675 328.445525,9.82806052 C320.122568,6.60935351 311.217899,5 301.731518,5 C292.424125,5 283.608949,6.60935351 275.285992,9.82806052 C266.963035,13.0467675 259.669261,18.4112792 253.404669,25.9215956 C247.140078,33.431912 242.173152,43.4009629 238.503891,55.8287483 C234.83463,68.2565337 233,83.5900963 233,101.829436 Z" id="Shape" fill="#3B8B96" fill-rule="nonzero"></path>
                    <g id="calendar_today_24dp_FILL0_wght400_GRAD0_opsz24" fill="#3B8B96" fill-rule="nonzero">
                        <path d="M20.3333333,204 C14.7416667,204 9.95486111,202.0025 5.97291667,198.0075 C1.99097222,194.0125 0,189.21 0,183.6 L0,40.8 C0,35.19 1.99097222,30.3875 5.97291667,26.3925 C9.95486111,22.3975 14.7416667,20.4 20.3333333,20.4 L30.5,20.4 L30.5,0 L50.8333333,0 L50.8333333,20.4 L132.166667,20.4 L132.166667,0 L152.5,0 L152.5,20.4 L162.666667,20.4 C168.258333,20.4 173.045139,22.3975 177.027083,26.3925 C181.009028,30.3875 183,35.19 183,40.8 L183,183.6 C183,189.21 181.009028,194.0125 177.027083,198.0075 C173.045139,202.0025 168.258333,204 162.666667,204 L20.3333333,204 Z M21,184 L163,184 L163,82 L21,82 L21,184 Z M21,61 L163,61 L163,41 L21,41 L21,61 Z M20.5,61 L20.5,41 L20.5,61 Z" id="Shape"></path>
                    </g>
                </g>
            </g>
        </g>
    </g>
</svg>