<?xml version="1.0" encoding="UTF-8"?>
<svg width="750px" height="500px" viewBox="0 0 750 500" version="1.1" xmlns="http://www.w3.org/2000/svg" xmlns:xlink="http://www.w3.org/1999/xlink">
    <title>icon</title>
    <defs>
        <rect id="path-1" x="31" y="28" width="688" height="437" rx="20"></rect>
        <filter x="-4.4%" y="-6.9%" width="108.7%" height="113.7%" filterUnits="objectBoundingBox" id="filter-2">
            <feOffset dx="0" dy="0" in="SourceAlpha" result="shadowOffsetOuter1"></feOffset>
            <feGaussianBlur stdDeviation="10" in="shadowOffsetOuter1" result="shadowBlurOuter1"></feGaussianBlur>
            <feColorMatrix values="0 0 0 0 0.8   0 0 0 0 0.8   0 0 0 0 0.8  0 0 0 1 0" type="matrix" in="shadowBlurOuter1"></feColorMatrix>
        </filter>
        <rect id="path-3" x="0" y="0" width="195" height="198"></rect>
    </defs>
    <g id="Page-1" stroke="none" stroke-width="1" fill="none" fill-rule="evenodd">
        <g id="Count-Up" transform="translate(-146, -110)">
            <g id="icon" transform="translate(146, 110)">
                <rect id="Rectangle" x="0" y="0" width="750" height="500"></rect>
                <g id="Rectangle">
                    <use fill="black" fill-opacity="1" filter="url(#filter-2)" xlink:href="#path-1"></use>
                    <use fill="#FFFFFF" fill-rule="evenodd" xlink:href="#path-1"></use>
                </g>
                <path d="M61,48 L689,48 C694.522847,48 699,52.4771525 699,58 L699,435 C699,440.522847 694.522847,445 689,445 L61,445 C55.4771525,445 51,440.522847 51,435 L51,58 C51,52.4771525 55.4771525,48 61,48 Z" id="Rectangle" fill="#E1EFEB" transform="translate(375, 246.5) scale(-1, 1) translate(-375, -246.5)"></path>
                <g id="1,000" transform="translate(73, 128)">
                    <g id="Group-7" transform="translate(440.805, 0)">
                        <mask id="mask-4" fill="white">
                            <use xlink:href="#path-3"></use>
                        </mask>
                        <g id="Rectangle"></g>
                        <path d="M126.349315,196.953125 L126.349315,75.2134078 L96.1643836,75.2134078 C95.0958904,82.3344507 92.869863,88.298324 89.4863014,93.1050279 C86.1027397,97.9117318 81.9623288,101.783799 77.0650685,104.721229 C72.1678082,107.658659 66.6472603,109.705959 60.5034247,110.863128 C54.359589,112.020298 47.9931507,112.50987 41.4041096,112.331844 L41.4041096,140.905028 L88.4178082,140.905028 L88.4178082,196.429688 L126.349315,196.953125 Z" id="Path" fill="#208B84" fill-rule="nonzero" mask="url(#mask-4)"></path>
                        <path d="M126.552734,-1.70252701e-13 C124.772783,4.37181384 122.135415,8.77979582 119.270548,12.1921788 C115.085616,17.1769088 109.075342,19.6692737 101.239726,19.6692737 C93.5821918,19.6692737 87.7054795,17.1769088 83.609589,12.1921788 C80.8300103,8.80941015 78.326684,4.32561895 76.5722656,-1.70252701e-13 M38.3321918,-0.225139665 C41.9828767,12.3256983 46.9246575,22.3396648 53.1575342,29.8167598 C59.390411,37.2938547 66.6472603,42.6346369 74.9280822,45.8391061 C83.2089041,49.0435754 91.9794521,50.6458101 101.239726,50.6458101 C110.678082,50.6458101 119.537671,49.0435754 127.818493,45.8391061 C136.099315,42.6346369 143.400685,37.2938547 149.722603,29.8167598 C156.044521,22.3396648 161.030822,12.3256983 164.681507,-0.225139665" id="Shape" fill="#5CA7B1" fill-rule="nonzero" mask="url(#mask-4)"></path>
                    </g>
                    <path d="M113.804957,153 L113.804957,194.034483 L132.607505,194.034483 C132.781603,196.876698 132.433408,199.674504 131.562919,202.4279 C130.692431,205.181296 129.386698,207.668234 127.645722,209.888715 C125.904745,212.109195 123.859098,214.018809 121.508779,215.617555 C119.158461,217.216301 116.677569,218.282132 114.066104,218.815047 L114.066104,238 C119.637229,237.111808 124.903684,235.468652 129.865467,233.070533 C134.82725,230.672414 139.136168,227.60815 142.792219,223.877743 C146.44827,220.147335 149.364405,215.750784 151.540626,210.688088 C153.716847,205.625392 154.804957,200.07419 154.804957,194.034483 L154.804957,153 L113.804957,153 Z" id="Path" fill="#DE6B5A" fill-rule="nonzero"></path>
                    <path d="M213.929471,99.829436 C213.929471,96.610729 213.974218,92.721458 214.063712,88.1616231 C214.153206,83.6017882 214.466436,78.9078404 215.003401,74.0797799 C215.540366,69.2517194 216.435308,64.4683631 217.688226,59.7297111 C218.941144,54.9910591 220.68628,50.7441541 222.923634,46.9889959 C225.160989,43.2338377 228.024802,40.1939477 231.515074,37.869326 C235.005347,35.5447043 239.345813,34.3823934 244.536475,34.3823934 C249.727136,34.3823934 254.11235,35.5447043 257.692117,37.869326 C261.271883,40.1939477 264.225191,43.2338377 266.552039,46.9889959 C268.878887,50.7441541 270.624024,54.9910591 271.787448,59.7297111 C272.950872,64.4683631 273.845813,69.2517194 274.472273,74.0797799 C275.098732,78.9078404 275.456708,83.6017882 275.546203,88.1616231 C275.635697,92.721458 275.680444,96.610729 275.680444,99.829436 C275.680444,105.193948 275.501455,111.676066 275.143479,119.275791 C274.785502,126.875516 273.666825,134.207015 271.787448,141.270289 C269.90807,148.333563 266.865269,154.368638 262.659043,159.375516 C258.452817,164.382393 252.411961,166.885832 244.536475,166.885832 C236.839977,166.885832 230.933362,164.382393 226.816631,159.375516 C222.699899,154.368638 219.701845,148.333563 217.822467,141.270289 C215.94309,134.207015 214.824413,126.875516 214.466436,119.275791 C214.108459,111.676066 213.929471,105.193948 213.929471,99.829436 Z M175.804957,99.829436 C175.804957,118.605227 177.639588,134.296424 181.308848,146.903026 C184.978109,159.509629 189.945035,169.568088 196.209627,177.078404 C202.474218,184.588721 209.767992,189.953232 218.09095,193.171939 C226.413907,196.390646 235.229082,198 244.536475,198 C254.022856,198 262.927525,196.390646 271.250483,193.171939 C279.57344,189.953232 286.911961,184.588721 293.266047,177.078404 C299.620133,169.568088 304.631806,159.509629 308.301066,146.903026 C311.970327,134.296424 313.804957,118.605227 313.804957,99.829436 C313.804957,81.5900963 311.970327,66.2565337 308.301066,53.8287483 C304.631806,41.4009629 299.620133,31.431912 293.266047,23.9215956 C286.911961,16.4112792 279.57344,11.0467675 271.250483,7.82806052 C262.927525,4.60935351 254.022856,3 244.536475,3 C235.229082,3 226.413907,4.60935351 218.09095,7.82806052 C209.767992,11.0467675 202.474218,16.4112792 196.209627,23.9215956 C189.945035,31.431912 184.978109,41.4009629 181.308848,53.8287483 C177.639588,66.2565337 175.804957,81.5900963 175.804957,99.829436 Z" id="Shape" fill="#DE6B5A" fill-rule="nonzero"></path>
                    <path d="M361.929471,99.829436 C361.929471,96.610729 361.974218,92.721458 362.063712,88.1616231 C362.153206,83.6017882 362.466436,78.9078404 363.003401,74.0797799 C363.540366,69.2517194 364.435308,64.4683631 365.688226,59.7297111 C366.941144,54.9910591 368.68628,50.7441541 370.923634,46.9889959 C373.160989,43.2338377 376.024802,40.1939477 379.515074,37.869326 C383.005347,35.5447043 387.345813,34.3823934 392.536475,34.3823934 C397.727136,34.3823934 402.11235,35.5447043 405.692117,37.869326 C409.271883,40.1939477 412.225191,43.2338377 414.552039,46.9889959 C416.878887,50.7441541 418.624024,54.9910591 419.787448,59.7297111 C420.950872,64.4683631 421.845813,69.2517194 422.472273,74.0797799 C423.098732,78.9078404 423.456708,83.6017882 423.546203,88.1616231 C423.635697,92.721458 423.680444,96.610729 423.680444,99.829436 C423.680444,105.193948 423.501455,111.676066 423.143479,119.275791 C422.785502,126.875516 421.666825,134.207015 419.787448,141.270289 C417.90807,148.333563 414.865269,154.368638 410.659043,159.375516 C406.452817,164.382393 400.411961,166.885832 392.536475,166.885832 C384.839977,166.885832 378.933362,164.382393 374.816631,159.375516 C370.699899,154.368638 367.701845,148.333563 365.822467,141.270289 C363.94309,134.207015 362.824413,126.875516 362.466436,119.275791 C362.108459,111.676066 361.929471,105.193948 361.929471,99.829436 Z M323.804957,99.829436 C323.804957,118.605227 325.639588,134.296424 329.308848,146.903026 C332.978109,159.509629 337.945035,169.568088 344.209627,177.078404 C350.474218,184.588721 357.767992,189.953232 366.09095,193.171939 C374.413907,196.390646 383.229082,198 392.536475,198 C402.022856,198 410.927525,196.390646 419.250483,193.171939 C427.57344,189.953232 434.911961,184.588721 441.266047,177.078404 C447.620133,169.568088 452.631806,159.509629 456.301066,146.903026 C459.970327,134.296424 461.804957,118.605227 461.804957,99.829436 C461.804957,81.5900963 459.970327,66.2565337 456.301066,53.8287483 C452.631806,41.4009629 447.620133,31.431912 441.266047,23.9215956 C434.911961,16.4112792 427.57344,11.0467675 419.250483,7.82806052 C410.927525,4.60935351 402.022856,3 392.536475,3 C383.229082,3 374.413907,4.60935351 366.09095,7.82806052 C357.767992,11.0467675 350.474218,16.4112792 344.209627,23.9215956 C337.945035,31.431912 332.978109,41.4009629 329.308848,53.8287483 C325.639588,66.2565337 323.804957,81.5900963 323.804957,99.829436 Z" id="Shape" fill="#DE6B5A" fill-rule="nonzero"></path>
                    <path d="M85,196 L85,9 L54.7955975,9 C53.7264151,16.1238095 51.4989518,22.09 48.1132075,26.8985714 C44.7274633,31.7071429 40.5843816,35.5807143 35.6839623,38.5192857 C30.783543,41.4578571 25.259434,43.5059524 19.1116352,44.6635714 C12.9638365,45.8211905 6.5932914,46.3109524 0,46.1328571 L0,74.7171429 L47.0440252,74.7171429 L47.0440252,196 L85,196 Z" id="Path" fill="#DE6B5A" fill-rule="nonzero"></path>
                </g>
            </g>
        </g>
    </g>
</svg>