<?xml version="1.0" encoding="UTF-8"?>
<svg width="750px" height="500px" viewBox="0 0 750 500" version="1.1" xmlns="http://www.w3.org/2000/svg" xmlns:xlink="http://www.w3.org/1999/xlink">
    <title>icon</title>
    <defs>
        <rect id="path-1" x="31" y="28" width="688" height="437" rx="20"></rect>
        <filter x="-4.4%" y="-6.9%" width="108.7%" height="113.7%" filterUnits="objectBoundingBox" id="filter-2">
            <feOffset dx="0" dy="0" in="SourceAlpha" result="shadowOffsetOuter1"></feOffset>
            <feGaussianBlur stdDeviation="10" in="shadowOffsetOuter1" result="shadowBlurOuter1"></feGaussianBlur>
            <feColorMatrix values="0 0 0 0 0.8   0 0 0 0 0.8   0 0 0 0 0.8  0 0 0 1 0" type="matrix" in="shadowBlurOuter1"></feColorMatrix>
        </filter>
    </defs>
    <g id="Page-1" stroke="none" stroke-width="1" fill="none" fill-rule="evenodd">
        <g id="Feature-Grid" transform="translate(-146, -110)">
            <g id="icon" transform="translate(146, 110)">
                <rect id="Rectangle" x="0" y="0" width="750" height="500"></rect>
                <g id="Rectangle">
                    <use fill="black" fill-opacity="1" filter="url(#filter-2)" xlink:href="#path-1"></use>
                    <use fill="#FFFFFF" fill-rule="evenodd" xlink:href="#path-1"></use>
                </g>
                <path d="M61,48 L355,48 C360.522847,48 365,52.4771525 365,58 L365,435 C365,440.522847 360.522847,445 355,445 L61,445 C55.4771525,445 51,440.522847 51,435 L51,58 C51,52.4771525 55.4771525,48 61,48 Z" id="Rectangle" fill="#FAEBD5"></path>
                <g id="Group-3" transform="translate(86, 299)" fill="#E9AF58">
                    <rect id="Rectangle" x="0" y="0" width="245" height="40" rx="8"></rect>
                    <rect id="Rectangle" x="76" y="50" width="93" height="40" rx="8"></rect>
                </g>
                <path d="M103.013086,238.697545 L153.503936,171.982909 C155.170383,169.780997 158.306307,169.346917 160.508219,171.013364 C160.87439,171.290489 161.200639,171.616737 161.477764,171.982909 L201.39945,224.732283 C202.344571,225.981093 203.820228,226.714914 205.386364,226.714914 L268.511942,226.714914 C271.273366,226.714914 273.511942,224.476338 273.511942,221.714914 C273.511942,220.62356 273.15487,219.562176 272.495218,218.692743 L232.095478,165.445159 C230.42638,163.245257 227.289934,162.814955 225.090032,164.484054 C224.732262,164.7555 224.412693,165.073908 224.139948,165.430688 L206.872196,188.018775 C205.195105,190.212591 202.057115,190.631479 199.863299,188.954389 C199.511358,188.685342 199.196732,188.370717 198.927686,188.018775 L192.596075,179.736344 C191.23121,177.950953 191.225213,175.474314 192.581416,173.682334 L224.140299,131.982909 C225.806746,129.780997 228.942671,129.346917 231.144582,131.013364 C231.510754,131.290489 231.837002,131.616737 232.114128,131.982909 L312.877705,238.697545 C314.544151,240.899457 314.110071,244.035381 311.90816,245.701828 C311.039577,246.359187 309.980083,246.714914 308.89079,246.714914 L107,246.714914 C104.238576,246.714914 102,244.476338 102,241.714914 C102,240.625622 102.355727,239.566128 103.013086,238.697545 Z M146.871431,227.714914 L167.019359,227.714914 C169.780783,227.714914 172.019359,225.476338 172.019359,222.714914 C172.019359,221.643242 171.675034,220.599926 171.037145,219.738776 L160.963181,206.138925 C159.319506,203.919963 156.188219,203.453601 153.969257,205.097277 C153.572516,205.391159 153.221492,205.742184 152.927609,206.138925 L142.853645,219.738776 C141.20997,221.957738 141.676332,225.089025 143.895294,226.7327 C144.756443,227.370589 145.79976,227.714914 146.871431,227.714914 Z M136.945395,226.214914 L176.945395,226.214914 L136.945395,226.214914 Z" id="Shape" fill="#975D48" fill-rule="nonzero"></path>
                <path d="M395,48 L691,48 C696.522847,48 701,52.4771525 701,58 L701,435 C701,440.522847 696.522847,445 691,445 L395,445 C389.477153,445 385,440.522847 385,435 L385,58 C385,52.4771525 389.477153,48 395,48 Z" id="Rectangle" fill="#C3DFD7"></path>
                <path d="M438.013086,238.697545 L488.503936,171.982909 C490.170383,169.780997 493.306307,169.346917 495.508219,171.013364 C495.87439,171.290489 496.200639,171.616737 496.477764,171.982909 L536.39945,224.732283 C537.344571,225.981093 538.820228,226.714914 540.386364,226.714914 L603.511942,226.714914 C606.273366,226.714914 608.511942,224.476338 608.511942,221.714914 C608.511942,220.62356 608.15487,219.562176 607.495218,218.692743 L567.095478,165.445159 C565.42638,163.245257 562.289934,162.814955 560.090032,164.484054 C559.732262,164.7555 559.412693,165.073908 559.139948,165.430688 L541.872196,188.018775 C540.195105,190.212591 537.057115,190.631479 534.863299,188.954389 C534.511358,188.685342 534.196732,188.370717 533.927686,188.018775 L527.596075,179.736344 C526.23121,177.950953 526.225213,175.474314 527.581416,173.682334 L559.140299,131.982909 C560.806746,129.780997 563.942671,129.346917 566.144582,131.013364 C566.510754,131.290489 566.837002,131.616737 567.114128,131.982909 L647.877705,238.697545 C649.544151,240.899457 649.110071,244.035381 646.90816,245.701828 C646.039577,246.359187 644.980083,246.714914 643.89079,246.714914 L442,246.714914 C439.238576,246.714914 437,244.476338 437,241.714914 C437,240.625622 437.355727,239.566128 438.013086,238.697545 Z M481.871431,227.714914 L502.019359,227.714914 C504.780783,227.714914 507.019359,225.476338 507.019359,222.714914 C507.019359,221.643242 506.675034,220.599926 506.037145,219.738776 L495.963181,206.138925 C494.319506,203.919963 491.188219,203.453601 488.969257,205.097277 C488.572516,205.391159 488.221492,205.742184 487.927609,206.138925 L477.853645,219.738776 C476.20997,221.957738 476.676332,225.089025 478.895294,226.7327 C479.756443,227.370589 480.79976,227.714914 481.871431,227.714914 Z M471.945395,226.214914 L511.945395,226.214914 L471.945395,226.214914 Z" id="Shape" fill="#0F8060" fill-rule="nonzero"></path>
                <g id="Group-3" transform="translate(421, 299)" fill="#0F8060">
                    <rect id="Rectangle" x="0" y="0" width="245" height="40" rx="8"></rect>
                    <rect id="Rectangle" x="76" y="50" width="93" height="40" rx="8"></rect>
                </g>
            </g>
        </g>
    </g>
</svg>