<?xml version="1.0" encoding="UTF-8"?>
<svg width="750px" height="500px" viewBox="0 0 750 500" version="1.1" xmlns="http://www.w3.org/2000/svg" xmlns:xlink="http://www.w3.org/1999/xlink">
    <title>icon</title>
    <defs>
        <rect id="path-1" x="31" y="28" width="688" height="437" rx="20"></rect>
        <filter x="-4.4%" y="-6.9%" width="108.7%" height="113.7%" filterUnits="objectBoundingBox" id="filter-2">
            <feOffset dx="0" dy="0" in="SourceAlpha" result="shadowOffsetOuter1"></feOffset>
            <feGaussianBlur stdDeviation="10" in="shadowOffsetOuter1" result="shadowBlurOuter1"></feGaussianBlur>
            <feColorMatrix values="0 0 0 0 0.8   0 0 0 0 0.8   0 0 0 0 0.8  0 0 0 1 0" type="matrix" in="shadowBlurOuter1"></feColorMatrix>
        </filter>
    </defs>
    <g id="Page-1" stroke="none" stroke-width="1" fill="none" fill-rule="evenodd">
        <g id="Payment-Icons-Copy" transform="translate(-146, -110)">
            <g id="icon" transform="translate(146, 110)">
                <rect id="Rectangle-Copy-4" x="0" y="0" width="750" height="500"></rect>
                <g id="Rectangle">
                    <use fill="black" fill-opacity="1" filter="url(#filter-2)" xlink:href="#path-1"></use>
                    <use fill="#FFFFFF" fill-rule="evenodd" xlink:href="#path-1"></use>
                </g>
                <path d="M61,48 L682,48 C687.522847,48 692,52.4771525 692,58 L692,435 C692,440.522847 687.522847,445 682,445 L61,445 C55.4771525,445 51,440.522847 51,435 L51,58 C51,52.4771525 55.4771525,48 61,48 Z" id="Rectangle" fill="#FFFFFF"></path>
                <g id="grid" transform="translate(62, 126)">
                    <rect id="Rectangle" x="0" y="44.5789474" width="641" height="151.932331" rx="7.72727251"></rect>
                    <g id="Group-31" transform="translate(13.6383, 0)">
                        <g id="Group-15" transform="translate(0, 0)">
                            <ellipse id="Oval" fill="#975D48" cx="57.2808511" cy="57.3157895" rx="57.2808511" ry="57.3157895"></ellipse>
                            <path d="M54.5531915,74.6015038 L54.5531915,58.9084454 L40.9148936,50.9473684 L40.9148936,66.6404267 L54.5531915,74.6015038 Z M59.0992908,74.6015038 L72.7375887,66.6404267 L72.7375887,50.9473684 L59.0992908,58.9084454 L59.0992908,74.6015038 Z M54.5531915,79.4346805 L38.641844,70.2800752 C37.9220449,69.8630952 37.3632535,69.3134398 36.9654699,68.631109 C36.5676862,67.9487782 36.3687943,67.1906328 36.3687943,66.3566729 L36.3687943,48.274906 C36.3687943,47.4409461 36.5676862,46.6828008 36.9654699,46.0004699 C37.3632535,45.3181391 37.9220449,44.7684837 38.641844,44.3515038 L54.5531915,35.1968985 C55.2729905,34.7799185 56.0306738,34.5714286 56.8262411,34.5714286 C57.6218085,34.5714286 58.3794917,34.7799185 59.0992908,35.1968985 L75.0106383,44.3515038 C75.7304374,44.7684837 76.2892287,45.3181391 76.6870124,46.0004699 C77.0847961,46.6828008 77.2836879,47.4409461 77.2836879,48.274906 L77.2836879,66.3566729 C77.2836879,67.1906328 77.0847961,67.9487782 76.6870124,68.631109 C76.2892287,69.3134398 75.7304374,69.8630952 75.0106383,70.2800752 L59.0992908,79.4346805 C58.3794917,79.8516604 57.6218085,80.0601504 56.8262411,80.0601504 C56.0306738,80.0601504 55.2729905,79.8516604 54.5531915,79.4346805 Z M65.5648542,49.1278195 L70.0099291,46.6950525 L56.328335,39.1203008 L51.8255319,41.6083579 L65.5648542,49.1278195 Z M57.3241472,54.5864662 L61.8269504,52.1120796 L48.1453563,44.5789474 L43.6425532,47.0533339 L57.3241472,54.5864662 Z" id="Shape" fill="#FFFFFF" fill-rule="nonzero"></path>
                            <rect id="Rectangle" fill="#FAEBD5" x="140.929078" y="29.112782" width="130.01844" height="56.406015" rx="6.29940701"></rect>
                            <rect id="Rectangle" fill="#FAEBD5" x="470.975887" y="29.112782" width="130.01844" height="56.406015" rx="6.29940701"></rect>
                            <g transform="translate(329.3295, 0)">
                                <ellipse id="Oval" fill="#DE6B5A" cx="57.2808511" cy="57.3157895" rx="57.2808511" ry="57.3157895"></ellipse>
                                <g id="percent_FILL0_wght400_GRAD0_opsz24" transform="translate(40.0057, 39.1203)" fill="#FFFFFF" fill-rule="nonzero">
                                    <path d="M7.75678191,15.5230263 C5.61443262,15.5230263 3.78604832,14.7653548 2.27162899,13.2500117 C0.757209663,11.7346687 0,9.90516917 0,7.76151316 C0,5.61785714 0.757209663,3.78835761 2.27162899,2.27301457 C3.78604832,0.757671523 5.61443262,0 7.75678191,0 C9.89913121,0 11.7275155,0.757671523 13.2419348,2.27301457 C14.7563542,3.78835761 15.5135638,5.61785714 15.5135638,7.76151316 C15.5135638,9.90516917 14.7563542,11.7346687 13.2419348,13.2500117 C11.7275155,14.7653548 9.89913121,15.5230263 7.75678191,15.5230263 Z M7.75678191,11.0878759 C8.68020833,11.0878759 9.46512079,10.7644796 10.1115193,10.1176868 C10.7579178,9.47089403 11.081117,8.68550282 11.081117,7.76151316 C11.081117,6.8375235 10.7579178,6.05213228 10.1115193,5.40533952 C9.46512079,4.75854676 8.68020833,4.43515038 7.75678191,4.43515038 C6.8333555,4.43515038 6.04844304,4.75854676 5.40204455,5.40533952 C4.75564605,6.05213228 4.43244681,6.8375235 4.43244681,7.76151316 C4.43244681,8.68550282 4.75564605,9.47089403 5.40204455,10.1176868 C6.04844304,10.7644796 6.8333555,11.0878759 7.75678191,11.0878759 Z M27.7027926,35.481203 C25.5604433,35.481203 23.732059,34.7235315 22.2176396,33.2081884 C20.7032203,31.6928454 19.9460106,29.8633459 19.9460106,27.7196898 C19.9460106,25.5760338 20.7032203,23.7465343 22.2176396,22.2311913 C23.732059,20.7158482 25.5604433,19.9581767 27.7027926,19.9581767 C29.8451418,19.9581767 31.6735262,20.7158482 33.1879455,22.2311913 C34.7023648,23.7465343 35.4595745,25.5760338 35.4595745,27.7196898 C35.4595745,29.8633459 34.7023648,31.6928454 33.1879455,33.2081884 C31.6735262,34.7235315 29.8451418,35.481203 27.7027926,35.481203 Z M27.7027926,31.0460526 C28.626219,31.0460526 29.4111314,30.7226562 30.0575299,30.0758635 C30.7039284,29.4290707 31.0271277,28.6436795 31.0271277,27.7196898 C31.0271277,26.7957002 30.7039284,26.010309 30.0575299,25.3635162 C29.4111314,24.7167234 28.626219,24.3933271 27.7027926,24.3933271 C26.7793661,24.3933271 25.9944537,24.7167234 25.3480552,25.3635162 C24.7016567,26.010309 24.3784574,26.7957002 24.3784574,27.7196898 C24.3784574,28.6436795 24.7016567,29.4290707 25.3480552,30.0758635 C25.9944537,30.7226562 26.7793661,31.0460526 27.7027926,31.0460526 Z M3.10271277,35.481203 L0,32.3765977 L32.3568617,0 L35.4595745,3.10460526 L3.10271277,35.481203 Z" id="Shape"></path>
                                </g>
                            </g>
                        </g>
                        <g id="Group-15" transform="translate(0, 127.3684)">
                            <ellipse id="Oval" fill="#0F8060" cx="57.2808511" cy="57.3157895" rx="57.2808511" ry="57.3157895"></ellipse>
                            <path d="M54.5531915,74.6015038 L54.5531915,58.9084454 L40.9148936,50.9473684 L40.9148936,66.6404267 L54.5531915,74.6015038 Z M59.0992908,74.6015038 L72.7375887,66.6404267 L72.7375887,50.9473684 L59.0992908,58.9084454 L59.0992908,74.6015038 Z M54.5531915,79.4346805 L38.641844,70.2800752 C37.9220449,69.8630952 37.3632535,69.3134398 36.9654699,68.631109 C36.5676862,67.9487782 36.3687943,67.1906328 36.3687943,66.3566729 L36.3687943,48.274906 C36.3687943,47.4409461 36.5676862,46.6828008 36.9654699,46.0004699 C37.3632535,45.3181391 37.9220449,44.7684837 38.641844,44.3515038 L54.5531915,35.1968985 C55.2729905,34.7799185 56.0306738,34.5714286 56.8262411,34.5714286 C57.6218085,34.5714286 58.3794917,34.7799185 59.0992908,35.1968985 L75.0106383,44.3515038 C75.7304374,44.7684837 76.2892287,45.3181391 76.6870124,46.0004699 C77.0847961,46.6828008 77.2836879,47.4409461 77.2836879,48.274906 L77.2836879,66.3566729 C77.2836879,67.1906328 77.0847961,67.9487782 76.6870124,68.631109 C76.2892287,69.3134398 75.7304374,69.8630952 75.0106383,70.2800752 L59.0992908,79.4346805 C58.3794917,79.8516604 57.6218085,80.0601504 56.8262411,80.0601504 C56.0306738,80.0601504 55.2729905,79.8516604 54.5531915,79.4346805 Z M65.5648542,49.1278195 L70.0099291,46.6950525 L56.328335,39.1203008 L51.8255319,41.6083579 L65.5648542,49.1278195 Z M57.3241472,54.5864662 L61.8269504,52.1120796 L48.1453563,44.5789474 L43.6425532,47.0533339 L57.3241472,54.5864662 Z" id="Shape" fill="#FFFFFF" fill-rule="nonzero"></path>
                            <rect id="Rectangle" fill="#FAEBD5" x="140.929078" y="29.112782" width="130.01844" height="56.406015" rx="6.29940701"></rect>
                            <rect id="Rectangle" fill="#FAEBD5" x="470.975887" y="29.112782" width="130.01844" height="56.406015" rx="6.29940701"></rect>
                            <g transform="translate(329.3295, 0)">
                                <ellipse id="Oval" fill="#E9AF58" cx="57.2808511" cy="57.3157895" rx="57.2808511" ry="57.3157895"></ellipse>
                                <g id="percent_FILL0_wght400_GRAD0_opsz24" transform="translate(40.0057, 39.1203)" fill="#FFFFFF" fill-rule="nonzero">
                                    <path d="M7.75678191,15.5230263 C5.61443262,15.5230263 3.78604832,14.7653548 2.27162899,13.2500117 C0.757209663,11.7346687 0,9.90516917 0,7.76151316 C0,5.61785714 0.757209663,3.78835761 2.27162899,2.27301457 C3.78604832,0.757671523 5.61443262,0 7.75678191,0 C9.89913121,0 11.7275155,0.757671523 13.2419348,2.27301457 C14.7563542,3.78835761 15.5135638,5.61785714 15.5135638,7.76151316 C15.5135638,9.90516917 14.7563542,11.7346687 13.2419348,13.2500117 C11.7275155,14.7653548 9.89913121,15.5230263 7.75678191,15.5230263 Z M7.75678191,11.0878759 C8.68020833,11.0878759 9.46512079,10.7644796 10.1115193,10.1176868 C10.7579178,9.47089403 11.081117,8.68550282 11.081117,7.76151316 C11.081117,6.8375235 10.7579178,6.05213228 10.1115193,5.40533952 C9.46512079,4.75854676 8.68020833,4.43515038 7.75678191,4.43515038 C6.8333555,4.43515038 6.04844304,4.75854676 5.40204455,5.40533952 C4.75564605,6.05213228 4.43244681,6.8375235 4.43244681,7.76151316 C4.43244681,8.68550282 4.75564605,9.47089403 5.40204455,10.1176868 C6.04844304,10.7644796 6.8333555,11.0878759 7.75678191,11.0878759 Z M27.7027926,35.481203 C25.5604433,35.481203 23.732059,34.7235315 22.2176396,33.2081884 C20.7032203,31.6928454 19.9460106,29.8633459 19.9460106,27.7196898 C19.9460106,25.5760338 20.7032203,23.7465343 22.2176396,22.2311913 C23.732059,20.7158482 25.5604433,19.9581767 27.7027926,19.9581767 C29.8451418,19.9581767 31.6735262,20.7158482 33.1879455,22.2311913 C34.7023648,23.7465343 35.4595745,25.5760338 35.4595745,27.7196898 C35.4595745,29.8633459 34.7023648,31.6928454 33.1879455,33.2081884 C31.6735262,34.7235315 29.8451418,35.481203 27.7027926,35.481203 Z M27.7027926,31.0460526 C28.626219,31.0460526 29.4111314,30.7226562 30.0575299,30.0758635 C30.7039284,29.4290707 31.0271277,28.6436795 31.0271277,27.7196898 C31.0271277,26.7957002 30.7039284,26.010309 30.0575299,25.3635162 C29.4111314,24.7167234 28.626219,24.3933271 27.7027926,24.3933271 C26.7793661,24.3933271 25.9944537,24.7167234 25.3480552,25.3635162 C24.7016567,26.010309 24.3784574,26.7957002 24.3784574,27.7196898 C24.3784574,28.6436795 24.7016567,29.4290707 25.3480552,30.0758635 C25.9944537,30.7226562 26.7793661,31.0460526 27.7027926,31.0460526 Z M3.10271277,35.481203 L0,32.3765977 L32.3568617,0 L35.4595745,3.10460526 L3.10271277,35.481203 Z" id="Shape"></path>
                                </g>
                            </g>
                        </g>
                    </g>
                </g>
            </g>
        </g>
    </g>
</svg>