<?xml version="1.0" encoding="UTF-8"?>
<svg width="750px" height="500px" viewBox="0 0 750 500" version="1.1" xmlns="http://www.w3.org/2000/svg" xmlns:xlink="http://www.w3.org/1999/xlink">
    <title>icon</title>
    <defs>
        <rect id="path-1" x="31" y="28" width="688" height="437" rx="20"></rect>
        <filter x="-4.4%" y="-6.9%" width="108.7%" height="113.7%" filterUnits="objectBoundingBox" id="filter-2">
            <feOffset dx="0" dy="0" in="SourceAlpha" result="shadowOffsetOuter1"></feOffset>
            <feGaussianBlur stdDeviation="10" in="shadowOffsetOuter1" result="shadowBlurOuter1"></feGaussianBlur>
            <feColorMatrix values="0 0 0 0 0.8   0 0 0 0 0.8   0 0 0 0 0.8  0 0 0 1 0" type="matrix" in="shadowBlurOuter1"></feColorMatrix>
        </filter>
    </defs>
    <g id="Page-1" stroke="none" stroke-width="1" fill="none" fill-rule="evenodd">
        <g id="Icon-Grid" transform="translate(-146, -110)">
            <g id="icon" transform="translate(146, 110)">
                <rect id="Rectangle" x="0" y="0" width="750" height="500"></rect>
                <g id="Rectangle">
                    <use fill="black" fill-opacity="1" filter="url(#filter-2)" xlink:href="#path-1"></use>
                    <use fill="#FFFFFF" fill-rule="evenodd" xlink:href="#path-1"></use>
                </g>
                <path d="M61,48 L355,48 C360.522847,48 365,52.4771525 365,58 L365,435 C365,440.522847 360.522847,445 355,445 L61,445 C55.4771525,445 51,440.522847 51,435 L51,58 C51,52.4771525 55.4771525,48 61,48 Z" id="Rectangle" fill="#FAEBD5"></path>
                <g id="Group-3" transform="translate(86, 294)" fill="#E9AF58">
                    <rect id="Rectangle" x="0" y="0" width="245" height="40" rx="8"></rect>
                    <rect id="Rectangle" x="76" y="50" width="93" height="40" rx="8"></rect>
                </g>
                <circle id="Oval" fill="#975D48" cx="208.5" cy="187.5" r="79.5"></circle>
                <path d="M203,228 L203,191.510896 L172,173 L172,209.489104 L203,228 Z M214,228 L245,209.489104 L245,173 L214,191.510896 L214,228 Z M202.777778,238.55625 L166.222222,217.425 C164.568519,216.4625 163.284722,215.19375 162.370833,213.61875 C161.456944,212.04375 161,210.29375 161,208.36875 L161,166.63125 C161,164.70625 161.456944,162.95625 162.370833,161.38125 C163.284722,159.80625 164.568519,158.5375 166.222222,157.575 L202.777778,136.44375 C204.431481,135.48125 206.172222,135 208,135 C209.827778,135 211.568519,135.48125 213.222222,136.44375 L249.777778,157.575 C251.431481,158.5375 252.715278,159.80625 253.629167,161.38125 C254.543056,162.95625 255,164.70625 255,166.63125 L255,208.36875 C255,210.29375 254.543056,212.04375 253.629167,213.61875 C252.715278,215.19375 251.431481,216.4625 249.777778,217.425 L213.222222,238.55625 C211.568519,239.51875 209.827778,240 208,240 C206.172222,240 204.431481,239.51875 202.777778,238.55625 Z M228.733333,169 L239,163.40884 L207.4,146 L197,151.718232 L228.733333,169 Z M209.6,181 L220,175.313187 L188.4,158 L178,163.686813 L209.6,181 Z" id="Shape" fill="#FFFFFF" fill-rule="nonzero"></path>
                <path d="M395,48 L691,48 C696.522847,48 701,52.4771525 701,58 L701,435 C701,440.522847 696.522847,445 691,445 L395,445 C389.477153,445 385,440.522847 385,435 L385,58 C385,52.4771525 389.477153,48 395,48 Z" id="Rectangle" fill="#C3DFD7"></path>
                <g id="Group-3" transform="translate(420, 294)" fill="#0F8060">
                    <rect id="Rectangle" x="0" y="0" width="245" height="40" rx="8"></rect>
                    <rect id="Rectangle" x="76" y="50" width="93" height="40" rx="8"></rect>
                </g>
                <circle id="Oval" fill="#0F8060" cx="543.5" cy="187.5" r="79.5"></circle>
                <path d="M521.5,183 C516.666667,183 512.541667,181.291667 509.125,177.875 C505.708333,174.458333 504,170.333333 504,165.5 C504,160.666667 505.708333,156.541667 509.125,153.125 C512.541667,149.708333 516.666667,148 521.5,148 C526.333333,148 530.458333,149.708333 533.875,153.125 C537.291667,156.541667 539,160.666667 539,165.5 C539,170.333333 537.291667,174.458333 533.875,177.875 C530.458333,181.291667 526.333333,183 521.5,183 Z M521.5,173 C523.583333,173 525.354167,172.270833 526.8125,170.8125 C528.270833,169.354167 529,167.583333 529,165.5 C529,163.416667 528.270833,161.645833 526.8125,160.1875 C525.354167,158.729167 523.583333,158 521.5,158 C519.416667,158 517.645833,158.729167 516.1875,160.1875 C514.729167,161.645833 514,163.416667 514,165.5 C514,167.583333 514.729167,169.354167 516.1875,170.8125 C517.645833,172.270833 519.416667,173 521.5,173 Z M565.5,227 C560.666667,227 556.541667,225.291667 553.125,221.875 C549.708333,218.458333 548,214.333333 548,209.5 C548,204.666667 549.708333,200.541667 553.125,197.125 C556.541667,193.708333 560.666667,192 565.5,192 C570.333333,192 574.458333,193.708333 577.875,197.125 C581.291667,200.541667 583,204.666667 583,209.5 C583,214.333333 581.291667,218.458333 577.875,221.875 C574.458333,225.291667 570.333333,227 565.5,227 Z M565.5,217 C567.583333,217 569.354167,216.270833 570.8125,214.8125 C572.270833,213.354167 573,211.583333 573,209.5 C573,207.416667 572.270833,205.645833 570.8125,204.1875 C569.354167,202.729167 567.583333,202 565.5,202 C563.416667,202 561.645833,202.729167 560.1875,204.1875 C558.729167,205.645833 558,207.416667 558,209.5 C558,211.583333 558.729167,213.354167 560.1875,214.8125 C561.645833,216.270833 563.416667,217 565.5,217 Z M510.9125,227 L504,220.0875 L576.0875,148 L583,154.9125 L510.9125,227 Z" id="Shape" fill="#FFFFFF" fill-rule="nonzero"></path>
            </g>
        </g>
    </g>
</svg>