<?xml version="1.0" encoding="UTF-8"?>
<svg width="750px" height="500px" viewBox="0 0 750 500" version="1.1" xmlns="http://www.w3.org/2000/svg" xmlns:xlink="http://www.w3.org/1999/xlink">
    <title>icon</title>
    <defs>
        <rect id="path-1" x="31" y="28" width="688" height="437" rx="20"></rect>
        <filter x="-4.4%" y="-6.9%" width="108.7%" height="113.7%" filterUnits="objectBoundingBox" id="filter-2">
            <feOffset dx="0" dy="0" in="SourceAlpha" result="shadowOffsetOuter1"></feOffset>
            <feGaussianBlur stdDeviation="10" in="shadowOffsetOuter1" result="shadowBlurOuter1"></feGaussianBlur>
            <feColorMatrix values="0 0 0 0 0.8   0 0 0 0 0.8   0 0 0 0 0.8  0 0 0 1 0" type="matrix" in="shadowBlurOuter1"></feColorMatrix>
        </filter>
    </defs>
    <g id="Page-1" stroke="none" stroke-width="1" fill="none" fill-rule="evenodd">
        <g id="Image-Price" transform="translate(-146, -110)">
            <g id="icon" transform="translate(146, 110)">
                <rect id="Rectangle" x="0" y="0" width="750" height="500"></rect>
                <g id="Rectangle">
                    <use fill="black" fill-opacity="1" filter="url(#filter-2)" xlink:href="#path-1"></use>
                    <use fill="#FFFFFF" fill-rule="evenodd" xlink:href="#path-1"></use>
                </g>
                <g id="Group-12" transform="translate(51, 48)">
                    <path d="M10,31 L191.666667,31 C197.189514,31 201.666667,35.4771525 201.666667,41 L201.666667,344 C201.666667,349.522847 197.189514,354 191.666667,354 L10,354 C4.4771525,354 6.76353751e-16,349.522847 0,344 L0,41 C-6.76353751e-16,35.4771525 4.4771525,31 10,31 Z" id="Rectangle" fill="#C3DFD7"></path>
                    <path d="M232,0 L413.666667,0 C419.189514,-1.01453063e-15 423.666667,4.4771525 423.666667,10 L423.666667,388 C423.666667,393.522847 419.189514,398 413.666667,398 L232,398 C226.477153,398 222,393.522847 222,388 L222,10 C222,4.4771525 226.477153,1.01453063e-15 232,0 Z" id="Rectangle" fill="#DE6B5A"></path>
                    <path d="M248,341 L398,341 C403.522847,341 408,345.477153 408,351 L408,371 C408,376.522847 403.522847,381 398,381 L248,381 C242.477153,381 238,376.522847 238,371 L238,351 C238,345.477153 242.477153,341 248,341 Z" id="Rectangle" fill="#F9EBD5"></path>
                    <path d="M454,31 L635.666667,31 C641.189514,31 645.666667,35.4771525 645.666667,41 L645.666667,344 C645.666667,349.522847 641.189514,354 635.666667,354 L454,354 C448.477153,354 444,349.522847 444,344 L444,41 C444,35.4771525 448.477153,31 454,31 Z" id="Rectangle" fill="#C3DFD7"></path>
                    <g id="Group-18" transform="translate(253.8425, 27.2158)" fill="#F9EBD5" fill-rule="nonzero">
                        <path d="M1.00936848,64.7717626 L29.2592629,27.3487721 C30.9229936,25.1448072 34.0583804,24.7068608 36.2623453,26.3705914 C36.6321541,26.649753 36.9613644,26.9789633 37.240526,27.3487721 L60.46626,58.116194 C61.4111478,59.3678988 62.8885873,60.1037432 64.4568915,60.1037432 L99.7735961,60.1037432 C102.53502,60.1037432 104.773596,57.8651669 104.773596,55.1037432 C104.773596,54.0145005 104.417902,52.955052 103.760598,52.0864895 L81.8923371,23.1897528 C80.225954,20.9877927 77.0900421,20.5536219 74.8880821,22.2200051 C74.5266794,22.4935047 74.2041411,22.8148727 73.9293294,23.1752787 L65.9426288,33.6495605 C64.2682518,35.8454482 61.1307823,36.2682161 58.9348947,34.593839 C58.5793287,34.3227179 58.2617373,34.0051265 57.9906162,33.6495605 L56.2898839,31.4191089 C54.9300053,29.6356751 54.9240268,27.1649241 56.2752587,25.3749302 L73.9297288,1.98783153 C75.5934595,-0.216133403 78.7288462,-0.654079811 80.9328112,1.00965085 C81.30262,1.2888124 81.6318303,1.61802271 81.9109918,1.98783153 L129.305372,64.7717626 C130.969102,66.9757276 130.531156,70.1111143 128.327191,71.774845 C127.459482,72.4298617 126.401923,72.7842135 125.31474,72.7842135 L5,72.7842135 C2.23857625,72.7842135 -3.01980663e-14,70.5456372 -3.01980663e-14,67.7842135 C-3.01980663e-14,66.697031 0.354351743,65.6394716 1.00936848,64.7717626 Z M30.1678562,60.7377667 L35.6420414,60.7377667 C38.4034652,60.7377667 40.6420414,58.4991905 40.6420414,55.7377667 C40.6420414,54.6681902 40.2990594,53.6268007 39.6634718,52.7665552 L36.9263792,49.0619965 C35.2854244,46.8410219 32.1547119,46.3708229 29.9337373,48.0117777 C29.5333325,48.3076145 29.1793552,48.6615918 28.8835184,49.0619965 L26.1464258,52.7665552 C24.505471,54.9875299 24.97567,58.1182423 27.1966447,59.7591971 C28.0568901,60.3947847 29.0982797,60.7377667 30.1678562,60.7377667 Z M20.2569404,59.7867314 L45.5529571,59.7867314 L20.2569404,59.7867314 Z" id="Shape"></path>
                    </g>
                </g>
            </g>
        </g>
    </g>
</svg>