<?xml version="1.0" encoding="UTF-8"?>
<svg width="750px" height="500px" viewBox="0 0 750 500" version="1.1" xmlns="http://www.w3.org/2000/svg" xmlns:xlink="http://www.w3.org/1999/xlink">
    <title>icon</title>
    <defs>
        <rect id="path-1" x="31" y="28" width="688" height="437" rx="20"></rect>
        <filter x="-4.4%" y="-6.9%" width="108.7%" height="113.7%" filterUnits="objectBoundingBox" id="filter-2">
            <feOffset dx="0" dy="0" in="SourceAlpha" result="shadowOffsetOuter1"></feOffset>
            <feGaussianBlur stdDeviation="10" in="shadowOffsetOuter1" result="shadowBlurOuter1"></feGaussianBlur>
            <feColorMatrix values="0 0 0 0 0.8   0 0 0 0 0.8   0 0 0 0 0.8  0 0 0 1 0" type="matrix" in="shadowBlurOuter1"></feColorMatrix>
        </filter>
    </defs>
    <g id="Page-1" stroke="none" stroke-width="1" fill="none" fill-rule="evenodd">
        <g id="Link-Grid" transform="translate(-146, -110)">
            <g id="icon" transform="translate(146, 110)">
                <rect id="Rectangle" x="0" y="0" width="750" height="500"></rect>
                <g id="Rectangle">
                    <use fill="black" fill-opacity="1" filter="url(#filter-2)" xlink:href="#path-1"></use>
                    <use fill="#FFFFFF" fill-rule="evenodd" xlink:href="#path-1"></use>
                </g>
                <path d="M65,48 L686,48 C691.522847,48 696,52.4771525 696,58 L696,435 C696,440.522847 691.522847,445 686,445 L65,445 C59.4771525,445 55,440.522847 55,435 L55,58 C55,52.4771525 59.4771525,48 65,48 Z" id="Rectangle" fill="#FAEBD5"></path>
                <g id="Group-28" transform="translate(76, 87)">
                    <g id="Group-22" transform="translate(0, 141)">
                        <g id="Group-21">
                            <path d="M10,0 L279,0 C284.522847,-1.01453063e-15 289,4.4771525 289,10 L289,69 C289,74.5228475 284.522847,79 279,79 L10,79 C4.4771525,79 6.76353751e-16,74.5228475 0,69 L0,10 C-6.76353751e-16,4.4771525 4.4771525,1.01453063e-15 10,0 Z" id="Rectangle" fill="#CCE5E8"></path>
                            <rect id="Rectangle" fill="#3B8B96" x="111.563107" y="19" width="130.938511" height="40" rx="8"></rect>
                            <path d="M69.1843972,57.0300752 L69.1843972,41.3370169 L55.5460993,33.3759398 L55.5460993,49.0689982 L69.1843972,57.0300752 Z M73.7304965,57.0300752 L87.3687943,49.0689982 L87.3687943,33.3759398 L73.7304965,41.3370169 L73.7304965,57.0300752 Z M69.1843972,61.8632519 L53.2730496,52.7086466 C52.5532506,52.2916667 51.9944592,51.7420113 51.5966755,51.0596805 C51.1988918,50.3773496 51,49.6192043 51,48.7852444 L51,30.7034774 C51,29.8695175 51.1988918,29.1113722 51.5966755,28.4290414 C51.9944592,27.7467105 52.5532506,27.1970551 53.2730496,26.7800752 L69.1843972,17.6254699 C69.9041962,17.20849 70.6618794,17 71.4574468,17 C72.2530142,17 73.0106974,17.20849 73.7304965,17.6254699 L89.641844,26.7800752 C90.361643,27.1970551 90.9204344,27.7467105 91.3182181,28.4290414 C91.7160018,29.1113722 91.9148936,29.8695175 91.9148936,30.7034774 L91.9148936,48.7852444 C91.9148936,49.6192043 91.7160018,50.3773496 91.3182181,51.0596805 C90.9204344,51.7420113 90.361643,52.2916667 89.641844,52.7086466 L73.7304965,61.8632519 C73.0106974,62.2802318 72.2530142,62.4887218 71.4574468,62.4887218 C70.6618794,62.4887218 69.9041962,62.2802318 69.1843972,61.8632519 Z M80.1960599,31.556391 L84.6411348,29.123624 L70.9595407,21.5488722 L66.4567376,24.0369293 L80.1960599,31.556391 Z M71.9553529,37.0150376 L76.458156,34.5406511 L62.776562,27.0075188 L58.2737589,29.4819053 L71.9553529,37.0150376 Z" id="Shape" fill="#3B8B96" fill-rule="nonzero"></path>
                        </g>
                        <g id="Group-21" transform="translate(309, 0)">
                            <path d="M10,0 L279,0 C284.522847,-1.01453063e-15 289,4.4771525 289,10 L289,69 C289,74.5228475 284.522847,79 279,79 L10,79 C4.4771525,79 6.76353751e-16,74.5228475 0,69 L0,10 C-6.76353751e-16,4.4771525 4.4771525,1.01453063e-15 10,0 Z" id="Rectangle" fill="#CCE5E8"></path>
                            <rect id="Rectangle" fill="#3B8B96" x="111.563107" y="19" width="130.938511" height="40" rx="8"></rect>
                            <path d="M69.1843972,57.0300752 L69.1843972,41.3370169 L55.5460993,33.3759398 L55.5460993,49.0689982 L69.1843972,57.0300752 Z M73.7304965,57.0300752 L87.3687943,49.0689982 L87.3687943,33.3759398 L73.7304965,41.3370169 L73.7304965,57.0300752 Z M69.1843972,61.8632519 L53.2730496,52.7086466 C52.5532506,52.2916667 51.9944592,51.7420113 51.5966755,51.0596805 C51.1988918,50.3773496 51,49.6192043 51,48.7852444 L51,30.7034774 C51,29.8695175 51.1988918,29.1113722 51.5966755,28.4290414 C51.9944592,27.7467105 52.5532506,27.1970551 53.2730496,26.7800752 L69.1843972,17.6254699 C69.9041962,17.20849 70.6618794,17 71.4574468,17 C72.2530142,17 73.0106974,17.20849 73.7304965,17.6254699 L89.641844,26.7800752 C90.361643,27.1970551 90.9204344,27.7467105 91.3182181,28.4290414 C91.7160018,29.1113722 91.9148936,29.8695175 91.9148936,30.7034774 L91.9148936,48.7852444 C91.9148936,49.6192043 91.7160018,50.3773496 91.3182181,51.0596805 C90.9204344,51.7420113 90.361643,52.2916667 89.641844,52.7086466 L73.7304965,61.8632519 C73.0106974,62.2802318 72.2530142,62.4887218 71.4574468,62.4887218 C70.6618794,62.4887218 69.9041962,62.2802318 69.1843972,61.8632519 Z M80.1960599,31.556391 L84.6411348,29.123624 L70.9595407,21.5488722 L66.4567376,24.0369293 L80.1960599,31.556391 Z M71.9553529,37.0150376 L76.458156,34.5406511 L62.776562,27.0075188 L58.2737589,29.4819053 L71.9553529,37.0150376 Z" id="Shape" fill="#3B8B96" fill-rule="nonzero"></path>
                        </g>
                        <g id="Group-21" transform="translate(0, 99)">
                            <path d="M10,0 L279,0 C284.522847,-1.01453063e-15 289,4.4771525 289,10 L289,69 C289,74.5228475 284.522847,79 279,79 L10,79 C4.4771525,79 6.76353751e-16,74.5228475 0,69 L0,10 C-6.76353751e-16,4.4771525 4.4771525,1.01453063e-15 10,0 Z" id="Rectangle" fill="#CCE5E8"></path>
                            <rect id="Rectangle" fill="#3B8B96" x="111.563107" y="19" width="130.938511" height="40" rx="8"></rect>
                            <path d="M69.1843972,57.0300752 L69.1843972,41.3370169 L55.5460993,33.3759398 L55.5460993,49.0689982 L69.1843972,57.0300752 Z M73.7304965,57.0300752 L87.3687943,49.0689982 L87.3687943,33.3759398 L73.7304965,41.3370169 L73.7304965,57.0300752 Z M69.1843972,61.8632519 L53.2730496,52.7086466 C52.5532506,52.2916667 51.9944592,51.7420113 51.5966755,51.0596805 C51.1988918,50.3773496 51,49.6192043 51,48.7852444 L51,30.7034774 C51,29.8695175 51.1988918,29.1113722 51.5966755,28.4290414 C51.9944592,27.7467105 52.5532506,27.1970551 53.2730496,26.7800752 L69.1843972,17.6254699 C69.9041962,17.20849 70.6618794,17 71.4574468,17 C72.2530142,17 73.0106974,17.20849 73.7304965,17.6254699 L89.641844,26.7800752 C90.361643,27.1970551 90.9204344,27.7467105 91.3182181,28.4290414 C91.7160018,29.1113722 91.9148936,29.8695175 91.9148936,30.7034774 L91.9148936,48.7852444 C91.9148936,49.6192043 91.7160018,50.3773496 91.3182181,51.0596805 C90.9204344,51.7420113 90.361643,52.2916667 89.641844,52.7086466 L73.7304965,61.8632519 C73.0106974,62.2802318 72.2530142,62.4887218 71.4574468,62.4887218 C70.6618794,62.4887218 69.9041962,62.2802318 69.1843972,61.8632519 Z M80.1960599,31.556391 L84.6411348,29.123624 L70.9595407,21.5488722 L66.4567376,24.0369293 L80.1960599,31.556391 Z M71.9553529,37.0150376 L76.458156,34.5406511 L62.776562,27.0075188 L58.2737589,29.4819053 L71.9553529,37.0150376 Z" id="Shape" fill="#3B8B96" fill-rule="nonzero"></path>
                        </g>
                        <g id="Group-21" transform="translate(309, 99)">
                            <path d="M10,0 L279,0 C284.522847,-1.01453063e-15 289,4.4771525 289,10 L289,69 C289,74.5228475 284.522847,79 279,79 L10,79 C4.4771525,79 6.76353751e-16,74.5228475 0,69 L0,10 C-6.76353751e-16,4.4771525 4.4771525,1.01453063e-15 10,0 Z" id="Rectangle" fill="#CCE5E8"></path>
                            <rect id="Rectangle" fill="#3B8B96" x="111.563107" y="19" width="130.938511" height="40" rx="8"></rect>
                            <path d="M69.1843972,57.0300752 L69.1843972,41.3370169 L55.5460993,33.3759398 L55.5460993,49.0689982 L69.1843972,57.0300752 Z M73.7304965,57.0300752 L87.3687943,49.0689982 L87.3687943,33.3759398 L73.7304965,41.3370169 L73.7304965,57.0300752 Z M69.1843972,61.8632519 L53.2730496,52.7086466 C52.5532506,52.2916667 51.9944592,51.7420113 51.5966755,51.0596805 C51.1988918,50.3773496 51,49.6192043 51,48.7852444 L51,30.7034774 C51,29.8695175 51.1988918,29.1113722 51.5966755,28.4290414 C51.9944592,27.7467105 52.5532506,27.1970551 53.2730496,26.7800752 L69.1843972,17.6254699 C69.9041962,17.20849 70.6618794,17 71.4574468,17 C72.2530142,17 73.0106974,17.20849 73.7304965,17.6254699 L89.641844,26.7800752 C90.361643,27.1970551 90.9204344,27.7467105 91.3182181,28.4290414 C91.7160018,29.1113722 91.9148936,29.8695175 91.9148936,30.7034774 L91.9148936,48.7852444 C91.9148936,49.6192043 91.7160018,50.3773496 91.3182181,51.0596805 C90.9204344,51.7420113 90.361643,52.2916667 89.641844,52.7086466 L73.7304965,61.8632519 C73.0106974,62.2802318 72.2530142,62.4887218 71.4574468,62.4887218 C70.6618794,62.4887218 69.9041962,62.2802318 69.1843972,61.8632519 Z M80.1960599,31.556391 L84.6411348,29.123624 L70.9595407,21.5488722 L66.4567376,24.0369293 L80.1960599,31.556391 Z M71.9553529,37.0150376 L76.458156,34.5406511 L62.776562,27.0075188 L58.2737589,29.4819053 L71.9553529,37.0150376 Z" id="Shape" fill="#3B8B96" fill-rule="nonzero"></path>
                        </g>
                    </g>
                    <g id="text" transform="translate(160, 0)">
                        <rect id="Rectangle" fill="#975D48" x="0" y="0" width="279" height="60" rx="8"></rect>
                        <rect id="Rectangle" fill="#E9AF58" x="70" y="80" width="140" height="40" rx="8"></rect>
                    </g>
                </g>
            </g>
        </g>
    </g>
</svg>