<?xml version="1.0" encoding="UTF-8"?>
<svg width="750px" height="500px" viewBox="0 0 750 500" version="1.1" xmlns="http://www.w3.org/2000/svg" xmlns:xlink="http://www.w3.org/1999/xlink">
    <title>icon</title>
    <defs>
        <rect id="path-1" x="31" y="28" width="688" height="437" rx="20"></rect>
        <filter x="-4.4%" y="-6.9%" width="108.7%" height="113.7%" filterUnits="objectBoundingBox" id="filter-2">
            <feOffset dx="0" dy="0" in="SourceAlpha" result="shadowOffsetOuter1"></feOffset>
            <feGaussianBlur stdDeviation="10" in="shadowOffsetOuter1" result="shadowBlurOuter1"></feGaussianBlur>
            <feColorMatrix values="0 0 0 0 0.8   0 0 0 0 0.8   0 0 0 0 0.8  0 0 0 1 0" type="matrix" in="shadowBlurOuter1"></feColorMatrix>
        </filter>
    </defs>
    <g id="Page-1" stroke="none" stroke-width="1" fill="none" fill-rule="evenodd">
        <g id="Media-Grid" transform="translate(-146, -110)">
            <g id="icon" transform="translate(146, 110)">
                <rect id="Rectangle" x="0" y="0" width="750" height="500"></rect>
                <g id="Rectangle">
                    <use fill="black" fill-opacity="1" filter="url(#filter-2)" xlink:href="#path-1"></use>
                    <use fill="#FFFFFF" fill-rule="evenodd" xlink:href="#path-1"></use>
                </g>
                <path d="M61,48 L355,48 C360.522847,48 365,52.4771525 365,58 L365,435 C365,440.522847 360.522847,445 355,445 L61,445 C55.4771525,445 51,440.522847 51,435 L51,58 C51,52.4771525 55.4771525,48 61,48 Z" id="Rectangle" fill="#CCE5E8"></path>
                <path d="M395,48 L691,48 C696.522847,48 701,52.4771525 701,58 L701,435 C701,440.522847 696.522847,445 691,445 L395,445 C389.477153,445 385,440.522847 385,435 L385,58 C385,52.4771525 389.477153,48 395,48 Z" id="Rectangle" fill="#C3DFD7"></path>
                <path d="M437.013086,296.697545 L487.503936,229.982909 C489.170383,227.780997 492.306307,227.346917 494.508219,229.013364 C494.87439,229.290489 495.200639,229.616737 495.477764,229.982909 L535.39945,282.732283 C536.344571,283.981093 537.820228,284.714914 539.386364,284.714914 L602.511942,284.714914 C605.273366,284.714914 607.511942,282.476338 607.511942,279.714914 C607.511942,278.62356 607.15487,277.562176 606.495218,276.692743 L566.095478,223.445159 C564.42638,221.245257 561.289934,220.814955 559.090032,222.484054 C558.732262,222.7555 558.412693,223.073908 558.139948,223.430688 L540.872196,246.018775 C539.195105,248.212591 536.057115,248.631479 533.863299,246.954389 C533.511358,246.685342 533.196732,246.370717 532.927686,246.018775 L526.596075,237.736344 C525.23121,235.950953 525.225213,233.474314 526.581416,231.682334 L558.140299,189.982909 C559.806746,187.780997 562.942671,187.346917 565.144582,189.013364 C565.510754,189.290489 565.837002,189.616737 566.114128,189.982909 L646.877705,296.697545 C648.544151,298.899457 648.110071,302.035381 645.90816,303.701828 C645.039577,304.359187 643.980083,304.714914 642.89079,304.714914 L441,304.714914 C438.238576,304.714914 436,302.476338 436,299.714914 C436,298.625622 436.355727,297.566128 437.013086,296.697545 Z M480.871431,285.714914 L501.019359,285.714914 C503.780783,285.714914 506.019359,283.476338 506.019359,280.714914 C506.019359,279.643242 505.675034,278.599926 505.037145,277.738776 L494.963181,264.138925 C493.319506,261.919963 490.188219,261.453601 487.969257,263.097277 C487.572516,263.391159 487.221492,263.742184 486.927609,264.138925 L476.853645,277.738776 C475.20997,279.957738 475.676332,283.089025 477.895294,284.7327 C478.756443,285.370589 479.79976,285.714914 480.871431,285.714914 Z M470.945395,284.214914 L510.945395,284.214914 L470.945395,284.214914 Z" id="Shape" fill="#0F8060" fill-rule="nonzero"></path>
                <g id="arrows" transform="translate(131, 167)">
                    <circle id="Oval" fill="#3B8B96" cx="79.5" cy="79.5" r="79.5"></circle>
                    <path d="M85.3403546,75.968147 L67.5245102,58.1151863 C65.5767916,56.1634099 65.5767916,53.0032568 67.5245102,51.0514804 L68.0283566,50.5465844 C69.9789451,48.5919321 73.1447683,48.5886378 75.0994205,50.5392263 C75.1018758,50.5416765 75.1043285,50.5441291 75.1067786,50.5465844 L100.47549,75.968147 C102.423208,77.9199234 102.423208,81.0800766 100.47549,83.031853 L75.1067786,108.453416 C73.15619,110.408068 69.9903669,110.411362 68.0357146,108.460774 C68.0332594,108.458324 68.0308067,108.455871 68.0283566,108.453416 L67.5245102,107.94852 C65.5767916,105.996743 65.5767916,102.83659 67.5245102,100.884814 L85.3403546,83.031853 C87.2880733,81.0800766 87.2880733,77.9199234 85.3403546,75.968147 Z" id="Path" fill="#FFFFFF" fill-rule="nonzero"></path>
                </g>
            </g>
        </g>
    </g>
</svg>