<?xml version="1.0" encoding="UTF-8"?>
<svg width="750px" height="500px" viewBox="0 0 750 500" version="1.1" xmlns="http://www.w3.org/2000/svg" xmlns:xlink="http://www.w3.org/1999/xlink">
    <title>icon</title>
    <defs>
        <rect id="path-1" x="31" y="28" width="688" height="437" rx="20"></rect>
        <filter x="-4.4%" y="-6.9%" width="108.7%" height="113.7%" filterUnits="objectBoundingBox" id="filter-2">
            <feOffset dx="0" dy="0" in="SourceAlpha" result="shadowOffsetOuter1"></feOffset>
            <feGaussianBlur stdDeviation="10" in="shadowOffsetOuter1" result="shadowBlurOuter1"></feGaussianBlur>
            <feColorMatrix values="0 0 0 0 0.8   0 0 0 0 0.8   0 0 0 0 0.8  0 0 0 1 0" type="matrix" in="shadowBlurOuter1"></feColorMatrix>
        </filter>
    </defs>
    <g id="Page-1" stroke="none" stroke-width="1" fill="none" fill-rule="evenodd">
        <g id="Masonry" transform="translate(-146, -110)">
            <g id="icon" transform="translate(146, 110)">
                <rect id="Rectangle" x="0" y="0" width="750" height="500"></rect>
                <g id="Rectangle">
                    <use fill="black" fill-opacity="1" filter="url(#filter-2)" xlink:href="#path-1"></use>
                    <use fill="#FFFFFF" fill-rule="evenodd" xlink:href="#path-1"></use>
                </g>
                <g id="Group-12" transform="translate(51, 48)">
                    <path d="M10,0 L304,0 C309.522847,-1.01453063e-15 314,4.4771525 314,10 L314,388 C314,393.522847 309.522847,398 304,398 L10,398 C4.4771525,398 6.76353751e-16,393.522847 0,388 L0,10 C-6.76353751e-16,4.4771525 4.4771525,1.01453063e-15 10,0 Z" id="Rectangle" fill="#C3DFD7"></path>
                    <g id="Group-18" transform="translate(54, 113)" fill="#975D48">
                        <path d="M1.01308592,108.697545 L51.5039357,41.9829086 C53.1703826,39.7809968 56.306307,39.3469167 58.5082188,41.0133636 C58.8743902,41.2904888 59.2006387,41.6167373 59.4777639,41.9829086 L99.3994496,94.7322831 C100.344571,95.9810927 101.820228,96.7149141 103.386364,96.7149141 L166.511942,96.7149141 C169.273366,96.7149141 171.511942,94.4763378 171.511942,91.7149141 C171.511942,90.6235599 171.15487,89.5621761 170.495218,88.6927433 L130.095478,35.4451589 C128.42638,33.2452566 125.289934,32.8149553 123.090032,34.4840541 C122.732262,34.7554996 122.412693,35.0739082 122.139948,35.4306884 L104.872196,58.0187751 C103.195105,60.2125909 100.057115,60.6314795 97.8632995,58.9543888 C97.5113576,58.6853424 97.1967321,58.3707169 96.9276857,58.0187751 L90.5960752,49.7363441 C89.2312098,47.9509525 89.2252129,45.4743142 90.5814162,43.6823338 L122.140299,1.98290865 C123.806746,-0.219003199 126.942671,-0.653083289 129.144582,1.01336363 C129.510754,1.29048877 129.837002,1.6167373 130.114128,1.98290865 L210.877705,108.697545 C212.544151,110.899457 212.110071,114.035381 209.90816,115.701828 C209.039577,116.359187 207.980083,116.714914 206.89079,116.714914 L5,116.714914 C2.23857625,116.714914 1.26121336e-13,114.476338 1.26121336e-13,111.714914 C1.26121336e-13,110.625622 0.355726577,109.566128 1.01308592,108.697545 Z M44.8714314,97.7149141 L65.0193591,97.7149141 C67.7807828,97.7149141 70.0193591,95.4763378 70.0193591,92.7149141 C70.0193591,91.6432423 69.6750336,90.5999259 69.037145,89.7387763 L58.9631812,76.1389251 C57.3195057,73.9199632 54.1882194,73.4536014 51.9692575,75.0972769 C51.5725164,75.3911592 51.2214915,75.7421841 50.9276093,76.1389251 L40.8536454,89.7387763 C39.2099699,91.9577382 39.6763317,95.0890245 41.8952936,96.7327 C42.7564432,97.3705886 43.7997596,97.7149141 44.8714314,97.7149141 Z M34.9453952,96.2149141 L74.9453952,96.2149141 L34.9453952,96.2149141 Z" id="Shape" fill-rule="nonzero"></path>
                        <g id="stars" transform="translate(0, 133)">
                            <path d="M18.1039766,29.9839329 L13.418604,32.4471791 C11.9520703,33.2181815 10.1381888,32.6543419 9.36718639,31.1878082 C9.06016918,30.6038267 8.95422516,29.9349225 9.06575569,29.2846496 L9.96058222,24.0674106 C10.127496,23.0942284 9.80485058,22.1012278 9.09779233,21.4120163 L5.30724629,17.7171471 C4.12079555,16.5606435 4.09651863,14.6613037 5.25302227,13.4748529 C5.71354808,13.002402 6.31697531,12.6949405 6.96988641,12.600067 L12.2082922,11.8388821 C13.1854227,11.6968967 14.0301194,11.0831886 14.4671055,10.1977581 L16.8097918,5.45095725 C17.5430586,3.96519627 19.3419362,3.35517928 20.8276971,4.08844616 C21.4193349,4.38043687 21.8982175,4.85931944 22.1902082,5.45095725 L24.5328945,10.1977581 C24.9698806,11.0831886 25.8145773,11.6968967 26.7917078,11.8388821 L32.0301136,12.600067 C33.6697482,12.8383198 34.8057925,14.3606484 34.5675397,16.000283 C34.4726662,16.6531941 34.1652046,17.2566213 33.6927537,17.7171471 L29.9022077,21.4120163 C29.1951494,22.1012278 28.872504,23.0942284 29.0394178,24.0674106 L29.9342443,29.2846496 C30.2143273,30.917659 29.1175639,32.4685267 27.4845545,32.7486098 C26.8342816,32.8601403 26.1653774,32.7541963 25.581396,32.4471791 L20.8960234,29.9839329 C20.0220513,29.5244586 18.9779487,29.5244586 18.1039766,29.9839329 Z" id="Star"></path>
                            <path d="M61.1039766,29.9839329 L56.418604,32.4471791 C54.9520703,33.2181815 53.1381888,32.6543419 52.3671864,31.1878082 C52.0601692,30.6038267 51.9542252,29.9349225 52.0657557,29.2846496 L52.9605822,24.0674106 C53.127496,23.0942284 52.8048506,22.1012278 52.0977923,21.4120163 L48.3072463,17.7171471 C47.1207956,16.5606435 47.0965186,14.6613037 48.2530223,13.4748529 C48.7135481,13.002402 49.3169753,12.6949405 49.9698864,12.600067 L55.2082922,11.8388821 C56.1854227,11.6968967 57.0301194,11.0831886 57.4671055,10.1977581 L59.8097918,5.45095725 C60.5430586,3.96519627 62.3419362,3.35517928 63.8276971,4.08844616 C64.4193349,4.38043687 64.8982175,4.85931944 65.1902082,5.45095725 L67.5328945,10.1977581 C67.9698806,11.0831886 68.8145773,11.6968967 69.7917078,11.8388821 L75.0301136,12.600067 C76.6697482,12.8383198 77.8057925,14.3606484 77.5675397,16.000283 C77.4726662,16.6531941 77.1652046,17.2566213 76.6927537,17.7171471 L72.9022077,21.4120163 C72.1951494,22.1012278 71.872504,23.0942284 72.0394178,24.0674106 L72.9342443,29.2846496 C73.2143273,30.917659 72.1175639,32.4685267 70.4845545,32.7486098 C69.8342816,32.8601403 69.1653774,32.7541963 68.581396,32.4471791 L63.8960234,29.9839329 C63.0220513,29.5244586 61.9779487,29.5244586 61.1039766,29.9839329 Z" id="Star"></path>
                            <path d="M105.103977,29.9839329 L100.418604,32.4471791 C98.9520703,33.2181815 97.1381888,32.6543419 96.3671864,31.1878082 C96.0601692,30.6038267 95.9542252,29.9349225 96.0657557,29.2846496 L96.9605822,24.0674106 C97.127496,23.0942284 96.8048506,22.1012278 96.0977923,21.4120163 L92.3072463,17.7171471 C91.1207956,16.5606435 91.0965186,14.6613037 92.2530223,13.4748529 C92.7135481,13.002402 93.3169753,12.6949405 93.9698864,12.600067 L99.2082922,11.8388821 C100.185423,11.6968967 101.030119,11.0831886 101.467105,10.1977581 L103.809792,5.45095725 C104.543059,3.96519627 106.341936,3.35517928 107.827697,4.08844616 C108.419335,4.38043687 108.898218,4.85931944 109.190208,5.45095725 L111.532895,10.1977581 C111.969881,11.0831886 112.814577,11.6968967 113.791708,11.8388821 L119.030114,12.600067 C120.669748,12.8383198 121.805793,14.3606484 121.56754,16.000283 C121.472666,16.6531941 121.165205,17.2566213 120.692754,17.7171471 L116.902208,21.4120163 C116.195149,22.1012278 115.872504,23.0942284 116.039418,24.0674106 L116.934244,29.2846496 C117.214327,30.917659 116.117564,32.4685267 114.484555,32.7486098 C113.834282,32.8601403 113.165377,32.7541963 112.581396,32.4471791 L107.896023,29.9839329 C107.022051,29.5244586 105.977949,29.5244586 105.103977,29.9839329 Z" id="Star"></path>
                            <path d="M148.103977,29.9839329 L143.418604,32.4471791 C141.95207,33.2181815 140.138189,32.6543419 139.367186,31.1878082 C139.060169,30.6038267 138.954225,29.9349225 139.065756,29.2846496 L139.960582,24.0674106 C140.127496,23.0942284 139.804851,22.1012278 139.097792,21.4120163 L135.307246,17.7171471 C134.120796,16.5606435 134.096519,14.6613037 135.253022,13.4748529 C135.713548,13.002402 136.316975,12.6949405 136.969886,12.600067 L142.208292,11.8388821 C143.185423,11.6968967 144.030119,11.0831886 144.467105,10.1977581 L146.809792,5.45095725 C147.543059,3.96519627 149.341936,3.35517928 150.827697,4.08844616 C151.419335,4.38043687 151.898218,4.85931944 152.190208,5.45095725 L154.532895,10.1977581 C154.969881,11.0831886 155.814577,11.6968967 156.791708,11.8388821 L162.030114,12.600067 C163.669748,12.8383198 164.805793,14.3606484 164.56754,16.000283 C164.472666,16.6531941 164.165205,17.2566213 163.692754,17.7171471 L159.902208,21.4120163 C159.195149,22.1012278 158.872504,23.0942284 159.039418,24.0674106 L159.934244,29.2846496 C160.214327,30.917659 159.117564,32.4685267 157.484555,32.7486098 C156.834282,32.8601403 156.165377,32.7541963 155.581396,32.4471791 L150.896023,29.9839329 C150.022051,29.5244586 148.977949,29.5244586 148.103977,29.9839329 Z" id="Star"></path>
                            <path d="M191.103977,29.9839329 L186.418604,32.4471791 C184.95207,33.2181815 183.138189,32.6543419 182.367186,31.1878082 C182.060169,30.6038267 181.954225,29.9349225 182.065756,29.2846496 L182.960582,24.0674106 C183.127496,23.0942284 182.804851,22.1012278 182.097792,21.4120163 L178.307246,17.7171471 C177.120796,16.5606435 177.096519,14.6613037 178.253022,13.4748529 C178.713548,13.002402 179.316975,12.6949405 179.969886,12.600067 L185.208292,11.8388821 C186.185423,11.6968967 187.030119,11.0831886 187.467105,10.1977581 L189.809792,5.45095725 C190.543059,3.96519627 192.341936,3.35517928 193.827697,4.08844616 C194.419335,4.38043687 194.898218,4.85931944 195.190208,5.45095725 L197.532895,10.1977581 C197.969881,11.0831886 198.814577,11.6968967 199.791708,11.8388821 L205.030114,12.600067 C206.669748,12.8383198 207.805793,14.3606484 207.56754,16.000283 C207.472666,16.6531941 207.165205,17.2566213 206.692754,17.7171471 L202.902208,21.4120163 C202.195149,22.1012278 201.872504,23.0942284 202.039418,24.0674106 L202.934244,29.2846496 C203.214327,30.917659 202.117564,32.4685267 200.484555,32.7486098 C199.834282,32.8601403 199.165377,32.7541963 198.581396,32.4471791 L193.896023,29.9839329 C193.022051,29.5244586 191.977949,29.5244586 191.103977,29.9839329 Z" id="Star"></path>
                        </g>
                    </g>
                </g>
                <g id="Group-12" transform="translate(385, 48)">
                    <path d="M10,0 L304,0 C309.522847,-1.01453063e-15 314,4.4771525 314,10 L314,388 C314,393.522847 309.522847,398 304,398 L10,398 C4.4771525,398 6.76353751e-16,393.522847 0,388 L0,10 C-6.76353751e-16,4.4771525 4.4771525,1.01453063e-15 10,0 Z" id="Rectangle" fill="#975D48"></path>
                    <g id="Group-17" transform="translate(54, 110)" fill="#C3DFD7">
                        <path d="M1.01308592,108.697545 L51.5039357,41.9829086 C53.1703826,39.7809968 56.306307,39.3469167 58.5082188,41.0133636 C58.8743902,41.2904888 59.2006387,41.6167373 59.4777639,41.9829086 L99.3994496,94.7322831 C100.344571,95.9810927 101.820228,96.7149141 103.386364,96.7149141 L166.511942,96.7149141 C169.273366,96.7149141 171.511942,94.4763378 171.511942,91.7149141 C171.511942,90.6235599 171.15487,89.5621761 170.495218,88.6927433 L130.095478,35.4451589 C128.42638,33.2452566 125.289934,32.8149553 123.090032,34.4840541 C122.732262,34.7554996 122.412693,35.0739082 122.139948,35.4306884 L104.872196,58.0187751 C103.195105,60.2125909 100.057115,60.6314795 97.8632995,58.9543888 C97.5113576,58.6853424 97.1967321,58.3707169 96.9276857,58.0187751 L90.5960752,49.7363441 C89.2312098,47.9509525 89.2252129,45.4743142 90.5814162,43.6823338 L122.140299,1.98290865 C123.806746,-0.219003199 126.942671,-0.653083289 129.144582,1.01336363 C129.510754,1.29048877 129.837002,1.6167373 130.114128,1.98290865 L210.877705,108.697545 C212.544151,110.899457 212.110071,114.035381 209.90816,115.701828 C209.039577,116.359187 207.980083,116.714914 206.89079,116.714914 L5,116.714914 C2.23857625,116.714914 1.24344979e-14,114.476338 1.24344979e-14,111.714914 C1.24344979e-14,110.625622 0.355726577,109.566128 1.01308592,108.697545 Z M44.8714314,97.7149141 L65.0193591,97.7149141 C67.7807828,97.7149141 70.0193591,95.4763378 70.0193591,92.7149141 C70.0193591,91.6432423 69.6750336,90.5999259 69.037145,89.7387763 L58.9631812,76.1389251 C57.3195057,73.9199632 54.1882194,73.4536014 51.9692575,75.0972769 C51.5725164,75.3911592 51.2214915,75.7421841 50.9276093,76.1389251 L40.8536454,89.7387763 C39.2099699,91.9577382 39.6763317,95.0890245 41.8952936,96.7327 C42.7564432,97.3705886 43.7997596,97.7149141 44.8714314,97.7149141 Z M34.9453952,96.2149141 L74.9453952,96.2149141 L34.9453952,96.2149141 Z" id="Shape" fill-rule="nonzero"></path>
                        <g id="stars" transform="translate(1, 140)">
                            <path d="M18.1039766,29.9839329 L13.418604,32.4471791 C11.9520703,33.2181815 10.1381888,32.6543419 9.36718639,31.1878082 C9.06016918,30.6038267 8.95422516,29.9349225 9.06575569,29.2846496 L9.96058222,24.0674106 C10.127496,23.0942284 9.80485058,22.1012278 9.09779233,21.4120163 L5.30724629,17.7171471 C4.12079555,16.5606435 4.09651863,14.6613037 5.25302227,13.4748529 C5.71354808,13.002402 6.31697531,12.6949405 6.96988641,12.600067 L12.2082922,11.8388821 C13.1854227,11.6968967 14.0301194,11.0831886 14.4671055,10.1977581 L16.8097918,5.45095725 C17.5430586,3.96519627 19.3419362,3.35517928 20.8276971,4.08844616 C21.4193349,4.38043687 21.8982175,4.85931944 22.1902082,5.45095725 L24.5328945,10.1977581 C24.9698806,11.0831886 25.8145773,11.6968967 26.7917078,11.8388821 L32.0301136,12.600067 C33.6697482,12.8383198 34.8057925,14.3606484 34.5675397,16.000283 C34.4726662,16.6531941 34.1652046,17.2566213 33.6927537,17.7171471 L29.9022077,21.4120163 C29.1951494,22.1012278 28.872504,23.0942284 29.0394178,24.0674106 L29.9342443,29.2846496 C30.2143273,30.917659 29.1175639,32.4685267 27.4845545,32.7486098 C26.8342816,32.8601403 26.1653774,32.7541963 25.581396,32.4471791 L20.8960234,29.9839329 C20.0220513,29.5244586 18.9779487,29.5244586 18.1039766,29.9839329 Z" id="Star"></path>
                            <path d="M61.1039766,29.9839329 L56.418604,32.4471791 C54.9520703,33.2181815 53.1381888,32.6543419 52.3671864,31.1878082 C52.0601692,30.6038267 51.9542252,29.9349225 52.0657557,29.2846496 L52.9605822,24.0674106 C53.127496,23.0942284 52.8048506,22.1012278 52.0977923,21.4120163 L48.3072463,17.7171471 C47.1207956,16.5606435 47.0965186,14.6613037 48.2530223,13.4748529 C48.7135481,13.002402 49.3169753,12.6949405 49.9698864,12.600067 L55.2082922,11.8388821 C56.1854227,11.6968967 57.0301194,11.0831886 57.4671055,10.1977581 L59.8097918,5.45095725 C60.5430586,3.96519627 62.3419362,3.35517928 63.8276971,4.08844616 C64.4193349,4.38043687 64.8982175,4.85931944 65.1902082,5.45095725 L67.5328945,10.1977581 C67.9698806,11.0831886 68.8145773,11.6968967 69.7917078,11.8388821 L75.0301136,12.600067 C76.6697482,12.8383198 77.8057925,14.3606484 77.5675397,16.000283 C77.4726662,16.6531941 77.1652046,17.2566213 76.6927537,17.7171471 L72.9022077,21.4120163 C72.1951494,22.1012278 71.872504,23.0942284 72.0394178,24.0674106 L72.9342443,29.2846496 C73.2143273,30.917659 72.1175639,32.4685267 70.4845545,32.7486098 C69.8342816,32.8601403 69.1653774,32.7541963 68.581396,32.4471791 L63.8960234,29.9839329 C63.0220513,29.5244586 61.9779487,29.5244586 61.1039766,29.9839329 Z" id="Star"></path>
                            <path d="M105.103977,29.9839329 L100.418604,32.4471791 C98.9520703,33.2181815 97.1381888,32.6543419 96.3671864,31.1878082 C96.0601692,30.6038267 95.9542252,29.9349225 96.0657557,29.2846496 L96.9605822,24.0674106 C97.127496,23.0942284 96.8048506,22.1012278 96.0977923,21.4120163 L92.3072463,17.7171471 C91.1207956,16.5606435 91.0965186,14.6613037 92.2530223,13.4748529 C92.7135481,13.002402 93.3169753,12.6949405 93.9698864,12.600067 L99.2082922,11.8388821 C100.185423,11.6968967 101.030119,11.0831886 101.467105,10.1977581 L103.809792,5.45095725 C104.543059,3.96519627 106.341936,3.35517928 107.827697,4.08844616 C108.419335,4.38043687 108.898218,4.85931944 109.190208,5.45095725 L111.532895,10.1977581 C111.969881,11.0831886 112.814577,11.6968967 113.791708,11.8388821 L119.030114,12.600067 C120.669748,12.8383198 121.805793,14.3606484 121.56754,16.000283 C121.472666,16.6531941 121.165205,17.2566213 120.692754,17.7171471 L116.902208,21.4120163 C116.195149,22.1012278 115.872504,23.0942284 116.039418,24.0674106 L116.934244,29.2846496 C117.214327,30.917659 116.117564,32.4685267 114.484555,32.7486098 C113.834282,32.8601403 113.165377,32.7541963 112.581396,32.4471791 L107.896023,29.9839329 C107.022051,29.5244586 105.977949,29.5244586 105.103977,29.9839329 Z" id="Star"></path>
                            <path d="M148.103977,29.9839329 L143.418604,32.4471791 C141.95207,33.2181815 140.138189,32.6543419 139.367186,31.1878082 C139.060169,30.6038267 138.954225,29.9349225 139.065756,29.2846496 L139.960582,24.0674106 C140.127496,23.0942284 139.804851,22.1012278 139.097792,21.4120163 L135.307246,17.7171471 C134.120796,16.5606435 134.096519,14.6613037 135.253022,13.4748529 C135.713548,13.002402 136.316975,12.6949405 136.969886,12.600067 L142.208292,11.8388821 C143.185423,11.6968967 144.030119,11.0831886 144.467105,10.1977581 L146.809792,5.45095725 C147.543059,3.96519627 149.341936,3.35517928 150.827697,4.08844616 C151.419335,4.38043687 151.898218,4.85931944 152.190208,5.45095725 L154.532895,10.1977581 C154.969881,11.0831886 155.814577,11.6968967 156.791708,11.8388821 L162.030114,12.600067 C163.669748,12.8383198 164.805793,14.3606484 164.56754,16.000283 C164.472666,16.6531941 164.165205,17.2566213 163.692754,17.7171471 L159.902208,21.4120163 C159.195149,22.1012278 158.872504,23.0942284 159.039418,24.0674106 L159.934244,29.2846496 C160.214327,30.917659 159.117564,32.4685267 157.484555,32.7486098 C156.834282,32.8601403 156.165377,32.7541963 155.581396,32.4471791 L150.896023,29.9839329 C150.022051,29.5244586 148.977949,29.5244586 148.103977,29.9839329 Z" id="Star"></path>
                            <path d="M191.103977,29.9839329 L186.418604,32.4471791 C184.95207,33.2181815 183.138189,32.6543419 182.367186,31.1878082 C182.060169,30.6038267 181.954225,29.9349225 182.065756,29.2846496 L182.960582,24.0674106 C183.127496,23.0942284 182.804851,22.1012278 182.097792,21.4120163 L178.307246,17.7171471 C177.120796,16.5606435 177.096519,14.6613037 178.253022,13.4748529 C178.713548,13.002402 179.316975,12.6949405 179.969886,12.600067 L185.208292,11.8388821 C186.185423,11.6968967 187.030119,11.0831886 187.467105,10.1977581 L189.809792,5.45095725 C190.543059,3.96519627 192.341936,3.35517928 193.827697,4.08844616 C194.419335,4.38043687 194.898218,4.85931944 195.190208,5.45095725 L197.532895,10.1977581 C197.969881,11.0831886 198.814577,11.6968967 199.791708,11.8388821 L205.030114,12.600067 C206.669748,12.8383198 207.805793,14.3606484 207.56754,16.000283 C207.472666,16.6531941 207.165205,17.2566213 206.692754,17.7171471 L202.902208,21.4120163 C202.195149,22.1012278 201.872504,23.0942284 202.039418,24.0674106 L202.934244,29.2846496 C203.214327,30.917659 202.117564,32.4685267 200.484555,32.7486098 C199.834282,32.8601403 199.165377,32.7541963 198.581396,32.4471791 L193.896023,29.9839329 C193.022051,29.5244586 191.977949,29.5244586 191.103977,29.9839329 Z" id="Star"></path>
                        </g>
                    </g>
                </g>
            </g>
        </g>
    </g>
</svg>