<?xml version="1.0" encoding="UTF-8"?>
<svg width="750px" height="500px" viewBox="0 0 750 500" version="1.1" xmlns="http://www.w3.org/2000/svg" xmlns:xlink="http://www.w3.org/1999/xlink">
    <title>icon</title>
    <defs>
        <rect id="path-1" x="31" y="28" width="688" height="437" rx="20"></rect>
        <filter x="-4.4%" y="-6.9%" width="108.7%" height="113.7%" filterUnits="objectBoundingBox" id="filter-2">
            <feOffset dx="0" dy="0" in="SourceAlpha" result="shadowOffsetOuter1"></feOffset>
            <feGaussianBlur stdDeviation="10" in="shadowOffsetOuter1" result="shadowBlurOuter1"></feGaussianBlur>
            <feColorMatrix values="0 0 0 0 0.8   0 0 0 0 0.8   0 0 0 0 0.8  0 0 0 1 0" type="matrix" in="shadowBlurOuter1"></feColorMatrix>
        </filter>
    </defs>
    <g id="Page-1" stroke="none" stroke-width="1" fill="none" fill-rule="evenodd">
        <g id="Review-Callout" transform="translate(-146, -110)">
            <g id="icon" transform="translate(146, 110)">
                <rect id="Rectangle" x="0" y="0" width="750" height="500"></rect>
                <g id="Rectangle">
                    <use fill="black" fill-opacity="1" filter="url(#filter-2)" xlink:href="#path-1"></use>
                    <use fill="#F9EBD5" fill-rule="evenodd" xlink:href="#path-1"></use>
                </g>
                <g id="Group-12" transform="translate(51, 48)">
                    <path d="M10,85 L192,85 C197.522847,85 202,89.4771525 202,95 L202,125 C202,130.522847 197.522847,135 192,135 L10,135 C4.4771525,135 6.76353751e-16,130.522847 0,125 L0,95 C-6.76353751e-16,89.4771525 4.4771525,85 10,85 Z" id="Rectangle" fill="#DE6B5A"></path>
                    <g id="stars" transform="translate(0, 27)" fill="#975D48">
                        <path d="M17.1039766,28.4839329 L13.0063893,30.6381621 C11.5398555,31.4091645 9.72597407,30.8453249 8.95497164,29.3787912 C8.64795443,28.7948097 8.54201041,28.1259055 8.65354094,27.4756326 L9.43611048,22.9129021 C9.6030243,21.9397199 9.28037884,20.9467193 8.57332058,20.2575078 L5.2583028,17.0261641 C4.07185207,15.8696605 4.04757515,13.9703207 5.20407878,12.7838699 C5.6646046,12.311419 6.26803183,12.0039575 6.92094292,11.909084 L11.5021848,11.2433905 C12.4793153,11.1014052 13.3240121,10.4876971 13.7609981,9.60226664 L15.8097918,5.45095725 C16.5430586,3.96519627 18.3419362,3.35517928 19.8276971,4.08844616 C20.4193349,4.38043687 20.8982175,4.85931944 21.1902082,5.45095725 L23.2390019,9.60226664 C23.6759879,10.4876971 24.5206847,11.1014052 25.4978152,11.2433905 L30.0790571,11.909084 C31.7186917,12.1473368 32.854736,13.6696654 32.6164832,15.3093 C32.5216096,15.9622111 32.2141481,16.5656383 31.7416972,17.0261641 L28.4266794,20.2575078 C27.7196212,20.9467193 27.3969757,21.9397199 27.5638895,22.9129021 L28.3464591,27.4756326 C28.6265421,29.108642 27.5297786,30.6595097 25.8967693,30.9395928 C25.2464964,31.0511233 24.5775921,30.9451793 23.9936107,30.6381621 L19.8960234,28.4839329 C19.0220513,28.0244586 17.9779487,28.0244586 17.1039766,28.4839329 Z" id="Star"></path>
                        <path d="M58.1039766,28.4839329 L54.0063893,30.6381621 C52.5398555,31.4091645 50.7259741,30.8453249 49.9549716,29.3787912 C49.6479544,28.7948097 49.5420104,28.1259055 49.6535409,27.4756326 L50.4361105,22.9129021 C50.6030243,21.9397199 50.2803788,20.9467193 49.5733206,20.2575078 L46.2583028,17.0261641 C45.0718521,15.8696605 45.0475751,13.9703207 46.2040788,12.7838699 C46.6646046,12.311419 47.2680318,12.0039575 47.9209429,11.909084 L52.5021848,11.2433905 C53.4793153,11.1014052 54.3240121,10.4876971 54.7609981,9.60226664 L56.8097918,5.45095725 C57.5430586,3.96519627 59.3419362,3.35517928 60.8276971,4.08844616 C61.4193349,4.38043687 61.8982175,4.85931944 62.1902082,5.45095725 L64.2390019,9.60226664 C64.6759879,10.4876971 65.5206847,11.1014052 66.4978152,11.2433905 L71.0790571,11.909084 C72.7186917,12.1473368 73.854736,13.6696654 73.6164832,15.3093 C73.5216096,15.9622111 73.2141481,16.5656383 72.7416972,17.0261641 L69.4266794,20.2575078 C68.7196212,20.9467193 68.3969757,21.9397199 68.5638895,22.9129021 L69.3464591,27.4756326 C69.6265421,29.108642 68.5297786,30.6595097 66.8967693,30.9395928 C66.2464964,31.0511233 65.5775921,30.9451793 64.9936107,30.6381621 L60.8960234,28.4839329 C60.0220513,28.0244586 58.9779487,28.0244586 58.1039766,28.4839329 Z" id="Star"></path>
                        <path d="M100.103977,28.4839329 L96.0063893,30.6381621 C94.5398555,31.4091645 92.7259741,30.8453249 91.9549716,29.3787912 C91.6479544,28.7948097 91.5420104,28.1259055 91.6535409,27.4756326 L92.4361105,22.9129021 C92.6030243,21.9397199 92.2803788,20.9467193 91.5733206,20.2575078 L88.2583028,17.0261641 C87.0718521,15.8696605 87.0475751,13.9703207 88.2040788,12.7838699 C88.6646046,12.311419 89.2680318,12.0039575 89.9209429,11.909084 L94.5021848,11.2433905 C95.4793153,11.1014052 96.3240121,10.4876971 96.7609981,9.60226664 L98.8097918,5.45095725 C99.5430586,3.96519627 101.341936,3.35517928 102.827697,4.08844616 C103.419335,4.38043687 103.898218,4.85931944 104.190208,5.45095725 L106.239002,9.60226664 C106.675988,10.4876971 107.520685,11.1014052 108.497815,11.2433905 L113.079057,11.909084 C114.718692,12.1473368 115.854736,13.6696654 115.616483,15.3093 C115.52161,15.9622111 115.214148,16.5656383 114.741697,17.0261641 L111.426679,20.2575078 C110.719621,20.9467193 110.396976,21.9397199 110.56389,22.9129021 L111.346459,27.4756326 C111.626542,29.108642 110.529779,30.6595097 108.896769,30.9395928 C108.246496,31.0511233 107.577592,30.9451793 106.993611,30.6381621 L102.896023,28.4839329 C102.022051,28.0244586 100.977949,28.0244586 100.103977,28.4839329 Z" id="Star"></path>
                        <path d="M140.103977,28.4839329 L136.006389,30.6381621 C134.539856,31.4091645 132.725974,30.8453249 131.954972,29.3787912 C131.647954,28.7948097 131.54201,28.1259055 131.653541,27.4756326 L132.43611,22.9129021 C132.603024,21.9397199 132.280379,20.9467193 131.573321,20.2575078 L128.258303,17.0261641 C127.071852,15.8696605 127.047575,13.9703207 128.204079,12.7838699 C128.664605,12.311419 129.268032,12.0039575 129.920943,11.909084 L134.502185,11.2433905 C135.479315,11.1014052 136.324012,10.4876971 136.760998,9.60226664 L138.809792,5.45095725 C139.543059,3.96519627 141.341936,3.35517928 142.827697,4.08844616 C143.419335,4.38043687 143.898218,4.85931944 144.190208,5.45095725 L146.239002,9.60226664 C146.675988,10.4876971 147.520685,11.1014052 148.497815,11.2433905 L153.079057,11.909084 C154.718692,12.1473368 155.854736,13.6696654 155.616483,15.3093 C155.52161,15.9622111 155.214148,16.5656383 154.741697,17.0261641 L151.426679,20.2575078 C150.719621,20.9467193 150.396976,21.9397199 150.56389,22.9129021 L151.346459,27.4756326 C151.626542,29.108642 150.529779,30.6595097 148.896769,30.9395928 C148.246496,31.0511233 147.577592,30.9451793 146.993611,30.6381621 L142.896023,28.4839329 C142.022051,28.0244586 140.977949,28.0244586 140.103977,28.4839329 Z" id="Star"></path>
                        <path d="M181.103977,28.4839329 L177.006389,30.6381621 C175.539856,31.4091645 173.725974,30.8453249 172.954972,29.3787912 C172.647954,28.7948097 172.54201,28.1259055 172.653541,27.4756326 L173.43611,22.9129021 C173.603024,21.9397199 173.280379,20.9467193 172.573321,20.2575078 L169.258303,17.0261641 C168.071852,15.8696605 168.047575,13.9703207 169.204079,12.7838699 C169.664605,12.311419 170.268032,12.0039575 170.920943,11.909084 L175.502185,11.2433905 C176.479315,11.1014052 177.324012,10.4876971 177.760998,9.60226664 L179.809792,5.45095725 C180.543059,3.96519627 182.341936,3.35517928 183.827697,4.08844616 C184.419335,4.38043687 184.898218,4.85931944 185.190208,5.45095725 L187.239002,9.60226664 C187.675988,10.4876971 188.520685,11.1014052 189.497815,11.2433905 L194.079057,11.909084 C195.718692,12.1473368 196.854736,13.6696654 196.616483,15.3093 C196.52161,15.9622111 196.214148,16.5656383 195.741697,17.0261641 L192.426679,20.2575078 C191.719621,20.9467193 191.396976,21.9397199 191.56389,22.9129021 L192.346459,27.4756326 C192.626542,29.108642 191.529779,30.6595097 189.896769,30.9395928 C189.246496,31.0511233 188.577592,30.9451793 187.993611,30.6381621 L183.896023,28.4839329 C183.022051,28.0244586 181.977949,28.0244586 181.103977,28.4839329 Z" id="Star"></path>
                    </g>
                    <path d="M10,154 L191.666667,154 C197.189514,154 201.666667,158.477153 201.666667,164 L201.666667,194 C201.666667,199.522847 197.189514,204 191.666667,204 L10,204 C4.4771525,204 6.76353751e-16,199.522847 0,194 L0,164 C-6.76353751e-16,158.477153 4.4771525,154 10,154 Z" id="Rectangle" fill="#DE6B5A"></path>
                    <path d="M232,0 L413.666667,0 C419.189514,-1.01453063e-15 423.666667,4.4771525 423.666667,10 L423.666667,388 C423.666667,393.522847 419.189514,398 413.666667,398 L232,398 C226.477153,398 222,393.522847 222,388 L222,10 C222,4.4771525 226.477153,1.01453063e-15 232,0 Z" id="Rectangle" fill="#E9AF58"></path>
                    <path d="M454,0 L635.666667,0 C641.189514,-1.01453063e-15 645.666667,4.4771525 645.666667,10 L645.666667,388 C645.666667,393.522847 641.189514,398 635.666667,398 L454,398 C448.477153,398 444,393.522847 444,388 L444,10 C444,4.4771525 448.477153,1.01453063e-15 454,0 Z" id="Rectangle" fill="#DE6B5A"></path>
                </g>
            </g>
        </g>
    </g>
</svg>