<?xml version="1.0" encoding="UTF-8"?>
<svg width="750px" height="500px" viewBox="0 0 750 500" version="1.1" xmlns="http://www.w3.org/2000/svg" xmlns:xlink="http://www.w3.org/1999/xlink">
    <title>icon</title>
    <defs>
        <rect id="path-1" x="31" y="28" width="688" height="437" rx="20"></rect>
        <filter x="-4.4%" y="-6.9%" width="108.7%" height="113.7%" filterUnits="objectBoundingBox" id="filter-2">
            <feOffset dx="0" dy="0" in="SourceAlpha" result="shadowOffsetOuter1"></feOffset>
            <feGaussianBlur stdDeviation="10" in="shadowOffsetOuter1" result="shadowBlurOuter1"></feGaussianBlur>
            <feColorMatrix values="0 0 0 0 0.8   0 0 0 0 0.8   0 0 0 0 0.8  0 0 0 1 0" type="matrix" in="shadowBlurOuter1"></feColorMatrix>
        </filter>
    </defs>
    <g id="Page-1" stroke="none" stroke-width="1" fill="none" fill-rule="evenodd">
        <g id="Rich-Text-Grid" transform="translate(-146, -110)">
            <g id="icon" transform="translate(146, 110)">
                <rect id="Rectangle" x="0" y="0" width="750" height="500"></rect>
                <g id="Rectangle">
                    <use fill="black" fill-opacity="1" filter="url(#filter-2)" xlink:href="#path-1"></use>
                    <use fill="#FFFFFF" fill-rule="evenodd" xlink:href="#path-1"></use>
                </g>
                <path d="M61,48 L349,48 C354.522847,48 359,52.4771525 359,58 L359,435 C359,440.522847 354.522847,445 349,445 L61,445 C55.4771525,445 51,440.522847 51,435 L51,58 C51,52.4771525 55.4771525,48 61,48 Z" id="Rectangle" fill="#CCE5E8"></path>
                <rect id="Rectangle" fill="#3B8B96" x="74" y="132.827957" width="262" height="56.344086" rx="8"></rect>
                <rect id="Rectangle" fill="#3B8B96" x="74" y="208.827957" width="262" height="151" rx="8"></rect>
                <path d="M385,48 L684,48 C689.522847,48 694,52.4771525 694,58 L694,435 C694,440.522847 689.522847,445 684,445 L385,445 C379.477153,445 375,440.522847 375,435 L375,58 C375,52.4771525 379.477153,48 385,48 Z" id="Rectangle" fill="#F2C4BD"></path>
                <rect id="Rectangle" fill="#DE6B5A" x="404" y="132.827957" width="262" height="56.344086" rx="8"></rect>
                <rect id="Rectangle" fill="#DE6B5A" x="404" y="208.827957" width="262" height="151" rx="8"></rect>
            </g>
        </g>
    </g>
</svg>