<?xml version="1.0" encoding="UTF-8"?>
<svg width="750px" height="500px" viewBox="0 0 750 500" version="1.1" xmlns="http://www.w3.org/2000/svg" xmlns:xlink="http://www.w3.org/1999/xlink">
    <title>icon</title>
    <defs>
        <rect id="path-1" x="31" y="28" width="688" height="437" rx="20"></rect>
        <filter x="-4.4%" y="-6.9%" width="108.7%" height="113.7%" filterUnits="objectBoundingBox" id="filter-2">
            <feOffset dx="0" dy="0" in="SourceAlpha" result="shadowOffsetOuter1"></feOffset>
            <feGaussianBlur stdDeviation="10" in="shadowOffsetOuter1" result="shadowBlurOuter1"></feGaussianBlur>
            <feColorMatrix values="0 0 0 0 0.8   0 0 0 0 0.8   0 0 0 0 0.8  0 0 0 1 0" type="matrix" in="shadowBlurOuter1"></feColorMatrix>
        </filter>
    </defs>
    <g id="Page-1" stroke="none" stroke-width="1" fill="none" fill-rule="evenodd">
        <g id="Slideshow" transform="translate(-146, -110)">
            <g id="icon" transform="translate(146, 110)">
                <rect id="Rectangle" x="0" y="0" width="750" height="500"></rect>
                <g id="Rectangle">
                    <use fill="black" fill-opacity="1" filter="url(#filter-2)" xlink:href="#path-1"></use>
                    <use fill="#FFFFFF" fill-rule="evenodd" xlink:href="#path-1"></use>
                </g>
                <path d="M61,48 L689,48 C694.522847,48 699,52.4771525 699,58 L699,435 C699,440.522847 694.522847,445 689,445 L61,445 C55.4771525,445 51,440.522847 51,435 L51,58 C51,52.4771525 55.4771525,48 61,48 Z" id="Rectangle" fill="#CEE2E5" transform="translate(375, 246.5) scale(-1, 1) translate(-375, -246.5)"></path>
                <g id="Group-11" transform="translate(284, 362)">
                    <circle id="Oval" fill="#FFFFFF" cx="159.5" cy="23.5" r="23.5"></circle>
                    <circle id="Oval" fill="#DE6B5A" cx="91.5" cy="23.5" r="23.5"></circle>
                    <circle id="Oval" fill="#FFFFFF" cx="23.5" cy="23.5" r="23.5"></circle>
                </g>
                <path d="M172.065892,307.98309 L276.012739,170.603047 C277.678932,168.400944 280.814807,167.966502 283.01691,169.632696 C283.383421,169.910012 283.709946,170.236537 283.987261,170.603047 L363.999521,276.350243 C364.944621,277.599323 366.420444,278.333333 367.986782,278.333333 L497.931639,278.333333 C500.693063,278.333333 502.931639,276.094757 502.931639,273.333333 C502.931639,272.242176 502.574695,271.180973 501.915263,270.311621 L416.968612,158.32362 C415.299766,156.123525 412.163371,155.692863 409.963276,157.361708 C409.605167,157.633346 409.285321,157.952031 409.012383,158.309149 L369.472605,210.043826 C367.795768,212.237835 364.657827,212.657086 362.463817,210.980249 C362.111537,210.711008 361.796635,210.396106 361.527395,210.043826 L344.05887,187.187641 C342.69447,185.402431 342.688475,182.926343 344.044214,181.134548 L409.012739,95.2697138 C410.678932,93.0676102 413.814807,92.6331692 416.01691,94.2993626 C416.383421,94.5766782 416.709946,94.9032032 416.987261,95.2697138 L577.934108,307.98309 C579.600301,310.185193 579.16586,313.321068 576.963757,314.987261 C576.095255,315.644402 575.035942,316 573.946846,316 L176.053154,316 C173.29173,316 171.053154,313.761424 171.053154,311 C171.053154,309.910905 171.408752,308.851591 172.065892,307.98309 Z M251.960815,279 L308.039185,279 C310.800609,279 313.039185,276.761424 313.039185,274 C313.039185,272.923527 312.691771,271.875798 312.048599,271.012593 L284.009414,233.381056 C282.359515,231.166718 279.226932,230.709149 277.012593,232.359048 C276.624224,232.648421 276.279959,232.992687 275.990586,233.381056 L247.951401,271.012593 C246.301502,273.226932 246.75907,276.359515 248.973409,278.009414 C249.836613,278.652586 250.884342,279 251.960815,279 Z M242,278 L318,278 L242,278 Z" id="Shape" fill="#3B8B96" fill-rule="nonzero"></path>
            </g>
        </g>
    </g>
</svg>