<?xml version="1.0" encoding="UTF-8"?>
<svg width="369px" height="68px" viewBox="0 0 369 68" version="1.1" xmlns="http://www.w3.org/2000/svg" xmlns:xlink="http://www.w3.org/1999/xlink">
    <title>Group 11</title>
    <g id="Page-1" stroke="none" stroke-width="1" fill="none" fill-rule="evenodd">
        <g id="review-slider" transform="translate(-190.195043, -196.000000)" fill="#FF00A8">
            <g id="Group-11" transform="translate(191.000000, 196.000000)">
                <polygon id="Star" points="34 51 14.0153014 61.5065778 17.8320392 39.2532889 1.66407845 23.4934222 24.0076507 20.2467111 34 0 43.9923493 20.2467111 66.3359216 23.4934222 50.1679608 39.2532889 53.9846986 61.5065778"></polygon>
                <polygon id="Star" points="109 51 89.0153014 61.5065778 92.8320392 39.2532889 76.6640784 23.4934222 99.0076507 20.2467111 109 0 118.992349 20.2467111 141.335922 23.4934222 125.167961 39.2532889 128.984699 61.5065778"></polygon>
                <polygon id="Star" points="184 51 164.015301 61.5065778 167.832039 39.2532889 151.664078 23.4934222 174.007651 20.2467111 184 0 193.992349 20.2467111 216.335922 23.4934222 200.167961 39.2532889 203.984699 61.5065778"></polygon>
                <polygon id="Star" points="259 51 239.015301 61.5065778 242.832039 39.2532889 226.664078 23.4934222 249.007651 20.2467111 259 0 268.992349 20.2467111 291.335922 23.4934222 275.167961 39.2532889 278.984699 61.5065778"></polygon>
                <polygon id="Star" points="334 51 314.015301 61.5065778 317.832039 39.2532889 301.664078 23.4934222 324.007651 20.2467111 334 0 343.992349 20.2467111 366.335922 23.4934222 350.167961 39.2532889 353.984699 61.5065778"></polygon>
            </g>
        </g>
    </g>
</svg>