<?xml version="1.0" encoding="UTF-8"?>
<svg width="630px" height="185px" viewBox="0 0 630 185" version="1.1" xmlns="http://www.w3.org/2000/svg" xmlns:xlink="http://www.w3.org/1999/xlink">
    <title>sprout</title>
    <defs>
        <path d="M11.4197627,113.584692 L91.3030762,113.584692 C92.5687288,113.584692 93.5947429,114.610706 93.5947429,115.876358 C93.5947429,116.01263 93.582588,116.148631 93.5584227,116.282743 L91.4201724,128.149572 C91.2235303,129.240893 90.2737218,130.034854 89.1648259,130.034854 L13.558013,130.034854 C12.4491171,130.034854 11.4993085,129.240893 11.3026665,128.149572 L9.16441617,116.282743 C8.93997621,115.037149 9.76778469,113.845452 11.0133782,113.621012 C11.1474904,113.596847 11.2834907,113.584692 11.4197627,113.584692 Z M85.6392782,130.034854 L85.2375846,136.137334 L85.0274806,136.136549 L82.6317173,170.88353 C82.5488536,172.08514 81.5499444,173.017536 80.3454804,173.017536 L22.9701802,173.017536 C21.7657162,173.017536 20.7668069,172.08514 20.6839432,170.88353 L17.8669973,130.034854 L85.6392782,130.034854 Z M88.1362365,5.91370773 L107.616789,29.3880535 C109.015199,31.0731703 108.798699,33.5694877 107.131057,34.9886919 L92.7322856,47.2423995 L92.7159902,47.2536417 C92.5258771,47.3847999 90.6722749,48.6635927 87.1551835,51.0900201 C78.6396856,56.9648284 68.3991915,60.655875 56.4337013,62.1631598 C55.7181091,64.3538864 55.20083,66.4230506 54.8489207,68.2524303 C53.1894762,76.8789541 53.1894762,88.1825676 54.8489207,102.163271 C57.2700062,97.9749425 59.5506075,94.6399525 61.6907246,92.1583008 C61.8571872,83.6193319 64.4888086,77.1909253 69.5840468,72.8722222 C75.4737859,67.8801033 83.5401846,66.6521233 93.7832427,69.188282 C94.4771469,79.8182645 91.8792294,87.6293153 85.9894903,92.6214341 C80.2209152,97.5108548 72.3643163,98.7894158 62.4196935,96.4571174 C61.2647198,98.2531332 60.1687527,100.295686 59.3655375,102.163271 C58.4170645,104.3686 57.5579291,108.127374 56.7881315,113.439592 L49.4150264,113.439592 C49.5652126,101.567256 48.1000311,92.3807166 45.019482,85.8799733 C43.6284646,82.9445721 41.4667445,79.625464 38.5343218,75.922649 C29.4926798,78.0241713 22.1847237,76.8749381 16.6089406,72.4747447 C10.5504158,67.6931659 7.68426297,59.9783919 8.01048213,49.3304228 C18.159677,46.4347118 26.2636394,47.3775145 32.3223692,52.1588309 C38.0103528,56.6479669 40.884516,63.7224798 40.9448586,73.3823696 C41.8355424,74.3645115 42.7841692,75.4739518 43.7995235,76.72159 C44.9315474,78.1125883 46.8033817,80.5324716 49.4150264,83.9812398 C49.9893808,76.5906181 50.6297992,71.3476816 51.3362815,68.2524303 C52.0633082,65.0671701 53.127478,61.9889795 54.1968306,59.352427 C50.199182,45.7555252 51.594251,34.8717347 58.381128,26.7012502 C59.1475479,25.7787835 60.2853142,24.5557613 61.6772348,23.1599113 C65.526971,19.2993069 72.4900136,13.3587972 82.5663078,5.33831358 C84.2700275,3.98191182 86.7457793,4.2376661 88.1362365,5.91370773 Z" id="path-1"></path>
        <filter x="-10.4%" y="-6.2%" width="120.9%" height="112.5%" filterUnits="objectBoundingBox" id="filter-2">
            <feMorphology radius="3" operator="dilate" in="SourceAlpha" result="shadowSpreadOuter1"></feMorphology>
            <feOffset dx="0" dy="0" in="shadowSpreadOuter1" result="shadowOffsetOuter1"></feOffset>
            <feMorphology radius="1" operator="erode" in="SourceAlpha" result="shadowInner"></feMorphology>
            <feOffset dx="0" dy="0" in="shadowInner" result="shadowInner"></feOffset>
            <feComposite in="shadowOffsetOuter1" in2="shadowInner" operator="out" result="shadowOffsetOuter1"></feComposite>
            <feGaussianBlur stdDeviation="2.5" in="shadowOffsetOuter1" result="shadowBlurOuter1"></feGaussianBlur>
            <feColorMatrix values="0 0 0 0 0.838541667   0 0 0 0 0.830431077   0 0 0 0 0.818265192  0 0 0 1 0" type="matrix" in="shadowBlurOuter1"></feColorMatrix>
        </filter>
        <linearGradient x1="16.2755638%" y1="43.0664383%" x2="100%" y2="55.4387144%" id="linearGradient-3">
            <stop stop-color="#6DA244" offset="0%"></stop>
            <stop stop-color="#5B933B" offset="39.38308%"></stop>
            <stop stop-color="#599039" offset="44.6947521%"></stop>
            <stop stop-color="#3B772A" offset="100%"></stop>
        </linearGradient>
    </defs>
    <g id="Page-1" stroke="none" stroke-width="1" fill="none" fill-rule="evenodd">
        <g id="sprout" transform="translate(0.0145, 3.9825)">
            <g id="Plant" transform="translate(0, 0)">
                <g id="Combined-Shape">
                    <use fill="black" fill-opacity="1" filter="url(#filter-2)" xlink:href="#path-1"></use>
                    <path stroke="#FFFFFF" stroke-width="3" d="M91.3030762,112.084692 C92.3501161,112.084692 93.2980327,112.509088 93.9841895,113.195245 C94.7024727,113.913528 95.1339105,114.918657 95.0919351,116.024064 L92.8963992,128.415569 C92.7337226,129.318389 92.2595089,130.09821 91.5966246,130.652327 C90.9337402,131.206443 90.0821852,131.534854 89.1648259,131.534854 L87.0437874,131.534854 L86.7338958,136.242689 L84.1281633,170.986725 C84.0596125,171.980785 83.6121518,172.863488 82.9327239,173.497675 C82.2532959,174.131863 81.3419006,174.517536 80.3454804,174.517536 L22.9701802,174.517536 C21.97376,174.517536 21.0623646,174.131863 20.3829367,173.497675 C19.7035087,172.863488 19.2560481,171.980785 19.1874972,170.986725 L16.4668756,131.534854 L13.558013,131.534854 C12.6406537,131.534854 11.7890987,131.206443 11.1262143,130.652327 C10.46333,130.09821 9.98911631,129.318389 9.82643969,128.415569 L7.68818938,116.54874 C7.50251633,115.518294 7.75209149,114.510142 8.30569629,113.713183 C8.88558468,112.878387 9.79905696,112.275313 10.8953035,112.121065 Z M81.6320289,4.16480478 C82.8033362,3.23227857 84.2400295,2.85393099 85.6228809,2.99678463 C87.0057322,3.13963826 88.3347415,3.8036931 89.2905345,4.95579544 L108.77109,28.4301453 C109.732497,29.5886631 110.138779,31.0260311 110.018083,32.4176954 C109.897386,33.8093597 109.249712,35.1553202 108.103209,36.1310231 L93.6465999,48.433952 L88.0069845,52.3247003 C79.5336165,58.1704433 69.392386,61.9123796 57.5754369,63.5265478 C57.0260697,65.3192485 56.6148246,67.0131084 56.3219146,68.5357834 C54.8620428,76.12484 54.7174245,85.8142913 55.8643565,97.6000869 C57.3684024,95.2502899 58.8159319,93.2473007 60.2047843,91.5894099 C60.4826281,82.8010128 63.3315563,76.2054805 68.6141722,71.7279568 C74.8208674,66.4671873 83.3028561,65.0480666 94.1437533,67.732249 C94.4997349,67.8203892 94.8514024,67.911256 95.1984411,68.0049715 C95.2289858,68.3631437 95.2561937,68.725009 95.2800569,69.0905729 C96.0135956,80.3277187 93.1593549,88.5106132 86.9593649,93.7656995 C81.0795656,98.7493933 73.1593985,100.284885 63.1298269,98.153008 C62.2257327,99.6479431 61.3867939,101.260163 60.7435001,102.755908 C59.7522874,105.060613 58.884565,109.127268 58.092073,114.939592 L47.8874747,114.939592 C48.1790692,102.622606 46.8008547,93.1419286 43.6639761,86.5223156 C42.4057262,83.8670877 40.493077,80.8921119 37.9353415,77.5918246 C28.7802051,79.5228935 21.3794819,78.1502956 15.6796498,73.6522075 C9.30181159,68.6186165 6.16632019,60.5410817 6.51118559,49.2844892 C6.52240466,48.9182927 6.53709418,48.5556797 6.55589302,48.1970179 C6.89918424,48.091449 7.24686212,47.9884357 7.59893381,47.8879845 C18.3407262,44.823197 26.866756,45.9426477 33.2516599,50.9813681 C39.1404079,55.6289537 42.2627016,62.8674662 42.4380845,72.7997729 C43.2331389,73.6918929 44.0729214,74.6811439 44.9629419,75.7747755 C45.7245319,76.7105953 46.8192038,78.1093552 48.2465096,79.9702923 C48.743889,74.4993674 49.2886805,70.4825764 49.8738908,67.9186438 C50.5754613,64.8449125 51.5818509,61.8679455 52.6117934,59.2721167 C48.6191615,45.3018347 50.2437837,34.1499835 57.2273812,25.742674 C58.0153432,24.7942791 59.1839978,23.53587 60.6150806,22.1007472 C64.4888633,18.2160284 71.4927468,12.2354253 81.6320289,4.16480478 Z"></path>
                </g>
                <path d="M91.3030762,112.084692 C92.3501161,112.084692 93.2980327,112.509088 93.9841895,113.195245 C94.7024727,113.913528 95.1339105,114.918657 95.0919351,116.024064 L92.8963992,128.415569 C92.7337226,129.318389 92.2595089,130.09821 91.5966246,130.652327 C90.9337402,131.206443 90.0821852,131.534854 89.1648259,131.534854 L87.0437874,131.534854 L86.7338958,136.242689 L84.1281633,170.986725 C84.0596125,171.980785 83.6121518,172.863488 82.9327239,173.497675 C82.2532959,174.131863 81.3419006,174.517536 80.3454804,174.517536 L22.9701802,174.517536 C21.97376,174.517536 21.0623646,174.131863 20.3829367,173.497675 C19.7035087,172.863488 19.2560481,171.980785 19.1874972,170.986725 L16.4668756,131.534854 L13.558013,131.534854 C12.6406537,131.534854 11.7890987,131.206443 11.1262143,130.652327 C10.46333,130.09821 9.98911631,129.318389 9.82643969,128.415569 L7.68818938,116.54874 C7.50251633,115.518294 7.75209149,114.510142 8.30569629,113.713183 C8.88558468,112.878387 9.79905696,112.275313 10.8953035,112.121065 Z M81.6320289,4.16480478 C82.8033362,3.23227857 84.2400295,2.85393099 85.6228809,2.99678463 C87.0057322,3.13963826 88.3347415,3.8036931 89.2905345,4.95579544 L108.77109,28.4301453 C109.732497,29.5886631 110.138779,31.0260311 110.018083,32.4176954 C109.897386,33.8093597 109.249712,35.1553202 108.103209,36.1310231 L93.6465999,48.433952 L88.0069845,52.3247003 C79.5336165,58.1704433 69.392386,61.9123796 57.5754369,63.5265478 C57.0260697,65.3192485 56.6148246,67.0131084 56.3219146,68.5357834 C54.8620428,76.12484 54.7174245,85.8142913 55.8643565,97.6000869 C57.3684024,95.2502899 58.8159319,93.2473007 60.2047843,91.5894099 C60.4826281,82.8010128 63.3315563,76.2054805 68.6141722,71.7279568 C74.8208674,66.4671873 83.3028561,65.0480666 94.1437533,67.732249 C94.4997349,67.8203892 94.8514024,67.911256 95.1984411,68.0049715 C95.2289858,68.3631437 95.2561937,68.725009 95.2800569,69.0905729 C96.0135956,80.3277187 93.1593549,88.5106132 86.9593649,93.7656995 C81.0795656,98.7493933 73.1593985,100.284885 63.1298269,98.153008 C62.2257327,99.6479431 61.3867939,101.260163 60.7435001,102.755908 C59.7522874,105.060613 58.884565,109.127268 58.092073,114.939592 L47.8874747,114.939592 C48.1790692,102.622606 46.8008547,93.1419286 43.6639761,86.5223156 C42.4057262,83.8670877 40.493077,80.8921119 37.9353415,77.5918246 C28.7802051,79.5228935 21.3794819,78.1502956 15.6796498,73.6522075 C9.30181159,68.6186165 6.16632019,60.5410817 6.51118559,49.2844892 C6.52240466,48.9182927 6.53709418,48.5556797 6.55589302,48.1970179 C6.89918424,48.091449 7.24686212,47.9884357 7.59893381,47.8879845 C18.3407262,44.823197 26.866756,45.9426477 33.2516599,50.9813681 C39.1404079,55.6289537 42.2627016,62.8674662 42.4380845,72.7997729 C43.2331389,73.6918929 44.0729214,74.6811439 44.9629419,75.7747755 C45.7245319,76.7105953 46.8192038,78.1093552 48.2465096,79.9702923 C48.743889,74.4993674 49.2886805,70.4825764 49.8738908,67.9186438 C50.5754613,64.8449125 51.5818509,61.8679455 52.6117934,59.2721167 C48.6191615,45.3018347 50.2437837,34.1499835 57.2273812,25.742674 C58.0153432,24.7942791 59.1839978,23.53587 60.6150806,22.1007472 C64.4888633,18.2160284 71.4927468,12.2354253 81.6320289,4.16480478 Z" id="Combined-Shape-Copy" stroke="#FFFFFF" stroke-width="3"></path>
                <g transform="translate(-0, 0)">
                    <path d="M11.3129472,113.871122 L91.7410749,113.871122 C93.0067275,113.871122 94.0327416,114.897136 94.0327416,116.162788 C94.0327416,116.300581 94.020314,116.438092 93.9956097,116.573652 L91.8474608,128.361201 C91.6489592,129.450441 90.700105,130.242004 89.5929261,130.242004 L13.4610961,130.242004 C12.3539172,130.242004 11.4050629,129.450441 11.2065613,128.361201 L9.05841241,116.573652 C8.83149865,115.328507 9.6569383,114.135167 10.9020835,113.908254 C11.0376432,113.883549 11.1751548,113.871122 11.3129472,113.871122 Z" id="Rectangle" fill="#CF7437"></path>
                    <path d="M17.8144776,130.242004 L85.8362265,130.242004 L83.0015297,170.885316 C82.917775,172.086173 81.919191,173.017536 80.7154166,173.017536 L22.9352875,173.017536 C21.7315131,173.017536 20.7329291,172.086173 20.6491745,170.885316 L17.8144776,130.242004 L17.8144776,130.242004 Z" id="Rectangle" fill="#CF7437"></path>
                    <polygon id="Rectangle" fill="#B65C23" points="17.8190675 130.242004 86.0280827 130.242004 85.6237733 136.315074 18.2432568 136.315074"></polygon>
                    <path d="M74.1387212,54.9113765 C78.4997078,56.1372733 80.6802011,56.7502218 80.6802011,56.7502218 L99.3007031,60.0071449 C101.47488,60.3874315 103.546192,58.9347724 103.929199,56.7610732 L109.222577,26.7229919 C109.595287,24.5964038 108.213134,22.5577842 106.099648,22.1167986 C93.4394787,19.4719815 84.3888634,17.8997897 78.9477575,17.400437 C76.9830922,17.2201315 75.3146136,17.1252312 74.1155172,17.1246938 C62.7349001,17.1177073 52.9848976,23.8784613 44.8655098,37.4069559 C54.0343589,46.1680776 63.792096,52.0028845 74.1387212,54.9113765 Z" id="Oval" fill="#6DA244" transform="translate(77.3789, 38.9101) rotate(-50) translate(-77.3789, -38.9101)"></path>
                    <path d="M74.7086597,18.5898836 C75.6814536,18.5903235 77.0349878,18.6693336 78.6288285,18.8174914 C83.1851249,19.2410287 91.3415201,20.8237468 103.098661,23.5573963 C103.671766,23.6909008 104.141586,24.0381009 104.441173,24.4965462 C104.74076,24.9549915 104.870114,25.5246819 104.762468,26.1021829 L99.6303695,53.4825987 C99.5198989,54.0720425 99.1835342,54.5629315 98.7269478,54.8815294 C98.2703614,55.2001273 97.6935533,55.346434 97.1021959,55.2467133 L82.1773789,52.729939 C80.728649,52.6719556 78.2248478,52.1240344 74.6632725,51.1099454 C66.41651,48.7618409 58.8041075,43.1889065 51.7969235,34.4390169 C58.1243057,23.9381212 65.7292883,18.5843155 74.7086597,18.5898836 Z" id="Oval" stroke="url(#linearGradient-3)" stroke-width="2" transform="translate(78.446, 37.1726) rotate(-50) translate(-78.446, -37.1726)"></path>
                    <path d="M78.1323219,96.0167557 C85.8669114,96.0215027 92.8666402,91.7475101 99.1315084,83.194778 C92.8561291,74.6343452 85.8511447,70.3517527 78.1165552,70.3470004 C70.3819656,70.3422534 63.3822368,74.6162459 57.1173687,83.168978 C63.3927479,91.7294108 70.3977323,96.0120034 78.1323219,96.0167557 Z" id="Oval" fill="#6DA244" transform="translate(78.1244, 83.1819) rotate(-40) translate(-78.1244, -83.1819)"></path>
                    <path d="M24.4483377,75.6846291 C32.1832565,75.6799468 39.1885003,71.3975999 45.464069,62.8375881 C39.1988565,54.2851636 32.1987908,50.0112899 24.463872,50.015967 C16.7289532,50.0206492 9.72370941,54.3029962 3.44814068,62.8630079 C9.71335319,71.4154324 16.7134189,75.6893062 24.4483377,75.6846291 Z" id="Oval" fill="#6DA244" transform="translate(24.4561, 62.8503) rotate(38) translate(-24.4561, -62.8503)"></path>
                    <path d="M49.5679434,113.726721 L56.9890611,113.726721 C57.7638716,108.440105 58.6286015,104.699446 59.5832509,102.504745 C60.9760915,99.3026605 63.2435529,95.5837285 65.1795544,93.4833288 C69.1059515,89.2235162 73.5710836,85.2739926 78.5749507,81.6347581 C72.0634844,84.6717912 67.3713262,87.4406694 64.4984763,89.9413926 C61.6256264,92.4421158 58.4718751,96.6299001 55.0372225,102.504745 C53.3669718,88.5914205 53.3669718,77.3422835 55.0372225,68.7573344 C55.9182952,64.2286938 57.8292779,58.2235059 61.2629681,52.538588 C63.3133416,49.1439296 63.8684316,47.1956302 62.9282382,46.6936898 C61.7359323,46.3964209 59.7562066,48.9169929 56.9890611,54.2554059 C55.4329788,57.2574201 52.8722038,62.8205011 51.5017094,68.7573344 C50.7906266,71.8376685 50.1460379,77.0553372 49.5679434,84.4103406 C46.939292,80.9781933 45.0552685,78.5699724 43.9158731,77.1856778 C41.8500218,74.6757971 40.0586118,72.7279065 38.4553721,71.2523675 C35.5257609,68.5561047 30.8501263,65.2297377 24.4284682,61.2732666 C30.1027465,66.9022172 34.0063135,70.9505844 36.1391693,73.4183682 C40.3756817,78.3201514 43.3772172,82.6140031 45.1437758,86.2999233 C48.244385,92.769337 49.7191075,101.911603 49.5679434,113.726721 Z" id="Path-2" fill="#2B6822"></path>
                    <ellipse id="Oval" fill="#3B772A" cx="101.126403" cy="32.4797689" rx="3.22897833" ry="4.15041807"></ellipse>
                    <ellipse id="Oval-Copy" fill="#3C762B" transform="translate(84.9658, 12.7694) rotate(-75) translate(-84.9658, -12.7694)" cx="84.9657936" cy="12.76935" rx="3.22816158" ry="4.15146817"></ellipse>
                    <path d="M75.1792558,25.5624054 C79.9559937,25.5624054 83.8283049,30.7240873 83.8283049,37.0913445 C83.8283049,43.4586017 79.9559937,48.6202836 75.1792558,48.6202836 C70.4025179,48.6202836 66.5302067,43.4586017 66.5302067,37.0913445 C66.5302067,30.7240873 70.4025179,25.5624054 75.1792558,25.5624054 Z M76.0025343,31.0962962 L74.6211532,31.0962962 L74.6211532,32.6027442 C74.1146468,32.6625239 73.6196519,32.9076206 73.1361685,33.3380343 C72.6526851,33.7684481 72.4109434,34.3722229 72.4109434,35.1493588 C72.4109434,35.7949794 72.5951276,36.3419635 72.9634959,36.7903111 C73.3318642,37.2386587 74.0110432,37.6242377 75.001033,37.947048 C75.9219537,38.2579023 76.5090407,38.5358779 76.7622939,38.7809746 C77.0155471,39.0260713 77.1421737,39.3578485 77.1421737,39.7763063 C77.1421737,40.2425879 76.9781347,40.586321 76.6500567,40.8075059 C76.3219787,41.0286907 75.9219537,41.1392831 75.4499819,41.1392831 C74.8974294,41.1392831 74.4513584,40.9898339 74.1117689,40.6909355 C73.7721794,40.3920371 73.5160483,39.9556454 73.3433757,39.3817604 L72.0655981,39.9197776 C72.2728053,40.6610456 72.5980054,41.2349306 73.0411986,41.6414325 C73.4843917,42.0479343 74.0110432,42.3229209 74.6211532,42.4663921 L74.6211532,44.008708 L76.0025343,44.008708 L76.0025343,42.5022599 C76.7162479,42.3946565 77.3148463,42.1196699 77.7983297,41.6773003 C78.2818131,41.2349306 78.5235548,40.58931 78.5235548,39.7404385 C78.5235548,39.0589501 78.3192255,38.4581643 77.9105669,37.938081 C77.5019084,37.4179978 76.900432,37.0383968 76.1061379,36.799278 C75.2542862,36.5482034 74.6556877,36.3090846 74.3103424,36.0819218 C73.9649972,35.854759 73.7923245,35.5439047 73.7923245,35.1493588 C73.7923245,34.8026366 73.9247069,34.5127051 74.1894716,34.2795644 C74.4542363,34.0464236 74.8398719,33.9298532 75.3463783,33.9298532 C75.7838156,33.9298532 76.1291609,34.0255007 76.3824141,34.2167957 C76.6356673,34.4080907 76.831363,34.6950332 76.9695011,35.0776231 L78.2472786,34.5037382 C78.074606,34.0135448 77.8012076,33.598076 77.4270836,33.2573318 C77.0529595,32.9165876 76.5781098,32.6983917 76.0025343,32.6027442 L76.0025343,31.0962962 Z" id="Combined-Shape" fill-opacity="0.75" fill="#2B6822" transform="translate(75.1793, 37.0913) rotate(-40) translate(-75.1793, -37.0913)"></path>
                </g>
            </g>
            <g id="Fundlet" transform="translate(151.8605, 41.2675)" fill="#111111" fill-rule="nonzero">
                <polygon id="Path" points="54 30.25 24.5 30.25 24.5 46 51.375 46 51.375 66.75 24.5 66.75 24.5 103.75 0 103.75 0 9.5 54 9.5"></polygon>
                <path d="M88.375,39.625 L88.375,75.75 C88.375,83.6666667 92.2083333,87.625 99.875,87.625 C107.541667,87.625 111.375,83.6666667 111.375,75.75 L111.375,39.625 L134,39.625 L134,80.125 C134,88.7916667 131.145833,95.2916667 125.4375,99.625 C119.729167,103.958333 111.208333,106.125 99.875,106.125 C88.5416667,106.125 80.0208333,103.958333 74.3125,99.625 C68.6041667,95.2916667 65.75,88.7916667 65.75,80.125 L65.75,39.625 L88.375,39.625 Z" id="Path"></path>
                <path d="M149.375,39.625 L172,39.625 L172,47.75 C175.083333,44 178.208333,41.4791667 181.375,40.1875 C184.541667,38.8958333 188.25,38.25 192.5,38.25 C197,38.25 200.854167,38.9791667 204.0625,40.4375 C207.270833,41.8958333 210,43.9583333 212.25,46.625 C214.083333,48.7916667 215.333333,51.2083333 216,53.875 C216.666667,56.5416667 217,59.5833333 217,63 L217,103.75 L194.375,103.75 L194.375,71.375 C194.375,68.2083333 194.145833,65.6458333 193.6875,63.6875 C193.229167,61.7291667 192.416667,60.1666667 191.25,59 C190.25,58 189.125,57.2916667 187.875,56.875 C186.625,56.4583333 185.291667,56.25 183.875,56.25 C180.041667,56.25 177.104167,57.3958333 175.0625,59.6875 C173.020833,61.9791667 172,65.25 172,69.5 L172,103.75 L149.375,103.75 L149.375,39.625 Z" id="Path"></path>
                <path d="M253.375,71.5 C253.375,73.5833333 253.75,75.5208333 254.5,77.3125 C255.25,79.1041667 256.270833,80.6666667 257.5625,82 C258.854167,83.3333333 260.395833,84.375 262.1875,85.125 C263.979167,85.875 265.916667,86.25 268,86.25 C270,86.25 271.895833,85.875 273.6875,85.125 C275.479167,84.375 277.020833,83.3333333 278.3125,82 C279.604167,80.6666667 280.645833,79.125 281.4375,77.375 C282.229167,75.625 282.625,73.75 282.625,71.75 C282.625,69.75 282.229167,67.8541667 281.4375,66.0625 C280.645833,64.2708333 279.604167,62.7083333 278.3125,61.375 C277.020833,60.0416667 275.479167,59 273.6875,58.25 C271.895833,57.5 270,57.125 268,57.125 C266,57.125 264.104167,57.5 262.3125,58.25 C260.520833,59 258.979167,60.0416667 257.6875,61.375 C256.395833,62.7083333 255.354167,64.2291667 254.5625,65.9375 C253.770833,67.6458333 253.375,69.5 253.375,71.5 Z M281.875,0 L304.625,0 L304.625,103.75 L281.875,103.75 L281.875,96.625 C277.041667,102.708333 270.5,105.75 262.25,105.75 C257.583333,105.75 253.291667,104.875 249.375,103.125 C245.458333,101.375 242.041667,98.9583333 239.125,95.875 C236.208333,92.7916667 233.9375,89.1666667 232.3125,85 C230.6875,80.8333333 229.875,76.3333333 229.875,71.5 C229.875,66.9166667 230.645833,62.5625 232.1875,58.4375 C233.729167,54.3125 235.916667,50.7083333 238.75,47.625 C241.583333,44.5416667 244.979167,42.1041667 248.9375,40.3125 C252.895833,38.5208333 257.25,37.625 262,37.625 C270,37.625 276.625,40.4166667 281.875,46 L281.875,0 Z" id="Shape"></path>
                <polygon id="Path" points="342.625 0 342.625 103.75 320 103.75 320 0"></polygon>
                <path d="M405,62.375 C404.25,59.2083333 402.708333,56.6666667 400.375,54.75 C398.041667,52.8333333 395.208333,51.875 391.875,51.875 C388.375,51.875 385.520833,52.7916667 383.3125,54.625 C381.104167,56.4583333 379.708333,59.0416667 379.125,62.375 L405,62.375 Z M378.5,75.5 C378.5,85.25 383.083333,90.125 392.25,90.125 C397.166667,90.125 400.875,88.125 403.375,84.125 L425.25,84.125 C420.833333,98.7916667 409.791667,106.125 392.125,106.125 C386.708333,106.125 381.75,105.3125 377.25,103.6875 C372.75,102.0625 368.895833,99.75 365.6875,96.75 C362.479167,93.75 360,90.1666667 358.25,86 C356.5,81.8333333 355.625,77.1666667 355.625,72 C355.625,66.6666667 356.458333,61.8541667 358.125,57.5625 C359.791667,53.2708333 362.166667,49.625 365.25,46.625 C368.333333,43.625 372.0625,41.3125 376.4375,39.6875 C380.8125,38.0625 385.75,37.25 391.25,37.25 C396.666667,37.25 401.541667,38.0625 405.875,39.6875 C410.208333,41.3125 413.875,43.6666667 416.875,46.75 C419.875,49.8333333 422.166667,53.6041667 423.75,58.0625 C425.333333,62.5208333 426.125,67.5416667 426.125,73.125 L426.125,75.5 L378.5,75.5 Z" id="Shape"></path>
                <polygon id="Path" points="465.125 58.5 465.125 103.75 442.5 103.75 442.5 58.5 435 58.5 435 39.625 442.5 39.625 442.5 20.375 465.125 20.375 465.125 39.625 478 39.625 478 58.5"></polygon>
            </g>
        </g>
    </g>
</svg>