<?xml version="1.0" encoding="UTF-8"?>
<svg width="3950px" height="720px" viewBox="0 0 3950 720" version="1.1" xmlns="http://www.w3.org/2000/svg" xmlns:xlink="http://www.w3.org/1999/xlink">
    <title>Group 49</title>
    <defs>
        <rect id="path-1" x="0" y="0" width="720" height="720" rx="50"></rect>
    </defs>
    <g id="Page-1" stroke="none" stroke-width="1" fill="none" fill-rule="evenodd">
        <g id="Group-49">
            <g id="Group-46">
                <mask id="mask-2" fill="white">
                    <use xlink:href="#path-1"></use>
                </mask>
                <use id="Rectangle" fill="#0A7EDC" xlink:href="#path-1"></use>
                <g id="S" mask="url(#mask-2)">
                    <g transform="translate(195, 125)"></g>
                </g>
                <path d="M452.563333,234.960746 C441.446053,227.667238 432.660285,222.759887 426.20603,220.238693 C412.805695,215.004188 399.824121,212.386935 387.261307,212.386935 C371.348409,212.386935 358.366834,216.155779 348.316583,223.693467 C338.266332,231.231156 333.241206,241.072027 333.241206,253.21608 C333.241206,261.59129 335.753769,268.500838 340.778894,273.944724 C345.80402,279.38861 352.399497,284.099665 360.565327,288.077889 C368.731156,292.056114 377.943886,295.510888 388.203518,298.442211 C398.463149,301.373534 408.61809,304.514238 418.668342,307.864322 C458.869347,321.264657 488.28727,339.166667 506.922111,361.570352 C525.556951,383.974037 534.874372,413.18258 534.874372,449.19598 C534.874372,473.484087 530.791457,495.469012 522.625628,515.150754 C514.459799,534.832496 502.525126,551.687605 486.821608,565.71608 C471.11809,579.744556 451.855109,590.632328 429.032663,598.379397 C406.210218,606.126466 380.351759,610 351.457286,610 C314.19687,610 263.378511,594.496523 199.002209,563.489569 L199.002672,563.488609 C191.539556,559.89263 188.404623,550.927464 192.000601,543.464348 C192.086792,543.285467 192.176527,543.108314 192.269752,542.932995 L229.483465,472.931471 C233.371484,465.61625 242.453505,462.837955 249.768726,466.725974 C250.424985,467.074774 251.054413,467.471864 251.651811,467.913963 C269.217462,480.922018 282.804237,489.548653 292.41206,493.79397 C310.41876,501.750419 328.21608,505.728643 345.80402,505.728643 C365.904523,505.728643 380.875209,501.122278 390.71608,491.909548 C400.556951,482.696817 405.477387,472.227806 405.477387,460.502513 C405.477387,453.383585 404.221106,447.206868 401.708543,441.972362 C399.19598,436.737856 395.008375,431.922111 389.145729,427.525126 C383.283082,423.128141 375.640704,419.045226 366.218593,415.276382 C356.796482,411.507538 345.38526,407.319933 331.984925,402.713568 C316.072027,397.688442 300.473199,392.139866 285.188442,386.067839 C269.903685,379.995812 256.29397,371.934673 244.359296,361.884422 C232.424623,351.834171 222.793132,339.166667 215.464824,323.88191 C208.136516,308.597152 204.472362,289.229481 204.472362,265.778894 C204.472362,242.328308 208.345896,221.076214 216.092965,202.022613 C223.840034,182.969012 234.727806,166.637353 248.756281,153.027638 C262.784757,139.417923 279.953936,128.844221 300.263819,121.306533 C320.573702,113.768844 343.291457,110 368.417085,110 C391.867672,110 416.365159,113.245394 441.909548,119.736181 C456.277747,123.387117 475.96206,130.73946 500.962489,141.79321 L500.963104,141.79182 C508.540063,145.141272 511.967136,153.998879 508.617683,161.575839 C508.506375,161.827635 508.388155,162.07632 508.263159,162.321609 L474.151502,229.232981 C470.388182,236.613128 461.354616,239.545145 453.97447,235.781824 C453.489269,235.534408 453.017904,235.26075 452.562468,234.962065 Z" id="Path" fill="#FFFFFF" fill-rule="nonzero" mask="url(#mask-2)"></path>
                <path d="M586,169.666667 C586,152.939394 591.818182,138.757576 603.454545,127.121212 C615.090909,115.484848 629.272727,109.666667 646,109.666667 C629.272727,109.666667 615.090909,103.848485 603.454545,92.2121212 C591.818182,80.5757576 586,66.3939394 586,49.6666667 C586,66.3939394 580.181818,80.5757576 568.545455,92.2121212 C556.909091,103.848485 542.727273,109.666667 526,109.666667 C542.727273,109.666667 556.909091,115.484848 568.545455,127.121212 C580.181818,138.757576 586,152.939394 586,169.666667 Z" id="Path" fill="#FFFFFF" mask="url(#mask-2)"></path>
                <path d="M491,110.333333 C491,100.575758 494.393939,92.3030303 501.181818,85.5151515 C507.969697,78.7272727 516.242424,75.3333333 526,75.3333333 C516.242424,75.3333333 507.969697,71.9393939 501.181818,65.1515152 C494.393939,58.3636364 491,50.0909091 491,40.3333333 C491,50.0909091 487.606061,58.3636364 480.818182,65.1515152 C474.030303,71.9393939 465.757576,75.3333333 456,75.3333333 C465.757576,75.3333333 474.030303,78.7272727 480.818182,85.5151515 C487.606061,92.3030303 491,100.575758 491,110.333333 Z" id="Path" fill="#65FE08" mask="url(#mask-2)"></path>
                <path d="M561,250.333333 C561,240.575758 564.393939,232.30303 571.181818,225.515152 C577.969697,218.727273 586.242424,215.333333 596,215.333333 C586.242424,215.333333 577.969697,211.939394 571.181818,205.151515 C564.393939,198.363636 561,190.090909 561,180.333333 C561,190.090909 557.606061,198.363636 550.818182,205.151515 C544.030303,211.939394 535.757576,215.333333 526,215.333333 C535.757576,215.333333 544.030303,218.727273 550.818182,225.515152 C557.606061,232.30303 561,240.575758 561,250.333333 Z" id="Path" fill="#00F0FF" mask="url(#mask-2)"></path>
            </g>
            <g id="Sections-Pro" transform="translate(873, 161)" fill="#55505C" fill-rule="nonzero">
                <path d="M213.696,119.727 C203.52,111.459 193.344,105.3375 183.168,101.3625 C172.992,97.3875 163.134,95.4 153.594,95.4 C141.51,95.4 131.652,98.262 124.02,103.986 C116.388,109.71 112.572,117.183 112.572,126.405 C112.572,132.765 114.48,138.012 118.296,142.146 C122.112,146.28 127.1205,149.8575 133.3215,152.8785 C139.5225,155.8995 146.5185,158.523 154.3095,160.749 C162.1005,162.975 169.812,165.36 177.444,167.904 C207.972,178.08 230.3115,191.6745 244.4625,208.6875 C258.6135,225.7005 265.689,247.881 265.689,275.229 C265.689,293.673 262.5885,310.368 256.3875,325.314 C250.1865,340.26 241.1235,353.0595 229.1985,363.7125 C217.2735,374.3655 202.6455,382.6335 185.3145,388.5165 C167.9835,394.3995 148.347,397.341 126.405,397.341 C80.931,397.341 38.796,383.826 0,356.796 L40.068,281.43 C54.06,293.832 67.893,303.054 81.567,309.096 C95.241,315.138 108.756,318.159 122.112,318.159 C137.376,318.159 148.7445,314.661 156.2175,307.665 C163.6905,300.669 167.427,292.719 167.427,283.815 C167.427,278.409 166.473,273.7185 164.565,269.7435 C162.657,265.7685 159.477,262.1115 155.025,258.7725 C150.573,255.4335 144.7695,252.333 137.6145,249.471 C130.4595,246.609 121.794,243.429 111.618,239.931 C99.534,236.115 87.6885,231.9015 76.0815,227.2905 C64.4745,222.6795 54.1395,216.558 45.0765,208.926 C36.0135,201.294 28.6995,191.6745 23.1345,180.0675 C17.5695,168.4605 14.787,153.753 14.787,135.945 C14.787,118.137 17.7285,101.9985 23.6115,87.5295 C29.4945,73.0605 37.7625,60.6585 48.4155,50.3235 C59.0685,39.9885 72.1065,31.959 87.5295,26.235 C102.9525,20.511 120.204,17.649 139.284,17.649 C157.092,17.649 175.695,20.1135 195.093,25.0425 C214.491,29.9715 233.094,37.206 250.902,46.746 L213.696,119.727 Z" id="Path"></path>
                <path d="M495.126,229.437 C492.264,217.353 486.381,207.654 477.477,200.34 C468.573,193.026 457.761,189.369 445.041,189.369 C431.685,189.369 420.7935,192.867 412.3665,199.863 C403.9395,206.859 398.613,216.717 396.387,229.437 L495.126,229.437 Z M394.002,279.522 C394.002,316.728 411.492,335.331 446.472,335.331 C465.234,335.331 479.385,327.699 488.925,312.435 L572.4,312.435 C555.546,368.403 513.411,396.387 445.995,396.387 C425.325,396.387 406.404,393.2865 389.232,387.0855 C372.06,380.8845 357.3525,372.06 345.1095,360.612 C332.8665,349.164 323.406,335.49 316.728,319.59 C310.05,303.69 306.711,285.882 306.711,266.166 C306.711,245.814 309.891,227.4495 316.251,211.0725 C322.611,194.6955 331.674,180.783 343.44,169.335 C355.206,157.887 369.4365,149.0625 386.1315,142.8615 C402.8265,136.6605 421.668,133.56 442.656,133.56 C463.326,133.56 481.929,136.6605 498.465,142.8615 C515.001,149.0625 528.993,158.046 540.441,169.812 C551.889,181.578 560.634,195.9675 566.676,212.9805 C572.718,229.9935 575.739,249.153 575.739,270.459 L575.739,279.522 L394.002,279.522 Z" id="Shape"></path>
                <path d="M809.469,221.805 C794.523,211.629 779.418,206.541 764.154,206.541 C755.886,206.541 748.1745,207.972 741.0195,210.834 C733.8645,213.696 727.584,217.7505 722.178,222.9975 C716.772,228.2445 712.5585,234.4455 709.5375,241.6005 C706.5165,248.7555 705.006,256.785 705.006,265.689 C705.006,274.275 706.5165,282.1455 709.5375,289.3005 C712.5585,296.4555 716.6925,302.6565 721.9395,307.9035 C727.1865,313.1505 733.467,317.205 740.781,320.067 C748.095,322.929 755.886,324.36 764.154,324.36 C780.372,324.36 795.477,318.795 809.469,307.665 L809.469,381.123 C788.163,390.345 767.97,394.956 748.89,394.956 C731.082,394.956 714.1485,391.935 698.0895,385.893 C682.0305,379.851 667.8795,371.1855 655.6365,359.8965 C643.3935,348.6075 633.615,335.0925 626.301,319.3515 C618.987,303.6105 615.33,286.041 615.33,266.643 C615.33,247.245 618.828,229.5165 625.824,213.4575 C632.82,197.3985 642.36,183.5655 654.444,171.9585 C666.528,160.3515 680.9175,151.2885 697.6125,144.7695 C714.3075,138.2505 732.195,134.991 751.275,134.991 C772.263,134.991 791.661,139.443 809.469,148.347 L809.469,221.805 Z" id="Path"></path>
                <polygon id="Path" points="954.954 214.65 954.954 387.324 868.617 387.324 868.617 214.65 839.997 214.65 839.997 142.623 868.617 142.623 868.617 69.165 954.954 69.165 954.954 142.623 1004.085 142.623 1004.085 214.65"></polygon>
                <path d="M1129.536,142.623 L1129.536,387.324 L1043.199,387.324 L1043.199,142.623 L1129.536,142.623 Z M1037.475,48.654 C1037.475,41.976 1038.747,35.6955 1041.291,29.8125 C1043.835,23.9295 1047.333,18.762 1051.785,14.31 C1056.237,9.858 1061.4045,6.36 1067.2875,3.816 C1073.1705,1.272 1079.451,0 1086.129,0 C1092.807,0 1099.0875,1.272 1104.9705,3.816 C1110.8535,6.36 1116.021,9.858 1120.473,14.31 C1124.925,18.762 1128.423,23.9295 1130.967,29.8125 C1133.511,35.6955 1134.783,41.976 1134.783,48.654 C1134.783,55.332 1133.511,61.6125 1130.967,67.4955 C1128.423,73.3785 1124.925,78.546 1120.473,82.998 C1116.021,87.45 1110.8535,90.948 1104.9705,93.492 C1099.0875,96.036 1092.807,97.308 1086.129,97.308 C1079.451,97.308 1073.1705,96.036 1067.2875,93.492 C1061.4045,90.948 1056.237,87.45 1051.785,82.998 C1047.333,78.546 1043.835,73.3785 1041.291,67.4955 C1038.747,61.6125 1037.475,55.332 1037.475,48.654 Z" id="Shape"></path>
                <path d="M1270.251,263.781 C1270.251,272.049 1271.7615,279.6015 1274.7825,286.4385 C1277.8035,293.2755 1281.7785,299.238 1286.7075,304.326 C1291.6365,309.414 1297.5195,313.389 1304.3565,316.251 C1311.1935,319.113 1318.428,320.544 1326.06,320.544 C1333.692,320.544 1340.9265,319.113 1347.7635,316.251 C1354.6005,313.389 1360.4835,309.414 1365.4125,304.326 C1370.3415,299.238 1374.3165,293.2755 1377.3375,286.4385 C1380.3585,279.6015 1381.869,272.208 1381.869,264.258 C1381.869,256.626 1380.3585,249.3915 1377.3375,242.5545 C1374.3165,235.7175 1370.3415,229.755 1365.4125,224.667 C1360.4835,219.579 1354.6005,215.604 1347.7635,212.742 C1340.9265,209.88 1333.692,208.449 1326.06,208.449 C1318.428,208.449 1311.1935,209.88 1304.3565,212.742 C1297.5195,215.604 1291.6365,219.579 1286.7075,224.667 C1281.7785,229.755 1277.8035,235.638 1274.7825,242.316 C1271.7615,248.994 1270.251,256.149 1270.251,263.781 Z M1179.144,262.827 C1179.144,244.701 1182.801,227.7675 1190.115,212.0265 C1197.429,196.2855 1207.605,182.6115 1220.643,171.0045 C1233.681,159.3975 1249.1835,150.255 1267.1505,143.577 C1285.1175,136.899 1304.754,133.56 1326.06,133.56 C1347.048,133.56 1366.5255,136.8195 1384.4925,143.3385 C1402.4595,149.8575 1418.0415,158.9205 1431.2385,170.5275 C1444.4355,182.1345 1454.691,195.9675 1462.005,212.0265 C1469.319,228.0855 1472.976,245.814 1472.976,265.212 C1472.976,284.61 1469.2395,302.3385 1461.7665,318.3975 C1454.2935,334.4565 1444.038,348.2895 1431,359.8965 C1417.962,371.5035 1402.3005,380.487 1384.0155,386.847 C1365.7305,393.207 1345.935,396.387 1324.629,396.387 C1303.641,396.387 1284.243,393.207 1266.435,386.847 C1248.627,380.487 1233.2835,371.424 1220.4045,359.658 C1207.5255,347.892 1197.429,333.8205 1190.115,317.4435 C1182.801,301.0665 1179.144,282.861 1179.144,262.827 Z" id="Shape"></path>
                <path d="M1522.584,142.623 L1608.921,142.623 L1608.921,173.628 C1620.687,159.318 1632.612,149.6985 1644.696,144.7695 C1656.78,139.8405 1670.931,137.376 1687.149,137.376 C1704.321,137.376 1719.0285,140.1585 1731.2715,145.7235 C1743.5145,151.2885 1753.929,159.159 1762.515,169.335 C1769.511,177.603 1774.281,186.825 1776.825,197.001 C1779.369,207.177 1780.641,218.784 1780.641,231.822 L1780.641,387.324 L1694.304,387.324 L1694.304,263.781 C1694.304,251.697 1693.4295,241.9185 1691.6805,234.4455 C1689.9315,226.9725 1686.831,221.01 1682.379,216.558 C1678.563,212.742 1674.27,210.039 1669.5,208.449 C1664.73,206.859 1659.642,206.064 1654.236,206.064 C1639.608,206.064 1628.3985,210.4365 1620.6075,219.1815 C1612.8165,227.9265 1608.921,240.408 1608.921,256.626 L1608.921,387.324 L1522.584,387.324 L1522.584,142.623 Z" id="Path"></path>
                <path d="M2001.492,205.587 C1985.592,197.319 1970.01,193.185 1954.746,193.185 C1946.796,193.185 1940.3565,194.775 1935.4275,197.955 C1930.4985,201.135 1928.034,205.428 1928.034,210.834 C1928.034,213.696 1928.4315,216.0015 1929.2265,217.7505 C1930.0215,219.4995 1931.7705,221.169 1934.4735,222.759 C1937.1765,224.349 1941.1515,225.78 1946.3985,227.052 C1951.6455,228.324 1958.562,229.914 1967.148,231.822 C1990.998,236.592 2008.806,245.0985 2020.572,257.3415 C2032.338,269.5845 2038.221,285.246 2038.221,304.326 C2038.221,318.636 2035.359,331.515 2029.635,342.963 C2023.911,354.411 2015.961,364.0305 2005.785,371.8215 C1995.609,379.6125 1983.366,385.6545 1969.056,389.9475 C1954.746,394.2405 1939.005,396.387 1921.833,396.387 C1888.761,396.387 1856.166,387.006 1824.048,368.244 L1855.53,307.188 C1879.698,323.724 1902.594,331.992 1924.218,331.992 C1932.168,331.992 1938.687,330.243 1943.775,326.745 C1948.863,323.247 1951.407,318.795 1951.407,313.389 C1951.407,310.209 1951.0095,307.5855 1950.2145,305.5185 C1949.4195,303.4515 1947.75,301.5435 1945.206,299.7945 C1942.662,298.0455 1938.9255,296.4555 1933.9965,295.0245 C1929.0675,293.5935 1922.628,292.083 1914.678,290.493 C1887.966,285.087 1869.2835,277.0575 1858.6305,266.4045 C1847.9775,255.7515 1842.651,241.044 1842.651,222.282 C1842.651,208.608 1845.195,196.2855 1850.283,185.3145 C1855.371,174.3435 1862.685,165.042 1872.225,157.41 C1881.765,149.778 1893.2925,143.895 1906.8075,139.761 C1920.3225,135.627 1935.348,133.56 1951.884,133.56 C1978.914,133.56 2005.149,138.807 2030.589,149.301 L2001.492,205.587 Z" id="Path"></path>
                <path d="M2345.886,192.708 L2376.891,192.708 C2411.235,192.708 2428.407,177.762 2428.407,147.87 C2428.407,117.978 2411.235,103.032 2376.891,103.032 L2345.886,103.032 L2345.886,192.708 Z M2345.886,387.324 L2252.394,387.324 L2252.394,27.666 L2401.218,27.666 C2441.604,27.666 2472.5295,38.16 2493.9945,59.148 C2515.4595,80.136 2526.192,109.71 2526.192,147.87 C2526.192,186.03 2515.4595,215.604 2493.9945,236.592 C2472.5295,257.58 2441.604,268.074 2401.218,268.074 L2345.886,268.074 L2345.886,387.324 Z" id="Shape"></path>
                <path d="M2567.691,142.623 L2654.028,142.623 L2654.028,182.691 C2663.25,168.063 2674.539,156.8535 2687.895,149.0625 C2701.251,141.2715 2716.833,137.376 2734.641,137.376 C2736.867,137.376 2739.3315,137.376 2742.0345,137.376 C2744.7375,137.376 2747.838,137.694 2751.336,138.33 L2751.336,220.851 C2739.888,215.127 2727.486,212.265 2714.13,212.265 C2694.096,212.265 2679.0705,218.2275 2669.0535,230.1525 C2659.0365,242.0775 2654.028,259.488 2654.028,282.384 L2654.028,387.324 L2567.691,387.324 L2567.691,142.623 Z" id="Path"></path>
                <path d="M2873.448,263.781 C2873.448,272.049 2874.9585,279.6015 2877.9795,286.4385 C2881.0005,293.2755 2884.9755,299.238 2889.9045,304.326 C2894.8335,309.414 2900.7165,313.389 2907.5535,316.251 C2914.3905,319.113 2921.625,320.544 2929.257,320.544 C2936.889,320.544 2944.1235,319.113 2950.9605,316.251 C2957.7975,313.389 2963.6805,309.414 2968.6095,304.326 C2973.5385,299.238 2977.5135,293.2755 2980.5345,286.4385 C2983.5555,279.6015 2985.066,272.208 2985.066,264.258 C2985.066,256.626 2983.5555,249.3915 2980.5345,242.5545 C2977.5135,235.7175 2973.5385,229.755 2968.6095,224.667 C2963.6805,219.579 2957.7975,215.604 2950.9605,212.742 C2944.1235,209.88 2936.889,208.449 2929.257,208.449 C2921.625,208.449 2914.3905,209.88 2907.5535,212.742 C2900.7165,215.604 2894.8335,219.579 2889.9045,224.667 C2884.9755,229.755 2881.0005,235.638 2877.9795,242.316 C2874.9585,248.994 2873.448,256.149 2873.448,263.781 Z M2782.341,262.827 C2782.341,244.701 2785.998,227.7675 2793.312,212.0265 C2800.626,196.2855 2810.802,182.6115 2823.84,171.0045 C2836.878,159.3975 2852.3805,150.255 2870.3475,143.577 C2888.3145,136.899 2907.951,133.56 2929.257,133.56 C2950.245,133.56 2969.7225,136.8195 2987.6895,143.3385 C3005.6565,149.8575 3021.2385,158.9205 3034.4355,170.5275 C3047.6325,182.1345 3057.888,195.9675 3065.202,212.0265 C3072.516,228.0855 3076.173,245.814 3076.173,265.212 C3076.173,284.61 3072.4365,302.3385 3064.9635,318.3975 C3057.4905,334.4565 3047.235,348.2895 3034.197,359.8965 C3021.159,371.5035 3005.4975,380.487 2987.2125,386.847 C2968.9275,393.207 2949.132,396.387 2927.826,396.387 C2906.838,396.387 2887.44,393.207 2869.632,386.847 C2851.824,380.487 2836.4805,371.424 2823.6015,359.658 C2810.7225,347.892 2800.626,333.8205 2793.312,317.4435 C2785.998,301.0665 2782.341,282.861 2782.341,262.827 Z" id="Shape"></path>
            </g>
        </g>
    </g>
</svg>